<mxfile host="Electron" modified="2024-05-23T06:40:22.226Z" agent="Mozilla/5.0 (X11; Linux x86_64) AppleWebKit/537.36 (KHTML, like Gecko) draw.io/24.4.0 Chrome/120.0.6099.109 Electron/28.1.0 Safari/537.36" etag="Cn1YQNqILLRSLS-qF8Zs" version="24.4.0" type="device">
  <diagram name="Page-1" id="smcyS1_OsrqL-itrZXm6">
    <mxGraphModel dx="2537" dy="1024" grid="1" gridSize="10" guides="1" tooltips="1" connect="1" arrows="1" fold="1" page="1" pageScale="1" pageWidth="850" pageHeight="1100" math="0" shadow="0">
      <root>
        <mxCell id="0" />
        <mxCell id="1" parent="0" />
        <mxCell id="W9NqB_1yz0REtI6bM0Fb-2" value="" style="shape=image;verticalLabelPosition=bottom;labelBackgroundColor=default;verticalAlign=top;aspect=fixed;imageAspect=0;image=data:image/png,iVBORw0KGgoAAAANSUhEUgAABfgAAAILCAYAAAC0H/3XAAAABHNCSVQICAgIfAhkiAAAABl0RVh0U29mdHdhcmUAZ25vbWUtc2NyZWVuc2hvdO8Dvz4AAAAtdEVYdENyZWF0aW9uIFRpbWUAVGh1IDIzIE1heSAyMDI0IDAyOjM3OjQ0IFBNIENTVBRc5wAAACAASURBVHic7L153CdHVS/8rX62yWS2ZLJMyMISErYkRDAQlg+ELUCAAEZZAggoXOH1Kl5Wr1fuK76oILKJsijgRUQUXmWXJYQkgIIgEkhACAkBk5CQyTaZyTMzz/P8uu4fVafqnFOnuvv3zEzGIX2UzO/prjp16tTZu7ranfSCv/ceJTjn0r8u/IBzDn7SArEHtfEmBrpP/9PQpl+8v2N4DYQJk/c+9HPOHJ/j4HR679G4Bh7hN29Hfzvn0LZt6uvZfJumSX8nGgBx3Sma9Pj5uk+s4X3hazxTc4w84bjznDw82jQfa64WrRb/7PUNdOp21rxDaxe6VGSFt3fOwaMFkPlM12t01Xhs0RIaNr1tLdkYMjbnudW20BsfVqsPv6ZDt9Hj6/Y1veqaG6ePg1irQvbqePUa2uABl8ez6cvyR3rAdZbPo2vefD59ctapK65Nba31JptCetC2rbqOpMs1WjXPa/Pogi48un+XrvbhlfccYKCaTJhddYBrtG54tD77m6aZTfcSbQ5omn79n2YeBHztLH5nOQm0eu9NXQ5tGwDOlA89rqaH08GvD5lnsZ4+aDL3V4Btn2tjd9Lb+sr8B8ql15ambFcDawxtO/rA1InIGz2+9z7EK01THY/bKvqby65ztv5ZPqUPuE2pQZe+W6D9WBPnWvM1STdCZzMOs+joo7fL9+8JdNnOaceo+WVXQdOiPralB10xZg0PX7t6HFr6A77Wek5dfnyaWHIIv4fGlwCPh+3cQvbJc3O+Hs9FLDAdmDFGd87TDxavSp+dY2M4bpuG61qhp6yJkAM1DW4La/gT7mzm0CD60YhT2Io0t+71jV423mugCaGYAfBmf4tWC4+YQ0XPSrvUinakOxSTAijsQJ+/SjxySLZ0aJyTcQdZ1Lxerf3sjOdjrFbitvWh00+FQEpCMyBvYJ0yHXL8Gt9N3xXZr3M5HrtzvHJ9gp7WfCDNs+CWs+sHAWyb7Hxrt9H6a6y/sC+e2hD9SPJnjatx83zQGleDtgNcH7tiYgvvkBhzKFj52NB4m3igZYP43DSNuBeQcwkNcjwk3ilykyhPXbZimni4HM9eH9u2BRky48NKPGfFBLV7gIM38Xh4JsfJJjAeD4slpe3k80r5Hrtem5ueT6qnMHtW8C8gqupRzedq/2Hl5GasAxSWqDYH5xzait1yQo5L+oByruYYjJdtpY2w7yxW5fdqcqnXj/A419j8mSJv8r5Ncs9loW1bkaP1xb/V+IXFfH26Netck+wYFxISjoSQrpkOtPw79C1spGpXN+A6kOwSNmvsGl183M4ihEfBRO7Q+SJxY14Y3MpvlxapHozW6EjrFP5I10TARcGJqwepXeNqI1EEiG1plLVT6ZyXnqamz5XXu5zAkHGEAjQOVctBbeDSgyBrrkPmYvUVc/XZIXf1qQyUAlGdkPTRaenuMKeXwaFDf1Dyqha4Fvzh/63R4ZF4B+fg27ZwbibNBq9q9BdDevkgI/8PCKW+ITLvi6i7FuzUcFlJVu2+pl+PlZMzH1nKxg4NTLp4Xy1vxTqERSpobRpE+xbHbitzcbl/OUcfTWCPvFRAO8i+gEjf0+AZHVIWpys087GsOelkdDAu6qOuF7+V8+7y9RIZswvWYBF3Cs20v6zQzWmyxq4GQ8b9vvXs07mucehvqQ81PPXYYFp/LXSLrZ2MacqArM93arp67Wv0mTW/1Ie/iw5rjhbeoYl4F4QYtBah2rGIJVcuxs4mXbWQz2iv50mJAqcVMT5dTeLgkGWhy6dMa1+ngS5/zGMifo/34fGwtXIiIUQLslR1/dTrbMdlNq9Wxy/LlyrkVaFkojYsH/I+FEh8aaiDrzB4aBRetbw4lnvETgxxd18L+Ppmmup8HWLPs46V7tNKlDkuK58s9MN2tKJY3Ec72Y5iND8wJ6n07RvXsvmU31JxsqgRAKkoI/G4anhSW3udP3XZsyH+UE+5LzfwcS60hNmk9G9QqtluXeytQbed7fJIJQ0UN1v3irjL+yKfyzdh2oLauJat7lvHaWBoTqvb61ioNrquPYUcRsasNajJpqVfQn+NpbXqBHSd5LCIfaqUlbCa9eC5Vr2NbaOnXbfOft7HNNq6V8EzxZhlj26wcseaTU0PYfJNSJV1Rfw+xGdY+b2mw/qbhjRjgNq4zCb02fByMPTGEAJP7XqkYWhaba3P0FxyyH1L93U9pWmaQi6G5vBSr+oP8PjvWYE2RYhxBfjv1Lt7cJ3Ahl0lVicbUR4xq0AKijQTlAHtEhKZCOh5OUib7hEe/ZQBE0+ghKC0vjdh47TmAHqAs/AwF9NyIEnJ47wcaJrUNq6xzz+Z52KD0+Vy/SgI4lwkIc0r1s+H2n1KEDxiAC5wlwFbqag1o+/yb9fv4Ki4bxMb/zOFAa6h6SoSmH1YwtN0BJxVA01ipeQoyA5d75ZNa6yEw9jlRZcSTY7JVTI3XH+Jdia3YYBQRGIOaZiRZm3S0Hy8MlAS9oD/dvra8ICd/7dOa8bKC1qCG8baTuOYCgfEqwMRPOLOvmTnGOm0ZvRHXFOf9CzTTePo5IICW598DV/LnBgSra1Po2X6Y7FmlbmCCTxIsoJxS2KyHbXWgOPyidWukKOETSSnUicDPssVDuFBn4xwhLWWNR+k20RKy3vDKOikyS5C0j0ahe/k4e3cVIFV1kGaj09+Sc/FKpJGd5YWKA+Zi2hDkn4+hr6uC50mNlcWmJwUxkHQufY6XKwkvDW8fQUbGTD7Qua7/Gdhf8oW4reHnURPA1JvKfCwxrPB9KUGPXzNa29y9Bb3enS6714vqGRH0yZp5nyzaehO1Cz/b1luJ2TWi/Z8zAa0o5XipC7aJA7uNPuhs+jNchiXCLftQC8UTiT8Z1hvvZa5QGh7tPhfX8pz0m2GjTB37yos17yPw1z3Q3jpO5ZH2xe+nmSPSvPpnDP6Mgx0H7YPyaQ4wKVdEAgxcdnKIn5P4qHMm0CxjHgkD0TRIfldQUmmTagf91VO/F0QAx7vKexcVyIJWT+Z//WVPgWtnGrm59kaEz7rQci0MTkfMMXXzCR1y7u8k2Vm2JAmnZ4kE1I+PRujNDtIly3fRPwu4gyWV6CcZ143Q8+LeHc6G9sZMBsocvzmsu2tmmglA4XBA1IamZDXiKjoBRuLy57j9jv94BoWx3YujyGUA+VSsHjVWgvrlo+Ko0WlXpOwZUNNRI4n7jnZhMkNjemdNPc0bj3/1hY6bfk021tQrU2w60HP2W+UyxBy6zY3FjFLPW6r2U1w/Dy/nwZ8xu/i/wVDUXN8w3XUa5nl/UQthcmxaFn2tnNGLo81b5ypKtsY/OWLCSbartFeOtxrwhxUGK7wK/0gOfDMg4paTvg5640ny43LgQQ9KeH30xhG8lYWor1oayUeBU5nLWS/WGjcRIMIQpxUTwrGspEM7VxD/RltlbkTcfr19Yw/96FxwkOBrifb5VMZekVbP2QQxwa1Xh1Vwhw3M/iAS9eoCMIdEQ+Umhm5ayPPjdB7pr/yVRkAxetoQxL98C/JbzQf6ngkGj8Z8CS0pDBqd1cmAO1EJsESb3m8TrXg1zEHWhtOnxUU6nkP4ZFuw2nu1TGUtDCs8CD5QTjOStiC8o0DS34dslymV5aamWB72ijf1DfxVDp4IY8tc7LOoYlOjstWHk8eL9C2bfDsKZ1wQEM65WIbpW9t9KMuvu0B2V5x0+BjNxQFdkYryUxaU+/R8iSY2QxtUxJVhqzx9lqOeZt03ZOjTeGZaNN6uZNL+gmyTzMs4ZK0BZprsbZnbcs7zjWJspbd13PTfknMT/FP39P0skEkTh94E+yUBdSf221Nk7T1fCjin+RZXk+SGcsa1eZZL/aVcw/r3nT0kbagVW/TdPG277q+x3GWeLNfyj60hUNj4iGZrT3ILeyo90n/UhsgHTlhzSPTa9sJB9tWSx2R8yT/r+2c7l9Lpgq+9fgaofPqGDSBx6Bf368F2DUeWDTwIrD3EylntEaMrzU+ZD9WxluZhuKSoKHPbuSRPJkIE7ns2yTclo/3QHXdeayh598Vr1tzM2OdjthCx71DYhsrzsrrpe8lKnriI+tetJtxHbJP8ow/fDIIsiR0sImxjEdYo2hfuG+Nw3tvvx6ayQ4+siYzNfuZYhnHCzk9x4B0xJyaMLLfvK+wuYk1bY7zBD4ezzH5BlgBwIirKXnm5hbRz1PMJfSFHVPEpkBxS6fPiW1A66WKaLKvXMe2zcU9ad9CH54DEq6cgxjxGOtL/SjOc07GFHm8IDt6GTM5JMs51qAG1hwFvT63pSiubVfSukwmKyIG4Q+9iO9JXqgcFmNvwVfmq8HWLRQyuG0LeV+OtQzZYte47ZuZ4TrRHWNoXdaQL/t4tGSOcXmOl9vzhzH0kMYY34MVZ4J+hPykMdYdJQ7iGeXdA325Fadw3Sd7mHKLqC9AsKFJXmLOlex2JT4wKGG+n+fI8lgje90CbXasRX3z+vA4z+JFwlqJ4bL/4/E+K/JXbA3Xe5EZJLuj/Gyiifvt7mOeijzQ8CtZG5k993k+mZe8JdNrkgEW2/Oxwz9N4i/nXsqdkW1L3f84eG/5p9qpBB45r9fxTe7Nl5PH6sScEBdYsuBDvJBmJB9iV+NKz2MKW+acc+mIxkIOgZRXcJxtjFkcjU1zJj1FtLmW7zFYLuNf2H6z4jMcHGaYnXapnmhXQwhXbFziU+O6WHfyRGjBJ7kB0CmZD6qZj2K3bMg0+Wm2QyxOjP6ZNxI+mtbKlC2agxP2T46lCIi0+njUs/PxlBzGDw8v+DVbE9I+mDZRl4l5ICh0yIa3FtQOoaNrDkkAXBxQ9dc8oN+NaxJjuZDw1xWnpcVKvhDJshzQkARdFNDJWLl+Hnbd505HG4yuZKKIPyqJ3RCauhJJGspB0kdFST12YfQiv/uMsXagmg6ZAEo5CfT4xEN9bzV6Z/Gh61pt7br4rHWU9xU8j76B401JrsRI1LDfmT5aD33PmptFq/5tG3SGhxlBSlLLte8kRdDUReOQNebtZ2ZmijXiPBdOu2Osmhx0jV0DjVcnCSm475FH6cSC8AQH3m279W8eOBf6ZsxpqC8Z2o6gZl9qbXS7aderttbRzICEWvOsT2+G0FsG0Dogs2WCNcphcqV9H21DoZg/03d+v2s+1m8oPLFjYSumCxxL/9n3wHAaObeuyeTPCbM7yF9XgvjefiYqZssYLauNSb3hYzRd0+Du6zMtnXvaPsURbZu//eC9SACseGaobOgxxe84Vk13u2xf147HWh/rb369y2b02U9EWcm2UzfOiZmLhYeAk9u18gEMDN7nse1d3Rb9XddreUwKyDrwcbxdNqnqzwzapo1xzDl19J0Wf60/XzdUEnwto4Nsmc+bVaxYyeK15ZP5eEPkuQ6GTwLCcUyV8dhIyIUexTeDFSK+8F7wgomjQQwbUeVGtmyXbfv8YC0e7dO1oXLdJRv6XhN3aXI6+L9i7JQ39scMsng8PJa3fINts5CWg8uExmf1F7h67H9fzmbSNRBqNA7N06iuUIRqBi85XtPmadnt4Mtq4pRpwORFoq/Ea8bqRryV77PcDNnP1vneH7t1zaHaXsWr0/Iq6wfFmFkLHNnUit/votc5lEI1EIbqS6rZuA79VrRJfyh9hvSh1LE7Z0k1ob4cT+cV1eCMNYn/6rdWvY/f74vQxAemHjRPqYd9MDQOlbQNy/8sO2L6rnSP/1WOyTeszXKGDJ3wdIYnDKvJYOQWOKehoRZUWbhq8Qb1qSUFNcWwChWiXcVYWYo0xJlzevj14txVNyzAr13XsmDxZ1o5qQW6NZr02DrYoD+81wZJtylpsoo+lgzVCmOD5d97eArWpuTdNNAlv7oNjd8d6LJ/mVOujhMNPF+nvsKSuDZF7lJbG3K0PSEmLAFZzQ58osX6vSfQF3TW1qDPFk0FtXWqgHasXe0F94d8bacy3t5oszfGXS2vpwku+voGeei775OOoGorasnb8OSrSvPAdntr3QgPfwg/FLdpR3x5Mcm8uja0OGMXurpteFffVfGu0qU3oTKC9iHQZaeoWLF6WdtTnsiVt3RofwJP6kKML39bBaqhc6j65imhHIMCiFoPu6inP1o6PXTrkUcbiw6OJb8WkT5epo+901t8FMNbfDKMxZR08yIJ/03/VvbJdeIMP3mlqt7enhfDMWh+fC4WjzL05WY2bgt/nS/SB3Lc06yVlXh7sQGDxuJg1SpS4UPBEH5NDQOKJeU47HeHGU2y4mI+VsVXv57fjHEo3yJsEwE6JpH2rXsMdK53kCctS3ZzKqpb8b/kX6CR3shSNpz50Ey7Z+tk1yOITl6I7Sr62CD9HH9TxfLL4A8zvY8nHIS1GeQbu+y/oF3+W6vJCAyiTZ8+D5PHckyrSXyTgOxQLNZ3xfayPEzk9tHbt65EXJ8d7Lqu6eE0Bry1omOYafVTqKpd5k+ZPzs41yaf3L+W5VtcgVzVr5fHpS7nOpFuZuBxPIYYoIOeHoLSmz1DoMRNY5YVTtu3ytnU7Ndq/WKdTlAMRaFgBbeMaTwkrtxH/pf8GkmYU/0pJ4s4vEeILVtmQ4fkCMN4IVF5VuLoltPhJcXp1mR2CIJ9ltj4vLuZYGjhuNOIVgqz8VfRlv/L23vfhlcyWeJkOhfmtK02EqcsUE5T9A4DymK5V2N3wdB21DYVTVXg2nTwXSqxnEfnw5CBtIu3PQDhULt4uafJrS6Q81fV9Icz0nwqRRhrTa2ErVZAsR6EdI2xJ0VI+BxQVg2i65Z7/kTRhLiQ1qtMzrn0Ya/eNawUMHNSF48ZcYGq1E+TMyBgrRX3BxcRO3RoCD5Ll/oe8AyhTyYf3W21XRwkZ65Y5f4+irY0Jhxc44ojwKgtp2lPfVjfOkzbr69dnwzU7mv/MoSOIUGOtn9d0FV87hqr7rPrNrqLljxmfsWY9+3yFc6471QbJPz2q/1DC/tD/Y/u38WvrvFrMI3NA6LmDg6QV09XV38Z10l5H04X9c3JcZcMW3RY9602VnurGNhZUeNj8WRU2braHISN17YjE9ALJX4aN+MbCiVvB3cVww97QMaTxgqdXucGLTx0nOlTLAiUb/ROoxdd8Wamuf7GQS2/MaZlIhgSB3XxaYi+dOIx+nTJ6WohFZJM+uw3LPr0aLiPL4+508NNEy/05cFDoLA9vrw/BH+gB+iK54bGJNz+1WRA02/5xEJOOudReRNvoE/sy02cK4+V4T6qsN+G/9IxS+kHh8mBRQO3Ydac+JFKPo3n4VtZG5jWb5Z8I1xh1BroMUmvAb7ZxRdtNR19/k7Iq4Gj1r9qszrsi02fT8vaZW+so22s9labrtqMc6osHHXCKxxa9pJ8sIZ0TExHJsLWsztfyQPJe3sjBqb/tQY+VOKsrnhzqO/qo9UaI+Qq6M/VPVAwK5Z3pqmZrcbfEI195qmMd+S/NplcxmvHNJX12badfg4JWyX37s0P2Ns6JT49Oc0w/RB4GI2z0yiANgZdbfSAZbth43GoGachEJxmd7GnfEW8v2hMif6MQadVrOPFFx289BUxuvgxpBjSdd+aG8CdObve49B5W03/nib3kg7pWzN+KX81R9ftMEtZqSm2tS59xl70VwrbJQvW+F3XunCox+rKZlAiFP6trpu351uTfbqn+UAnyBU0sv6WszHnZQGXhWgLajzss29WH/G3Hq+jfU2n+3S91q6GZzXJtjW2hXtv6HQfz/R10n+LPt2+z4/U+lrJVx+evWnfugoctXWdVnZlnxxESLu9Ovqp8/CYoNu+DQUrgfS+9Mu1JMwcW+Gga+kea9onNz3EC59rBe7WUTbWPLoC0ZotHZJk1K719R1aABjKtxCKSBkdmkwNBcFDGpTR2TdO11z2lq0gXHqsmn3iMlPoZi1GYjKX73fb2FAMiOO26j7hUyxwjs5THT5ndqG/Ex+/q7k3kiivf7swL2OOHL9ty2S8YxZWxJqyJNAZdqFzLnxa3TG7vu+yoeH7/dRMenhpjCH612JlPseC9yU+Lm8az17TtWTyK3PwZTvNz74ij2kjjfXuwqX9Qi2WKDvKP0LejPht5NIGFH0r/NGgZSa9X+vCYEn+Y7u0tj63F7bHlXI03bpXHpbEMYVtpbzJq3lY9kLxo5aLUtsUl7BvffXlgtMCl6XE38grT9+YYO04TTp/FHZOr6nWiRrdls52xdweYi2KddHou/QNZIkH1F8sHwapY1ZOKmPh8C//rlsXcUnUFF4z32YPoNPa0CQNsNYnr2nHOk0helyGrHs8vphapl2JX+Yt3TzLwIrHXJYg11DHliTvvvWYtJMUu+h+yX4ho05rOi0vrfY9+tUbE/M4pSvmKXBMmaMNmGtRt0Ap551D+LJGLfTSQaxTL10h6StjYQD0EKoWywbbhCRTVOcr4nS4+J2aDIV+iyck5cNoDdS/2MFfa7w6h5KDWAnM87GW6BPEPYWKA5BEIC0IN+CrLaoEdEaQB/ssweysynMdtbGxjM/gQK6D1iFzsiAIKgonHwyZvbeqK0keVmzol5OuYMFKYGsOdDhN/fQMAS6uOnEnGbJoHKqvwuAwHEReYG+/gbWcs6QXhZEkOiWW/gcb8YKwFbwd1w1t7NMa0rwTcZnOPSksTgtDbdy0FO2LOQwtolsFyUE2ZahO+LKQ1YV/aDHB6rNaGzoUOGnlMFJfvK/RHtOTaArJZ1THjMj65rV6n2+MF8ekSVq2y+zb4W8te1wxCwU+nYhVg8EBtEUExb09KfKL+TKbxIPUTnqMv60xpu1T0DYA5+0BYcz+GAyYzjYOnUrfvIdFKV101HuLGJHrmOFvLbx9cpquJ7ZJfRP0dUyy3D7gU8wl4paUba5iM4gbJsO9xNbuO6S4XbRLdZJp6M0y682+2u4rvk/hlmRpfpWSKHir8rcpBdykoVK7qPcvc8gqbsIv6Ddiha7+Pfh1rCA4rtewR06niTuq9CT50XQNX6hAIxX5B8RN1WM67LWVtPkkA470zJQTVoxLv8N6yqM9wnWK+GOHCkW0NtKGFu3iupH8iYdwBr38WpJZitOiTXVwcN5l+adNiGjT0F6RSlGUmKOw0d1g2Vui1ZIX+r/WtzFHYnNzw2WqJvO6f9IU5QOEf0g424GjD6CvS7drnUSdsCKzxQh97TQ9VmvmP1hc28TjoAqedtVZTP9g+Ju01tUVM2dBTXL+zdjmvFDPzjiK5TjFeE7yQcuKN3W7mGrG0yXXrE7E/23YR2e55UlDcr3xdY5NA8S+Wj5c6IziMV+R9JYOMm2Ch4NiaNsvD5qLskc29vK6kD4hp1zmmGxMETyR3DSuKcbmPJI49Rw0zboWTE1KmdbUUJ+hxn42PRHtWRSeCFj37OQgU6kTcd3f2pVWS8J7n0gZQMFKClgULv40kxTGOfnKmoXTmjsvMFrFeV7c1/2GzN8qUPCiiaWIfQ8ENPCkkT+510/HdDAQgpXugsxqi2blnLPB7poHeRTOt9q61opJJs/Vmujicm0Ohax3iHCdX6WMWPLSRYcFnK8BRx67bcM5tNkfh3nwI1IsnqDjiaPQu0rhTV9P8QbrS2Q6o30572iOXcMMsydTK8btK2hZ+IOtri+qGWR5eRxR3xh9dOh2ffKgIemNwqXXhP6X9KFDtUt+ThcI1Gwgx8uPSRjKJ01j1997ds91tCntTq1/+WCT8d6SWZ8fFndDmeCZrVibLh4XgaQReHeN0QW1mKMmpzUc2o53DChDOMLpAPPoBS+Lp7xP59wqvpX+nqboOSwgL/us+uGPcUnHHTUcfX5T46QBaz5DkOWHyfW0tn4wODulqCVlXgX7fbGTJSca/5B7dfKzvdHr5lu1ZiqGj39047foibFnL11ctqaYk6aR5pgu+Trd2d8hfOy4T3Z7ZceJOCQlIWk8vca+Qlp/4ucIIQyZjn4ixKhIMWCaF2OOOJaM2fRBn9XRfB+4hpK/lM/Z9y0/lOTMI9PLeVALX4S8t6mfZb/Cv050dS7nk2wo0x8MjT05Hs6/Yq4KF29vjSlY6gOPcw5V5iqFnqv7wd/bOu7bNsUlcu3t2M7Fgm/SlPibYnriiJxPt0zo+Ys4Jc6Hr0IahWx0l53j4zMkKU+vHP/rGgc/sb9BkmOWPIRDOEBsWvtH+HzM60B+Mh45S7KubTG/51w+3qdXXmv0WWuk5JjkQ9AFy28Y8+vhyxBfSOJv3RC7bzvmAjAxMHy/6MPaaPJ0bsbXzgNwTTOI15wmXxxzmvWP3t7hNSExn/gfEeel32x+Ih9gOAqbE1oUcQ0ZaOFrWQ3AiJkE3pp/0fyt4QCz86qNJ/zxNz12omIsFYGJfx5R/wPShLsgrbKONT87JNYVd9rMb3ijgWHfAn55HCFQ0i99Q+V6pW9Nfmuz8m2bjsomm8R50cR1a6PP0ccp1uhOPt20OS58uL6wMdHXk64YophbRn1VuIu3NRo7OOG4uCwRzFLCLV7bGhBkyISkDLSGJhLWGDJY0v3LI19qiiETymSyFA9sqx3aeLTtROAox7F2LZDClnjzfHLw5BzSeNkneHZNFkjDvNv0O1YZFO3l3Fg8nu5xA1wWR1pGD59nVc0qeMpANt/3oq9Fr17z2nhybpSwMUdlKWGcW+hhvRrOEy9kR2GASPw65J7vzrCTDQ/Oj1K/2pBUFbJX6mGmyYn7ItlQ+hDsQZxqOIkuyaMIpQ026Gt5PTyTCymDgU6ApmPbnJKflt2hpFTqQB63IXuX2gQDHHiaA0pLZsuinb1GOmAbnKg50jPPHtfZPKjRRcFD0VPoZKlD+R6/Q7zhvHCqr0/rydd0CN1Szrt5pJMz6aPyGH06UVCmbFVfe93PorEalHUFXYbeBDw+2ZxqIgBfl4d4X9NRl1dL9kv7UZ+/LVtd/Wpt+uOQMjbgNiXrKtK/3AbV+g8rpHv2jz2uNSc9t9pYnJeWz7P+tuZs97GuS122uOLShwAAIABJREFU/XGgSSf0fbyyxV7yjPS/9j0DTQPhsOMvzVev5mTTq22JI6Nc6aPtYV3v6/agtD/WGLl9rZ0uMltyJYpI7H7NdiT7A7XWhU/IMVF2qRKnTKisdcixSh53mC225sDnbLQWc+OQxi/yKY6/RXiol3+TbbH0vy/h1rTVZC0ncDVZtD/aJ/KghMPylTW5ybpBfCttRH2thvg934HD1iudx8m20o5weYh/JxnmSIpFL8aXOYmkJ7SV/UqfWPbpyxe66ZF+vvRxcqw+fByE3xzkQ7piwHBd6kLNl3n1G8Z1KZfkt+l3me910611t69vyOGckCFte61Yt6x1MJzK/tX9Ztff6m5FVsJYjfIZWb9F7gifDTvjgEVDX/zDgXTDxWTTsGr5vuErhoP0ixZNQx5OhDC8L08x8iglC001titx2T7cIA9Ij3fpg9XWXOvrI2O6QGGkW+calRxP5twSr5hHgZPPL/e38gA54+F2s2aXSH81NSWPPLiuZ5y8fWm/ZB+dw8m5SJrkbxH79ciMoNejymsNPN+z4wjRWt2jPjXbXcPDr5VyU7Zz4t9MN+UCvIaXbUe2Zzb9mhadJ1q5lUdNruT8y/nqTTLGNwS5bOlif6LTJdpA21OVTes8omfo08/hwWvZd0/G7gqd+tpToFvQrxt5SeuQuUphqM+jL5G1jLuVlE2LuwY8wOhyDjoQckEjwt/J1cR7PYW7PZ3LNAUjjs+aRxe/2cXe8aaBIbtZzX7VgKn+twVdhYWwrKWW0ZP0rmKD/FvjVf088R9iXawCXzVQYSSmvjp/C8Sn3QgpEFfJGcsBlVOdfu0H66GeH5D+nsbm9EnT1PY65WI23y2Hy/+WSctepCuOYfmAoba6VtgaCtP0sdoNtmt7aMvFmAP7Tgt7GgOstr+kAeDBk7QjUk7NZF7ZEBGMT0HHtLLUrx/SPnUlSDW8NZ+u2/eBlXx0jT8UViNzNMbQriY9plnf85hFtq0vV9/aW/ZtqD3l/2qb3WWXq4VJnqPzookeI3VliU4lYUv4YpKTfS4lbcXskdanI3bJza02usDvkL8C15r2AOB895HeUOjzaaOrUcxIQ/bJlCyiWEC8sUosXfIg4hgeq5t9Mn7eR8oT5x2/78p5ityg1KyEt5LMVXMneJOlqX1XLOQBUNwnM2lTXuq8tWWLX086AsAPwN0nu0PzkdXaUxTD553BvQ8/vLGEziUW89jWubArMvGFyxArsKQCows62mWveDGS8jlh/2r+j/IAy1D73CZ2pLINi9FDTsHzCHEMoXfhgYCSL0f4uE9N99g7Pcaa8yve27JlzTPFPG2L1ooNvM+2WPGTiG69XEuhc5yHBc84KQ10EY/kzH4AlMeg3bm5Xd12ZvpItuoy0Ak+r2VxK03X1tf0P8Rd3Nw+FD5W4hA73YGQj6tx8jw8vJ+wONHGRfIpeUFOjP8TbWTrksyZdqWIFfj6VR7G8Gu+EoYxLNZDE2OKVeiKdcyRSe45rS7yv6CO7FnicPx/X+LqAKJE6jbDkfQJkn8F6bmuQWFYfx2OSZo29mZXmVNxGUzSo2mskGytTa3An2gz9Lilh1SQtaPQzad7Jm3mUN26GexdJQaIPqyhOpS674gGIdfsN/cJYilc1N/cPPOvpGWqj+wOSSzqoPv59JSwu480BABfHHoBZljiSjtS81NKpjC8PQmud3AuHpnhkZSG46ViJx2tYRWJLdrEGxP6CY1XbTxzwm3+bX7cwTO6FFTXjuYWJafkj09LoRPD4qGDjw6E81zPmS+pUTCoFW7Nv6ECFCAmXPw1y0xFKvxy0WJz4+NXkwtTaTPfiQ+D+tbE36DHatNVtNEPL8wirOYBgLzs3nYkTspsw3aCaJxZlmDyJfWjgc3hrMxCrrvglWcBtiE/KSx0bK3E/FnRiAeR3iN+sr7kJxtHOBE/UJ7i/bYtd7AOtbm97ToStRquHFO4vIZEN9jDGDhbzrQt66DXklGzrWfr7OTrqOGjh/3zFPNISU9df/g1MRcKnpgdtuYa6kcDo1HYOqttZV/BlifKfD5Et/W7T0brBA+8xm+TjCl+1fyyhT/JX7I77FVY0P2mXtyFwdcm+z/v885ZIf85BCl9CbXjgRkVVTtiDnt9+S71EO2EafpCFtu2hWvkK6OaF1Xg9qtLrnrWxJIxaTMgExXdv+IDLHrCuoddy3YSyXDy8YQpYTZ6oHGUhQFbvyQ93W+aEpUZT/7bA3Cs8JFsLZtzSui8vKb9v0Un/1vKn0qw2HTauEOwjA34OrMxvYzy9W7BYoD0t9zFmpOY8gFETbZr83aiWJiTVanMJW/ysJE+RrsT7fRa14W6N84rO2RqU5JHY9ixhi1/JU36zQs4l9bZSuL1WGZ9X7UT+ZpqPzy/NGjvkAGx9vSftI4MY8/4kocuyXYtZuuWcWYKe8adSr7VvOjeanJ3l2IIn1jTN6c6aJo4Ls/+l3U717W63tay6OD4dHv7ZIC+uUj7mK+FhweQssP/VvR1FYIJGh2zMBsqY2GKdRsayCi4lcB5xmuHso/0YeVasXsKb6ChaxduPWCs5wHk46jOQv5f062hZfQPaW8RjXwsk3XblX5JrqlX8kCXi0BQ/il8ZyCiGqNDxyZ8GMVbPQ7RqHUUSLGGtW7M47Cxm9S2WqjlOFieonMB7qP7bemwjTKyT6Sd/mZ6jcin2tsqfFyrnevoM5RCmrKDF8fy1OqmIe6LbVg+q+uW9uD2PFM9I8UaVB+xZIJ8RTGTjvTX4Gl2Now82j4cH5XpOiQdFxnzAponfyDIP25djw3L/ITnc1ZtU8+Hxkv5I6QsM8QsxmyVIXbpv2rmBX207iEszzdmueInRqlEUzOAg04kkAioKEKirDwaSDIBxXWLoc7lIzdE25hMJyY72pnC5unKhZa0RmdC/fQCE02eKRPDWfCyomSt8STbLC7xxC7mJFzYajzSeIriEPs/bqxcE8ZL9LmSNvE3ObaCjx3rCj/ovv03o1z0bwR9gpY47Qk7eonmlorRimaRNMe2VjKd1sDTB4kkPk2/5p+eJ+cNx9WynWLiaSWT7eRwBiQQaZ6R/oYViar2gaGj7xnQdc6/xjVoomF1CEa49S1SacoINjgtXfQSpEJX1Akuz6I9C5aIFs3rjFT9S2O7ih4Zc+DrYNnUPBSTN9K9SnCfryHJrCmnFRnWa5ToVHQJB+XYjiGiD67gm8XHuhOMk+iRT2tOALOZyskFGQgc1d8yqNn5bLd873U+L1onvl6a3xkXVADVDTW/2yVHJh5uQ0AFQhTrFsbqwmLMC1J3Nc3da4+89rDnas2DXSj8JgWXGqdHC3unRWnHdaBu2gXS06hLIonh/FD2WNvUNJ7vkDPfouvYGqH/yLaVz68LdOLHfSTFE1YsY9FhzUHj79ODLnnXdrBBk74PlOjkgT+3931xyBBdsvzOgHXpGoMXAGR8TDQ7MvW5j+EbtT13Tn7PpW3LGNOGUs8CUra2kbeikffpkihqgHjRpj5BFmwxoNCidqwR2JGBw+bDIMVQpFe+uJdxhflIP6zjuJC88Z1jyf6swtabQQQnPysm68x1zvXi6PMfZc5iYhF3ch85vnNOyR2lqSy4MvxHH02JhqJv1pQyCmGxuM9XAclXi4IUp0LrkeRTzRZYslor8tbnwOhR+TZR2RNpib7Vdoytya6ySCj81wmedM7PO1bAY3Kq9Y3z3qX/xJiY2tbPXs/+x5gQw0MyyekRpThv597SDXk4NJGuyA3vwfbsR9S++O0NGbPkvvWTFGPrNmZu0AKsQFHY4NDUJR5AxSF8YxGXQ46H3ubWOTgV2b3C0W1fSlul7Y6U1eg/nAN8ePMjuB3rITCPTT3k22NtHtewhf1F4hLIZ1F/PRcC2s3L48ViXSs2KMzEpzlz0LUvPg/2HojKTVzQTWED2yJ+yxsu6p/QNull9TOLTk0vt8bmGN4b/pdEQuqDxJvpqeVU1K+0HXJutt2NFkDJjbUm3LZTmyExNfXsfEOQ2kcd1zTqeXXdKO050cpbsdhU8JNip3KQ6bQKya4W9AHhbTHvhRwA5Cry0epyzT18O4m8NOYYEZRxbKYo3Mi+hrap12dq52Ihz+K2Eim35DoLx+xk7E85XsMfVjpIXYo/iyN6ag6uGzJiIZStFOhqt0igihvLNghCnoqdyA5WC39ii1B4NQAlKp2Jl2P/VTxRDkJ/4HEw/7jmxEVO6yCCJaI1Wx5v3s/XraJdMQ/el9PtykXhPNVjIRphaiNWvmaUiBYjSLToFjwn2qy5EP6aw+w0klmGvGev04QGnXJDuEX4omQhy6+kRc9TyxxLi4K8Qe6a1vjyLvY+GVdj+DYbTGTjx8cSssQ/xsSA5IDeqID3YT1ovpwHoiwl9adanNXG1df1U1/z3sPxDy1XgiYRtLZt2CgDyTcrYODrKIpcbD4F/7rA0l2f7wGQcorKPWVXqsECgu6QvAc9EqVDZVtp3uW4obVHoYghpkwTKXa+i6X0SJt1DFthroFsZMxSAQ8GeuTI+fKeJXuW3xhSCEh6xt/o6LI5NsI8JrI+8nu+mHMNf+nPuESY9noaWommngIEB8rfmCLk35WxveIJtRU6UdNHjpKvxSDRYmMI+pXPLTsyX0KBm7ac2bZU5dEAKnZ55UOlPy/xTgXCr/Tj0Lqc+sWHA9yfh+NRSn9cjx3Sf0zoktk6L4fEtx1jiiplxKdiHZeCdzs55HOk4j4VsUknXFYWNRfuQ23f4UnumHqGHfDIa6Nth+c42cN08TaK5Z+LHwpEZJXmbM9NtUn8Cvhd0qf8TSTPcOi3rvif6SOTDZMZV77lVgdarxxjaftrFhpNP8eKI2mbXX1MjrMsiA2x25lObicC8B2ynOdS5mioZNk6xyxpyiV7JBsVVKTuvzKtCSuo4MplyJptfqu767F1yXRzWkqXU2/v0XoWy1cLftI+FDZTyYguVHcW+b3+I65tGjI/qE084WNQU6UTko48/xyOlDYpyyihsuyLPS87BmFv5lZ4l8fnxHGzxPClubF4IeHj7QhJt40KTaMetszP6fbM1qf8lBeuDb0LeH3igciv0kdZqVBZnuGeGIFQtC2K74k3ineCbG2DlZ/XINqE4rPjJtJRbMLxBJvuabrxWpK51JbFJcgP0YUJNqZvrhx34ZWl5baHx/RCdxyjQ+HPcV8J3md7mlUkrjX37T5fTxY0jU10aP+TY4A+yP6qZbzq/nYjn39vjKhiHpo0fQQ41Lbz5g4B3D50xNrchbQFL3J/nc+VKEuhSEXm1NilegDNqbSDmS603WsQ1KWMH612lo/gdSTL5sR0gdHG4uqEz/44eJ/4yEJ86Y9rNlDbcepVxMZOPYQxaCS+VO1zDn75RcNHB9nkPtJ+WJBPPmAEZFxJn/nOfhffbvAs1EuDpfGpeSrw20+c5L3S6GfD6aPx4m1pF3N+uu6j4/Lgiq+TFXHNA3wXGcmvpFd+MZmPSTiT8XLascsnwAT5Q3KNoIc+5JD6hpsJf9cTbDMASXxEWFA1rzxn2g0T6G1o55oPT9D5/OHzN7zLwlIZZOTr+YlrXgfA+GB2CkToyX9ar2hsw3EB4eNjfNeLTkazU1EqUhhQ637ZT/CTeMqua0OixysNjXR8uphpJ9mWPvGxs0zRfW70aUd8keCx9SMZaCdtTAoa0T6tKeNTZ2DJ1qRtJ8H9u/CcsORVXPOU8WeawgyQmJ52yiVDS7dKWuR8Oc1y52vTNGoMVqyO9oLaWLuDOX/4cQF87WltSd/TvMFegasE7DUn4b3UFbIdsk1dDnlTS+7Y3art0baR2mse8bYhCQ4FkWKNWMBOX7HXuzZyEqKDruDkPPMb+qgSeorvaRCX9U77Im0zyEZyfml+2DtMdFu67KNMEP5sd4X9hV7WLMvdyXdpk0n+JS5Nr+E31SxIpsMNIwjzgMyeOF4HHbh1xQu1axYE2XApILICr0IumVGXO9y66DcCLVO3rF1HMtikdnLHXrlbXNKAJDelnGW6tf8v6WvZnLJjLuWN/8un7NhvUJrHcEiZ48k8j69KqK13t53T0LZtsiOZUBbPh868B3gMx20z9wf5VX5flV0dh5axrqa7f04BT4cPsmyx5yPS/LPMOCMgk74r2OC2nRj2qGLbdBxMcTfNu82FeRfMQcKW5JThz//16YhLMFlD25IhLySHx7olyNgp05RjycLWI79lpe00zYKfR53nUsoDxQT0d9vyNdUxDBuhsJ10vERenzxnX8iiXl9rDLJzIQ53SW60/dE44T28o3cqXfHmmw1tQSPnE42n508xYBt1s2o2BK6k1Kw540miPM5L0ZF5lm0CXRfFTJf9iqab845f53yy5C69UaXWwjqKkeZF/+Uxk4wT5LiCFxRvKRmRttCJ/kI2I3tyHNcVZ2lmsZ+iDc2f6PBoiZ/cbwIAO3JNyD0gnh3JnInolWtUvrXEeVbOJ+t4GUeleJ0TSzs5CxmO17PYIj9sZa007120UwhvHSY/YPioMobIMYqed5wlWLgucLYtt21KZgpadQ1Ej+eSnNXmGmQgF7K4zEma9V/5ARhd8klTWEu2bo45K8u/pzae8pxMr7ZNrZM8yTOu2UhOU/7h27wZlOdLQn4de6vCxbf2SRca7f+JC9J+1Y/HyTt8XSwYtkxGed4HxEK39+YagV3jctmmCfPaj90v/fZEm/aVERP7NoTOj0MqWcamQhZYnKD767ZAiHmSnDhX8EX34zSTnSOe8ZoCzZFqNjxmlfaIXffhDZAuuqkP93u1/NcC78tNymxWIDtOtBMkX564Z9DI41pjDnxMvUYW/dkGZB5z319c9xDrx/2vljGLPh1HhTlZ8XvkQW4kNmUkq93GN1G5zEZ/yG26YCvIf8f6VzzSh3jrtJ+FL3fw1wM6Rr6XTAjnHiMGbhT4hdeo2slEBKWhjxY2L3ALJxb9Fl/Q8E/y1oBniQMJBp+HY3t9udAofE4vRBSUVHxAVrLk1JwKLtlu5iJ1U443GeoiMOQBBTM6DGfaQcR+NyzFcqq9Hkdfd+y6V/3oGuhe0yQH7nSfaKRpfM1z/rudTMzrmj4Rjol2QYiLhGegMatdK4IokgMbEcPl0j95V0Tu75CDWnrrRCaUEV/birVvGB2U/KZAmZweJcyEJv7t28oTVQYuGRZ2LY2vHKmSS843aseNeb6eeWUlIEnJkoBnnjUu78HQvOI0EN7EL/iyLaffuULugejYqVt8UJXGbdvOjyrxsbRNaSihoY+LkSOqBDTWHPm/+rruLwoEgMFzhUuP7bKDEfaW0SZ0s231sofrilYeoBOeRLula8xZFjSjSDNTH9Gug2d9UGsr7BdQ6IXua92velvNE6u98oHFdU2Hsf7pPgUJzpYNSy6zLatDNTBTo3cVeixa9fcSEp6iICGBB2pDfGPyqBUXkNryNdABIvlBsHXg9zp8iwz+IfTD+7auW5xGpbMcn9Wfxz5cZpNP1/NDxzpX5mZKgffJRhY4KRhXOHhMJfSLaBf+RM3YucJ+UcCpcZt0e4/6i+upkRyTXQ/uVd9z8Jiw+VL5Eqk413eubV6fRpnrgUrmyWfoeIpkjyUe6ZqPG8zifH2+J9vm33L3kl6XrgMBXKKRijSeyVsZL4Y8wjP/wv1hMcdAhBqWghMPJ+aodMDaDQPFsZY25eSNOPFG5DnZaiuOqalUbp/j8HiNb7Ch1s7FwhrXl9C+oQIEKxoqZuT5K5/t0JhdcpwV47wBspjmYdoS9kAqiZX2teQ/SzvHW1Nb7+NvIyFX6KNt9rmFFZtQ3snG47Gkn0xSx7Tph82Z24d6nIByDOfKJRA2nF1XNlDOw+eu3I7KpuJvTWc4FobjlGMXcuB8OAYz6rF4Y2ui8mc1eCoSqtjeHJfh8BZv1NpxbYxIxZVaHE3r4eAB7a/Fb4t7JY3eUwyT+4d/bbtTA5fGBOhYD36vgCSLcaMP6TERlTrT9T6eA0LyfH3+4XosPheoi5VBik1T20A3HTGU5phkneFIcW1JRc1/FnPh9xQiB8oDJwBIx+UDEh9568hwtU62Mc5Wz1GLPbZFX354mK+QFsupenupc3TMWur1qMcq3BcJErivFEdrcl8laUj+zrLDiWAnYgBNu0Whi4LivEt2metj17zE33zsOIe0AYP5N3ncn543P6WB65Makfv+pLPdYNV1ZA5K84/X09tAxEeSQ95H4YbmW0VnPGsn/2FmRNkrrdtEp7IVKWWOuqV1XUh0yQoJzsE6+lVqhcSfHmynkK8FaMMqe+iJGJ8FIumkCeo0CXEmyRPDR2tEea4o8FtPNEpB9uKnj1GRhwfYk2CA75aIAuI4Q32BvyvRzT/lGZwNO2ajJjw5kaCELM6TnUEmGBjHJLFMu0jZOPJJU6Sjp5haFuby9YzP6kmvcpQ74XkxOj+l7zZbCSsrdihKxW+ucOHhRrkLLvE47cqN/PTGGkdDyYfjO0uKgnFVRrJDkvi7ggUbTNmJ8lEU8Cv9ciuXzwhjfONr1Xp7RyzJU71IlR8MtK2mjcl8/PhocdasxsYLXkme9W6TuI6wZIsXzMSeVjaGlJ9C14AkA9Ko5oKGWZSsXXOk28hKpmNJQHw0yTNe0VNsopXracGXClgyQzpKr2haRbE+3e2/X9pvnRzU8PH7tWJhNamp0WPSSAzNu7ViWcHG68Od1kP5gi49qYzZCbWAw5IzCqpjT4MOrft949hj9c+PF2JqtpISgH4+lP25X9K2Ygh0BXWrWZd6n9IfBGhgSWI9YbN8QUlJluOaTpT+LF1Xdq4Yj657IL2KnuyzNUdnXq+tk/eWpc46NWydu2yBnnu/HJd+KNuupti11h0vepBOavtNtKjXYznlbM598un6CiuFz+i57hzAiqQ+Bvjxj2BL6CPQLF80aRscAvniZ/DF3H5IPxniCyC/DUS+20f+s7/jfD0bgPIvwlmSVOEPi3N8XNuuHZT0mML53CffdKId0ZIKDp7dDYqR/hZkpt8ecHnHtqCZ6ZuP/KnvYKNilIydusA5irvzkI5icavIYswdXu5QlDwQnYsbbHZ1GlXhyLZA9T6yYEVrz/B5Lz7aq8cT9Pu81ukq1TAq32sp6LbsqqDHiIkn/I2oHNc2jh+xIuOwocALdlonqrz2ALT++LyW+tlK55qp3CXPQfbNxxZIfIH3LexitQ/n0ncZNabjjslyQbMfwBvLXoDz1ZW6z7qmI0NSO49sjYzhmM+KLt9sE4bWdQoATX4baFrwsGWmbEdEtbb9AKp8s/FHW+61feWUcX9c8wfyN8eVH4h7Ea8LDMl2kv7U+MAew+gaWUUua3GRzPdZGydtcCCa4phy/bmt7rQZtfxEtDXkC2KpZYxWjiLmKHB2gShWU+xBpBhzNfKS/GAJKKWvHGeI7+FjhcL+9P6Lj82yNBYLMHuo1jhR6+lu6R8KOsHlQMlNH4lMjnmsRrVbriOIuYbX+B3rw2eqYr16rTO3s+fU37eYU0YyiIbhPtcZRybGt7DKUFFELyHWChf9pA0xfuRxaJxxp3iEx/sUg7OL5G/ISDnn7CN6iml0UEuF/VCkCcFkCN7piJ4ZkGOjhCoErfFYndYodNJ4RnJJQT1BO/HiXvrN1xXRaCJ8sE4KMbKTNI1gmxNrhI+G5g+GsaJUi/walcu7rhQ2+Vcbd+xQMqvnnxq6SEMr+oYnN3EnEBkgsUaSFpG00VM5xjdqR+uXeCO+3B6SD+5QaGb0NocH0lpz/Jws6F1o/ImfWkdBf4modG6Wgy54qpwyD9DA5MO4LvhsBvkO7cTLNlTcR37djhuaFNRS0M/e7nCuYbhc4F00sHkXFu2riLSLc/HVugs2+NwnzSUX+EkyuK7kecZ7VLCmNdRG1QMQMqSNaLRIRqBE65lkP8ltlgZaFXKBvs385kPkwhHxSNFB68J3B9PfsZoiHkJUHohaTgVAePOFXvuLv4H8ulsqLlT5VIIZAKnrSQYAlMGr1s1s681AVz/Y6yhs99FNZzUiWOZchBEfLc0ZZlgX7Q9qR4bUQdNH/YcdTZCBXkMNyZw951pxdTCNQ+amCrIMSf4Z/+4r3HqURwcEtZQPKwdXD5N9yrRK3Mr3+8LKV/pE+yfkMegTl3+947lTVyH5wgvNACUfsR33AW2pg4CWVIjr1U0UKggNY5QP1CXN9puAuq1OAGXSTLNzzDYhvYmmbVOXnSoK5KwSLdrF+RZyKOgM93icl+YSZcvijYhZ4zdlEj4KjNnRhoI/MNa+ZueqZ36rdiSXnQ8qXPT3cS1cPMYl3m99iD/JXWZW2bIxTEXZxgp+Tn7hnxn/vIf3E9CDs/BdnTa6fupLRPo4J8RNDy0oB5GhqrT5zpW6mXkkdUu3qvlE/nfTNBKHkGWNOBegmCgTqelvHsNnEhwAS+94GFHaW4DJjBG6alBalYgLemK8WWcUgyx6Ct0QNgOqXVi3KgwugmU69LqxXoX98CQXTqQTBb/45hvaJAUgH6nCSOWbuEoC7d2p3ks7qfMkLi8EPOScpoCRbK32mxU/W9htZDscG0aV9Tl0d4w3XXR5H3jL9CRtPOPNIh2t8RZetHSJVo6b5+7m8PyPaBdp7USs6mSsQXTodeoGl/BnEn3aSOpSPs4xWnqT+1Irx4RX2xveVuKY0KTrFHfEXmJsAzL/sl0iOyyWCR0yUhoh6WeLsYkJFZtn5h9kp+jPHP9V11TJdrXwx+0Ds+mc9t64KCHI7bgeNI2yec7BNTIW0TlY+l2bnss+iPfxyWBqA+nqasbk1WmbYPq/HpsBQZqQH/6ClIWH05Dpiv/W6I+yZMXFolkhc3Y5f6idLvTEy3vhGrdDnsomqUGr8pgqjwfwvkoLyYbL+iVqHglBWJyy3pH/NULIcpzKOnTlyJZ+deXrOt5iA/bit2jLbVy11KhjSPZoMMVlVEclfCmWj/rqko9pkap03gORt03QAAAgAElEQVRoQr0hnS7BaiQOosifCvyy0FUKs3M8mAgEO7JrJGxxsdtUvPdw7I1Nn2ZPhXDOkPKVUH7mVmKy4ZRqkHfSUIDmIb6irudde0IWA6jAQJ9ocPG39x6t+tCORVcqOqQnX/nbAaxRKazkcNQaET2hAEntlMIwWkxnA+YouSNIAXDkG1PITF85nvdheR3bBa3nbyl32KHHrDRzFnXHzKwfp7s11tGOEGy8hgERyYAVdan+OQDKskvFJo0zQJaFoAs5eHCuLHg6IH2Ui+MinhE/HCAeonHZ4kUQGSjkAr9j/+X8SFcZLxxrIxIKhxDqVoxxau/tYq1X4xaGOdqfwDP1EI/TkQQ+GEDf+dAhok4LSWvhRYLAOEFIZJjN8YeDDqNJaoMV8B6OfUSFHwvRlfim37xdojHM1Tm5erXkXIJ8C6tYD+0nKBhTNPVBlkvW3+CBfLgsi8w5YWNJuuJZkSRWqUF13brmkGirNE/Hpqlvm5j0paG5TNYDnzxnmyoHQ4aYzFY0zZi7sqFs3S2orUVJa9GzQndt/hJhsDFUaIztU38WbChc2qdlXwfZlq0Fj2loR/UQfaV2Kfxx+oiETDHpYFdhgwp4+TgW6VtN+5dnymhmtqNl/l69JZaoYLaGcOk5pPs6bkkjAlRMEvMx5IBiRMKb/VxNpghPlAkeZzk6IoXFGxqPtp3sgbkYTpylWxNuZndbPlf+EJ+3jzGqj79TwB/tiGvQsM0lYMkDt91dSZJJImQSmW4k3vHfgKMNM9SupY0L9Jo5xUGeFjNOV/JdXAuTgPeTTlvdDbmNToqzDMkHLaZn8MUPFKQ7fi373nTbAUDTuRaWDxW+2pVt6+AyHdTHZJksvOY1BeiNEc9tgqRY0c+Y0ZFo00T0hiJ+zWpv3/eCEmHvFQnpQbzjR7VSJ/aGgEE6j5h0DJ21TvfhO3Cj7rq8ScwLeiRP+Jz0hq26x+7mXW5bKVLxXkyWk9uP6GqjsNVPHUJ3V6eP6SLHIXVBr7+KOzyTpVrekPB66ft5G7FWQ0HG2CzhYzaB4/NqNRUdzJeKML2HpCS77RDaVe7H5FHEP4k2TS0VFX3ywQU9Jo3y2BsqjmU64lhmruHTTtacDzvUfX+ZG+qTD7qh5KN+AMgf3CR9VvyzuMNCLbHuXPy83iziHIqTBFgdyfLz9gNje12p1lClFdyXyVhOqaL4w6OMiaaIRjINXWLt6wcAsZPBEqRIRcWbZlyMOr3CXjGctVyuz1/QvS475D0KXlYfxlXG0G10iVPcd/b1DME+ey1/3BxOSVSXairzna5Vi/cDQMh1wlnBVPEv5Yqqt42i7nmwjbSAeOMqyIWL13wSXu/pGB7CkXOafDQV+WkZ87r4f8UZ/Hzi8ko0xK0XO9UBXozMgX0wI610VkItwu7NIkH0/JU2zfBhOxuyQmVLGowlEVMm3OFfKEcXjStLanibtp0YNEqcUgnZAiM7LGnhPYqz1IRjlAEmOWkwNHo8CzTN5HT1WFTk92I91JN3ut404dlN66H3DOlgtSgCKycskob6LJC5mYOAtHbGPKcFUTxNeLuS+W5cYs1F4CLHI9kCoM7Xd3L9YfFKvUpWkd/024OtDaUBxEf5QEzwhOTV4LmgyQNo6mtKxTNxFqLBuzj7MnjyYK9KBbtTrhE34rEPSN+y0zaPbeDONQYOFu4+mZBrkn/Lj9TwNl0hhsQjil8+By59u3YKzBSURfmstbd4NE2C5D0duZNGNu2cHCf6FWGbqE1lDRhd9bnUg6Uu6CpkJ/qVHyvt7pA1qgUgFs3dwYrt69JdmIKoeDtEzrsLnt396I+wdM4c18Yv5aPE60RT7dM69ZhUVOuwA+DLh9kWndpnkv3sgr5ibZib/Cg79RMJQUXGa3GAjaeUrT68soiHtK4CG/N/4WFJkwv6ZBP4AqSxjSwuQQ6Gwwdn1Tm3ap4l/ZL2gIf7yYiJdr33riV5a7bzKj4sTlNKsh93QtNDCPbgOx29x/2yI/zT2bCsal7GAGkenvl367cD0oPLFmnjDr0Jh5japDVPjpf9DTG2i7wMbwjUbFF9nnLXbECe/US+mj5+mluVyITCe+HfdDKeeKiSLZ9iqH7Q9o76lddrwOyQLmYWLGM5kqIhrF2WhfI1dGpZ+qn68RbxPs8BoO1DSUvt2Ec+dlFEYmvgwYrC8XqKFGljVCZPZKipgJbGYfecblcB7xKnCm+VzRt0od8ujtvrUK6CvSmqtr1B05Tj28yf2rIqa2je61493o7WygHaX8Oz1aAHhxIHrYkopBjrz6VFpCm97NFxN99QRXqn5CRLG+wV8KZckWimYxoqFCV83l7zzjmAeM4fmNt2IfV1wdbX5VLpsC+vZtPZBB1QtjS3a9NlnhuEHe21uVkyaH9suQ4GDsdjDWmzrAI/3SuAy6wR5xfpS/Iphs8R7aLdEH7OtrXioaE3qDQehNF1M6cwLFBBX6d01o2Ldz0H8FmLSTFVsY7RIjA21uVI0ix0mddtOE6u6nIapDosyqnTlZuoeMPr9bBoHw6ct579t6DFhFCg1jW9HIvqwaakTbUPpsnOk6dMMwu8vH8Vl8HrsK76jVxaZWnUyxxK/u2dowP6Qbv7gTa8sdu28E3cDMCO6yRfk0XF5W9vRmExC/yaAWHiyV0iBfr0QdwktjkBWN6xFbf99DLsvPFKTHbfhpVd2+Bb/lHCrBF196Cv1gLNRG1HC0u1alhkS9t81fsLTVSK2tWrnx8ZKReTZDiSo8nmaIgbtu1SXWu68KTAy8nxNQfymsg5a0PTEz6bdHqDj7XWFZtc9kiklnztw1fwK3mYrh7MYxjtSxp8z70apRrqMtnNo5qzoP66sJNbs3DDxC7TLHmWXe2abUaH+JluqdGz7MPBH9dxWvhqeUVzOWqdwqG+TdsLq3+fRPTNfBq6hK1InUtOSbqraYc5brfMduOZrscQWSgtW9fY09htfr1vDkN8mW6vLcAQnk7L+z56bP/ca7WreLvkaNo1GiY3q9Xa1cxRWswhVPlV/LbH7oql+jxIH7bufl0yMsxa99vDafVnCLjZecwsHIzZ+YNx0OF3w0GHHY+FjUemo+8QCyFNM4P4emRKpvRDiKoPNR/mGZMyivthZyEv7reBDHob0bdwLr5x61us3HYjFrdegZ03/hiT5UVMdm2Xsb+IZwwaHHqK2d1c79qZNg1of9Nnb6UsDrcKOhaWI9h9rB70l+0Dp7NW/TBNTGn13VM6Vr+wunAPrN5f9Y5VFMX2zIvsW5g+Wtawmp7lRgnmCeLCZInp1hZu94dwfc+htMA2VHZKmxgHxM+9cjUNTIvHpo7TPUyfallafQxrLBsnh7212l3R6TT8r0eYdQ4MzdSmjzOnsX2r2bizerAjQg7Fhot0fd/BoB3ftwOsJqPgffeM8iGZWnevPc0P9x/nNTjzJ4D8Rhy/xmodbmYOM/NrMTO/FgdtvjMO2nxnzK8/EqnQ33qEY3AcPBo4hG/UhPp/POrZy/KJT0f3AO6UF3zI891fMhGIzjQ+PQq7XsLfvp3EBAOgHR8OHku3/hQ3XXYBZpZvxaZDNmP9Goc57IZbWUT4cvgII4wwwggjjDDCCCPcscG7WfjZgzDBLLbt9Lhh63XA3AZsvs9jMb/hCIQ3Glw6bzNsqolxuqOdPRwjpW/5nPJiTHpjMiUg3izuE442fi8GbQuPNn6mh9qFwv7S9q245Yp/RrN0I9YdNI+DZiaYcRPMNNN/J2WEEUYYYYQRRhhhhBF+FqFtwzHbrXe4bWUOt+7YiXZ+Azbf4wxW6G+AJuQA9K1VoEmxP20CykcpstzglBd8SDwIMQv8bSjgpx1FvsWkncTifjhqx0+WcdMPLsDk5itw7NFHYX73dVhZWcHKygraVr8iPcIII4wwwggjjDDCCHdcoDOFnXOYn5/HzOw8ds1txjXXXo+Zjcdi870fBxcD/PSBYEAU+RvXsCI/K/BbhXX+0VXPdsGlcxBaUdz3VMRPxf0Yy8dd/X6yhJsv/zJWbrwch22YxZqZCVZWVrC8vAzvPSaTcWPPCCOMMMIII4wwwggjACH2b+Ju+4WFBTRNg93tLG7YMcHMxjtj8z0fGYr3TSjyh5d0GqTjeqjIX9v8c98XftgD8lUTl455QdzMEwJ87+OHYtiuHe9btMu7cP03/wEb187giIN2YWnndiwvL9+ObBphhBFGGGGEEUYYYYQDG+bn5zG/cBCu23kQdiw1OOLUp6CZXxN287j8Wq6PZ3I2zUzomI63Cef4299HGLJ7P7+tC4Q3dqnIj/h6sJ+0aJd34vpLPol1zSI2zS9haWn3GPuPMMIII4wwwggjjDDCFDA/P4/5+XnctHsei34dDj/p8WjmDwrH8TiHBmyjTyzyN1Tsd03Y2uPjwwMg7yACQkBPO+7TR0Fp47+jtuF8Strhs/XbH8Oh6+dx+NwtWNx+8xjgjzDCCCOMMMIII4wwwpSwtLSEHdu34YiF23DkpgVcf/FHxXE4gI8BPdJ3sGofO9b/E+D4W7v8aJ74N525T8fx0DE9bQugxdZLP40NszuxcW4XFhdvG2P/EUYYYYQRRhhhhBFGmBKWlpawY8cObJzdiUPndmDrpf8E7ydo20l++5Z9B5d/aIridIrlm3QxgmNJA53t6eJ1eI+2ncC3tJsfuOl7n8emgxwOcTdgcXFxv350YoQRRhhhhBFGGGGEEQ50WLxtO9Ys/RTrFzxu+I/Phw044uz7GG+3cde9BxoXP9bnXfk/ADGiD/+LuYBLR//Ql7pEnpBP//E+xv8T3HjZRVg/cxvWz+wcY/8RRhhhhBFGGGGEEUbYQ9i5cydmJztwsLsNN1/2xbCxZtIC9DYt33jTTsJ9T5vxXdjZb+3scXHLPz8b1ImnBCGx2HXz1di99fs4ZPZW7Ny583ZnwAgjjDDCCCOMMMIII/wswu5dizh8fgeWbvgBdt58dS7uR3BtLPR7IJ7IGYv8xv95KuyHf70q9ocwP78JkHcEIf3rvceuW67F8g2X4WB3GxYXF28nTowwwggjjDDCCCOMMMLPNiwtLWHD7E4s33g5dm/7SSzu+7TJ3sdj8uNeHIQDN3PMPgtAHM9D4FMwT4mEfD3Y+xY3XXYhjj3maOzedmUngbt3775dPrRFHyxYWFjA/Pz8Ph9vhBFGGGGEEUYYDgdKTHCg0DnCzz4s3rYdxxx9N1x92UVYeMC5sVjfxnMz40e30sH84DV6E9KxPvxru/Rvev03/5t2C7Uh/t92xb/g8A1z2L3r1uoYKysrWFlZQdu21TZ7C2gj0uzsLGZnZ/f5eCOMMMIII4wwwnA4UGKCA4XOEX72YefOnThs/UZsveIrOPLnngrfTuDcDDxaODTp2Ew0QDh1Px67A49Zfv4+gBjII8T56UlAOHMzIGzh4DFZ2g7svhkzizdjUnk1d8eOHZiZmcHGjRsxNzdnnhG6N8F7j+XlZSwuLmL79u1Yt27dPh9zhBFGGGGEEUbohwMlJjhQ6BzhjgOzi9disrgbS7deh4UNW9IxmfkMnVi0h2Nn5rtCjkypqpy9T9ddKvK3mOzeAey+Cc3sBCuV2H95eRlzc3M45JBDsLCwsM9luW3bdHbp0tIS5ufnxyODRhhhhBFGGOG/ABwoMcGBQucIdxxwK4uYLO7E0vbrMb/+yFiLD2/eOudBIsol1cFhZsv9n/Z7TdPwqwV4P4FHOODfxScDt159MTbMt3C7bzIJ2rFjBxYWFrBx40bMzMzcLsmqcw4zMzNYs2YN2rbFzp07x91wI4wwwggjjLCf4UCJCQ4UOke4Y8FksoI1hxyLXZMGCxuOQtM0FOIDiBv3mybt4I+ncYb/uri13+VrGai4T7v2Eb635dvwloAPH9Slnfzbr7kUB/tb0C7tMOlcXl7G2rVrsXnzZszOzt5u+jM7O4u1a9diMplg165dmJmZ2efjjjDCCCOMMMIIdThQYoIDhc4R7ljQti0OOngjltxBWNhwZHgD1zm4pok1+XCsPpqYDTgH5xo0GpF4chSDfr7Ln8R95/WXY+3siknM0tISmqbB+vXr9+Ycp4L169ejaRrs3r17v9EwwggjjDDCCHd0OFBiggOFzhHumLBmpsXO66+AKMYnCGdz8t34InaP5/JrkN/fCngQT+dP53q2Ldq2RdtOsPOGH2J2cptJ38rKCmZmZrBp06Y9nutqYdOmTZiZmcHKip2fjDDCCCOMMMII+x4OlJjgQKFzhDsmNO1O7LzhR+m4TPqKltjik47WD3F9E/5Qr4PQ8TzU1fOOYRfPyu4d8Cv2h3WXlpawbt26vT/DKWHdunVYWlra32SMMMIII4wwwh0WDpSY4EChc4Q7JjSTRaws3pI+tCXOzI/gHeC8XcxPbVQ/+a9Pm3vS2fvxqE7AY7J7Ee1k2cS7srKCjRs37p3J7gFs3LhxTJJHGGGEEUYYYT/CgRITHCh0jnAHhckSVnbdirDpXsfmtCXHpU0/Hj58ZNfnKwb4sN2fkgUP+LbFys5bgaWDTDpWVlYwNze39ya2Spibm7tdPpIxwggjjDDCCCPYcKDEBAcKnSPcMcEvL2KytDME966JO3jops+v2DpYJ/HYB/Cn+N+nuj6cA1rP7uffk93b4ea9mS60bYuFhYVVzW1vwniO7QgjjDDCCCPsXzhQYoIDhc69DU3TYH5+Ph1H6pxD27aYTCZYWlra73nISF8E7zFZWozfw41v5kYxSS/egjb4hLr9LH+VF86Xu35ScB/utX4Sd/+01V08Cd9+BufcGOSPMMIII4wwwn6GAyUmOFDoHOGOB35lN9rJMnzrAdcCbQM0+W3bEMfHDTmONu/QC7wkT1y+wy5+Hz+omz6wG8/rdz63ofu+bdElmv8V9KdpmlF/RhhhhBFGGGE/w4ESExwodO4NmJ2dxcEHH9z5rS/vPZaXl7Fz587b/Y3ikb4CW4j9vY8F/BiTu7Axx7lcp4+Dhx38HEjAvW/hET+uBZ82B4X7+XTOEUYYYYQRRhhhhBFGGGHfQSq05xdq0XofC/t0hcDJfmkLf+5PH+Si6/ltXnrtl3YfhU09EHhGGGGEEUYYYYQRRjgQwDmHDRs2dBamedv5+XnMz89j9+7d2L59+z5/+DDSZ0OK/b3Pe3Ac4QrXvPNw8Gmjjyjwl0+v4o4dz5GMhf0RRhhhhBFGGGGEEUbYH+D4Z3A9fWzLLvAniK/u5iYunuVPfzpZ5Pdxs4/36X8jjDDCCCOMMMIIIxw40DQNNm7ciNnZYm93LywsLGBmZga33norJpPJPqBupG8I5G06IT53sejvmlieZ+F9ozunIr/x8S1R6B9hhBFGGGGEEUYYYYQRbjfIR+0bx+2YR+h43kqcu0/nhsZDfthGn7zBh47x8b7FGP+PMMIII4wwwggjHBjgnFt1cZpgdnYWGzZs2CdHGY30DQR6izZtvmnj5fhv69HGmF1+ZDf1z4V82tHjXOg4vpg7wggj3CHArcOxJ5+E4486GDf+2wW45Mbxo5d3aHBrsPnOd8VxR67D9u//Gy6/ZSx07UuYnZ3FaaedhlNOOQVbtmwBAFx33XX41re+ha9//ev7bJfGCCP8V4eQIISie+MatiufHcODGLd7H1/lZefyiM06bXwoQAX9ST6T39MxnbGw79uxvj/CCP/VodmMk898NB5wwiH4z4/+Bc67aoxdRxjhgAG3Hsf93P1wyt0Pww1f/Ai+et0dS3/n5uZw9tln49GPfjTucpe7AAB+9KMf4bzzzsMnPvEJLC/Xv/85gg0bNmzYo+I0wezsLNavX49bb711L1CVYaRvIPgJvA+xPOUBQAvvGzjn4WI+4IDyDP5U3Hd8d5BjG37G6H6EEUbI4OYOxqGHbcDkhmtxy/7yuwt3w+Ne+Gw8eMM1+Ox7/w/++bq9UPybORYPPuepuN/CjfjS9y7EJTfuOcoRDmCYuSse/fznBXl4x7/j8lvGAvO+gg0bNuA5z3kOtm3bhs997nO45pprAABHH300HvKQh+D+978/3v/+9+/1IG6EEQ44cDzYl5e9p006AH2Ay8fCP5DP5g9taXc+FfrbVOgPx/u38UO9Yw4wws8GNAuH4Oi7HI6VH1+Ga3ftJyIOPg0vefebcO4R38WfvujX8YEfrOw5ztmTce7vvRpnr70a7/vSu8cC/wgjHEgwd3+8+O1/FvT3lz92hyrwH3bYYXjd616H6667Du985ztx2WWXAQDucY974GlPexrOOuss/PZv/zZuuOGG/UzpgQNzc3ODzowfCgsLC5ibm9trD1pG+oaCT2fxO0cbbhy8b9V5/D6fwd80TXoS4JyDb33nUfvhdd1VzcuELVu24Oyzz8ZRRx2Fubm5arvl5WVce+21+PjHP47rrrtu7xEwwggjrArcQffDL/+vp+PeM1fjM2/6c1ywdf8EIs3GO+OEow/GQnNXnHj0Av7lusV9XIaYwcYTH4NnPvMM3GXpK/iLP/4Yfjik3usOxc8//Tl45N0PxYaDFzCLCZYWt2Hr1Vfg0n+9CP/83RuwBACz98LTX/083G/Nblz817+PD34nJn0zJ+Kc3/kVPGDdBJf+7e/h/ZdsxqN/4yV4zFFL+M/z34t3f/7H2B0nvvBzz8X/fsa9MXPrV/Hu130El3P63Fqc+uxX4ZknrUF73efxtreeh5+wpWuOfBR+47fOxJ3crfjae/8Y/7T+Wfjdp90LsytX4dNvfTsuvJ41nj0Oj3/Ji3HGEcDWC9+ON336KthSMI+jHvAkPPmMk3HsIXNYvvnHuPi8j+CT39yKakrbbMbpz3kBHnvCIVg75+DbFSwtbsP1V1+Ob3/lQnzlezeBXKRbswWnPOwMnH7y3XH0oWvRrNyGm64J7b506U8TX8Dan/zQh+P0U47H0Yeuxzx249atV+OKS7+M8y74Hm6+48TU/6VgdnYWz3nOc/Dtb38bX/rSl8S9K6+8EldeeSUe/vCH4znPeQ7e+c537ved/K997WsHtfvd3/3dfUzJCPsLxNn1U9zb0zFjZR6uibt2wldzq68Ae+9jkT7jcK6Bb9vQR5y7T2fvt7G4v/fh+OOPx0tf+lIcf/zxWLNmTbXdrl27cPnll+PNb34zrrjiin1AyQh3NHAbzsafXvCHeMTsd/DmpzwT775yP8WuR56Kh9z7UKyb+Xk85N7r8Lc/uGUfxa4H4a6Pei5+7bln4yH3vhPW++24+tIL8LdveSM++K1t/WM2x+Apf/gWvOhBx+DwTQdj3i1j8Zaf4kff+RrO+9Bf4QMX/Ag7AWD+DPzRF/8MZ69bxKde8lC88vyl0H/uwXjN+e/CL25exnkvfzB+67PH4cUf/jD++4k7cfE7X4Rfe/vF2BGJOPiJb8OXXv9IzF3/d3jBmf8f/lXXQZpj8NTX/SledNoWHLppHdbMtNi9fSuu+v438PkPvgvvPe/KQEtzHJ7+p3+J33jQUdi0poGfLGHxlp/iyku/is/+3Xvwt1+8GrubEwMd9yx3Z/rFf8JvPeQV+PySvrMW9zjnVfidF56Jk49awK6ffAv/9Oe/jzd88krs7mDhhrP/HBf+4RmYX/o23vyLz8Z7eNKwcApe+uH341eOd/jRu8/Fk998KeiuW38iHve8X8XTz3wg7nX0Jswu3YSr/+Or+OwH34P3nXcFbqPFo7kM4emE5g1c8qan4Nz33IAn/vlF+KMzFqr0L33p1Xjki/8RN/tpaBooNxUYPM4guXscvvDEz/TP8df/DWe+tUdu9uZ4kad3dJibm8PrXvc6nH/++fjgBz8o7l188cW4+OKL8exnPxuve93r8OIXv3i/7+S/8MILB7U744wz9ikdfbB27dp9gnPbtm17DdfehtuLvqZp0LZ27NB1b9X0ufgurveA40Yjxu5sk84sTwTCzza9wpu+2ruP4clPfjIuvfRSfOADH8Di4qKZDDnnsHbtWpx66ql48pOfjHe96137nK4RRhihB1yDpviSx+0P7dav4eMfXYOT1/8EX79kXxb3HeY3n4jTH/VYPOJ+R2OtA3wR/Hd1n8emI7dg8/rwRZTWz2Bh3WYcc8/NOOYeJ+P4j74N7/3qjZUCeRfeNTjuUc/G0256Oz7wjZv7+/tFfP/i72PxPvfF2iNOxslHnY+fXEO9Ghxx8knY0gD+5kvxzR9OsPHhG8MHW2aPwUMfcU/864e+i50+8GP9fR+J048IQrDhkE2YgV3gnzn2UXjWUx+Awxavwre/cSuOPPneeNA55+CG/3wXvnxjbcXmsG7TplDcX96FXSsN5g/ejGPvuRnH3uM+uOuH/wx//Y2bgfX3wlP+27Nw+hHsAfHsBhx5/P3wmONPwn2+9Nd496d+kJIBt/7eeMp/O1e2x0HYdKcTcOrkclxwwff6ODjCPoLTTjsN27ZtK4r7HC666CIcd9xxOO200/DVr371dqSuhLFwv+/h9a9/fef9V73qVbcTJSU45/CCF7wAF198Mb7+9a+Le6eddhpOPfVUvPvd7967Rf7Wp0Dfo4VDg/CmLT9TX9IYivvyCE4A+Tge8JN7FK0pF9i7nvVlL3sZLrjgAvzO7/wOtm/fbiZDTdNg/fr1OPPMM/HSl74Uv/7rv75XaRjhDgquwUyz/w+dba/8//GHf7AOjz3se/iHz+2r4j6w5oEvwzvf/Ewc07RYvm0HltYcgrs+4Bz8zz87CFuf9Eqc13vk4FocdcIJOPawWfh2gkk7i4MPPQ4nPew4nPTQx+CBr30Gfu3v/3P62LVZj/v+2pvx2quejZd+/JqB/ddiy/HH45gjZrC842bccFuLhY1H4oQHPgknnvYg3PWVv4BXfPpGeKzBoUdtwSFrGkx27cCOpRmsPeRYnPzw43DSQx+F+736GXjJJwinx2TXIhaXGQWLO2GVEGdPfhHe+P+eg+O2XYLPfmwr7n7mI/CM17wGP/7W8/D+6tsSDY6809Fup4UAACAASURBVBbMOMAtnITnvOBh+ND/ugDbYxx9+ON+DU+72ywcPI44+ijMIRT4m8POwO++94142vFr8hHJC0fi7g94Mu5+2mPwqL9+CV7whn+RBeJV8RRol5extBRGaWbmMDvj4CcrWJ4EDEsrE/ipaVq93Kxq7p3gB85xgNx8em+ONwIAnH322bjuuuuK4j6Hv/mbv8G9731vPPGJT8RHPvKR25G6EvZ34X4INE2zV3efE8zNze2VzSt99PU9RKmtwe1BX9M0eMMb3oAvfOEL+NSnPiXuPeEJT8AjH/lIvOIVrzDj2lXTFzfphM9mubixJ27OcS3Cp3VjgT+/wktPA/oH29u7kY466ii8733vw65d9Xckvfe47bbb8I1vfAOPecxj9ur4I4wwwh5Ccwwe9/I/wuMATK78OP74Xf+MW9wG3P1hZ+HM0++Fozc02Hnjj3HJRZ/CZ75xbdhN3RyGUx7/WDzoxOOw5dD1WDOzjB3XfgV/+85v4YinPgEPuPOR2LzhYCzMLGPb1d/B1y/djjvd9+dwwlHrgB0/xQ+++il85ILLww6VmeNw+lln4H4LNwI/uBSfvOoInP5LT8QDjjscG9etxUFzHjtvugrf+eKn8KmvXxN3c8/j7o99Ps6+/xYcsm4NZlZ2YOuPL8FFn/oM/v26StW+2YwHPeO5OOu4GUyWV9DOzbLvkjisudtj8avPejA2/vQCvP+vLsBV1Q0GLa76zJvw9gtvwMz6Y/Ggpz0fZ524Fsefdgo2f+0CbF3NGrgNOOkpz8Ijr/8LfP6q/qcOO7//7/jujlPw8+sPx8mnHI3PX3NV2DHUbMEpp2xBgxY3fPub+PGKw902bojzdFh/8sNw/8//RyjKzxyF0x92D9Dey9kNG7HOwQi4HQ466k44tGlx/df+EX/32etxz9lX47mnbsIh6xvgxr5d2C2u/vyf4e0XboU7+M54+LN+BWcevw73fPCpOPybX8ORTzwHDzxiDn7X1fjqxz6Gi/7jp9i99k44+VFPxRPvfyTu9NBfxGMvexP+8bLdgDsYJz8ptt/9E3ztk5/AP3//Otw6WcCmo+6Ko3EFbujKiNwmnPbcV+P0NbNYueUafOdLn8QnvnoVdqUdS6uU+7d/Blf6nr53ALjvfe+Lz372s73tvvzlL+PMM8/c7wX+EW4fqBXx+4r/+xq897j44otxzjnnYGZmJsnjaaedhnPOOQcf/ehH93rM7L2HizE77bLnRX1zk4zqnwv8Ho7H/UVfdnZ/u3fnccIJJ+CVr3wlduzYUW3Tti22bduGT3/603jhC1+4V8cfYQTMnoT/8clL8D8ALP/bH+Hxz/8bXOuOwOnPeyl+42ln4F5HzGD7VRfjc+/9E7zlY98PmwSaO+NxL/1NPP0hp+DEYw/H+plduPEHH8TLf/nTuNv/fgV+6b53xzFHHoJ1M7tw7Xe+gI+cvxX3fNwT8aATDwVuvgJf+fs34Pf/8l9xUwtg7r54+kt/FWevvRr+X87DH19yNzz9ta/COafcBUdt3oT1azy2X/1tnP9//gR/8g/fjTuy1+L03/xz/M8nn4g7bV6H2d034UcXfw5/9Sdvwcd/YO+H3vX1v8Ab3utx1Ffeiw9/7Vq0xz0Xf/GRV+C0TffHA0+cw1f9i/HON56Loy7/S7zk/3k3Lqmm4yu49C1Pwbnv+THmDj8J5/7BO/DSh2zCA37hTNz5w+/GlatYAjdzBB796jfiRVc+H2+/pGs/t4Zl/Nsbn4oXfugG+LktOPsNH8YfPGYzHv6o+2H+0+ex3fQTfPftz8S577kSzSGn4lff9E789wdsxsOe9QTc5Z8uYm2ejnPfc2VPQdxhw4n3xNEzLX74od/Hb7/th3jY/EV421lbcKfDG6Ba4J/B4VsODxtl0OCwxz4fT3nHReGBwOw98PTnPRTr4htY80dsweYGuMYfgke/6jX4pePXwG+/FH/3h3+A9174QyxuvCfOfNHv4pVPPgH3fPZr8Jtffipe8y/Shk7P0+345G89EJ8EAMzjEa/7Et72pIOx67Mvw4Nf8XmkjMIdgjNXRVOP3Gi2udXPfY/n2JwYf3TIzWd/sPfGq0GzBb/wti/i6esXsPu67+IL73s9Xv93l8aHQgBmVmmnnvVWfKPt6bsf4DGPeQze8Y539Lb78Ic/jBe+8IX7vcB/IMC+KO4DYdPIwsJCZ912CAyhr1bE7yr+3x70tW2L888/Hy9/+csxOzuLj33sYwCAs846Cy972cvw1re+tbqDf4/o8ypeF/X7fOxmQ0R679OHtuh/RAT/376A2dnZwZPctWvXXvnQwQgjjLA3YRm33bwVW7duxQ237ESLBdzt8S/Arzz+53Dn9S2237IbC4efgAf/4q/iF09ZH0oGzeG41wNOwd22bMKC34nbdjU4qN2F7diEu9znBBxz2HrMTRaxuDKPQ+58f5z5hDNw0p0OwmT3BPMb74STzjwXTzpprf3h72YT7nzvu+PowzZgDXZhcbfDwYcfjwf+wi/jrLuTwZ6gXXMINs4s47ZbtmGnW48tJz4Ev3TuI3DMTGWa7Y345oXn48KPvgdv+eC/q0DI4fB7nIRj1i1g413vg+M3DXm1wWP5tpuxbTEWuJsGq3shwmPHLduwPH8sHvWMs3Di2gG2eulyfOPbt8CjwWEn3zfNeebo++KUwxugvf7/snff8VFUXQPHfzO76Z3ee5GmFOngg2ChqIAgKooFUUDwRVBsiEpREVBAAVEERBQFBKQLIlJD7y20kISWhCSkk2R3Z94/tmTTCwkQPd/nkyfZ3Tszd3eH9czdc8/lyOHLWDDi7eOOgk5ifAKaSw3atq2OEXCr157W5RVS4hNIAxQvb7yyPbRO8uUwIi0qZRq3oXmLbnRp4IYl6gQnrhSsxIolKYwjpyPQAMXHD1/fxrRu5IOCiYubfmHVoTBu3EwlOfoie5f/yrarGij+3NeyPm6A4t2YVg29re03LmLlvmAi4pK5mXiDa+cOceBcXtPVDbi66KSkgnvpGtzfcwA96tmn4N7Cea/nY9v/gHLlyjlq7ufmypUrlC9f/jb0SIjc7d+/n+XLl9OrVy/atGmTYXC/OL+AyvA5pacP2DvH8A5O2T72H3u5TU1Ln7Gro2eK+3FaxLdoubi45Dq47ywxMbHYLlbFf5ieQsxla+m3kGvxWPCi5ai5fDvyce4ra+Z6RBKeNdrSf8L3jO9axvrfYWNN/tf3UVrVrYiXJZ6YRAO+5kSiqUTzzm1pVL0M7qY44tI8qNysJ2+8PYiHGvhiSrbgUa4BDw+fyvtd/LL/b7qhEk0fbE2j6uXwIpHYJAX/Gq156qOvGdXWXiogDYtPJcq7phATHkGioTR1OzzHhKmv0iiny2Mtks3TP2XR3muk6GA2W+Mu3XKd8OtQvcPDNCntTfkWD9GqYn6iUI3UmGuEx9myWAxGcgqbc2ch+mo4qR6NGTzpLdr5FSYCVnH3K0tZbxdAIzriOjlFleYbx1i39TwWQClTnjIFPpxO3KmjXExTqfFIP5544k2GdPLCHLaZv0/ltn6CG6VKe6NgIToiCs2tKc8+ex+ugHf75+lbRyUx8jrJOqgBpfFXQCnzEE91Lo2qp3Dgm7f4bPUxrsYnEnvpAEs/fod5QWZ0Q0W69WmPd4ZjFcVrmr3C98kuf+fNrR+naN36eVMIihFPD42EJPCp0pze73/N2+29bA/ewueUJR/b3gHVq1d31NzPzZkzZ6hZs+Zt6FHJpxZjiQWDoXCf+M5Kev/Wr1/P1KlTGTFiBD179qR79+68/fbbzJgxwzHgX5T9s8fsulOyTeZY3z5Wb8zwTYCjhmemBbvs9TkVBe02LrI7ceJEmf4uREmgRbBjXnoNfsWvDU+3LY/BHMafX3/HPxEa/q1eYlSf+jRq3QTfY4E4qo/p0QTO+5K1oRoGg4pFsWVP6DHsXvAl66434Om3nqeZt4WzKyYx/6ALrQa+xZN1PalTrwrq8bM5BvPoMeye/yVrL/nS7pVR9KzjR8NG1Vh97jwWLFxcM5lP1hjw8PbCzbsJfYc+Rp0yNanhq3A5IdsdEn/ybzYAhrqNM78IXNm7gW3+LfCL3MOhXNPAVSp0eImRLRTcff3xdTeAfpML+49x3T7LqkA0ru9ayqGaz/Bkwzb07RnM92fy2sZM6MHDRLbtTPlSTWha409CL0C1pvdSRgVz6AEOhWugeOHtpVif3+7t0KkH9Vq0o8E/sXi2vxcfPZpdO85yT/d2lPLyIqfvFrTrxzgc+gDda7XmqX5gijzI0oV/crEgZRRVF7zL1qNd04oYAC3uBgmly1PWCGgRnD2baYq7JZJz52/wUKXSuJYpR4AK18vY20dy7nwhpsTrMez6YSprL/nS9pVR9Krjyz0Nq2I4cx7NrxldCnneaz4t6Z3Xtv+RLP78KK6Eg4KSGvwCcJTn6dOnDwDLly/PUrKnqGQsrWmfnmsvxWO9P2PQbxu0z7QttrW37OV9cnUbP3u2bt1aIqa/i38By3kWDkmvwa+Wf5rPnqmNS9oRpvcbyA/nTVToO5tVn3Sgc7+HKbfxVyLs22qXWTz4MSYfseDiYsCkdLDdf4Xfhj7GlIudmLRmGo+VMrFr3CMMWenGU9+t5aN2/rTu0AjjX4HZloBx7GPIY0w+Xp5nv1/FmDbl6dS5CZ8H7sWEmYOfd6PdJFd8SwfgVfphxi16h7bV76d5eZWTeUwBVXyaMfSL4bRw1bi2ag7LQ9KIXzaN+RWfoHzwUtaE5ha7Gqj7wiz+6KXgXbYi5XxcULQ49q3YSHChljHQCFn8AauaT+aTzv2YOGY/A3fmd1tX2n68jRMf22/rmMKW8dnco9mu66SobpSq1Z7+3e/BCFjCrxLh6LORJqPWcnyU/baZU18/ydPfXciS0W8J3sjaoy8xqmU/Jn6uk3JhFWPemM6B3PIUVX9KBagoWDj124/wylu0f6I/neaG4//8o5TRw/h5YSD/G9WfKv4B+KtgqF6HGi4KWC4QGHg1Yz/Mwezee5WhDarhUaMWlVRIHxq9ldc0d4XvU8HOm8Ifp+jlft4UI8sVfh7Ug8nHyvHs96sZ07YsD3RugsvOPVjKP8bgQn5OWcr24cO8tr2L1yC7W2L/klCDvzgTooticP7f0L/169ejKApvvfUWAF9++WWWkj1F1z/bjF2sa2dhsJXkcS6jqVsz+I32Rboys/8Dcg76i2OhMCHEv4+hUjUquwBUo+uoT+nq9JjuXwp/FbIuL6JbF8zM9Hmq37xMWKRGM28FVzdX0OK4cjkWrW453D09UCHnAX47LY6wS3Fodcri6eNl3Ub1o/6j/ejVrjYBrs5faLrh5lq4AEKLOcmfv57MV1sXnzKU87Hd0GM4vHQeyw9FFbyGqePg0RxY9jtVhr9I6/t60sszLs9MDMvVA+y/9ACPVfejcdPabAjTadYkAIUUzu09TIwOqB54eSiAieSIgxw53pF69zekQzcLHrVdMYXtYfc5V2rooLh64mEg6xtirEjHgYPpVstAfEQkhnLl8PT0w9/DndpPDOX5RskE/jKHv8JyeidVqnZ7m8+7OT/fOI7vPEy0/mD+Xh+nF0PPelcB6I7jX7oUi1anHJ7e1nNKuYXz3pifbe/serK3RUREBJUrV+bixdwn+1euXJmIiIhc29wOMnAvbjfFPpgPKIqa7QVv5vuspXgUx2P28pz2Sv66bYEu+5B/+nRfMlwjyFWA+Dcz3nMfjdwUFKUpI1cdYqTTY5aKVamoQtb/6uiYTGbINMFETzjB0QsWHiut4unpiaKFc/LkNbR2tfD288MAOQ/wOw4azrHj4WhtauJfppR1G7U8Hd/8lDH9W1PJQ02PY8yeeHnkvju1bAfenjWVAQ09ubH7S0Z8+o+1pOLlv5n+zt959QZQcC9Tndpl7P27zNoxg/l4TUjhY1fzZf4YO5YmdWfSt9sYxviF5zPHRSMh7CTnoy0YvcpRo1ZFfKr2YfyEYzw/YiWXHe2sg/fHRqVvqVsi2LRoLZcs/vZ7MtXgN5OUms0zcq3Hi3N+ZOT9Llw/F4yxVk38AipQwdebVu8v4qsusfz61ovMOprpKwbFjwBfFfSbxF34g3WbXqB9784MGGnCp5UHqUeXsCTQkxYjQfH0w9eINenS1rdcP3ezC2QL/ZrmodB9KuB5cyvPvcjkct5oDYvzwPajWX9pERw7cQ2tbS38SgVgAJRb+Jxyzc+2d2CAPyQkhPr163PkyJFc29WvX5/g4ODb1KuclYQkhJxKxNwtpH8FkKEyj56+2K41RwdrHG8t36nrTovsWrN7cv4YzTzltzi/QHPOiLP/LRfRQtyF9PSh0gyfCYqt1IzpGkd3nSba6TNSTw4hToP8z+c1Y3FUsLGGqBbb9OL0IDBvFrM5wzZuDbvx9P/q4JESxu7VuwlJrUibJx6gpgvFHDQCaFza8BXfHq/FS2/0pp5HADVqlsZ4OAqTDugWzGYdMOLh6YaC2frpbPTAw1UBLJjMWT+v9eQg1i3bSY1XH6BuPevE1VyDYz2Gw3vO8lD1hvg0aUmzSxpNfBX0hBPsOZFo3VbxwN1dAT2FmzdTOBd4gMjmnanRsjnoNzkeeIjom/fZ6su74+GmQFrGo3o07EyXWh6YLqzm23n7cG3Zn4E9G9J10BvEan54qhFcj879P6S6ZsFsNpGWHEvkpXMcC9zB3uB4NL9IoizgbyxP3bp+bL1+I/05G8pSp3YACpAWdZ1YDbQbUdzQIMBQjtq1/dgScaPQg1aZz0P9Vs77/Gz7H3Ds2DHat2+f5wB/+/btOXz48G3qlRC5cy7LY7FYstTkL0qOuB1QVSVLjo6iKCiqPSs/PTtft5XgyXGfipJhTD9j3K87jllcnDPi7H+XhItoUQLpuuOMzrDWrq1Mop5yhj9/3opzzoEee4jwgsyw1E22OE1BNVg3MqWZMhwnP0xpaRm28e48ik9fbotfwhF+m/Ybh5Lu4ZkPXqSFG7n+A1XLPshHC76kbw0DV/8ax9D3lnMhNef22TNz/KteDNjUkllLxtLetyLN7q+K69oQ6zpEehppJh0UF3z9vFBIs77Orn74eiigm0jNZuBcj93OlA8X0eyHF2nXoTRAPr4wMHNiwXBrDX4UfDp8zPLZT1H5gWfpVmMVc0Mce0ezmEhLSyX5xjWCT+zhz8U/8vv+SDTVPsCfvxr8Pp0HM6SlLyn7PmfAa8vx6DOF78Y8yJtzl3DNUgF/w3lCsktUUb3x8VZASyQ+PpHA31YS3HMwzfv0BC2OTYvXEBrfjUQdFNUHX28FLSyYULNORdc6tGtTkfkXnRbMNdaiTatKqOgkhYZwLZvzsnCvae4K36c8zptbPU4hz7vc5XLeuNQphuPlLPPnhnYrn1P52fYO+Ouvv+jXr1+eA/xPPfUUmzZtuk29KtmKMzG7KAa//w39c665bzKZstTkL7L+KViTdJRsZvE699nacYwotgW2FNv3pDmss6s70v/ttwvWr4KwD+ZLiR4h7m66KYUUM+DqT/nybiiRN8FgQIu4SrilGdWNXrjEHmXrnnBSdTB6BeBljr0LSo2o+JQujbsC2pWD/B14iAS1HrW7dbQO8APoOpqmA574+7uhhCbnORCsBjSgyyMt8I/cy59bz6UvhpQDPXo/qzY35f8er0XA/Y/T+WAw60JMoEVyLdIC3kZqtelEvQubCU72pnbnDtRzBSyRXMshxSL14l+s2HUPrz1QLh/foegkntjNsa4NaOXXkMceB1dFI/LgHs7ZL/wUdzzcFUcAbbm6jz0XO9Kztgt67GECTyWhu6RZF4yyt83wxBU8/f1xRSc1MZ6bmomYPb/wvflZXuvbmAAFUo4f4Uxybi+WxuWN05i99XrWC5T4ExwIeoTajT2p9Uh/Hkv+g+1BUZg8K9K4S286VVZBj+P4wbOkAnpcECdCu1Orlgu1Hn2Onmlr2RkUQYLFgHfpKtTwjeXoqfBsp3jnxXIL5/2tbPtvsn//fpo3b87//vc/tm3blm2bTp06UalSJX755Zfb3Lt/p7wWqs1pgVthlVPNfXu5nqIe5NdtU3B1QLNn5isKum2RRucLAF1Pz9jXIeOAvW0AP/+D9sX7IWQfzJcSPaK46amJJKbp4FmRurW9UYLjUYxGLBeCOG9+jKYuAbhd+5P5S8+SqIFrQGUC0m5TaY5cqZSuVhUfFcynVvPd4jVcN0bTetQL1gF+AF3DYtFB8aNCRS+UI3Hoanke/3gifWoYub7lE159ZwWhTtMHDJU6MXT4E5S/uIyv5+3meh7P03Lpdz79thvL3m1FpV7vMviP/Uw5nAKWi5w5b0Jv5UrLZ16h/b45HIgrRatXn6edh4JuDuZMcPbRVdKBWYz7uSPzX6qNS0G/SVTcKFU+AHfF+vwzjp1YODnjyXwsoJsXlYCKFfBQdBKjrxNvSeHykrcYmDaZ+eMeprJBJ2HjBrbHZvM5qfjg56MAN7l5U8N8+nd+O/AiY1q7o11dy+ItN9A9bloHu21fBmghm1m5fTitHg6g5f9NYXTcp/y4I4QUv3o8PPgjBjUwolgi+OuPneS0ksktvabZ0CJvrU85nje3epxbOO9ylst5UyzHyz/zLXxO3cq2xWnNmjV0796d559/np9//jnbNgMGDKB+/fqMHTv2NveuZMprEDmvMkO5xWEWy61PKS/ODPnb0b+cau6//fbbALkO8he4f9aRe+zLYilOcX6GZH3bj7UYhuLYMn0/tguIzKxZPgXrkxDiX8pymfMhqTSt70XTZ9+j1mMmXNMOMW/6Nv453I4X7g+gYa83+bhrEjd1NzzdTRxa8CnLzhRf4JM/GnFXrpKgV8OvdneGDb+XqJvulPdwruMSRWSUBtU8aPL0mzyZNpXlp9Ny2adKpdY96Ny8LKrmz/UTF9ia11USGlF71rO71et0Kl+WNl1bs+f7nURrcRzZdoiONVpRqsoDDHz3gQzbxB7dysFoLYfP4jRCNq9kT8NXaZ+flaDSzrNr71VaPFIZV1fr7cDdlx1VdhQXN9wMACZMJkCP5fDWHdTTq5J0JJAQE+iYsCaqueHunvkAOrEXzhJpqUbFe59imGcjQuJUAqrXxtfWf/d7uvBgjTNsuJhaiJr4CRxds5J6FZ+heelqdHj2/+iQoYGJyH0r2RB00/bfxxj2rd5Io9d6UNuzKm2fGkrbDLs7QNL5ZQTl9lbn1JWYg4U+729l238Ts9nMokWLGDBgANWqVWPnzp2ORXerVKlC+/btqVSpEj4+PnTt2pX169ff0f7+G2rwl4QB/Ly+hLhTFEWhadOmWWru2/9u2rQpe/fuLdJMJWupTd06qK9pKKrTV7m2QX778TKW47FlADll9GfcqfPzci7V49SsyJ6FEHeQ6QR7DyfRvWMpuk3ZxP1RqXgkr2Zwn/nMXfMsM3pXofOHy9nxZiyJuid+3jdZ/XpnPtxRiMCgSGmEnzpNlOU+yrd+i19+e5TQeB9q+zoFg5ZQgkPN6Pf58shnK/kkuQfjLjxK3w7+qFjwaPIa3615zbG/66vH8KXr27zWsyYGcyVCNu9l3sW8Y9fQpV/xa9+feaVODZ5+8ymWvLyIMC2c9QvW8GLzPlRp9DLfbXw5fRPdwrUN81gVmlPsmsyhbyewpPM8nquenym+LrQYuZRNr+q4+pSilLcrqqIRt3sFm8KKY+BI4+q+3QSn3Uf9rhNY7N+FQxEGKjdtbVt0VcH7f4N5rcVOvjqQmOGzUnH3wtOogJ7KzTQdtGus/WEhHbQm3NjwKwdTQVdSrDNhFS98vBTQo1g/aSLt7/mcx6vexwtTlvKCc3f0FIKXj2Pa9oRcPpcL+prm4Zb7lNN5c4vHye95V1Ru9/EyH/7SqkJ/Tt3KtsXJZDLx3nvvMWnSJBo2bMiyZcsICgoCoEGDBjz11FPUr1+fUqVKMWTIEGbOnHlH+mlXEmrwp6am4u2d8zLUt9K3tLRbP0/y6h/k/3XOrLj7p6oqXbp0yVJz316Tv3PnzqxZsybHLwmKon/O7GU70XUUVclY7doR7OtZN1AUBd1eDuM2LXBxN18QCyEAPY5DK5dQtndXWtQqg7cPxF02Y1STOL1iDguiHqVzi3pULu2FpyWF+GuXibUY00vO3EGmC3/y8xoXerRvQOVKtfHHTGpSFJfDg4m4qYMWxe4Vf1CmZyeaVLaQlJjXAKtO9PmTXGnZFv/IUwTH5jO4M19m+98naPnsvXjV6MgDtfex8lwayUF/8N2CGB59sAX1qpTC02AmKeYK5w5tY9O2IBIdddeykXqRzesP03hAC3zz7IBGxN6dBHXsRyMPiD+2g0POGUhu7lgTw8yYzNbnefPsRn50XtVKN2GyAAY33NyydspyZQs//mima5eW1K9xHy3UNBIiQ9m7ZhcnlI7071GXjn0f5czXqwsxZRy02GMsnRnD+f/9j1aNalGxlCdGcxLRVy5wYt82th+5yk2np2S6toP530TSvlMHmtavQllfDwyWFBJirhF65iIJanol6gLRb+G8v5Vt/2Xi4+OZM2cOLVu25JFHHqF8+fIoikJ4eDiHDx/ml19+oWvXrrRr1w7gjg7yS5xS/O7mLyB0XeeHH37IdgB///79HDhwoEgH9xXS62/a/7Y+kDGTx2Kx2DJ5VEdGj7XkTsZFdhVFQbNYMpXgTI/7sRfv1LPO5C0ukr0vip0Wwarx71P9ozfp3bI6pUtDeHgaruoNto57iaGhbzC4V0caVfXDz5xIxNmTXEtzSy/FcQel7p3ByC/cGf18Jxo2aEVF0ki6EcbJs/s5Hw9oofw2biLVx7zKww3TuBGdhlq6LKVVQDHgU64qPo69WXAJcCF089+c7PMsFS/8w4Fr+YxdU0/w45zNPDm5K6WavcBLrZczfncysdsn8NLQS7zxWi86NKqCvzGNG1dOEbh6PjMXbCc6+JigugAAIABJREFUt9g16QDfTl3Lw9N7UjbHAycTGRJKZJVqlPEpT0UfC+abcVwNCmL/5iXM+2kzlwpSSqkAzCfn8PqwFN4c2oeOzbvRS00m6uIRln3xM5uVF5k6ui0vjn+DHU99zr6k9O0UL2+8FIBUUlMBdBICv2ZYoNPOtRRSTDq4eOLlZV1dTAv/kzHPXGLPwIH07dyS+pX9cEm7weXT+/jr9/ksWBeU50zh/L2m+XfLfcrhvLm14+j5O++KzO0+XubD38Ln1K1sW8yioqIYOnQojz/+OIMGDaJWrVoABAcHs2nTJsaOHcuQIUPo27cvwB0d5C8JcYqmaaSlpeHq6pp34wJIS0srkuz7vPpX2Nf4dvRP0zRGjx6d7XHWrVvHhg0bch3cL3z/FMd6umSageuI9dFR7h20RE8P/q0H0zUdFB1FsdXf1CzouoauWaxT3ywmQv6aRq1ybtkdmdjYWCpUqJCvbhamxn5BtgkPD8ff3z/PdkIIIYQoegWJCQqie/futGvXjiVLlnD8+PF8bZNbTFBc/SwMiV1Edi5GplK9y5uoBgMoBlBtg/iqEV2xL7qbvvCmoqiO2B4dLGj2KQDW7H8F6wC/ZrE2sP3WNTO6ZkG3pP/WNDNXdv1IJf/sM0GTk5OpXr16vp5HYWrsF2Sb0NBQPD09871vIYQQQhSdgsQEBTF8+HD69u3LuHHj+Oeff/K1TW4xQXH1szCKOnYxGo0EBAQU2f7Aeq1kMuW5RHy+SP/y51qshcrtXkJRjSgGIygGFNWIajCgqAYUVUVHRVUNoKoY05N/FNuFQMYFtSA9a8f6JUARPTubwmS/ScacEEII8d+2fv16Ll26xIkTJ+50V4S4beyTaB2za9NvpWf3q/Ya/E6xfDZ5eZlL+VjvyymzqOhm7xYmM6skZMwJIYQQovjMnDmTEydOsH379jvdlbue2WwmNTUVN7fsk7ILKiUlpcgGz0H6VzCK40dBccyyzY6aefVdezY/ZJyOa1+cqzhXPBZCCCGEyK/jx49LXCL+M3R0p1g8a0xuXyfLOV53/J3LPxPnxbkU2xTgDPu+TaU5hRBCCCFys3Xr1mJdpPXfJCEhAbP51tdxM5vNJCbmtKR34Un/CsG2fq41brfe4Tymb6tQZ52qq2s6mqZZy/HoGrqmoWkW6z+gDIP7EugLIYQQQghxuyiZgnh7bK7rmi0y122xuzWmt2bjF/4LsPQKn4rThYQQQgghhLjb6bpOfHz8LQ1Sm81m4uLiiiWhSvpX4A7l2cSxBI2eORNIzzh1tyA7FUIIIYQQQhSPHMfac3qg0IPzyq1tLoQQQggh7giLxUJsbCwpKSkF3jYlJYXY2NhinTEh/SusrKX1AYz2wXtN01DsQbytpqeScW1eGdsXQgghhBDiDssuJFcUBetqu7YY3hHGK6BnqrRjv6Eo6E4XHtnV6hdCCCGEECWTruskJCRw8+ZNvLy8cHV1zbWtyWQiKSmpSMrTSP+K5vi2ovnY6mhax+Z1HcWaqu94zJjTTpwL9zvX8cxvBo9uW5T3TpK6vEIIIcSdV1JigpLST/HfpNv+5wjmMw/a52cfGer3Z1PHH9V2oZBxx/k5K+XfjxBCCCGg5MQEJaWfRcFeLsZgMODi4oLBYHCswWSxWLBYLKSlpd2xWEr6l73sTk/r+lpKlim2jgF+a9aP08mVqaFzJ/P6B2AwGDCZTLl+s3E7mEwmjMYcv8MQQgghRDErKTFBSemn+G/LMXO/ENtlsyeyDOzb438999x+VVVJTU3F3d09X0cqLqmpqaiqmndDIYQQQhSLkhITlJR+FjX7YPTdSvqXmZKpuk4OrRSFbM8i3Zb273zb/oOS90Jbrq6uJCUlFbzfRSwxMREXF5c73Q0hhBDiP6ukxAQlpZ9C2Nmzhmw3cmxnj+sLm1Gk2wf3c9ncaDQSHx9fqP0Xpbi4OPmCTAghhLiDSkpMUFL6Kf7bFMX24zTIbx+Tt18H2H+r2S6k68T5YkDNWLwzxw64ublhsVju6IVyQkICmqbh5uZ2x/oghBBC/NeVlJigpPRT/LcpjkQbJYfYXc+QmOOYep7rqrwqztn7Oc4IyCW5x2g0YjKZiIuLy/dzKWqxsbFYLBa5SBZCCCHuoJISE5SUfor/Nl3XbOPyGoqi23J6sq+wk7FEj+JcosfWSHd+XEXXLE5F/nPm5eVFUlISJpMJT09PXFxcir22la7rpKWlkZSUhKZpeHt7F+vxhBBCCJG3khITlJR+iv+qXM5FR5Z9Tm0Uco/dcz/PsxbvycrNzY2kpCTS0tLw8fHB1dW12Keca5pGamoq8fHxWCwWmf0ihBBC3AVKSkxQUvop/uvyNws3/Wsie4q/I3snfcEJnfSMIYttgD+vWb6KouDt7U1aWhpxcXG3pUaRoiioqoqbm9sdr6ErhBBCCKuSEhOUlH4KAekL5pIp8SbzFF7rfZky8x2lfbLG9FnW3VIU9PzU+dd1XFxcMJvNXL9+HU3TCvqUCsx+fWI0GuUCWQghhLhLlJSYoKT0U/xHOfLu7WtiAbqeHunruu0x6/WA0XqfDpqW4UsBXbM20jTNcQGh6zqaZkEvwEnv6uoqF6xCCCGEKDExQUnpp/hvUbAn31hv2/92HrhXFQVFUa0xfaYpvI5tSC/PqaM4knocx1Hs+fpKPvOFMjIajTLVXAghhBAlJiYoKf0U/zG2PB57pG+P+x3r5jqW4rIm5BgdN7LZU+bFuAq7OJcQQgghhBCi6CjpI/3Wmbi2P61XA/ZW9j8U+4OOeySuF0IIIYQQ4t/BaL04yCbAVxTbFF/FXq/HOpXEflsIIYQQQghxW9in59qzdlRVtU/KRbWV1MS+sK4j18e2yK6uO8rzOzJ/nNrb96kXKmdfCCGEEEIIcTvktEacI4M/tywe50H99Gm7QgghhBBCiNvFnn5jTdrPGpPrtux9JUPcji1fJ32dLRQVXdfQs1l8V7cN9OukD/7rugz9CyGEEEIIcSdkHoW3r+XgnICvOj+YkwwZQ5K9L4QQQgghxG2nZPoNOcfw9sDf+YsA5/r6krAjhBBCCCHE3cq2blY+Y/YMGfzOFwiZs3SkTqcQQgghhBB3AUWxZeo73WX/f8V5cN9Rej8Lie2FEEIIIYS4O+kULMfemKGxvfam8zK9uYiNjS1o/4QQQgghhBAFpOCOpuuo9gV1NQ1FNVizeuxleTKX5rHTsZXjsd5wHtx3ZPUrCuhKrqV4kpOTi/IpCSGEEEIIIbLlavutO8pwYls3y/FjX28LFWN6o2yX2s1VlVjfouy5EEIIIYQQIhsxnmnZ3u9cRT9zRX1r/fz0Cb75kWPJH6BCvHe+9iGEEEIIIYQovFj3tDyrajrH7UZrAk8BhvZlOq8QQgghhBC3nT3z3v77Vqvo57y9U1Z/pgW8hBBCCCGEELeHY5auks391r9QUDBay/Kk32VvJMP4QgghhBBC3D2cs3Tsf+t6xmL89rW1nBfTtWb261n2pedWpF8IIYQQQghxx9lD/fR1thSn29bHjJnn8iqZAn3r1F5r1c6M9TqLufdCCCGEEEIIBzWbAf58sS+4q2nYa/DbN7fH+va1uGTxXSGEEEIIIYqPwcXIg30foXH7ZqQkpxBy8jx/LV6HxWR2tHGsnmWrt2kdrtdRMozZ2xvrqAqKbQau4jRo7xzYWzN/HBtJzF8wij9tP57NrAntcLnTfRFCCCGEECWSguJYENc5c8fOMVBva+3YrlBZOc6Bv45cABSA4k/7T+Yyd2IHx9JoQgghhBBC2HXs1YXmXdrg6u6Gbyk/7u3Ygo69umRqpWQIye1hfsaoPD1WV1F0FEVHUXVQdFA0dDTb4yqqYkBBRUFB1xQ0HTQNdP0OpvB7VqLxow9wT5kSMI1A8aBq23Y0ruGLeiu7KduX6VEn2Z1g/dm2qCtuhWgjhBBCCCFKKtX2o6TX4XcawLcm4tu/AFDTy/XYZ+Q6fTGgO93nzDHlF80a9Nt/7iSvyjTp2okGJSL296Ra2/Y0qeF7S2skKGX7MSvmHIeTrD97fu6eTeyfdxshhBBCCHF3uadl4yz3NW7XNMNtR3lN3VpG3x6722N7SE/WVwDVHsRrmoamaRmDf0Wx3oeOtbyngqqoqMqtDFXfOkODZxj7y7t0qZ5zPzzqd2P473+wNvww/1xYxdTxXahUgtNo9JhNTOrQi+faDGTBAXOh29ytlIDH+eLqP7zbxQ0MdXh550EWvF3rlr4UEUIIIYT4t9CxxuuZaZqGbovhHW31zBn99vuzL8HjqOd5y8v2Fg9Dg+eYsPgDHqmRW+z/GCNXrGNz5El2X1zP1xMepnKJjv03MrFdD55q9QJz9+cU++fd5m6lBPRk2rVdfNjFDQx1eTXwOItH15bYXwghhBD/er6l/LLc5+njlWN7hUz19zMl7OjoGK2ZPU5b6aCoTot2Zdqhrqjc7UvwqlV68OHqcdQJ/JrPugcS6dGYPlM+ZbLlOgPHHSPtTnewMCzxhAfFg1qO6KQcXv/8tLlLubdpy72Wg0zZl4pa4X6a143i8M4w7nC+mBBCCCHEXcIavDvH4Tq6Y55u4Urx/DuoVR5n/NpPqbPrKz7puosIzyY8PXUS0yyRPP/J0RIa+8dxLSgO1PI0T84p9s9Hm7uUe9v23Kft57N9qagVWnF/3esc2Bkqsb8QQgghhJP02bU503Ud1Z4J5PgmQFUyZPeoquqo+anpzjU4nRbc9b+PXp9P5usd61kVso/tN46y9coWpg+tmZ6FYSxP67enMO/kHrZd38OKLZN5sXN5DM49yquNS0tGnTrGzq2vUM2tBs9vPWYrR3OcDTPb22rcu9Fs5Jt0iF7IR0N+IvDQec7v+oOZX+6hwvNP0sw2b1XxvofHp81j8fl9bL9xhC2XtrJsy2ja+NgeD3iML64d5dePGzn10Y123+5gx/7/o74RwED9savYmZBeFmd3wkl2x+3kg4dzqriv4N1mON9f3sP3HzTF274SctlHeC/wbzZGHGVXzAHWHZzH6Ofr41Ec12pqAE0Gf8KMwM1sijzIxuM/89GwZvg7HStf7ymAUor2X61k46VVvNO9VAHzvgw0GLeWnQkn2bK0J/7+3fj06kl2BY3lfs8qPLthFcNaGPLejRBCCCHEv17OUZY1+97pAkDJVKdfyXhfxrI+eob9ZNmvvb3T+LHi35S+k75izq6/+DPsCHvjTrPn2g5mve4c+1eg7ehpLDp9iD3RB1n3z1e80rlCptg/jzYurXgnKIgD216lultNXtoWZCtHc4YtszraYn93Wox6i47R8/lg8I/sPHSOcztXMG3qbioN6EsLR+zfgF7TF7I8+Aj74k4ReCWQ1f+8RztH7P8EX4WfZsUnjZ366E7H7/ay/+BIGthi/wYfredAUnpZnMNJ5zicsI+Pc4n9fdqOYOHVgywc09wp9u/K2D3b2Xr9NAdjj7H58EI+GHAPnsUU+983ZALf7tnG9qjjbD3xGxOGt8gU++fjPQVQSvHAtLVsvbKeMT1KFzj2bzR+IweSzhG4rDcB/j2YEn6Og2c/oZVnVQb8uZ4R90vsL4QQQgjhTFGUDPG8M3ssb7TfoaqqtWg/unWarz1cs21sn+qrkHVqr1KuJU+81hn9p8nMmBBKTIIFo29plOArtiwMb5pPmMvkly1sHv8h3wWp1H72dV5d+gMBvZ9l+o7E/LUxHWNBj5780ewlps5ty/5Xh7H4hHU6qiUuHDOAWwseeqIMZ775g3NpPjR89R3eeP1/1K7ki4fhEFVKq+y9qtL4g+m883gYP707nF3BSai+5ahaw8SlZNsLFLubnYFmRndqQ+WJJwmzAMb6NGvjy41t+wg2A1gInj2M/ktcrK+WVxNe+GkCXZJWszHbabIqAQ+OYPLCPphnDePdSUdItJdUig3irynj2Hg5mpuKP/X6j2DE119x82wvZu4zFfYcyIY7jT74nhmD0lg3fjw/HE0koMMA3vhkFmMT+jD6p2to+XpPbYzVaPFQbXz9oXXH6hjWx5D/CcIWzk19kd5zK9Djx0X0CnqHoZ+fptbb8/ms2WqGDfiNkHBLET53IYQQQoiSyba8LuA0KJ9lqm725XeszXPI8NbJ5rsDPUOdz6yxf2t6DX4IfeFnfDk+lKgEMy6+ZVAupMf+909cwLSXzWwa/x6zTqvUfe4Nhv7+IwE9+zLVFvvn2cZ0jB+6d2NFs0HM+KEdewcN5qfjZkDPEPs/0rMsQTNWcCbNl8avvc/I1ztRt7IfHoYDVC2tsvuqyr1jZjLmiTDmvzOEHRessX+1mibCHLF/INt3m+jQqS1VDCcItcX+zVv7ErNtLxdssf+FWa/R9zdb7R+vexm46HMeSV7J+hxi/1IPjmLaon6YZw5m1OeHnGL/02yc/BHrL0eRrARwT/9RvPXN1ySf7cH0vUUZ+3vQZMwCZr+axupxHzPnSAKlOr7EyHFzmJDQkxELr9pi/7zeUxtjDe5/qA5+/tC2Yw0M66ILFPufmfIc3b+vyBMLf6VP0Che+ewkdUYvYnLzP3jtucUES+wvhBBCCOFgr7mfU1KFoljn9xqznc5rz9LJdDGgoKBjr/GZebsULqxfyZa/sgakSsWuvPByNc5PfpLPZgdjAfZtv4BL3eW8NLIri3b+TkyFvNtE66ncuHiR+FJxmHQT8aHBhJ7NGASq1RtSPyCaE4ci8O31KVM+u4ddI/6PaS4v8vWXZTC6ABgIKOcPN7ZzZNsBTkVpwElObHN+BW+we81BzFM70bbKAsJCNdRqLWhaLYkjW45jf5am6MuERQNKKdp9PZSHvfcw/cmvOBib6SJKcaNG/88ZP6Up58cOZOL8s9x0ftwUxsGVYY6bQcfdad73S+5tXQF136Uim66qlOvGy8Mqs/fNx/hqSYz13T14FpcWm/n4mQcp+/NiIhwHy/k9Te/3MX4e8hk3O8P+748WIMC3MidEcz21LmWr6QQvPET4VY3mVcuQePwwZy5FU5SXN0IIIYQQJVn6ArmO0puZ6nDawvhsFs/NibXMT/pFg3VAP4d2GaRwft1y/so29u/BywOrc+6Lxxk36wIWYM/287jUXc2gt7rz486lRFfIu02UnkJM8EXibLF/XOgFQrLE/o1pEBDFsUPh+PX+gumfN2DHG68zxXUgc74qg4srgJGA8v5wYyuHtu7nRJR1H8cyxP4x7Fp9APOXnelQdR6hIRpq9ZY0r57IoS3pZX7Soi8TYov9O34znK4+gUzpPYX9WWJ/d2o9N4XPpzbj3IcD+GjemUyxfyj7VoQ6bp4+7s79T82gaauKqHuLrkylUq47rw6rzO4RjzI5Q+y/jQnPdKHcokWEO8X+Ob2n6f0+wsIh40nprLDnu8OFiP2jiEytR7nqGhcWHuDaVY37q5Uh8dghTl+KkthfCCGEECIP2c26VcGeoZ+eoZOe8q9bF9/VbYvvquk7KMh0TGPDJtR1vcbhHWE4QnJzKId2XMWlSSNqueSvTX4YKlakLFFcj/Ckdb8H8drxI9/+eoSLl+KcAtBUdn/xOX8pvZl+fAOz575J74dr4pVh/qlG9Nq1HEhrxIOPVUJFwb9Da+qk7mPnjuRMR1Wp+OwnfNBfYcOQ91l5Lmuoa+z0Lt/M7kTkhNf4KPPgPqCWbcHT38zlp+Pb2XR5B38EvkNrDwVX96JdHczY+D7u8fSh4+y/2RZ1mO1Rh9ketYOPn/BGrVSRMgVe2UojJvA35k78jSORmS5F1HK0/2wRq8MP8ufRhXz0bjcaV/On9ANvMHXZC9S1zR9RK9Sjln84F07HoRvrUK8BhBy/gOTvCCGEEEJkJ/vFciE9uz9D9r2ee0Z+5m2tfxe+d8aGTajvepVDO0Kd4voQ9u+4gkuTJtR2yV+b/DBUrEQ5W+zftl8XvHfM45tfD3MhLNYp9k8h8PNP+VPpy+wTf/HDvLfom03sH7VmDftSm9DlscqoKAR0aEO9lH1s35459jdQqf9EPn5OYe3g0fyeTezv8uD7fPdtZyLGD+S9zIP7gFr2fvrP/JElJ3ez7epeNgR+QDsPBVePoo79m9LQy5dOc3awJ+Yke2NOsjdmDxN7emOoVJGyhYj9o3ctZvaEXziUTez/wOe/sjHiGFuPLWbCe4/RpJo/ZR54k69/f5l69ti/Yj1q+4dz7nQcurEu9zRQuHj8vMT+QgghhBD5kF0sr2Z3gWC/EAB7TU+nmp1krfeTHzlvoReoTZ48PHAjjTSTLwFlDCRdueaYCuvMdG4V49s+ykuv/MgJ9X5e/PkPlq4bRrNSTjVJo/9h/YYkGj7VlapGL5o91BRt19YsGTqGOs/w/hftiZn1PjM2xmTbW8vpTazelULTDz7llY7+GZ+rWoXe82czrNNN/v7oLd549BXeH/Ebp4pjoVxFQbFcYc0rTzGg3ZPpP60ep3+vBZwvaBpOLozNnmHwQ+f4/L4HGfjGepI6jWbWiV2sWdUH4997CDEbuGfsSjYffpt73avxzJ8H2H5tHn2rutF00p9sDf+DIVKDXwghhBDCOrnWOT5XnMr13MJofHa1PK33pz8O6eWB8r3fHB8pTOyfdf6AYx+eHriTRqrZj1JlDCRevkZCNo3Tzq1gbOsHefaV+RxTW/LK4vWsWv9/tMgQ+//Nmj+TaNSvO9WM3rR4qBmWXX+zN3PsX7c/H03uSPTMd/jyzxxi/1N/snLnTZqPmcTgbGL/vj/O5c0Hk9k0dgRDHn6Bt/7vF04UU+yP5TJ/DOzF020ed/z0u78rfXvN42yRxv7PMezhc4y/tyPPD19DUqd3mXtqP5vW9MPwdyAhZgMNPlrDziPv0dS9Os9vPMbeiJ94uqobzb/4m92R6xgusb8QQgghRI5yStYx6raFc+3BfXqmj7WBoqgoKuiaNZu/MMynjnM2rSfNOlbDsN9afgdjdZp3rITp+CmCTflr45CaQqrihbefCplzPVJTScUDD49EImM1PPx8MEL200dNMZxb/yvn1v/KD3Vf4Msdoxg6YA1DZtimxeoJBP6wlog1vXj8gcuU7ggHPthOhhjfpRb9Zo6g8YW5DPnsMJnze+z08D3MHTSPM9Nn8/6Subg9P5iZW2wXBC51adzcneAZX7No5XnrsV0DCE/RKZ1lR2bS0nQULy88FEjN7joglzbmk9bXufG9boT/cZLUHPqbfyql2j1Fn84K+79fmiGL33zwa15qq6JZNIhYwpfbf2dOpSoEmCO4EpmCDgR/+yYf+81iYrutvDNwOVFtRjD7Cy8Wdv2MXYkm4i5JLo8QQgghBFiHuR3D7YrqNOhvj+ULlBZj20ZF0zLGW/Zq/vb6/QVN7jGfOk5Q2pM071gdwz7brExjDVp2rIzp+AkumPLXxiElhTTFG2/frLG/nmKN/T3dE4mwxf4ukH2pF1MMZ9f9zNl1PzOn7st8s3M0/zdgFS/PCLXF/vHsmLuKiLVP0uuBS5R5QGH/e1u5kSH2r03/maO498IcBn56kKQcXgMtfDezX5nLqRnf8/HSH3F/biDTHLF/fe5t7s756dNYsOKcLfYvxbVsY3+TNa739sIzx9g/5zbmk8c4k/Yk997rzrWVx4sk9i/d/mn6dVbZ+92vGbL4zQen8Wxre+z/K5O2L+WbSlUpZY7gcuRNdODC7Dd43+87vmi/hVEvLSOy7Sh+mOzNvEfGsyMxTWJ/IYQQQgjAsQJXDnG4tQKPvaVircGvaRqqwYCiW+/UbAP8CgqqCrpm3a/uXJ+zAF3Sr23gpwUvMu2dLxmT9i2bzqjUenooLzW+xOrefxKtA/lpY2MJOUNwQik6jXqdw4Y93DCUo4b7GVb8cRZLaBjhPELV6ils/OsofNCLbnW2skZxzjtyo9mI92idvJuDx64Qb3KjbKvGlHNJ5VJUUobnlrbvN1Yc7sfLM98GNZDJf95welyl4oD3GNg6ke3Dd2KuVZdaAGjcvBrCtdjMXz5c4q/hg0jT5jFu4XTieg7mp0M3wRzMmZNmOvcbRN/jSzl29SaKbwPKu2XzJurxhARFor78FC89e509cX5U4hSr1jmVtMmtTfh6FnzXnxlvzmK633xWbDrHDbM7petUIH7DEnaHFfBLHJd7eW7OGPrXhEe9zvDM+xlrcWoW5/1ZSLoamuFCKC0qCtfyZUk+uo/DQaGUfaQsbhd3s//4RUKLMKNICCGEEOLfwhro238yPOK06K71Hsd6vHp6Fr5mS+pJ3xf2KQIoOuj2Ep7Y96EXqD6nfm0tC+a/zMx3ZvBJ2kw2BKnUeXY4gxqHsaLneqJ0ID9tbCwhQZxPKEWXt9/gkGE3McZy1HQPYtnKM1jCQrlKV6rVuMn6vw7DmCfpUXcLqzJcDLnTYsQY2t7cxf5jV4hPc6Vc6yaUc00lLDpT7L93McsOPcOg2e+iqDv5NFPsX+mFD3mtTQL/DNuOuVY96lhfUZKvXuRqltg/jI3DXsKkLeSzRbOIfXwg8w/dBPMFgk6YeOjpwTx9/FeOXLmJ6tswx9j/4ukIDC8/w6Bnr7Mr3o/KnGTF2vMZYv8c24SvZe6cAXw78jtm+81l2aYzxJg8KFO3InHrF7OrwLF/U16c8zEDakF3ryB6v3cwj9g/JFPsfx238uW4eXQvB4JCKPdIOdwv7mLf8WBCJPYXQgghhABskX4+4m97LG+019zXNQ3ruL6eflGgW4N/TbMN+Bc0LcghiUNjB/FO7LsMGT6RyWV0Yk7u5OdnprBwR2IB2tgkbuW7N34mYFxf3l/yCmriVU4tGM+GVWdJvHSAI2Ej6PJQI2LGTOSr1l8zcv8+3kRFidtKkglQPDG4+tF84Fj6VfXDjVTiL53l4NTRfLM0OuNTtISx5ssNPLukJ/y0nF3OKTxKAK2eaIm30ZVH5yzhUccDaewf8TAj5kdlfbksEWwbOYI5NX9h2MJ3OffAOHbfCGX5oLfw+XQI/WbTEt3YAAAgAElEQVTNYbi/K+bkBOKvnWT3xcx5QWZOfj2RXxq9T68Z39A7JZygH8ezaf0Fp1JEubVJ5ti4V3jj0jBeeeUl3nmxDB5aItfP7mdx4NKCv7XmMA5tDubxpxT2OddQzS9jDeo1MBIy/zxmXKjVpCZppxdwWQJ8IYQQQogM7AP09qx9bBn49oV1rZn8znU5dZxH5q0D9dlP69VzKNuZU73+3CVx4MOXGBX7AcPfmMT0MjrRJ7ezoN8k5jvF/nm3sUncwqzhCyk1/mk+WvYaSuIVTs7/mHV/nCEhbB+HwkbxyENNiP5gHJPbzGb0gSOMRkWJ20JiGqB4YHDzo+Ur4+hfzRr7x4WdYf+UkUxbkilet4Sy8sv1PL+0Nyz8kO0ZYv9StOnZCm+jK92/W0F3xwNp7P2/Tgyddz2b2D+cLW8OY2bNpYz46QPOdPyIXTdCWDLoTXw/HUb/2fN4098VS3I8cdeOsyub2P/4jHH81PhDnvzmW/qkhHN6wUf8ue68Uymi3Nokc+STF3jt0giGDHqFMS+VwUNLIPLsPn7a9WvB31pzCAc2X6BnP4U9O0IKEfvXon5DI8HzzmHGldr31STt1A+ESewvhBBCCOFgy72xJuA4DfQ7SuhnXmj3vteWOOrxKCjWCpf2xbk0HXTNmomha+i6BpoFXdcI2fwl9yYbb9PTKgiVGm/+zIK3Evm64xBWhui4BpQlwD2V2Mg4Ugsx61OtM5A5Ox9nf9enmHtEok8hhBBCCHF7HfM0UaPLSBRVRUe1DuwbDKiqCop1pVRdB0U1WL8IUMAxwG9L4kHXbQP5mvUxXUdBR9Ms6Baz9UezgG5G19Jv65qZK7sXUv9mPle+va0M1Bz5G4vfTuDLDq/y+0UN14BylHJP4UZhY/+6g1iwsyd7H+3NbIn9hRBCCCFEEXrnh/HZ3j950EeOv4PcTVRu+yKqwWiN7w1GFNX+o6KoBlAMttL6BtScFtayZgXp6NguALDV4bRl9xR8md3bRSPku09ZeOZe3lj2KX3aVcQQH0VcmgtuBfg+QvGpyj0t7qHBg30Z/eNrlFkxg2VHJcAXQgghhBB3VsZFdgEUVNWAqua+QKkj8x/IsEgv1kQfe819TcNRe99xrGJY/7VoWLj43XjmBTVl1O+T6Ne+Esb4KGLTXHEvUOxfjQYtGtDwwX68v3AoZVZMY7HE/kIIIYQQ4g6ypudYY/NsZ+HqOpqu4Qh7Mwfuuq7byvboTgt6lRA3T7KwzyskfPExg9Zs4i2jDvpVlnbrwfTd+QvUjfc9wyfLnqOSJYKTKybx9rtbMy6uK4QQQgghxN3AUUon54jdcUGg2xflyr6tvbx/oSrz3CnJx5n35IvETxnPkLX/8J4t9l/c9WGmBuY39u/PZ7+/QCUtnBPLP2XEu1sk9hdCCCGEEHeEvQa/YivSqShkG79by+wr9hr8Oe8w87cD1im/d/9wvx53kuVD+rFyVCnKl/fEEnud6zfyn4Vj2jmFZypOKcYeCiGEEEIIUTRyG7TPzFG9Jx/7LCn0uOMsfa03v48sTYXynlhuRBJZoNh/Er0rTCrGHgohhBBCCFEQ+R9/zzBxNeNFgWJbuEuxr+EF6OiKvY5nyaAlx3DtYsyd7oYQQgghhBCFZs3cyRjkp5fc0W3ldXQUVc0zULdnApG+eY6blKRBfgAtKZqrwdF3uhtCCCGEEEIUmu4U4+eHCrkH7vZU/+wOJYQQQgghhLg9covZ8xqIz1BPP9N2mWvzZxv+3/0TeIUQQgghhPhXye8sXdV5g/QA38axA2vQrzv+Fvmm+NP249nMmtAOlzvdFyGEEEIIUSJlF4HnN6Mn2/3puiO6F0VI8af9J3OZO7EDrne6L0IIIYQQ4j8h2wH+rBlAOjoaum65O1bc8qxE40cf4J4yJSCVSPGgatt2NK7hm/5iF2Y3ZfsyPeokuxOsP9sWdcWtEG2EEEIIIcS/R+bM/Lyy/DM/nnP8fxfxqkyTrp1oUCJif0+qtW1Pkxq+tzTpQSnbj1kx5zicZP3Z83P3bGL/vNsIIYQQQoiSR3GKJO1Z/Jlze5zjd9W+QU4ZQM733y2Bv6HBM4z95V26VM95yNyjfjeG//4Ha8MP88+FVUwd34VKJTiNRo/ZxKQOvXiuzUAWHMh+wbD8tLlbKQGP88XVf3i3ixsY6vDyzoMseLvWLX0pIoQQQgjxb3KrGffZlejJsP8cYv07fQ1gaPAcExZ/wCM1cov9H2PkinVsjjzJ7ovr+XrCw1Qu0bH/Ria268FTrV5g7v6cYv+829ytlICeTLu2iw+7uIGhLq8GHmfx6NoS+wshhBBCYI37cwrBnZNz7L+NKDoK+UvMt14Q3B2D/LlRq/Tgw9XjqBP4NZ91DyTSozF9pnzKZMt1Bo47Rtqd7mBhWOIJD4oHtRzRSTm8B/lpc5dyb9OWey0HmbIvFbXC/TSvG8XhnWFod7pjQgghhBAlWH4y+0s6tcrjjF/7KXV2fcUnXXcR4dmEp6dOYpolkuc/OVpCY/84rgXFgVqe5sk5xf75aHOXcm/bnvu0/Xy2LxW1Qivur3udAztDJfYXQgghhMiGruugZ79Mrq7rqPZFtBQl76Aw44K76XtU/O+j1+eT+XrHelaF7GP7jaNsvbKF6UNrpmdhGMvT+u0pzDu5h23X97Biy2Re7Fweg/MB8mrj0pJRp46xc+srVHOrwfNbj9nK0Rxnw8z2thr3bjQb+SYdohfy0ZCfCDx0nvO7/mDml3uo8PyTNLPNW1W87+HxafNYfH4f228cYculrSzbMpo2PrbHAx7ji2tH+fXjRk59dKPdtzvYsf//qG8EMFB/7Cp2JqSXxdmdcJLdcTv54OGcKu4reLcZzveX9/D9B03xtr2MStlHeC/wbzZGHGVXzAHWHZzH6Ofr41EcM5HVAJoM/oQZgZvZFHmQjcd/5qNhzfB3Ola+3lMApRTtv1rJxkureKd7qQJORTbQYNxadiacZMvSnvj7d+PTqyfZFTSW+z2r8OyGVQxrYch7N0IIIYQQ/0EKuWfk57qtomTZPssCvGSfPaT4N6XvpK+Ys+sv/gw7wt640+y5toNZrzvH/hVoO3oai04fYk/0Qdb98xWvdK6QKfbPo41LK94JCuLAtlep7laTl7YF2crRnGHLrI622N+dFqPeomP0fD4Y/CM7D53j3M4VTJu6m0oD+tLCEfs3oNf0hSwPPsK+uFMEXglk9T/v0c4R+z/BV+GnWfFJY6c+utPxu73sPziSBrbYv8FH6zmQlF4W53DSOQ4n7OPjXGJ/n7YjWHj1IAvHNHeK/bsyds92tl4/zcHYY2w+vJAPBtyDZzHF/vcNmcC3e7axPeo4W0/8xoThLTLF/vl4TwGUUjwwbS1br6xnTI/SBY79G43fyIGkcwQu602Afw+mhJ/j4NlPaOVZlQF/rmfE/RL7CyGEEEIUlFHXrVn51t9W1gwfHWwp/9Zg35b9Y2vjHMwp5VryxGud0X+azIwJocQkWDD6lkYJvmLLwvCm+YS5TH7ZwubxH/JdkErtZ1/n1aU/END7WabvSMxfG9MxFvToyR/NXmLq3Lbsf3UYi09Yp6Na4sIxA7i14KEnynDmmz84l+ZDw1ff4Y3X/0ftSr54GA5RpbTK3qsqjT+YzjuPh/HTu8PZFZyE6luOqjVMXEq2vQaxu9kZaGZ0pzZUnniSMAtgrE+zNr7c2LaPYDOAheDZw+i/xMX6eng14YWfJtAlaTUbs50mqxLw4AgmL+yDedYw3p10hETdfrwg/poyjo2Xo7mp+FOv/whGfP0VN8/2YuY+062+z07cafTB98wYlMa68eP54WgiAR0G8MYnsxib0IfRP11Dy9d7amOsRouHauPrD607VsewPob8TxC2cG7qi/SeW4EePy6iV9A7DP38NLXens9nzVYzbMBvhIRbivC5CyGEEEKUXM61OLMM7OvWwfgsg/S2bB/rb8eQvaN9+r4UdN36t55h+/T9O45drjW9Bj+EvvAzvhwfSlSCGRffMigX0mP/+ycuYNrLZjaNf49Zp1XqPvcGQ3//kYCefZlqi/3zbGM6xg/du7Gi2SBm/NCOvYMG89NxM6BniP0f6VmWoBkrOJPmS+PX3mfk652oW9kPD8MBqpZW2X1V5d4xMxnzRBjz3xnCjgvW2L9aTRNhjtg/kO27TXTo1JYqhhOE2mL/5q19idm2lwu22P/CrNfo+5ut9o/XvQxc9DmPJK9kfQ6x//+zd6dxUVb//8df18ywqSkg4pZrYmpqbuUW/t0qs8wlwy3LLbXUcMk9N9z3nTTcUNNcche3MmUXBBREQQQBFUEBRUBZhrn+N5iBmQEEzDK/v/N8PCaZuQ4zFzPdeF9nPudzrDtNZPUuB9QbRjFxcaBe9r/BmWWzcbubyFPJigYDJzJp/Tqe3vyUNZdeZva3oMnM7Th/m8WxeXPYdCUVa/shTJi3ifmpPXF0jdNm/+I+Uy1VbVp1rUcFS2hrXxvlyaRSZf/w5YPo/ktVPnfdyxdhExm+KJR6k3exrMURRg7aQ5TI/oIgCIIgCNpCnIKPy7J+Jx5ZW7QvoUKWkPUvFvL+qw3/2ol+8q8Jcp+wwEtkEOl2mPPnCgZSqWo3vh5ak1vL+rDIOYocwM89EhO73xkyoRu7PA+SXKX4MUlyJo9u3+aJdQrZcjZPYqKIuWkYAhW1GvG2VRLXAhMo32shyxc1wMvxB1abfMO6lTaoTACUWNlawiN3rly8zPVEDRDKtYv679gjfI4HoF7RkbZvbic2RoOiZkua1UznyvkQdH9ldtJdYpMAyZp2677jw3K+rOmzioDHxqVOZtQeuBin5c24NWsYC7bd5Jn+8exYAg7H5t0NCzGnRd+VNG1dBYXfnZe2XFWy/YShY6pzafxnrNqXnPs5BtzEpOUfzOnfiUq795CQ92JFf6b55x3M7tGLeNYZ/H+5WoqAn0udmsTDTDsq1ZSJcg0kPk5Dixo2pIUEEX4niZd5eSMIgiAIgvB6k/NvsmxUcWP4BYDhr+lP5Gujva6QR/850e/nWdy5ZHDr5O+cKzT7f8rQYbWIWNqDeRsjyQF83W9hYneMEZO6s8NzP0lVih+TKGeQHHWbFG32T4mJJLpA9m9MQ6tEggPjqdB7KWsWN8Rj3PcsNx3GplU2mJgCqLCqbAmPLhB4wZ9ribnPEWyQ/ZPxOnYZ9crOfFBjKzHRGhS13qNFrTQCz+e3+clKuku0Nvvbrx9Ltze8Wd57Of4Fsr85dQctZ/GK5kT8NJjZW8ONsn8Mfodi8u7eCDGn1ZdrafZ+VRSXXl6bSsm2O9+OqY6P48csM8j+F5nfvwu2u3YRr5f9i/pM88/7Cq6jncjoLOG7OegFsn8iDzLrY1tLQ6TrZe7HaWhV04a04EBu3EkU2V8QBEEQBEErf/+s/ML73O46itzJf903ALKMInfSXgJZQkIBKJAkvRsKZFlCliU0GoN6nhKfkKpRE+xM7xPkEUteJFfHEOgRh0mTd6hrUrIxJaGsWpVKJPIwoQytHTpR1mMHP++9wu07KXoBNBOfpYs5J/VmTcgpnF3G0/vDOpQ1WH+qIenECS5nvUOnz6qhQMLyg9bUy/TD0+Op0asqqDpgLjMGSpwaPZ3DEQWjrqrjVNY7d+TB/JHMNp7cBxSVWtJvvQs7Q9w5e9eDI95TaG0hYWr+cncHUzV+lwZl3sDe+U8uJgbhnhiEe6IHcz4vh6JaVWxKvbOVhmTv33BZ8BtXHhhdiihsab9oF8fiAzh91ZXZUz+hcU1LKnYYx4oDX2On0g6rUp+6lvFE3khBVtWjfkOIDolE1O8IgiAIgiDoGE3EFzFKdyGg33tfNno8/4sAuYib/vPpfij5maoaNeFt0zgCPWL0cn00/h73MGnShLdMSjamJJRVq2Grzf5tHbpQzmMr6/cGERn7WC/7Z+C9eCGnpb44XzvHlq2T6FtI9k88fhy/zCZ0+aw6CiSsPmhD/Qw/3N2Ns7+SagMXMGeQxIlRkzlYSPY36TSdzT93JsFpGNOMJ/cBRaVWDNywg32hPlyMu8Qp7xm0s5AwtXjZ2b8ZjcqWp+MmD3yTQ7mUHMqlZF8W9CyHslpVKr1A9k/y2oPz/F8JLCT7d1i8lzMJwVwI3sP8aZ/RpKYlNh3Gs+7gUOrrsn/V+rxlGU/EjRRklR0NGkrcDrklsr8gCIIgCIJWbiLPn6fXTfJLkgKFQvevIm9soZFOV9Hz/M24StdxsejRcqnGFMvCAjOyyMouj5WNkvR79/OWwurLjjiKU9uPGTJ8B9cUrfhm9xH2nxxDc2u9VkVJf+F2Kp1GX3ajhqoszbs2Q+N1oUCFjrJef6YvbU/yxumsPZNc6Nnm3DjLMa8Mms1YyHB7S8O/VfEmvbc5M6bjM/6cPYlxHw9nuuNvXP8nNsqVJKScexwf/iWD2/XJv73fg4G9tnOrtGU4z6Fq3p9RXSNY/G4nho1zI73jZDZe8+L40S9Q/elLtFpJg1mH+SPoR5qa16T/6cu4399K3xpmNFtymgvxRxgtevALgiAIgiAA2ul3Ob8nvkzBvK7RaPKr840m+0tD/1depM3/y83+z/lCo4wF5mSRqa6AtY2StLv3SS1kcFbEIWa17sSA4dsIVrzH8D1uHHX7gZYG2f9Pjp9O5x2H7tRUlaNl1+bkeP3JJePsbzeQ2cvsSdowhZWni8j+109z2PMZLWYuYVQh2b/vDhfGd3rK2VmOjP7wayb98CvX/qHsT85djgzrRb82PfJuDq260bfXVm6+1Ow/iDEfRuDU1J6vxh4nveNUXK77c/a4A8o/vYlWK2k4+zieV6bRzLwWX50J5lLCTvrVMKPF0j/xeXCSsSL7C4IgCIIgaNvwFD4/r2vPo9HkF1uo/o2TUl8P4WZWT5rb10Tpn9t+B1UtWthXIzvkOlHZJRuTJzODTKks5SoowLjWIzOTTCywsEjjwWMNFhXeQAWFLx/NTibCbS8RbnvZYvc1Kz0m8t3g44xeq10WK6fiveUECcd70aPDXSraw+UZ7hhkfJO6OGxwpHGkC6MXBWFc36Mjx/viMmIr4Wucmb7PBbOvRrHhvPaCwMSOxi3MiVq7jl2Hb+W+tqkV8RkyFQs8kZqsLBmpbFksJMgs7DrgOWPUobnvc+OmZsQfCSWziPMtOQXW7b7ki84S/r/sN6jiVwesY0hbBZocDSTsY6X7QTZVexMrdQL3HmQgA1E/j2dOhY0saHeBKcN+J7GNI85Ly+LabRFeadmk3BG1PIIgCIIgCPqKm3DP30NL21M/r+2OriVPft/959XR6Fp3lnbaWX09hLCsPrSwr4XST7sqU1Wb9+yrkx1yjcjsko3Jk5FBllSOcuULZn85Izf7lzFPI0Gb/U2g8FYv2cncPLmbmyd3s8luKOs9J/PD4KMMXRujzf5P8HA5SsKJPvTqcAebDhL+0y7wyCD7v8XADRNpGrmJYQsDSC/iPdDE++A83IXra39hzv4dmA8axuq87P82TVuYc2vNarYfitBmf2vuF5r9s3NzfbmylCky+xc9Rh0aTHhWH5o2Nef+4ZCXkv0rtu+HQ2cFlzbvNajiVwesZkBrXfbfyxL3/ayvVgNrdQJ3HzxDBiKdxzG9wmaWtj/PxCEHeNB2IluWlWPrR054pGWJ7C8IgiAIggCFVsIUVbQjSRIqg4OywVG9pv0lep0iyfdPsXP7N6yespKZWT9zNlxB3X7fMaTxHY71Pk2SDJRkjFZOdDhRqdZ0nPg9QUpfHiltqW0ezqEjN8mJiSWej6hRK4Mz567CjF58Uu8CxyX9rqRmNHecRuunPgQE3+NJthmV3m+MrUkmdxLTDd6GLL/fOBTkwNANP4LCm2WnH+kdV1B18DSGtU7Dfawn6rp21AVAw7O4aO4/Nv7y4Q7nxo4gS7OVea5rSOk5ip2Bz0AdRXioms4OI+gbsp/guGdI5RtS2ayw3RSeEB32AMXQLxky4CG+KRWoxnWOntRrafO8MfFubN88kLXjN7KmwjYOnY3gkdqcivWq8OTUPnxiS9nx06QpgzbNZGAd+LhsOP2nG/bi1OToP18O6XExBhdCWYmJmFauxNOrfgSFxVDpo0qY3fbBP+Q2MS+xokgQBEEQBOF/gW5i3uBfbZW+rre+cfg3mORH7+JAzv1d/bxfgnn/Ysn3T7B921A2TFnL3KwNnApTUG/AWEY0juVQTzcSZaAkY7RyosO4lWpNlx/HEaj0IVllSx3zMA4cDicnNoY4ulGz9jPczgXBzD58aneeowbvgTktHWfS9pkX/sH3eJJlim3rJtiaZhKbZJT9L+3hQGB/RjhPRVJ4stAo+1f7+idGtknlrzHuqOvWpx4AGp7G3SauQPaP5cyYIWRrXFm0ayOPewxjW+AzUEcSdi2brv1G0S9kL1fuPUNRvlGR2f/2jQSUQ/szYsBDvJ5UoDqhHDpxyyD7Fzkm/gQumwbz84TNOFdw4cDZcJKzLbCxq0qK2x68Sp39m/HNpjkMrgvdy4bRe1pAMdk/2ij7P8Sssi3Prl7iclg0th/ZYn7bC7+QKKJF9hcEQRAEQTAga3fOLW5FrgoMQ3/+MxTdpif3QqI0p5NO4KwRTHk8ldFjF7DMRiY51JPd/Zfj6pFWijFaaRfYPG43VvP6Mn3fcBRpcVzf7sSpozdJu3OZK7GOdOn6DskzF7Cq9Tom+PsxHgVSygXSswGpDErTCrQYNguHGhUwI5Mnd24SsGIy6/cnGV7Q5MRyfOUpBuzrCTt/x0u/hEey4v3P36OcypSPN+3j47wDWfg7fojjtsSCF0c5CVyc4MimOr8yxnUqER3m4fMoht9HTOKNhaNx2LiJsZamqJ+m8uR+KD63jeuC1ISuW8Cv70yn19r19M6IJ2yHE2fdIvVaET1vzFOC5w1n3J0xDB8+hCnf2GChSePhTX/2eO8vzYeqfalYAv+IoseXEn76PVRLSlWb+g1VRG+7hRoT6japQ9aN7dwVAV8QBEEQBMFASeJ3SVry5H4JUPzzvPgkfzqXfxrCxMczGDtuCWtsZJJC3dnusIRtetm/+DFaaefZONYVa6d+zD4wEintHqHb5nDySDipsX4Exk7ko65NSJoxj2VtnJl8+QqTUSClnCctC5AsUJpV4L3h8xhYMzf7p8SG4798Aqv3GeX1nBgOr3Tjq/29wfUn3A2yvzVter5POZUp3TcfonvegSwu/dCR77Y+LCT7x3N+/Bg21NmP484ZhNvPxutRNPtGjKf8wjEMdN7KeEtTcp4+IeV+CF6FZP+QtfPY2fgn+qz/mS8y4rmxfTanT97Sa0X0vDFPuTL3a0becWT0iOHMHGKDhSaVBzf92Om1t/QfrTqay39E0tNBwtcj+gWyf13ebqQiamsEakx56906ZF3fQqzI/oIgCIIgCPl0hTvFDMtbtdts5AEZSc77RTn3h9xn0sjIsgZZo0GWc5A1GpBzAJmYP1bRJP1f6fBTSgpqj9/N9klprLMfzeFoGVOrSliZZ/L4QQqZL7DqU1FvGJs8e+Df7Utcroj0KQiCIAiCIPy7gstkUbvLeCSFAiQVkqREUihzN92SFNrZfym3KB9F/kPacnyNrMnL+LJGQ274z832Gk0OyDnImhxt7lcja9TIOWrknBxkWc09b1feflbCnW//VUrqTPiNPT+msvKDbzl4W4OplS3W5hk8etHsbzeC7Z49ufRxb5xF9hcEQRAEQRBeoilbnAp9fNmI2Xk/h5tnU73dUCSFCkmhRKEyyc3+ClXu6l2FAhkFCoUSFAoU2u26kNHkTubr38i/gQySduL/by3a/adpiN68ENfwpow7sJAv2lVF+SSRlCwTzErxfYT0Rg0atGxAw059mbxjJDaH1nLgqgj4giAIgiAIwquma7ejLc7RbrYrI+f22NG22JGl/FthVf1Fbl0r5yd++W+26/nn5XB7sxNbw5ox8eASHNpXQ/UkkcdZppiXKvvXpGHLhjTq5MB01++wObSaPSL7C4IgCIIgCK+BYmOvrq9nbg3Q31mq+y96ForrF8NJXTqHEcfPMkklgxzH/k8+ZY1PyYK66t3+zD0wiGo5CYQeWsKPUy8Ybq4rCIIgCIIgCP8SqWQNenKzuzazFtaPH9BbsUuh7ThfO09D2NrnG54sd2L0ib+Yps3+e7p9yArvkmb/gSw6+DXVNPFc+30hjlPPi+wvCIIgCIIgvDKS3n6ysqzN70b5Xve4yvgX9UN+Yb35C+3X/x8kp4Ty+2gHDk+0pnLlMuQ8fsjDRyWvwsn2XE7/qsv/wTMUBEEQBEEQhJLLD/MFJ+2L67tfuhfiv162X4CcEsL+kb05OKEiVSqXIefRAx6UKvsvoXeVJf/gGQqCIAiCIAhCycmyDJK23N5gLr5gUFfpduPVMbg40H0roK3g1z3XS72A+IdpniZz/3byqz4NQRAEQRAEQXgJpNwuPNp8bpDLSxHRc4t2CnucQh9/XWjSk4iLSnrVpyEIgiAIgiAIL0VeNC9i011JklDkHi+Y4nP36ZLQHZfzZ/cp1dWDIAiCIAiCIAh/i4wuj8va1bkvPgsvab8YMG77Y1zE8zpP9AuCIAiCIAjC60y3x1ZedpcKZnfdYwrdnbwbhpP7+sk+r9/P67Zm91WSLGk7x5mN89th8qrPRRAEQRAEQXhtaaf30cgaNLKMBhmNrN0qVxfdNTl5IyVkZFkDsib3X+1jaB+X874syH0Cw6gv5a0SEMU9pSBZ0n6uCy4LPsD0VZ+LIAiCIAiC8NrSzdPrCn3y5+UNybKcW8Fv8C1AXkse7aBCXkB+1ZP8ZarR+OMONLB5DS42JAtqtG1H49rlc9/sF32aSn1ZkxiKT2ru7eKubpi9wBhBEARBEATh9aSfwOW86X45f3JfO/mvm8zPfVx3QZD/mCShnfSX0U3g6+3bpX0NyeD2Sst7ylanSZk99L8AACAASURBVLeONHwtsn8ZarZtT5Pa5f/W1yJSJQc2JkcQlJ57893dvZDsX/wYQRAEQRAE4XWm312n4Gy8rH1QkT9IxvhnMFyqq9tgV/ekr4qyYX9m/TqVLrWKnjK3ePsTxh48won4IP6KPMoKpy5Ue43LaOTksyz5oBeD2gxj++XCNwwryZj/KsmqB0vj/mJqFzNQ1mOoZwDbf6z7t74UEQRBEARB+N8hoVBIRS7R1UXzwo4h5Wf6vCxvNF7/ljvhLxvcXiVlw0HM3zODj2o/L/t/xoRDJ/njQSg+t91YN/9Dqr/W2f8MC9p9ypfvf42Lf1HZv/gx/1WSVU9W3/fipy5moLTjW+8Q9kx+S2R/QRAEQRCEF6AyqMYvIrsbL8/9rzfoUbz5KT8dm0c973Us6u7NA4vGfLF8IctyHjJsXjBZr/oEX0TOE+LDnoDClqT0Ij6Bkoz5jzJv05amOQEs98tEUaUVLewSCfKMRfOqT0wQBEEQBOE/RJIkZEnSX3CLLMt5E/iF9eZEb0I/v5dn/v3XneLNHjidWEg9r1XM7eZFQpkm9FuxhNU5D/hq7tXXNPuncD8sBRSVafG0qOxfgjH/UeZt2/Ouxp9FfpkoqrxPK7uHXPaMEdlfEARBEARBjy63S9r8X+g1gMQLFEkYVwQBkuW79Fq8jHUebhyN9sP90VUu3DvPmu/q5L+AqjKtf1zO1lBfLj705dD5ZXzTuTJK/ScqbozJe0y8HoznheHUNKvNVxeCte1oQji1ob22x70ZzSeM54MkV2aP3ol34C1ueR1hw0pfqnzVh+badatSuQb0WL2VPbf8cH90hfN3LnDg/GTavKE9bvUZS+9fZe+cd/TO0Yx2P3vg4f8Db6sAlLw96yieqfltcXxSQ/FJ8WTGh0V13Jco12Ysv9z15ZcZzSin64xU6SOmef/JmYSreCVf5mTAViZ/9TYW/8RKZIUVTUbNZa33H5x9EMCZkN3MHtMcS73XKtFnCiBZ037VYc7cOcqU7talXIqspOG8E3imhnJ+f08sLT9hYVwoXmGzaFXmTQacOsqYlsrin0YQBEEQBOH/gPxJfDDui//8iXqp4BjtxcALnYdlM/ouWcUmr3Ocjr3CpZQb+N73YOP3+tm/Cm0nr2bXjUB8kwI4+dcqhneuYpT9ixlj8j5TwsK4fPFbapnVYcjFMG07mnDOb7TXZn9zWk6chH3SNmaM2oFnYAQRnodYvcKHaoP70jIv+zek1xpXfo+6gl/KdbzveXPsr2m0y8v+n7Mq/gaH5jbWO0dz7Ddfwj9gAg212b/hbDcup+e3xQlKjyAo1Y85z8n+b7R1xDUuANeZLfSyfzdm+bpz4eENAh4H80eQKzMGN6DMP5T93x09n599L+KeGMKFa78xf2xLo+xfgs8UQLKmw+oTXLjnxsxPK5Y6+7/jdIbL6RF4H+iNleWnLI+PIODmXN4vU4PBp91wbCWyvyAIgiAIAhTM95Lef42pXuQFClQG2b7H5yM7I+9cxtr5MSSn5qAqXxEp6p62CqMcLea7sGxoDn84/cTmMAVvDfieb/dvwar3ANZ4pJVsTHYw2z/tyZHmQ1jh0hb/b8ew51ructSclHjUAGYt6fq5DeHrjxCR9QaNvp3CuO//H29VK4+FMpA3Kyq4FKeg8Yw1TOkRy86pY/GKSkdR3pYatbO581T7Jj72wdNbzeSObai+IJTYHED1Ns3blOfRRT+i1AA5RDmPYeA+k9y3t2wTvt45ny7pxzhT6DJZBVadHFnm+gXqjWOYuuQKabrFE4/DOLd8HmfuJvFMsqT+QEcc163i2c1ebPDLfpGPqQjmvDPjF9aOyOKkkxNbrqZh9cFgxs3dyKzUL5i88z6aEn2mWqqatOz6FuUtobV9LZRuyZR8gXAOESu+obdLFT7dsYteYVP4bvEN6v64jUXNjzFm8G9Ex+e8xL9dEARBEATh9aVfqV+U3Ip9o/ESSNrm+yWt2Jd0JULam/6rSrat6TWqK7LrIlY6xZCYqsakvA1SZH72b7VgO6uHqjnrNI2NNxTYDRrHdwd3YNWzLyu02b/YMdnBbOn+CYeaj2DtlnZcGjGKnSFqQDbI/h/1rETY2kOEZ5Wn8cjpTPi+I3bVK2ChvEyNigp84hQ0nbmBmZ/Hsm3KaDwic7N/zTrZxOZlf2/cfbL5oGNb3lReI0ab/Vu0Lk/yxUtEarN/5MaR9P1N2/unbFOG7VrMR08P41ZE9rfuNJHVuxxQbxjFxMWBetn/BmeWzcbtbiJPJSsaDJzIpPXreHrzU9ZcepnZ34ImM7fj/G0Wx+bNYdOVVKzthzBh3ibmp/bE0TVOm/2L+0y1VLVp1bUeFSyhrX1tlCeTSpX9w5cPovsvVfncdS9fhE1k+KJQ6k3exbIWRxg5aA9RIvsLgiAIgiAgo9tkV2+V7nOuA0o/wS/pen8aH8gg0u0w588VDKRS1W58PbQmt5b1YZFzFDmAn3skJna/M2RCN3Z5HiS5SvFjkuRMHt2+zRPrFLLlbJ7ERBFz0zAEKmo14m2rJK4FJlC+10KWL2qAl+MPrDb5hnUrbVCZACixsrWER+5cuXiZ64kaIJRrF/XfyUf4HA9AvaIjbd/cTmyMBkXNljSrmc6V8yHo/srspLvEJgGSNe3WfceH5XxZ02cVAY+NLp4kM2oPXIzT8mbcmjWMBdtu8kz/eHYsAYdj8+6GhZjTou9KmraugsLvzktbrirZfsLQMdW5NP4zVu1Lzr3+C7iJScs/mNO/E5V27yEh78WK/kzzzzuY3aMX8awz+P9ytRQBP5c6NYmHmXZUqikT5RpIfJyGFjVsSAsJIvxOEi/z8kYQBEEQBOH1peuFr91ISwGyXj9+OXeIdpdcw/oeqZANucgbYbT3lm4yX39H30IrhTK4dfJ3zhWa/T9l6LBaRCztwbyNkeQAvu63MLE7xohJ3dnhuZ+kKsWPSZQzSI66TYo2+6fERBJdIPs3pqFVIsGB8VTovZQ1ixviMe57lpsOY9MqG0xMAVRYVbaERxcIvODPtcTc5wg2yP7JeB27jHplZz6osZWYaA2KWu/RolYagefz2/xkJd0lWpv97dePpdsb3izvvRz/AtnfnLqDlrN4RXMifhrM7K3hRtk/Br9DMXl3b4SY0+rLtTR7vyqKSy+vTaVk251vx1THx/Fjlhlk/4vM798F2127iNfL/kV9pvnnfQXX0U5kdJbw3Rz0Atk/kQeZ9bGtpSHS9TL34zS0qmlDWnAgN+4kiuwvCIIgCIJgRL/Upqgq/iJb9LzMfpyqRk2wM71PkEcseZFcHUOgRxwmTd6hrknJxpSEsmpVKpHIw4QytHboRFmPHfy89wq376ToBdBMfJYu5pzUmzUhp3B2GU/vD+tQ1uDd0JB04gSXs96h02fVUCBh+UFr6mX64enx1OhVFVQdMJcZAyVOjZ7O4YiCUVfVcSrrnTvyYP5IZhtP7gOKSi3pt96FnSHunL3rwRHvKbS2kDA1f7m7g6kav0uDMm9g7/wnFxODcE8Mwj3Rgzmfl0NRrSo2pW7apCHZ+zdcFvzGlQdGlyIKW9ov2sWx+ABOX3Vl9tRPaFzTkoodxrHiwNfYab9eUlSpT13LeCJvpCCr6lG/IUSHRCLqdwRBEARBEIpiuNluXmV/3iR/bpaXisj0hTTdzP/JoLln6Tv5qBo14W3TOAI9YvRyfTT+HvcwadKEt0xKNqYklFWrYavN/m0dulDOYyvr9wYRGftYL/tn4L14IaelvjhfO8eWrZPoW0j2Tzx+HL/MJnT5rDoKJKw+aEP9DD/c3Y2zv5JqAxcwZ5DEiVGTOVhI9jfpNJ3NP3cmwWkY04wn9wFFpVYM3LCDfaE+XIy7xCnvGbSzkDC1eNnZvxmNypan4yYPfJNDuZQcyqVkXxb0LIeyWlUqvUD2T/Lag/P8XwksJPt3WLyXMwnBXAjew/xpn9GkpiU2Hcaz7uBQ6uuyf9X6vGUZT8SNFGSVHQ0aStwOuSWyvyAIgiAIQnGKqOJX5B4rIrZrLwhkWc67vfDrF3lELtWYYllYYEYWWdnlsbJRkn7vft5SWH3ZEUdxavsxQ4bv4JqiFd/sPsL+k2Nobp1/FnLSX7idSqfRl92ooSpL867N0HhdKFCho6zXn+lL25O8cTprzyQXerY5N85yzCuDZjMWMtze0vBvVbxJ723OjOn4jD9nT2Lcx8OZ7vgb1/+JjXIlCSnnHseHf8ngdn3yb+/3YGCv7dwqbRnOc6ia92dU1wgWv9uJYePcSO84mY3XvDh+9AtUf/oSrVbSYNZh/gj6kabmNel/+jLu97fSt4YZzZac5kL8EUaLHvyCIAiCIAgYJ2Xd5L7+JD8ULNKRwSDH5y311VbqG/9+YV7kGuDlZn+5yKsBqYwF5mSRqa6AtY2StLv3SS1kcFbEIWa17sSA4dsIVrzH8D1uHHX7gZYG2f9Pjp9O5x2H7tRUlaNl1+bkeP3JJePsbzeQ2cvsSdowhZWni8j+109z2PMZLWYuYVQh2b/vDhfGd3rK2VmOjP7wayb98CvX/qHsT85djgzrRb82PfJuDq260bfXVm6+1Ow/iDEfRuDU1J6vxh4nveNUXK77c/a4A8o/vYlWK2k4+zieV6bRzLwWX50J5lLCTvrVMKPF0j/xeXCSsSL7C4IgCIIglJoKnh/a9Y/JslxkFdDzqK+HcDOrJ83ta6L0z22/g6oWLeyrkR1ynajsko3Jk5lBplSWchUUYFzrkZlJJhZYWKTx4LEGiwpvoILCl49mJxPhtpcIt71ssfualR4T+W7wcUav1S6LlVPx3nKChOO96NHhLhXt4fIMdwwyvkldHDY40jjShdGLgjCu78l77+J9cRmxlfA1zkzf54LZV6PYcF57QWBiR+MW5kStXceuw7dyX9vUivgMmYoFnkhNVpaMVLYsFhJkFvZxPGeMOjT3fW7c1Iz4I6FkFnG+JafAut2XfNFZwv+X/QZV/OqAdQxpq0CTo4GEfax0P8imam9ipU7g3oMMZCDq5/HMqbCRBe0uMGXY7yS2ccR5aVlcuy3CKy2blDuilkcQBEEQBEGfJKHXrqfwvvy5jxnleL3jspw/aV7gS4HC8n4pLgHU10MIy+pDC/taKP20qzJVtXnPvjrZIdeIzC7ZmDwZGWRJ5ShXvmD2lzNys38Z8zQStNnfBApv9ZKdzM2Tu7l5cjeb7Iay3nMyPww+ytC1Mdrs/wQPl6MknOhDrw53sOkg4T/tAo8Msv9bDNwwkaaRmxi2MID0It4DTbwPzsNduL72F+bs34H5oGGszsv+b9O0hTm31qxm+6EIbfa35n6h2T87N9eXK0uZIrN/0WPUocGEZ/WhaVNz7h8OeSnZv2L7fjh0VnBp816DKn51wGoGtNZl/70scd/P+mo1sFYncPfBM2Qg0nkc0ytsZmn780wccoAHbSeyZVk5tn7khEdalsj+giAIgiAIFF0IU9SeXCrjQTJy4U9iNNFfGvL9U+zc/g2rp6xkZtbPnA1XULffdwxpfIdjvU+TJAMlGaOVEx1OVKo1HSd+T5DSl0dKW2qbh3PoyE1yYmKJ5yNq1MrgzLmrMKMXn9S7wHGDzcHMaO44jdZPfQgIvseTbDMqvd8YW5NM7iSmG1y/ZPn9xqEgB4Zu+BEU3iw7/UjvuIKqg6cxrHUa7mM9Ude1oy4AGp7FRXP/sfGXD3c4N3YEWZqtzHNdQ0rPUewMfAbqKMJD1XR2GEHfkP0Exz1DKt+QymaFfBLyE6LDHqAY+iVDBjzEN6UC1bjO0ZN6LW2eNybeje2bB7J2/EbWVNjGobMRPFKbU7FeFZ6c2odPbCk7fpo0ZdCmmQysAx+XDaf/dMNenJoc/efLIT0uxuBCKCsxEdPKlXh61Y+gsBgqfVQJs9s++IfcJuYlVhQJgiAIgiD8Lyiu2r6wMSXL7vkrd/8u+f4Jtm8byoYpa5mbtYFTYQrqDRjLiMaxHOrpRqIMlGSMVk50GLdSreny4zgClT4kq2ypYx7GgcPh5MTGEEc3atZ+htu5IJjZh0/tznPU4D0wp6XjTNo+88I/+B5Pskyxbd0EW9NMYpOMsv+lPRwI7M8I56lICk8WGmX/al//xMg2qfw1xh113frUA0DD07jbxBXI/rGcGTOEbI0ri3Zt5HGPYWwLfAbqSMKuZdO13yj6hezlyr1nKMo3KjL7376RgHJof0YMeIjXkwpUJ5RDJ24ZZP8ix8SfwGXTYH6esBnnCi4cOBtOcrYFNnZVSXHbg1eps38zvtk0h8F1oXvZMHpPCygm+0cbZf+HmFW25dnVS1wOi8b2I1vMb3vhFxJFtMj+giAIgiAIJVAwr+dN8BtX6usqgoyPge6ioTTdONMJnDWCKY+nMnrsApbZyCSHerK7/3JcPdJKMUYr7QKbx+3Gal5fpu8bjiItjuvbnTh19CZpdy5zJdaRLl3fIXnmAla1XscEfz/Go0BKuUB6NiCVQWlagRbDZuFQowJmZPLkzk0CVkxm/f4kw7cpJ5bjK08xYF9P2Pk7XvolPJIV73/+HuVUpny8aR8f5x3Iwt/xQxy3JRZ8y3MSuDjBkU11fmWM61QiOszD51EMv4+YxBsLR+OwcRNjLU1RP03lyf1QfG4b1wWpCV23gF/fmU6vtevpnRFP2A4nzrpF6rUiet6YpwTPG864O2MYPnwIU76xwUKTxsOb/uzx3l+Kz1T3UrEE/hFFjy8l/PR7qJaUqjb1G6qI3nYLNSbUbVKHrBvbuSsCviAIgiAIgh65kFY8uryeX42ft7Gudmxh8/WSJBU6kf/y9uBK5/JPQ5j4eAZjxy1hjY1MUqg72x2WsE0v+xc/RivtPBvHumLt1I/ZB0Yipd0jdNscTh4JJzXWj8DYiXzUtQlJM+axrI0zky9fYTIKpJTzpGUBkgVKswq8N3weA2vmZv+U2HD8l09g9T6jvJ4Tw+GVbny1vze4/oS7Qfa3pk3P9ymnMqX75kN0zzuQxaUfOvLd1oeFZP94zo8fw4Y6+3HcOYNw+9l4PYpm34jxlF84hoHOWxlvaUrO0yek3A/Bq5DsH7J2Hjsb/0Sf9T/zRUY8N7bP5vTJW3qtiJ435ilX5n7NyDuOjB4xnJlDbLDQpPLgph87vfaW/qNVR3P5j0h6Okj4ekS/QPavy9uNVERtjUCNKW+9W4es61uIFdlfEARBEAThhUnvjvxNBm2glwFJd2Gg7buvyUGTkwOyBlnWIGn/jfljFU3SS7j71b9KQe3xu9k+KY119qM5HC1jalUJK/NMHj9IIfMFVn0q6g1jk2cP/Lt9icsVkT4FQRAEQRCEf1dwmWxqd52AJClAoURCAQoFSAq94hsJSSGhQKHdaUtGliXQrtLN+zJAIyNJMrJGA7KMRpMDcg6yJvem+1mjztY+puaez3befvZfzP5K6kz4jT0/prLyg285eFuDqZUt1uYZPHrR7G83gu2ePbn0cW+cRfYXBEEQBEEQXqIpW5wKfXzZiNl5P4dbZPNmuyEgqZAUSiSl9l+FCkmhQFIoQVIiSQpkScqN/vD8DbaMN/AqydLgV0dD9OaFuIY3ZdyBhXzRrirKJ4mkZJlgpir+t3WkN2rQoGUDGnbqy+QdI7E5tJYDV0XAFwRBEARBEF4R2ehftIU5BmXjkvaudsJfb/I//2Z8XO+3dXm/kGP/TTnc3uzE1rBmTDy4BIf21VA9SeRxlinmpcr+NWnYsiGNOjkw3fU7bA6tZo/I/oIgCIIgCMIrJevdiqaS8kv2tVX8MjkaDbn7cmkvD/QuDOTcXb3+wRN/CZ6F4vrFcFKXzmHE8bNMUskgx7H/k09Z41OyoK56tz9zDwyiWk4CoYeW8OPUC4ab6wqCIAiCIAjCf1TuBlzFt90p7rjhVr3/UU9D2NrnG54sd2L0ib+Yps3+e7p9yArvkmb/gSw6+DXVNPFc+30hjlPPi+wvCIIgCIIgvBpyfp4H3ULc3Hl7/RIcWZZBklBp+/PkVejLedU6sl7vTsNe/KXvwf/vk1NC+X20A4cnWlO5chlyHj/k4aOSV+Fkey6nf9Xl/+AZCoIgCIIgCMKLyc3t+T/npX+96fjc6F4ws+uyfu4Y2eBx3d28rv4SSJL8n5/ll1NC2D+yNwcnVKRK5TLkPHrAg1Jl/yX0rrLkHzxDQRAEQRAEQSg9bUf9QumuCVSg/UYAyeBA/vJcQBv2ZaNvCV4HmqfJ3L+d/KpPQxAEQRAEQRD+Bcbb7RrS32BX/q/P2r8ATXoScVFJr/o0BEEQBEEQBOFfIUkSClnWbqaLYfVO3u21m9IXBEEQBEEQhP9VL94bv7DfM27Rk3dt8F9vySkIgiAIgiAI/6MM5ulLMF4hSRJKRe5eu/ph3njiX5IklEpl3rH//Drd/wrJkrZznNk4vx0mr/pcBEEQBEEQhP+zCpu0z5/0F0U9L4VkSfu5Lrgs+ADTV30ugiAIgiAIwmuvJDPwCsOenbl01ftgOOlv+NhLPdfSKVONxh93oIHNa3AhIllQo207Gtcuj+LvPE2lvqxJDMUnNfd2cVc3zF5gjCAIgiAIgvB/QeFh3aDnvl6LzlI8xb+vbHWadOtIw9ci+5ehZtv2NKld/m99ZSJVcmBjcgRB6bk3393dC8n+xY8RBEEQBEEQXj+6nF5YS83CVuAWmHPWb8+j/0v/paW6yob9mfXrVLrUKnrK3OLtTxh78Agn4oP4K/IoK5y6UO01LqORk8+y5INeDGozjO2XC98wrCRj/qskqx4sjfuLqV3MQFmPoZ4BbP+x7t/6UkQQBEEQBOH/Il0xTlHtdvRX6ub35C9knP5jr3BuXdlwEPP3zOCj2s/L/p8x4dBJ/ngQis9tN9bN/5Dqr3X2P8OCdp/y5ftf4+JfVPYvfsx/lWTVk9X3vfipixko7fjWO4Q9k98S2V8QBEEQBAEKZG/jTG+c81W5dzT5k/pS/nPoqvs1Gg1oxyHL2rH/0h/0AhRvfspPx+ZRz3sdi7p788CiMV8sX8iynIcMmxdM1qs+wReR84T4sCegsCUpvYgvWkoy5j/KvE1bmuYEsNwvE0WVVrSwSyTIMxbNqz4xQRAEQRCE14VMbpaXJOS8B3RKFt4l3cWApGvV+d8p8imK4s0eOJ1YSD2vVczt5kVCmSb0W7GE1TkP+Gru1dc0+6dwPywFFJVp8bSo7F+CMf9R5m3b867Gn0V+mSiqvE8ru4dc9owR2V8QBEEQBKEQ+sX4+o/pKPLa75Bfuf+8ap/CZvYly3fptXgZ6zzcOBrth/ujq1y4d54139XJr8JQVab1j8vZGurLxYe+HDq/jG86V0ap/0TFjTF5j4nXg/G8MJyaZrX56kKwth1NCKc2tNf2uDej+YTxfJDkyuzRO/EOvMUtryNsWOlLla/60Fy7blUq14Aeq7ey55Yf7o+ucP7OBQ6cn0ybN7THrT5j6f2r7J3zjt45mtHuZw88/H/gbRWAkrdnHcUzNb8tjk9qKD4pnsz4sKiO+xLl2ozll7u+/DKjGeW0b6dU6SOmef/JmYSreCVf5mTAViZ/9TYW/8QXKQormoyay1rvPzj7IIAzIbuZPaY5lnqvVaLPFECypv2qw5y5c5Qp3a1LWdylpOG8E3imhnJ+f08sLT9hYVwoXmGzaFXmTQacOsqYlsrin0YQBEEQBOH/jKJb7xhM50u6sXLpCnMMxhb+WpJlM/ouWcUmr3Ocjr3CpZQb+N73YOP3+tm/Cm0nr2bXjUB8kwI4+dcqhneuYpT9ixlj8j5TwsK4fPFbapnVYcjFMG07mnDOb7TXZn9zWk6chH3SNmaM2oFnYAQRnodYvcKHaoP70jIv+zek1xpXfo+6gl/KdbzveXPsr2m0y8v+n7Mq/gaH5jbWO0dz7Ddfwj9gAg212b/hbDcup+e3xQlKjyAo1Y85z8n+b7R1xDUuANeZLfSyfzdm+bpz4eENAh4H80eQKzMGN6DMP5T93x09n599L+KeGMKFa78xf2xLo+xfgs8UQLKmw+oTXLjnxsxPK5Y6+7/jdIbL6RF4H+iNleWnLI+PIODmXN4vU4PBp91wbCWyvyAIgiAIQnF0k/u6LKbSPSgpJCQkNLIGXVW/rNFA3tLdgk+Sd9/2PT4f2Rl55zLWzo8hOTUHVfmKSFH3tFUY5Wgx34VlQ3P4w+knNocpeGvA93y7fwtWvQewxiOtZGOyg9n+aU+ONB/CCpe2+H87hj3Xcpej5qTEowYwa0nXz20IX3+EiKw3aPTtFMZ9//94q1p5LJSBvFlRwaU4BY1nrGFKj1h2Th2LV1Q6ivK21KidzZ2nuX+T/NgHT281kzu2ofqCUGJzANXbNG9TnkcX/YhSA+QQ5TyGgftMct/Qsk34eud8uqQf40yhy2QVWHVyZJnrF6g3jmHqkiukybrXC+Pc8nmcuZvEM8mS+gMdcVy3imc3e7HBL/tvfeiGzHlnxi+sHZHFSScntlxNw+qDwYybu5FZqV8weed9NCX6TLVUNWnZ9S3KW0Jr+1oo3ZIp+QLhHCJWfENvlyp8umMXvcKm8N3iG9T9cRuLmh9jzODfiI7PeYl/uyAIgiAIwutLRkbSVtTrx3FdEY6krd7Pq8LPLcUH2ajiJ68tT94TFNKbX9I/bECybU2vUV2RXRex0imGxFQ1JuVtkCLzs3+rBdtZPVTNWadpbLyhwG7QOL47uAOrnn1Zoc3+xY7JDmZL90841HwEa7e049KIUewMUQOyQfb/qGclwtYeIjyrPI1HTmfC9x2xq14BC+VlalRU4BOnoOnMDcz8PJZtU0bjEZmb/WvWySY2L/t74+6TzQcd2/Km8hox2uzfonV5ki9eIlKb/SM3jqTvb9reP2WbMmzXYj56ehi3IrK/daeJrN7lgHrDKCYuDtTL/jc4s2w2bncTeSpZ0WDgRCatX8fTm5+y5tLLzP4WNJm5HedvckwJAQAAIABJREFUszg2bw6brqRibT+ECfM2MT+1J46ucdrsX9xnqqWqTauu9ahgCW3ta6M8mVSq7B++fBDdf6nK5657+SJsIsMXhVJv8i6WtTjCyEF7iBLZXxAEQRAEIa/ORtIlc13ON67k195X5Q4rfOmtfjW/7j4ajfZLAOPRGUS6Heb8uYKBVKraja+H1uTWsj4sco4iB/Bzj8TE7neGTOjGLs+DJFcpfkySnMmj27d5Yp1CtpzNk5goYm4ahkBFrUa8bZXEtcAEyvdayPJFDfBy/IHVJt+wbqUNKhMAJVa2lvDInSsXL3M9UQOEcu2i/hv5CJ/jAahXdKTtm9uJjdGgqNmSZjXTuXI+BN1fmZ10l9gkQLKm3brv+LCcL2v6rCLgsfGVkBm1By7GaXkzbs0axoJtN3mmfzw7loDDsXl3w0LMadF3JU1bV0Hhd+elLVeVbD9h6JjqXBr/Gav2Jef+/xJwE5OWfzCnfycq7d5DQt6LFf2Z5p93MLtHL+JZZ/D/5WopAn4udWoSDzPtqFRTJso1kPg4DS1q2JAWEkT4nSRe5uWNIAiCIAjC60s2umkABaBBkhR58/G5c/35m+fqMruc25Qf49yf9+UAemPRtubUkiQKKebP4NbJ3zlXaPb/lKHDahGxtAfzNkaSA/i638LE7hgjJnVnh+d+kqoUPyZRziA56jYp2uyfEhNJdIHs35iGVokEB8ZTofdS1ixuiMe471luOoxNq2wwMQVQYVXZEh5dIPCCP9cSc58j2CD7J+N17DLqlZ35oMZWYqI1KGq9R4taaQSez2/zk5V0l2ht9rdfP5Zub3izvPdy/Atkf3PqDlrO4hXNifhpMLO3hhtl/xj8DsXk3b0RYk6rL9fS7P2qKC69vDaVkm13vh1THR/Hj1lmkP0vMr9/F2x37SJeL/sX9Znmn/cVXEc7kdFZwndz0Atk/0QeZNbHtpaGSNfL3I/T0KqmDWnBgdy4kyiyvyAIgiAIAuS13TSWl+llvesCWUaRV/6jtxFXsa9Rygb8qkZNsDO9T5BHLHmRXB1DoEccJk3eoa5JycaUhLJqVSqRyMOEMrR26ERZjx38vPcKt++k6AXQTHyWLuac1Js1IadwdhlP7w/rUNZg/amGpBMnuJz1Dp0+q4YCCcsPWlMv0w9Pj6dGr6qg6oC5zBgocWr0dA5HFIy6qo5TWe/ckQfzRzLbeHIfUFRqSb/1LuwMcefsXQ+OeE+htYWEqfnL3R1M1fhdGpR5A3vnP7mYGIR7YhDuiR7M+bwcimpVsSn1zlYakr1/w2XBb1x5YHQporCl/aJdHIsP4PRVV2ZP/YTGNS2p2GEcKw58jZ1KO6xKfepaxhN5IwVZVY/6DSE6JBJRvyMIgiAIglAY2ejfoulye0lzfv4GvC9O1agJb5vGEegRo5fro/H3uIdJkya8ZVKyMSWhrFoNW232b+vQhXIeW1m/N4jI2Md62T8D78ULOS31xfnaObZsnUTfQrJ/4vHj+GU2octn1VEgYfVBG+pn+OHubpz9lVQbuIA5gyROjJrMwUKyv0mn6Wz+uTMJTsOYZjy5DygqtWLghh3sC/XhYtwlTnnPoJ2FhKnFy87+zWhUtjwdN3ngmxzKpeRQLiX7sqBnOZTVqlLpBbJ/ktcenOf/SmAh2b/D4r2cSQjmQvAe5k/7jCY1LbHpMJ51B4dSX5f9q9bnLct4Im6kIKvsaNBQ4nbILZH9BUEQBEEQnkevAN+4ml+Re1zWVurk33Qb7OpP5ucv/y3Y2L84RY+WSzWmWBYWmJFFVnZ5rGyUpN+7n7cUVl92xFGc2n7MkOE7uKZoxTe7j7D/5BiaW+v9vUl/4XYqnUZfdqOGqizNuzZD43WhQIWOsl5/pi9tT/LG6aw9k1zo2ebcOMsxrwyazVjIcHtLw79V8Sa9tzkzpuMz/pw9iXEfD2e6429c/yc2ypUkpJx7HB/+JYPb9cm/vd+Dgb22c6u0ZTjPoWren1FdI1j8bieGjXMjveNkNl7z4vjRL1D96Uu0WkmDWYf5I+hHmprXpP/py7jf30rfGmY0W3KaC/FHGC168AuCIAiCIAC6rFxwz6ziJu71l/T+zRd/CcNfJPsX/YWDVMYCc7LIVFfA2kZJ2t37pBYyOCviELNad2LA8G0EK95j+B43jrr9QEuD7P8nx0+n845Dd2qqytGya3NyvP7kknH2txvI7GX2JG2YwsrTRWT/66c57PmMFjOXMKqQ7N93hwvjOz3l7CxHRn/4NZN++JVr/1D2J+cuR4b1ol+bHnk3h1bd6NtrKzdfavYfxJgPI3Bqas9XY4+T3nEqLtf9OXvcAeWf3kSrlTScfRzPK9NoZl6Lr84EcylhJ/1qmNFi6Z/4PDjJWJH9BUEQBEEQ8grxtT/mFu2jn+kNJ/lVugAty7K2q4+h/I13dS8gayN2yQOo+noIN7N60ty+Jkr/3PY7qGrRwr4a2SHXicou2Zg8mRlkSmUpV0EBxrUemZlkYoGFRRoPHmuwqPAGKih8+Wh2MhFue4lw28sWu69Z6TGR7wYfZ/Ra7bJYORXvLSdION6LHh3uUtEeLs9wxyDjm9TFYYMjjSNdGL0oCOP6Hh053heXEVsJX+PM9H0umH01ig3ntRcEJnY0bmFO1Np17Dp8K/e1Ta2Iz5CpWOCJ1GRlyUhly2IhQWZhH8NzxqhDc9/nxk3NiD8SSmYR51tyCqzbfckXnSX8f9lvUMWvDljHkLYKNDkaSNjHSveDbKr2JlbqBO49yEAGon4ez5wKG1nQ7gJThv1OYhtHnJeWxbXbIrzSskm5I2p5BEEQBEEQoGSraHWFO3kt+PPk7q31nN8sckxpvxhQXw8hLKsPLexrofTTrspU1eY9++pkh1wjMrtkY/JkZJAllaNc+YLZX87Izf5lzNNI0GZ/Eyi81Ut2MjdP7ubmyd1sshvKes/J/DD4KEPXxmiz/xM8XI6ScKIPvTrcwaaDhP+0CzwyyP5vMXDDRJpGbmLYwgDSi3gPNPE+OA934fraX5izfwfmg4axOi/7v03TFubcWrOa7YcitNnfmvuFZv/s3Fxfrixlisz+RY9RhwYTntWHpk3NuX845KVk/4rt++HQWcGlzXsNqvjVAasZ0FqX/feyxH0/66vVwFqdwN0Hz5CBSOdxTK+wmaXtzzNxyAEetJ3IlmXl2PqREx5pWSL7C4IgCIIgGHleEtcV46texpMVR75/ip3bv2H1lJXMzPqZs+EK6vb7jiGN73Cs92mSZKAkY7RyosOJSrWm48TvCVL68khpS23zcA4duUlOTCzxfESNWhmcOXcVZvTik3oXOC7pf31hRnPHabR+6kNA8D2eZJtR6f3G2Jpkcicx3eCyJsvvNw4FOTB0w4+g8GbZ6Ud6xxVUHTyNYa3TcB/ribquHXUB0PAsLpr7j42/fLjDubEjyNJsZZ7rGlJ6jmJn4DNQRxEeqqazwwj6huwnOO4ZUvmGVDYr5F2XnxAd9gDF0C8ZMuAhvikVqMZ1jp7Ua2nzvDHxbmzfPJC14zeypsI2Dp2N4JHanIr1qvDk1D58YkvZ8dOkKYM2zWRgHfi4bDj9pxv24tTk6D9fDulxMQYXQlmJiZhWrsTTq34EhcVQ6aNKmN32wT/kNjEvsaJIEARBEAThtSfLuXvm6lbb6tFV8uhX+kh5v/YPVIY/7zTvn2D7tqFsmLKWuVkbOBWmoN6AsYxoHMuhnm4kykBJxmjlRIdxK9WaLj+OI1DpQ7LKljrmYRw4HE5ObAxxdKNm7We4nQuCmX341O48Rw3eH3NaOs6k7TMv/IPv8STLFNvWTbA1zSQ2ySj7X9rDgcD+jHCeiqTwZKFR9q/29U+MbJPKX2PcUdetTz0ANDyNu01cgewfy5kxQ8jWuLJo10Ye9xjGtsBnoI4k7Fo2XfuNol/IXq7ce4aifKMis//tGwkoh/ZnxICHeD2pQHVCOXTilkH2L3JM/AlcNg3m5wmbca7gwoGz4SRnW2BjV5UUtz14lTr7N+ObTXMYXBe6lw2j97SAYrJ/tFH2f4hZZVueXb3E5bBobD+yxfy2F34hUUSL7C8IgiAIglCs3GuB/GsCWZZR6W+ga1jBb7xRlHYJgPwiFwnpBM4awZTHUxk9dgHLbGSSQz3Z3X85rh5ppRijlXaBzeN2YzWvL9P3DUeRFsf17U6cOnqTtDuXuRLrSJeu75A8cwGrWq9jgr8f41EgpVwgPRuQyqA0rUCLYbNwqFEBMzJ5cucmASsms35/kuFfnhPL8ZWnGLCvJ+z8HS/9Eh7Jivc/f49yKlM+3rSPj/MOZOHv+CGO2xIL1kDlJHBxgiOb6vzKGNepRHSYh8+jGH4fMYk3Fo7GYeMmxlqaon6aypP7ofjcNq4LUhO6bgG/vjOdXmvX0zsjnrAdTpx1i9RrRfS8MU8JnjeccXfGMHz4EKZ8Y4OFJo2HN/3Z472/lJ8roI4l8I8oenwp4affQ7WkVLWp31BF9LZbqDGhbpM6ZN3Yzl0R8AVBEARBEAzkTto/v8LeeOK/qNye15bzpZ6hTjqXfxrCxMczGDtuCWtsZJJC3dnusIRtetm/+DFaaefZONYVa6d+zD4wEintHqHb5nDySDipsX4Exk7ko65NSJoxj2VtnJl8+Qr/n73zDovq6OLwe+8u3Shg19i7sZvEEk3ssSRRE2PsvUYTS2KJib3EEmvsHTV2sXeDFAVEsSGKHVARpSiChbJ7vz92gQWBvSgq5pv3eVZhd5g50+7+7twzZ0YgI0W5EBMHSDZorHLxSe+JdCpq0P5RwVc5PWsYc7ek0uu6IHbOPkCXrW3B6Q/cU2h/R2q3/pQcWktaLnOmZdIHcZz6uQEDV4Wlof1DcRk6iIUltjJk3Riu1h/HyUeBbOkzlJxTB9Fp8SqG2luie/aEqPt+nExD+/vNn8i6Sn/w7d9L+O5FKFfWjOPQ/hsmoYgySvOM8xO60e/OEAb06c3vPfJgo4/m4TUf1p3clPmuTQjkzLGbtG4v4e0R+AravyTlKmq5teo6CVhSqmoJ4i6vJFhof4FAIBAIBIIUvLxWj4l+T47IgyQhVe23RQElafEeCRS93hCKR9GjKHpjoB/Dz4ouAVAIPDqHyk9VbwB4i8gUH7qBNb/EsKD+AHYGKlg65MXBOpbHD6OIfYVdn3LpXiw98TWnm3/PivNCfQoEAoFAIBAI3i5+tvEUazwESZZB0iBJMsgykiQjyYbfJUkyynnJ6L6fKO6NUewVQ5hNg7w36nx9ot5PQNEnoOj1xv8TUHQJKHodij6Be55OlHuh8uTbt4qGEsM2s/HXaGbX68v223osHfLhaP2CR6+q/cv0Yc2J1pz6si2LhfYXCAQCgUAgEGQhI1dOSvP9mX3GJf181SaewnW6I8lakDVIksbwv6xFo9Ua9L+sBSQUSTIcsptIigN1TfxPUnv+vO1tvplDT+CyqThdrcJP26byXd2CaJ6EExVngVUmnkdIHxShfM3yVGjYjhFr+5HHeT7bLgiBLxAIBAKBQCDIZiQu3KvS6G/GZ//doeP2skmsCqjG8O3Taf9ZIbRPwnkcZ4l1prR/USrUrEDFhu35zWkgeZznslFof4FAIBAIBAJBdsC4Zp9it65JVJ4MZW/i1t3En1N9mnVGZjXP/XH6rjfRM8bTZ+8RftEqoISwtUUr5nmpE+raqh2YsK0zhXQP8Heezq+jXFMerisQCAQCgUAgEGRzFEVJ8uBXs7RvDOX/ktJXsrP2f+bHqm+782TWJAbsO85oo/bf2Lwpf3mq1f6dmLa9G4X0oVzaMZUho1yE9hcIBAKBQCAQvBsUY4iejEJxYnDdURTF/CG7icH63zeUKH92DGjPzuGO5M9vi+5xGGGP1HvhxJ+YRYeCs96ghQKBQCAQCAQCgXpSi3oUxbBwn8KRx1S3K6AYtbyU/F5yGE49kPhKqfclSQIpOeJ/6vif2Q0lyo+t/dqyfVhuCuS3RffoIQ8zpf2n07bA9DdooUAgEAgEAoFAkBlMvPallxf8ITkGvzb1m6beOaaL+0k/JwX4z94iPxH9s0ju345812YIBAKBQCAQCARZgGlIzXQUuekHkmFxPqUHviGkj8HlJ9WfKinfS7qJeD+kP/qnEYTcinjXZggEAoFAIBAIBK+JMbKOkv5O3MQzuOR0Pk/y2knr6cBL3kMCgUAgEAgEAoHgjZHaCcf4E4kr70riGbqkHUgz9fZeKa04nkllpdoJILS/QCAQCAQCgUDw9pBArzc44hu0eRpJTPS8jJIcaz/xpdfr0ev1hm2/qV96PTqd7r0M2/NOkOypM34xiybXxeJd2yIwj2RHhc5DGNqnsvn4VW8DKQcVuw/nl35V37w92a3uAoFAIBAIkpBI3FmrGAW+qSOOnJRKlrXIsgZJkpN24Cbq9kSNb6rjkz5P2rWL8bmBhCKR9BKoRLLnswkrWDGlHpbv2haBQCAQCAQCwfuJqa8NIMtSks9NWuflyok3B6ak5bWv5rO3hm0hKn35OeXzvAd3G5INRerUpVLxnOlvl1CTTd52zAv3xyva8HJb3xyrV0gjSIlctg+rwz0Y29zW8IaUk8pde9L2i8JosqYEcjccwBTXwxwMPcvxOy5sPDKDNh+lnfvL9nxApY7d+KZ+wayxJ6O5847r/ubLeov2qLhG2X7+K+uCPVg2vKJ4oCIQCAQCs7wcYkcitQd/ivRKsuhPPHwrPRJ37qbMR0neFvCuHXvsClO5eQMqvBfa35aidT6jcvGcrxXVSMrbnkWR1zn31PDy3tAyDe1vPo0gJXLZ/myI9GZSC9t3bYpq3kebBa+P6HeBQCAQZERqbS8blGeyB1DyAn46kjQpzZs2NX00FTow9p9RNC6W/pK5TbkWDN6+i32h5zh+czd/TWpMoffYjUaJPML0em3oXLsXa86kfWCYmjTZFcnha2aEHGdUYyvQlKbnCV/W/FrytR6KmEemeOsvKf3YlX/dn72REiTHLxnu9COVw3Yyu0Mvfu74B8vWuHLjgf6d2KNm7mQVmav7my/rbdpjvp0lbIqUoLC9PUXL5hW7ewQCgUCgGoPH/cvvS0kL/YqJp7+SYvE+dWgeKQ1HH0MmSVH6U7zeFZoKnZm8cQzNimek/b9imPN+jj30x+v2ARZMbkrh91r7H2ZK3VZ8/2k3VpxOT/ubT5NdkRxaM/f+Sf5obAWaMvT19GPjiFJvWPtrKNGmBWUfH+dIotaWctF40WGO3b+Eb8w1fCPPcthnDb8PrImjqTFWRWkwfhEbr57DO+IcB08uYtDXRV/apWFZ7HN6Lv+HnYEX8H7owwHPFYzsXpkPXvneOQ2bzZZlS+M1ZzhzYSSVU3mRyOUG8M+js0xvawfI5O+/Hp+nyQ+JDK+rHJ2fmd3nEjmrt+OXbbs4cM8Pn7DT7D0+l55f5E3Zn1IuKg+cgdNlX7wjzrL/+Aw6fpLLZNVBZT5GrEp/zYRzF9k3o+ZrO8tYVezM/BsBnD4xkBJp+P5kWJamLH09r6Rqw0vM/cHulcoyZppuvwsEAoHg/4S0JHo6glxRFLSJe24VJelsXmPwfqOfUPI/JoVkb+8Z+cNW/LFnIqU9FzCtpScPbSrx3aypzNSF0WviReLetYGvgu4JoQFPQM5HxNN0elRNmmyKde06VNH5MssnFrnAx9QoE865E8Fk/dKrCZrSNGhThqhD8zn7hnSTXLwcJW3v8+9fKzl2ysyN11uw522Sqbq/hbLepj3mUYjYOIqulz9EFxDA83dsjUAgEAiyP1IKlW9cvE/6MPkzvV6PLMkYN/MiSbLx/YSk9EriCn7Sn0vv3En/dZA//JpJ+6ZS+uQcJjQ/yQPbyvzw13Tm6h7SZcKF91T7R3E/IArk/NR4lp72V5Emm2Jd5zOq6k8zzScWucCnfFwmjDMngt649m/ctixRB+dw5mnimxbYF/mQnOcX0nuUKy8s7SnasAs/TVlNOdv29Jx9FZ2Ui8/+WsvMbx6wecwgpt/UUOr7nxmyzgnHDm2YcjgKBdCUbMeMo1P4OPwATmNW4PdAS95KtajpaEncq3ZPmjabK+s551zOEd+mOpULy/gFJbaqRK5Pa1JSd54dns9IWjmI9WBOo+l4JU0UhYRHd1GtljXFaDllMDVDt7Ks30UeaorTaMRwBm+05GH1wex/aDj6r0CXmSz4sxKXZ09k+CmoNmgUw3fM5Gndgey5q1eZD2hyV6TJwIH0HdSE4rYSD16xaRPRlv6e6bt+oqw+7qUHmarKkm3JkUPHpZm9mbgt3Pimnpi7Lyv8jMpKWXDa/S4QCASC/yNe2p2rIEkkO/BAklMPkmR4GJ4cYz+NzEy295rkmiKtZF+VNn/OZIHHAXYH+uD+6AKu91yYN7BE8tN2bX5q/TqLVf7euIV54+wyk+6N8qcMBWIujcUnDL98kROuvSlqVZwurheN4Wj8OLjwM6OXgRXVhw2lXoQT4wasw/PsDW6c3MXC2d4U6PIt1Y37VqUc5fl67io23vDB/dF5XO64ss1lBLU/MH7u8BUz7l9g0/iPTGy0ou4SDzxO/0w5LYCGcmN3cyI6OSyOV7Q/XlEnGNM0PZ8HiRy1B7P8rjfLx1Qjh1FXSXmbMdrzXw4/uMDJyDPs913FiC7lsHkTz1JkByr3n8B8z2MceejLYb8NjBtUHXuTslT1KYDkyGdzdnL4zm5GtnTM5FZkDRUm7uNEtD8uW1tjb9+CqSH+nAwYy8e2H9Lx4G4G1XwT4VyMpX/UjEblH3Fi52lepP6sendmn/bgeIQvB31XMKxDaawTP5TsqTV+GWsuuHMs/CIeD0+w9dBUOtXPk9w2iWPVrS/FrT6k47ELxvFxnuU/F0nTCyUje7T1h7H+5mncw33Y6/U3/b4s8Abmzrure7qYG6tqylJrj4p5ARbka9CN0Tt3suvuWTwifDkSsItZg8ob2lpFOyeF0npyih3uO9i6/OVQWjna/MWRR4cZUtvUR0im5MjtuN+ZRcMPMmOzQCAQCP4rmAujCSkfBEgv/Zth7um+m3pvr2RfjXbT57D05FEOBZ/nVNQVvO97sOhHU+1fgDoj5rL+ylm8I3zZf3wOvRul1i9m0lh8ysiAAM649aWYVQl6uAUkeRi7LKpv1C/W1Bz+C/UjVjOm/1pOnL3O9RPOzP3Li0Jd21EzSftXoM08J3bcOo9P1GU873my5/ho6iZp/2+YE3oF5wmVTGy0pv6yU5z2HUYFo/avMO4AZ1J7PEf7MD4D7f9BnSE4hfji9HsNE+3fnLHe7riGXcH38UWOnXNiTNfy2L4h7V91wGSWeLvhHu6H66XNTB5cM5X2V9GnAJIjn8/dh+u9A/zeKnemtf9Hkw5z5ul1PLe1xcG+FbNCr+N7bQKf2hah66EDDPn4TWr/5jQp/wg3Z5+XtLY+6i7XLl4h4IwXR2aN4u8DOip835QSGpCLtaVXJ0d8xg9l3j+eXPT2YOeIn1l4wpFWv35LYRmQHGk6aRT1nm9jVPNfWLnRlVP/HmPf/KlMnOtLrLEcc+NQlc1my1J47OrOJX1FPq1rGirKluqNqiGddedUmMnNvBLD/SvXuHE58XWdwPvP1e/a0QWypU0TuvZezO79J/Das4GZo50JtatG1QpGLastx7c/14fdUxgzZQ+eR/awpOc0XKT6dOle1jDn1OSDhlL9JvJTg2fs7TWcTbde75GQlPMTBq8fRs7lA/lz3+NUdVZZlpSTnLn0PPA/Z9KGNwh9ok+VLKOyUpJ2v9tTd8IqNl704kRkAKfDfdh9eAZd66fa4aDm2osF+Rv0ZOzuvRwMucTpRxdxu7afeYMrZFGoVoFAIBC8LgqKUYMnf5NnFHJTm/qQLUgZpzMp3qfxMK/EcJymSPk+4Zt+jVDWzWT+5CAio3Voc+ZGunXP6IWRgxqTVzCzp45jk/5gWYBMqY4/0nfrShzadmSeR4y6NPEXWdOqNbuq9+CvFXU43XcQGy8ZfAt0UaEGLwOrmjT5Jg9X/97F9bgPqNh3JD/9+AWlCuXERnOWD3PLnAqRqTRmHiO/DmbdqMGcvPUUOWc+ihSP547Rc1p57MUJzwRGNKhN4Sn+BOsAbTmq187JIzcfbiUA6Li1eBCdtlgYmtuuMt3WTabx0z0cTnObrIxDwyHMdPqOhEWDGDX9PDGJzfs4gKOzJnL4bgTPJXvKdhrCkAVzeH6tDQt94jPq80xizUdjljO/Txz7J01i5YUYHOp15acJixgb/R0j1t1Hr6pPjWiLUrNJKXLaQ636xdAciFTv7YGO6391p+2KArRau542ASMZ+OcVSv66mmnV9zCo62YCQ3VZWHdTNJRu04yiYceZfzL2pU8li2dcXTCVf24mULhNP/ovWYbdk++YeuAximRDsTq1KBWxnrFD3Im2LEj1Xj/Sf8cKHNt0ZqHnswzH6ouH99PwTsrYHn2IF+unHiEk1p4q/YbTa+1UImr1ZUewniybO++s7umhYqyqKUuVPWrmhUyetlNYtqoJOpeN/DN8AUEPXmCRryh2t++ZLSuxnZXIQ0yr7YuNJjfNlqykSxo1f+rmgu+zptT6shwab390AJpi1GtZmhfHV3EmRq3NAoFAIPh/QpKklItGSQ8DJJBkUPQpdHzijUN6fy9JEopJiJ+k9/PVok3/JihO05g9KYjw6AQscuZBupms/T+esoa5PRM4Mmk0i67IlOn8EwO3r8WhdTv+Mmp/s2niL7KyZQucq/dh/sq6nOrTn3V+CYCSQvs3a52XgPnOXI3LSaV+vzHsxwaUKZwLG80ZiuSW8QqRqfL7Qn7/JpjVIwfgcdOg/YuWiCc4Sft74u4VT70GdfhQc4kgo/avUSsnkW6nuGnU/jcX9aPdZmNgFrsq9Fr/J82e7eRAOtrfseFw5q5vT8LC/gz/86yJ9r/C4ZnjOHA3nGeSA+U7DeeXvxfw7For5p3KSu3M4eryAAAgAElEQVRvQ+Xf17C4bxx7Jo5n6floHOv3YNjEpUyObs0QpxCj9jfXp0a0xfm4SWly2UOd+sXR7I/IlPa/OqszLZcX5BunTXwXMJze0/wpPWI9M2vsol/njdx6g9q/bNvmFA/7l9knUy/vpyaB2FgdyBpkSSJH7VpUlPyYdzQsuS30D/DY58eIqbWplmst96TPad4sB9dmrsH7UXo331qz41CNzZKD+bL099xwPz+a3k0/xWbTEZ4BWFen7ue2XF/kxv0sFolKfALJPSdhWyg/dgnBBAUb3pXyVqdqKT0X5nqTs+dytv5hjVOr4Xie0dOgdjXspQAiFPP5gI5r09vz9Z8KirYyP019DaPlvDSZP4smVybRc44fxWalTqCyLGtHHOye8UyTj9w5Q4h8Ev/y4r3ZskxJZ6xKthSrU4fSEWsZ/bMrTywLUbP3TwzauYbcrdsz7+Qz1F17ZfJ+O501q5uhc1mP09B5BD54jmX+Ysn3NAKBQCDIHphIcEVJKckNEfeT39AmJ1SQkNJ8GiAlbvFFQVH0JIb1SckLbh7YicvRlwWpVLA53XoW5cbMb5m2+BY6wMf9JhZldtBjWHPWn9hOZAHzaSKUWB7dvs0TxyjilXieBN0i6FpKESgXq0g5hwgunX1AzjZTmTWtPCeH/Mxci+4smJ0HrQWABod89vDInfNuZ7gcrgf8ueRmkpHyCK+9viT81YA6H64hOEiPXLQm1Yo+5byLH4m1jI+4S3AEIDlSd8FAmubwZt63c/B9nPopiBXFO/3JpFnVuDG2F1NWX0sZliM+GN+dwUm/BvhZU6PdbKrUKoDscyfLvmilfC3oOagwp4Z+xZwtkQbx4XsNi5rHGN+hIXk3bCQ5JHn6fZps90U2DJjG80ZwevmFTAh8AwnREYTFliFvUYVbTmcJDdFTo0geYvzOcfVOBFl5e5MCiwo0al2UyP1TuZCGxk/w2cby5YcM3jbHr2FRfjf9BzZn+aHNPDSmUe754+16mljgrOtVcNlC5+HN2ejlTKSKsZoZe/Q3vTmy35NY4FyAPR9f+JXPvrDHeX0kqJhfaubOO6t7Oqgbq2rKMp9GVVnaanSZ1AI7tyl0/2Er95Oy8MpUWehieHgjBuSnRKYTikl57InL8eeMa9mIUlP9uZYActlmNKoczcm/PIhWMjuXBQKBQPBfJ8lRR5aNO3WlpNA7hq28Mnq9YXuuQdsrKf7ObP4vvfOCG/t3cDRN7d+Knr2KcX3G10xcdBMd4O1+A4sye+jzS0vWnthKRAHzacKVF0Teuk2U8Xs1KugmgS9p/0pUcAjn4tlQcrWdwbw/K+Dx04/MsuzF0jl5sLAE0OKQ3x4euXLW9TSXwg15XEyh/SM5uecMCbMbUa/IKoIC9cjFPqFGsRjOuiSH+YmLuEugUfvX/3swzT/wZFbbWZx+SftbU7LzLP78qzrX/+jKuFVXU2n/IHycg5J+veJnzcffz6fapwWRT2VdmEopX0v6DiqM15AvmZlCL7gxuUNj8q1fT6iJ9k+vT5PtPo/TgEm8aCThvezcK2j/cB7GliVfMT03nc5wP0TPx0XzEHPxLFfuhL9B7V+Rpm2KEbFvEucyWN+XrR0p0bQPvVrZcXeVG4EJMoUK5UMTe5vQcNNe0fPo7n3iNKXIl1dGtilOYcsY/C9mdN+mYhyqsFkuoqIs/T3c911h8KD6VLE+gvcL0Fb/nFoO19l9MNX4sm7BrMjryb+/OMLoooM4bBIaRraxw9ZSY1hMUHTEPX1KbDry3qJUW8ZO+YKHS3uy67ahJDlfPhylaC6EviBH/Q9xzG1NQftneN1/hlQjL44aiEgwnw9giCaQXr1NyNhmmXzfT2BETQ8mfHGYML2GYmlloqIsOY8N+rsv+HjOPo6s0hB99SS7pk5lsXOg8bqhsqykimc8VvX3LnHS1YdY4IxrALg60+2Xlqz33E6kmuuqRXW6T2pFDrcJdPh+MyFJbeJppqYCgUAgeBdIqfZLJu3oTeWAIycmNNwApLG4n8aBu2pvBBLRVqxMGcv7nPMITn4inxDEWY8QLCp/REkLdWnUoClYkLyEE/bAllrtG2LnsZYlm85z+06UiQCNxWvGnxyV2jLP7yCLVwylbdMS2KXY26YnYt8+zsR9RMOvCiEjYV+vFqVjfTjhkXpVTqZgxwmM6SRxcMBv7Lz+stTVNhjF34sb8HByP8alXtwH5Lw1+eHvFazzc+fIXQ92eY6klo2EpXXWng6mrVSV8rYfUH/xv7iFn8M9/Bzu4R6M/yYHcqGC5Mn0yVZ6Ij03s2LKZs4/TCUx5Xx8Nm09e0J9OXTBiXGjWlCpqD25P/+Jv7Z1o4zx8ZJcoCwl7UO5eSUKRVuashUg0O8mb8p/B0Bb7UsaFA/Dfec583FZ9fe46B2CpkI5iqd3glPcTU653seiaiXVY/VV7dE/vEtIjIx9PsOhVFk1d9Iu7M3XPT2yfqy+Xlly4SpULKTjkvNR3phzWSLKY7y2uBFTpgkNK2kADaW+a07Jh0c58G+MapsFAoFA8B8jSYNL6bxv+pZC8oG7KTEer5t+MSryyAhtxcqUswzhrEeQiTYJ5LTHPSwqV6aUhbo0atAULEQ+o/av074xOTxW8femc9wMfmyi/V/g+edUDkntWHzpKCtX/UK7NLR/+N69+MRWpvFXhZGRcKhXm7IvfHB/6ZBLDYU6TWF8Z4l9/UewPQ3tb9HwN5YtacSDSb0YnXpxH5DzfkynhWvZ4u+FW8gpDnqOoa6NhKVNVmv/alS0y0mDpR54R/pzKtKfU5HeTGmdA02hguR9Be0fcXIjiyf/w9k0tP/nf27i8IOLuF7cyOTRX1G5qD15Ph/Kgu09KZuo/QuWpZR9KNevRKFoy1C+gsRtvxtvVvtXb0Gj4g857uybpta2/GoWHk8COBPuzdbVX6PbMoZfpp43pM0wDpFxAVivN8yVDK1QMw5V2KyqLB139h3mqkN9Pv/YEtBQvuUX5A04imtq55PYk8z94hs61DG+vpiGZ4oBq6XGlIO4hfjiHuKL+939DKmT9o2BTaXOzNw/njInxjBsoi8vh49P4MqUH/jqo7bM90r/cY75fMyRsc2SYyN+mlSVM+Pn4pXujgt16G9tYni1BjQrXJV65Toyyy03361axfAGdq9UlrmxmoK4G3geD8GyahXV11X5w2pULqzj4o7DJg5LAoFAIMi2JIZ3lEg3VCeAFomUnvsKZkTMa9mTBkqm0pjFxgYr4oiLz4lDHg1PA+4nbYU1Jf76bibV8WBT0y9p+l0rum/oSZ+zy/mj82LORRo9miKOc+DgCCZ935wiyzZTukk19Cenv+Shoyndgd9mfEbkoj7MPxyZprW6K0fYE9eQH8ZMpbf/YFZ4mMTdkz+k7erFDCp+ilXjfsH7WhRy7s/os2EIudXXXB2ShKS7x97eg9l8OeU3uhIXxYMsPHtUW70D/Ztc58+qgwgq14KOv41g0e/5sdCF4fNbPwITNJQfu53FQ0thZSFR6dAZfkBGY6mB6YdwnRTExlbfsdQ3q5WHBRXbNqVgyDFcfNQcu2a8Cc5QSBt3tyQebPFG7UlAlwCynFxSlsydNHnTdc+o6Lc3VlWVpehRMBxemCUoGfdOzLFdHH+whMbtKrM6QEurH0pwb+tYziXecL3N9hEIBALBO0cxLiQmBd3JQOAb/sC4j1dJLe4lkIze/oqUzndRWmdzZU5TZK32T1+HSLY2WBNHbEIuHPNoiAm4T3QaieOuOzO2livrm7Wkebuv6L2xDwN8lzCq09/4Jmn/f9l7aDTT2rek6NKNlG1SHd3JqZxKrf3LdGLczPpELOzB7EPpaP/Lh9gZ15hOv0+n/6UBLEml/dutXcHQ4l4sGzsEz6tRSLnrM3Dj8Dei/dHdZVevAWzwT6Wp46O4n6XavzODml5nUpUBBJVrSZcxo1jxx1wsdWF4je5JYIKGCuN2sWpYGawsJKocvkgnZLSWGpjxL16TA1nf4hsWvgHtX6ntlxQKOcrRdLR2vNtseo84TsyLaMLvPiAmKZmeyJAwdFb5KZBHhnuJOlDG4cMCWOrCCQvTo5fvEpqQg5IVCiEfSf+wYDXj0JzN+hB1ZelvHeP4pSF826oSc7xj+aJFYW5tPcyt1M2rPCHE7wpXX44SakTH1SU/02+XldEbPpYHF1NnImH3cT/m7hiI/c5f6PfrsRRaVP/wIZHKB+QpYIuki+LBXUCyJ29BW5SwMCJ16vJRT8Y22zX9jqaF86BZ5UHjVcaStRZopSFsufcx06v1wTk0s/dRep7fu8D+UVMp13QDLb+tymxXT6wyVZb5sZoSBVLdh5m9rip69GThPY1AIBAI3iiJh+uakpYzvjYjz30FjItQiYH3FRN5rf4pQMJlP67FtaZ6/aJoThtCiKAtRo36hYj3u8yteHVpkoh9QaxkR45cMqT29YiNJRYbbGxiePhYj02uD9BC2ttH4yO5fmAT1w9sYmWZbsz2GM7ArnsZMN+4bVGJxnPlPh7sbcPXn98ld304M8adFBrfoiTtFw6h0s0VDJh2jnQibqCEerOizyquzlvMb1tWYNWlPwtdjDcEFmWoVMOaW/MXsH7nDUPZlg6EvlBeFvlKAnFxCpKdHTYSxKalOzJIk+BvaOdKVawI3eVPujpONTKOdb/nu0YSp5dvTeHFn+C7gB51ZPQ6PTzYwmz37Swt9CEOCQ+49/AFCnBryVDG51rElLqujOy1g/DaQ1g8ww6n5tM4GRNP1J3MCvz07UnCsgqNvi7Aw71H8FejmyyK8/HnhYi/6G8Yh2kNfbkwVesUQnflKoGZFaGZtScVWTZ30uJN1z0Dsn6svmZZIZcJuK+heZvG5NvszIOMmk9VO7/gxXMFKVdOcqQ1l5/7sHPDbb7q3o7GAVZ8me8Ca9dcTrqWvc32EQgEAkH2Ivmw3eRDd5OddZQkhx1Frzf+kPJLRlES/y4NIamk/XZmSLjsR0Dct9SoXwyNj3FXprY4n9QvTLzfJW7Gq0uTxIsXxEk5yJHz5e9V5YVB+9tax/DAqP0tIO1QL/GRXNu/gWv7N7C0TE/+PjGCn7vupud84yKp8gSPFbt5sO9b2nx+hzyfS5we7UoKp1uLUnRaOJwqN5fSa2r6nsX6UC8W917B5fnLGb91LdadezE3SfuXo0oNa27Mm8sa5+tG7e/I/TS1f7xB1+ewwzZd7Z9+mgT/i1yN+5YqVay5v9MvS7R/7s9+oH0jmVPLNqXw4k/wnUvHWonafxPT3bfyd6EiOCY84O5Dw6GtNxf/xG+5ljHjMxeG99jGwzrDWTkzB6uaTcIjJu6VtH969iRhWZWm3xTkwZ5DXEpHayvRody6fCONezmFGO9TXFF+pn6TvGxzemDoLzk/9b+qgnJ+PuejFBS8cPeOZ1TPrtRcM5XTTzKYRObGoRmblUcqy9IF86/zZfr3bkYV5xc0KBbA/p23XyH8k0L0jfP43kg/hVygBWM3DiL3rp/pP9yV8FSFKGHnuXBTpl3TOuTcdIgoBST7OtSpKRO07HzS/bW5fLLK5mcHJvJDjVkmtzZaKo1ey7jK+xjeZQ0Xwl7jIiinjJqQqbJUjNWUZX1ItTqF0V25wu0EdddV/b1LXLmvoWWbpuTftP3N70wWCAQCwSuR3m7b9Hx80gu6kUTqQ3glDHF+MuPkr9w/yLo13Zk7cja/xy3hyFWZkj8MpEelO+xpe4gIBVCTxogu8Cq3oh1pMPxHzmm8eaTJR3HrqzjvuoYuKJhQmlGk2AsOH70AY9rQorQre1PYbEX1IaOp9cwL34v3eBJvRd5PK5HPIpY74U9T3NPE+WzG+Vx7ei78FWRPZh56ZPK5TMGuo+lVKwb3wSdIKFmGkgDoeR4SyP3HqR8+3OHo4D7E6Vcx0WkeUa37s+7sc0i4xVX/BBq170M7v61cDHmOlLMC+a3SaGXlCYEBD5F7fk+PjmF4R+WiEJfZvd8kpE1GaUIPsGZZJ+YPXcS8XKtxPnKdRwnW5C5dgCcHt+AVnEkVZVGFzkt/p1MJ+NLuKh1+SxmLU68zzU/H05CgFDdCceHhWObPy7MLPpwLCCJvs7xY3fbitN9tgl5lsdiMPQAWtZrzRaEQ/t3ll26cT+nDytRpEEG0dWFq9OhP54pB7Egch8Zu0dZqT7/+Er634incuj89a0ZyrPMhwjLbhCrsyQhV88tIhnPnHdQ9w3pl9Vh93bLizrJp2nEaLf6dRVtLsWWTD4FhcWg+yEsh/Nm9L3kOqmlnlKfc9AtGGtSePt0e4h6ek0KaK+zac92YRsdNp02cHTyakX9JvNg/koNB+szZLBAIBIL/DBKmi/pm0kqSwS1HUZJ2/OkVfdLDAL2iT3biSUXq95KcfswVaprH/X2sWd2ThSPnMyFuIQcDZEp3HEyfSsE4tz5AuAKoSWNEFxjAjWhHGv/6E2c1XkRq81HCOoBtO6+iCw4ihOYULf6cA0fPwe/f0qqMC7tT2GtNzSG/U+f5SU5fvMeTOEvy1apMPstYgiNSaf9TG9l2tgN9Fo9Ckk8wNZX2L9TtD/rVjub4IHcSSpaltKFFeRZym5CXtH8whwf1IF7vxLT1i3j8dS9Wn30OCTcJuBRPkx/684PfJs7fe46cs2K62v/2lQdoenagT8cwTj7JRWH8cd53I4X2TzdN6D5WLO3KkmHLWJxrBduOXCUy3oY8ZQoSdWAjJzOt/avRfel4upaElnYBtB3ta0b7B6bS/mFY5c/H8wunOBMQSL5m+bC+fRIfv1uv5ihixh4Ay1otaVjoHkd3XXglra0P3MmaLd2YPWkuQ+IWcuymTMn2Qxhc/xEHOzkbnfrvs3fsElodHMpfh3KxYfm/+Ac9xaZoZWrmvsCSuSeJVtSPwwxt1qspC0DH3V378P+jD4Mmx1LozDoO30xjNVfKQcEKZSltsqCs6KIIvfaAp6rWuS2o/PNwGknHmOoUgn35stgnmhoTSmDwE/QJATj/fYLvF/zO1OtaNvpA5UGjaIwHU9Yl6mMV+QBY56ZIidxYaYviYCmhzV2UUhWfEPvoLkH3n6t6PqmPDiUo2vQdLXkeJaDEPuLejftEJzaT2bIsqdzzR6rF+nH9TjT6Dz6kepf+tPswhN3Oxr5TWxbqxqpF7Q4MGiBx+mY8hdv8SL+PIzjc6QAP9SqvvXG+rJ/yL02XjmfF9tL8s9Gb2w/j0OTMR2Eu4bz3zYbLEggEAsGrk5Ec1xrW7xM9eJK37CpKote+aUbSK3r0POXs2D6MfDyKAYOnMDOPQqT/CTZ0mIWTR0wm0hiJcWXZTxtwmNiO37b0Ro4J4fKaSRzcfY2YO2c4HzyExk0+IvL3KcyptYBhp30YiowU5crTeECyRWOZixq9xtK+SC6siOXJnWv4/jWCv7dGpKyiLpi9sw/ScUtrWLeDk6YuPJIDn37zCTm0lny5dAtfJn0Qx+khTRmyOvzl5tI9wG3YEJaW+IdBTqO4/vlEvB4FsaPPL3wwdQDtFy1lsL0lCc+ieXLfH6/bqf2CEvBfMIV/PvqNNvP/pu2LUALWTuLIgZsmoYgySvOMixN789OdQfTu3YOR3fNgo48h7NppNnpuzXzXJgRz9tgtvv5ewsc01p9atMUpW0FL4OobJGBBycoliLuyhruv6glu1h4rqn7biNxB+3E5l0YhynOCvU8T+H1rxu3oiqUumvvn3Fjebh5bTqTsCyUuBx8N/IN2Ra15FniWgwN/Y/GBx5mcImbsUUUWzZ23XndzZPFYfe2y9IRuHEG/sK70/Pkbui3ohKOtxIuwO1zZNINj+2+S5ECVYTsnlqnj2sIprK48jvaz5tMq1jBPD++9npRGf3cfG7f05ZNuMWyaf5yUDlpvs30EAoFAkF0xbNt9We2n45//Uqq00qX+Xcqkcw885cwfPRj+eAyDf5rOvDwKEf7urGk/ndUm2t98GiMxLiwa7ITjpB8Yt60fUsw9/FePZ/+uq0QH+3A2eDjNmlQmYsxEZtZezIgz5xmBjBTlYgi1ItmgscrFJ70n0qmoQftHBV/l9KxhzN2SSq/rgtg5+wBdtrYFpz9wT6H9Hand+lNyaC1pucyZlkkfxHHq5wYMXBWWhvYPxWXoIBaW2MqQdWO4Wn8cJx8FsqXPUHJOHUSnxasYam+J7tkTou77cTIN7e83fyLrKv3Bt38v4bsXoVxZM45D+2+YhCLKKM0zzk/oRr87QxjQpze/98iDjT6ah9d8WHdyU6Z61VBUIGeO3aR1ewlvj8BX0P4lKVdRy61V10nAklJVSxB3eSXBr6z9zdljRbXvmpAnaB9Hz75iIcpjPIb3ZEzEaPpOXkzH3PD4qjfOPUew1ET/xp5fxuCm9+n7R3faTm1B/xwKMfeu4vOPP7YSRKN2HJq32WxZiVryzhEOnvqVMQ0UPAcdMjlQ2bSJ6jP8ZP2UVX6yi2HFR+CmZsuHnI9KHxfColAxJnh8neKjuCO/8eW323ms6AldP4Kf7cbw65DJzP0VIi8cZW67qey5o89EPqCp0J15rgMpmeiqWGImmzvqCV/Zk5ZDPLP0oGazZUl22BUsS5P2P9C/mAOWcY8IueDFmk5zWeua2ZMD1I1VJS4HlQZOoH0xa54H+rK3/wgW7E8ch2quq3rubxxG97Du9B3all4LupLbTuJ5WDCXN07jyL4bRGXtTZ1AIBAIsgol3V+Qqvbdbuqij4LeuJ3XJCyPXo/Bd0ePPiEBvV5H0L+zqfIsC0/UzDJkig/dwJpfYlhQfwA7AxUsHfLiYB3L44dRxL7C42i5dC+Wnvia082/Z8V5Edj6vcamLqPOL6baps50meD/at4JckHaHzjIoLDRNOt66PW2OmeFPW+TrKy7QCAQCAQC1fjZxlOs8RAkWQbJcAA7sowkyciyxvC+UbEbdtxCcqyeVCE39XpDeH69Dgk9er0ORa9D0Seg1+nQ6xPQ6xNArwPF8Lp3ci3lnmdH7a+hxLDNbPw1mtn1+rL9th5Lh3w4Wr/g0atq/zJ9WHOiNae+bMtiof3fb2zq8cfF5dTY+APfj/fL/lob3k+bBa+PuX6XC9Hx4DGGhP3KF10OiPswgUAgeI8ZuXJSmu/P7DMu6eer1vEUrtsdSdYiyRokjRZJ1oJk0P2SrDH8LMkgy8iKYti+axqKJzGup+nhu4qioNe/Wgz+t4uewGVTcbpahZ+2TeW7ugXRPAknKs4CK7MBiZKRPihC+ZrlqdCwHSPW9iOP83y2XRAC/33Hul5z6uUJxnVXQLYQy9nNHoFAIBAIBNkTBcXkQC0pWa8neu+noekzzM9E4yeSmJ8sSciyIRSQ2cN83zk6bi+bxKqAagzfPp32nxVC+yScx3GWWGdK+xelQs0KVGzYnt+cBpLHeS4bhfZ/77Gu15Iv8gTx787L743Wfh9tFrw+ot8FAoFAoAbTewDTl1YxevIYDtslxbp94mJ+osePXq/Ptsv6KXjuj9N3vYmeMZ4+e4/wi1YBJYStLVoxz0udUNdW7cCEbZ0ppHuAv/N0fh3lmvJwXcF7iA01vm1AruvbcLmUHWRTdrPnLaH9iIHem+hWTpNOAh3BczrRafwlIW4FAoFAIEiDxIV3U2n6KjI1pfQ3ie8vgaQYzt1S+bzg3fLMj1XfdufJrEkM2Hec0Ubtv7F5U/7yVKv9OzFtezcK6UO5tGMqQ0a5CO3/3mPDJ981JNf1LRx7b7T2+2iz4PUR/S4QCASC10Oq1GuLAvpkj30UQyxORW9c1NeBYgjbo+h1gOH9oH/nUOVZJtxi3hGyrSP589uiexxG2KPYLI4RLhAIMo8VucsWx9E6vceFCnEPAwkKFRtPBQKBQCBI5KJtHMUbDzVs0ZU1SJIWRZKQJEOYnuSVeSkTIXoS9b2Cok9ICsej1yWgKDr0ungUveH/e55OlM+WIXpSItvlpkB+W3SPHvJQaH+BQCAQCAQCQTZDbYieQnW6I2k0yLIWWWthvA/QgpQcogckkGW0hl23UooDdNPasgsk3TCo3fqbHdA/i+T+7ch3bYZAIEgilohrV4l412YIBAKBQPCeYViuTwzDY1y8z2B7bWJIn9Ta3fC+kvRz8ufGMD8kh/t5n3Q/gP5pBCG3hMoQCAQCgUAgEPw3UDCu0RtvAZIjdCpJ4TS1quJqJsX0kY0H7r4XgXoEAoFAIBAIBIL/FMmL+wpIBq/85Fj50mt7rCtGR39F+L4LBAKBQCAQCATZEkVRUjj6yGkF5k/E9LBd05/fyPq+ZEeFzkMY2qcy6Qb+UZNG8HaQ7KkzfjGLJtcl+2/WFghSoSlBwzGj6NzY4fUuZ1mVj+DNIztQ9eehtPnI6g0VYEP5fsP44ZNc7+9YEONZIPjPkZ4Hftpe+RKKkniIr8lCvzGtuC4IzCLloFKPkYzuX03cqwkEgqxDsuezCStYMaUelu/aFoFAIMgGpKXl5bS236a34J9WBlLedswL98cr2vByW9+c9JZPbD//lXXBHiwbXvFl0SflpHLXnrT9ojDpHb2pKk2mkMndcABTXA9zMPQsx++4sPHIDNp8lDW5qyUzbZhdbEayoUidulQqnhPZTNIM+z2LeZtlCV6fd9Zf2jI0GdaReuVsX2/B4nXysS1EpS8/p3ye/9iSiYp6vfV+l3JTZ+Zq5o5pQNniucxes14JTW5K1GvBoD0rGdzQ8f1cCPsvjefsZo9AkMWk1uqmet7cK5HUoXhASZVv8mG+ae74tStM5eYNqPCa88zu81FsuevNml8++j/UbhryNPyRGW4uuDy4hNc9D3YcnU27t63rM0NG/S7lpHLHHrSpXyiL7tVe0x4Bb3OMZb+5/B7OL0HaSLYUrfMZlYvnfD81dlaQ3a51WWaP+Xma0bVFytueRZHXOffU8PLe0DKDtTSB4P1DkkBKI45OWs76WkgZsyctEg/lUhTlpUyVyCNMr3cBWyoNS/0AACAASURBVI0jTRYup3P6ZmFTpASF7e2JK5sXCyDhFSuYVUiOXzLc6UcqnVrM7AnePEiwxbFILiIe6N+qHerbMPvYrJ632e/Zb4wJMuL/u780FTow9p/GuH95koBw3bs2J8swX6+33e8aivadwYTuFhzu2oO/DoWT1tXSqlQrft06kRpH+/HD6LMmNmkp+GVf+g1tRa3qH5JDiib0vAc7J85is+ej5AAWursc7NMHec1aRq+eQlDDwewJzK7X5awnu43nrLQn/bGR1flI2JSqzzf9v6VhoyqUzH+DJZ/2Z+d9ESZFkJLEUDySlDIcT9LivZnwm6kddtJ04AEkZJTEctIYhpoKnZm8sQnHm3lw5ZXnmYR10VIUtncgrlw+LPD/v9ICkmMLRq3/mcqn/mbGD16EJtiSu0guwrOtrs+qfv/v2pPdeHtjLPvN5fdxfgkE6ZHdrnVZZY/5eZrxtUWJPMyUuuex0+Sm2aLVdHutWgkE7zdacxtuFSV5cT/Ruyc59iege0JowBOQ8xHxNKObUIWIjaPoevlDdAEBPM+qGrwGcvFylLS9z79/reTYqXcoQVS3YTayWTVvs9+z3xgTZITor/9P3m6/ywW/YvAf1XmwoDvz0ljc1+SuQKMB/ejxYyOK2Uo8fCkHPQk2lsQcX8P0WXeJzVmaBkMGM3iDzL1qo3F/YpI0LpgDA0dTznU5AyZ+iUePgzwSa7PvLebHRlbmY0XxLpOZMfkj7u1wZs/4TQTfe8C9SDGABCmRjP+aO0JLkpJDar7aGbmJDxFkFOVNLoYpRPwznA7+RUi4euX/TgvIxctRyjaEI7OWcdj7fdD1gveNtzfGst9cFvNLIMj+mJ+nZq4tuijuB0SBnJ8az4RuFvz3MOh4g7O96Q7btJDTCsWTnFGyJ1C623NVkBSC5skpdrjvYOvy9EPQaKp3Z/ZpD45H+HLQdwXDOpTGOjNpJHtqjV/GmgvuHAu/iMfDE2w9NJVO9fMkh2Ww+IThly9ywq0vxa0+pOOxC8bwOOdZ/nORlOEbJEc+m7OTw3d2M7LlK4ZdkB2o3H8C8z2PceShL4f9NjBuUHXsM5PZW7ZZylGer+euYuMNH9wfncfljivbXEZQ+4N0/4IctQez/K43y8dUI4ekst/V9JeKNKrLGruI5aePcTDkLB4RPuw5+Tf9WxRKudVLm49Pf5nJCj8v3CIv4HrHhU3/LqJvY3v1bakpS6+T59k7r07yGQVWzZgadp4lPxY22K3SHsm+Km3+nMkCjwPsDvTB/dEFXO+5MG9gieQ2UjXGLMjXoBujd+5k192zeET4ciRgF7MGlU/eRq3NT61fZ7HK3xu3MG+cXWbSvVH+lNuszbWPinqpuyZoKDd2Nyeik8NXeUX74xV1gjFNTU5+UFN3m5I0m76czbd9cX94gi17elPhVfYOq8hHytuM0Z7/cvjBBU5GnmG/7ypGdCmHTaI9iXPZtTdFrYrTxfWisW5+HFz4WdJ4MZuPSlTN5awYPyrqpfq7wNw4VDuXkSnetQu1446wcoE/sS8VpKFk37EMaPCMA71Hsu1WWotYesJ2zWf2zB24u5zi1K5/mDPTlaf2ZShd5OVgP8qT06ye6oLUsgstSr6RYEDqrglq5vJ/cTyrtcdsG6oZG2pQl4/VJz8yebw9zq2+Y/ivqziw/xSXzgfy6OVBK/g/RzH+axobH9IPr5nWZxmF4UwK5UNy+B4g5cZgi08ZGRDAGbe+FLMqQQ+3AOPW+Ku4LKpvMs+q0W76HJaePMqh4POcirqC930PFv1omGdJ2+pjzrH3xB52LU9nW702P7V/nYOT/xm8H1/B+94JnF2WMdBUl6lJIztQdcBklni74R7uh+ulzUweXDPFd505m5MTOvL53H243jvA761yZ15rJ7ahxwBKWBWh679XjG14GaefiybrWzX2qKiXqjRqbTbT7wAWn49g6+0LnIo8z5FTS/ixecGU3z9vyR7J4RvmhF7BeUIlk/Ktqb/sFKd9hxm+8yR76k5YxcaLXpyIDOB0uA+7D8+ga/28Kfs8K2w2GE7+Bj0Zu3svB0MucfrRRdyu7Wfe4AomerwAdUbMZf2Vs3hH+LL/+Bx6NyqQQgfVHbccJ183XO5f4vSj8xz2WsKgloWTdZCaMaYpRz+vyxydb3KmmlVzZkZcZtWgwsnjMEcF2sxzYset8/hEXcbznid7jo+mrvG7V/1czoJ6qWpidfNLVV+YQy7M5/3b8WmJjMMbmmtDVe2jtr9UXcdU1D2LxryUtzljvd1xDbuC7+OLHDvnxJiu5bF9rcguEh/UGYJTiC9Ov9cgRybyejP2vDpmx0YWfeeqHT9mx0YmvgsyRMU8VX1tUUOWXcMFgneDwsvaPzXa9D7IUkMiDzGtti82mtw0W7KSLhmklSyecXXBVP65mUDhNv3ov2QZdk++Y+qBx0nbkDNMI9lQrE4tSkWsZ+wQd6ItC1K914/037ECxzadWej5DOIvsqZVa3ZV78FfK+pwuu8gNl4yPC188fB+Sg9PbVFqNilFTnuoVb8YmgORmdxuaM1HY5Yzv08c+ydNYuWFGBzqdeWnCYsYG/0dI9bdTzNcxEu8VZu1VBozj5FfB7Nu1GBO3nqKnDMfRYrHc+dZWullHBoOYabTdyQsGsSo6eeJUQA1/a6mv1SkUTXGJBuKffYZFZ5uYmIPNx6Tl6p9h9JzzZ88rtuTLbf0gB3VJq5gVh8Jt2kTWXk2AvI2ot/KjtQoZ4f072Oy7LmwKntAyvcJ3/RrhLJuJvMnBxEZrUObMzfSrXvGflczxmTytJ3CslVN0Lls5J/hCwh68AKLfEWxu52YTw5qTF7BzJ46jk36g2UBMqU6/kjfrStxaNuReR4x6tpHRb3UXRN03Fo8iE5bLAyC2a4y3dZNpvHTPRw+nTiiVdRdcuDzOcsZ+3Uk+yePYu5tC4p80Y5utTLbX+ryUR4HcHTWRA7fjeC5ZE/ZTkMYsmAOz6+1YaFPfIZzWRcVmjRXzeajCjVzOYvGj4p6qet3FeNQ5dxBU4Q6LUoTfXgBp6LSmrk6rs/oTLvpCor2IwZOMdeeMjZFa9K2Zy20AbvwuZnW1Vvh8cG9eD2dTf1mBdi8JETdNT4TmL8mqGnD/+h4VmmP+TbM7NhIDxX5SDmp/1N7isXdobHTAXoWsiH+3iXcFs5hyformNnYJ/g/JNGTJ9GbJ+VnGYfdBJJi9qd27U8Rqkcx+V8hpfaJv8jKli1wrt6H+SvrcqpPf9b5JQBKqnlWizb9m6A4TWP2pCDCoxOwyJkH6aZxnkUeZFKtM9jIuWmx1InuaVprR41Ja5jXV+L41HEs9Y2AfI35cVUXPi6fqMvUpLGh8u9rWNw3jj0Tx7P0fDSO9XswbOJSJke3ZoiT4Vpt1uZEtMX5uElpctlDnfrF0eyPyJzWzqANXzxM/t4wb4+aeqmr++vYbNrvAPqQE6yZcpiQF/ZU7T+CfmunE16rJ1uD9Cptzhp7lMeeuHvFU69BHT7UXCJIB2jLUaNWTiLdTnEzAZBtKVanDqUj1jL6Z1eeWBaiZu+fGLRzDblbt2feyWdZZzMyeb+dzprVzdC5rMdp6DwCHzzHMn+xFHr84ylrmNszgSOTRrPoikyZzj8xcPtaHFq34y+PGJBsKfZZPSrG/MMf3Y/zSMpL9X6/0HftLB7V6crGmzrVY8w8Wqr8vpDfvwlm9cgBeNw0fPcWLRFPsPG7V1E1l7OoXmpQVXc1faECuyJUajeEbjNHE3JsF9tWbGLf0ZtEpzDVfBuqah+VmL9uqKl7Vo15UB5f4fDMcRy4G84zyYHynYbzy98LeHatFfNOqdWApsg4NhzO3PXtSVjYn+F/njWsPbwze14HFWMjq75zVaFibGTiuyBD1MxTVdcWNWTdeBYI3jWKknYcHkVR0JoeqpWaxBifKIl7AAw/Z/peUxfDwxsxID8lMs0F4mQSfLaxfPkhg6fl8WtYlN9N/4HNWX5oc9K2djVplHv+eLueJhY463oVXLbQeXhzNno5E6nE8uj2bZ44RhGvxPMk6BZB19IRDPEX2TBgGs8bwenlFzIdS1DK14KegwpzauhXzNkSaWg732tY1DzG+A4NybthI+rCAL49m0GDQz57eOTOebczXA7XA/5cckurglYU7/Qnk2ZV48bYXkxZfS1521Qm+j3D/lKTJhNl6e9cwOOItyEffzuqXxhFnS8c2HorAvJ/SdfexQic255J868Z2s7KgW90HXFU23yZJCN7kufaC24e2InL0ZdFh6oxpq1Gl0ktsHObQvcftnI/aeh4JedTsDndehblxsxvmbb4FjrAx/0mFmV20GNYc9af2E5kPvXtk2G9VPZXfMRdgiMAyZG6CwbSNIc3876dg+9jRXXdwwq3oH07Ry5N6MHMZXfRA6fcdFTvVzNTfSp/qDKf+GB8dwYn/RrgZ02NdrOpUqsAss8d9Grnstl81GB+LmfV+FF1jVLR72rGYYQxrdm5oy1FmXJw65+rxKXXRIqi6jtNsv+G6QFTqG8ro0T4sOS7lVx6kU7iF1cJCJCoU6kkGt6UYMzgmqCiDR/9R8dzpr4rM2hDQPXYMIu5fCwqUfMzW8JOH2PbUi8CIzQU/noQI+Yvwe5RGybtzcIHy4L3HIMWT16HNyzSJ0p4g/c9xvdSeecrhjO1TNV+oieQaYz9FJ5Bxr9RFAVFZ7rK/4LIW7eJMs6zqKCbBGYwz27s38HRtOaZLpoH16NBfkpEOvE8pPwt6Nm7OLfntGXsvKtJuqOtrgu5M5MmX0v6DiqM15AvmZniu86NyR0ak2/9ekKTLkQZ2JxI/HmcBkziRSMJ72XnXkFrZ00bqqnXgzyZqXvW2Ky74cXBfSeIBc4EOPCp3yg+/8KebesiIVN98Zr2KJGc3HOGhNmNqFdkFUGBeuRin1CjWAxnXS6k0Ab6e5c46epjsNk1AFyd6fZLS9Z7bicybxbZbFmd7pNakcNtAh2+30xIkrmeSUmkgq3o2asY12d8zcRFN9EB3u43sCizhz6/tGTtia2EJ7bznXO4HvE02HwpBzX9xlDvCwc23QxHydQYywgtDvnt4ZErZ11Pc8kYa/ui6XevmrmcZfVSg4q6q+iLRGQbO2wtNYbrp6Ij7ulTYhPTR3uzuGkD/vmoIV/3+oF2K/cy+PEZDq3eyLZ1xwgIT1DVhplpH3VkcB1TMw6zbJ4C8UH4OAcl/XrFz5qPv59PtU8LIp8KzpxOlqwp2XkWf/5Vnet/dGXcqquZDweVlfa8NirmV1Z956pB1bzIqmuLinxUXFvUkKXjWSDIBiTr/cTfFUg8ZDfxjZfP5U0mcbH/rd5k6u9x0TsETcdyFNfCw7TUs5o0cTc55XqfHj9UoqSFM5HprvSkaQSRnptZ8fJ3vSq0lapS3vYD7Bf/i9si0w8skAMLkkdG5QJ/Zng9myEWrxl/cnTTH8zz+4IL+w5ydOtujvx7m6epbNU2GMXfX2m4Oro941YHkSXHvaTuryzv02T0YXcJiZEo7ZgLiQg0H1WhnOUDjhy/9U4Ohkptj5r5pmaMhRWuQsVCOi7NPEpoOp2krViZMpb3OegRnNyPCUGc9Qihb4ePKGmxnSev2D6vUq9kZAp2nMCYThIHO/3Gzusmx5+qqHtkuXKU0oSy/5TK3TLpoFGZj5y3Jt+PG0CrBuUo4CDxLOwZVjYSD6wtM1Ve1uRjfi5n1fjJKtSMw4g0Bl+aY8zKDlsLhWdPnr72d5fyxIU5jTqyqUg5avfpT59dS+HrPmy4kMbFRx9N9BMFm5w5eDNBejJGTRue/4+O5/cRyS4feXPpuXNoO8dcDTcd1y9Po2iznXRvXwfbvQd5+q6NFGQrJGPwzbRC8aSZ1vR3wNQfX5KkpJieYMjXcI9gLIPk998F2o+qUsEqlAPHb6arO1SlqVSNinY5sV/qgfeS5PclrQXy7YLklcnkzb2eiJMbWXwyM3+T9aipV0SW1z1z6B/e4V6MTJl89khEonmr9ugJ37sXn2mTafxVYTYtvItDvdqUfeHDZvcMPEzibuB5PIQ+HapQymI7T7LIZvnDalQurOPizMMmzhIp0VasTDnLEPZ7mNxXJQRy2uMeAztUppTFVsLT1EF3uBcjUdYxFxJqF8LV8ALPP6dyaMt4Fl9qyLn9+zm02ZmDmfzuzW71UtMXRsupMeUgywYUNGg63T02tWzCzBOmxuqI8j/Ghl+O8c/YQlTrOIiRU+bzz8BNDPwfe/cdH0XVNXD8d2c3hN6JUgREEAugYEFUfFRsjz6KKCJFpIWOoiiCgggIqFhRioiAgILgS1FpIiJFpHcCJLQEpJPQAyk78/4xsyWbzWY2WULxfP3EhN3Z6bN75u65597an9Wp2e9DW/snTDG4rfMwjNepVuZOmr7XjYYPVefaEhrJR5PJX0BxqEBosSRAxENvM/ppJ9t7NaL32PgctT2Ec31yLzzXV7jYvy6uLOGPAYTIG75pYoF67eKXsG+rnJ1SKqcjdPmvXYgfytaNRdDsNzvTGOYAYUrlfWOLUijXAX5t140ft2V8lzRST3HkMh3vJ23nzwyst4wpjz7Oo88/Ravv2xC9/hv6thjJBp9B/1zbF/BL6kO8+M5g2sV0Y8yyAJmGIR93O8cri2lCXpaO7gJNsy4XhwMHaaSn5/Z819F1cEbYruAYeH3ssHOOGToGoOvBP7myXqq1P3K8f7LYLhvHy1G1KW9/dB9JI6IZ9ltSxultbTvoKFQo+zQQO/PRKtBo3Ei6Vl7F2H5vsDLuFFqp+4j+vrsni9CWcM0HG9dyGM8f27I57tmehwEFOMdSznIuVRFVogga53KXkaOf5ci2GI5si2Hjkv0UXPstTVrXZurrq8iUI6MVolBhxfnjZy9Zd89s9+HVej5fgYy0NFyGRsmSxVBY73GuIxw+pBNRuiSFNa7oLzDExeV/BSsVPBnH8Mn2yXKeStkM+/Ogl4vDmX3cYWcapcD1D7PaduL7GL9Wi7RTHLpM4/Fs2dmusG97qMc9HVc6KE2zv85hXB8j8Q9+nd+bIU2epOLXk7nxkdq4lg9m1cmgrwLf+4xwrbOhoxOGeDwgMw4KLd4171ccEcGbBFJ3zuDduouZ9NiTPNH4f7SbHE2ndaPo1fwr1vl+9mbTYy3vtssGm8cCXMSOepUOsyKtDP4UjmwO1PLpoEj1+jzV5kWea/4frju9gbnfLGCvdW7Y2YfZ7x97xytbdrY9XOe8VoHG343htcorGP1ud/6OPYUqVZ/Ok3uEHAMCuLbNZ2ZqA5r3+ZCOWzsxKlDbQx6uTzjYvr5y/Zlr4/yxfV2EY31CkNtetVdrDCD+NYIl4/vSQm0OhSxq9hvppKYaqEKFggyad4EL5w1UsaL2BkKJqMydD5QjbXMMe7LqZWRnGq08t9Urh2t7LPEhX7waJe99kfZ9m3J7VOhfD6THbCEu9Vpq1IrkcNxeEnx+9sUnZRz00dY+vPjr7JGWxM65UxjZ7iWa3P8pe2q3p3PLjAP6GodXMua5lxg4pxhNp46h28OBBvUN8bjbOV5ZThPisvy4du1mv1GOGnddm7svg/Qkko7rFKpSiZIX+VslO+eYfnAbOw45qPlsA6Ky+M4hfdsW4lLLUrt+RZ9BvipRp3450rZsY09aGPePRzbHK6IKTYZ3p8buMQwasgH/XCs7225OU5Y7G9xgf9CfAGzNJ6IaNerkZ8+kL5k0cw2xMXFsX7mNwxcCvM+mXCBFFaJwsQB7MpT52BHkWg7X+WNruzyyPu52zkPb0vewKxaq1L4p5wMyBWLo6AZojix2RuSNVL/JIH7r3hz2asrl546NfXj5ns82tt3GZ5O98zBccvmZe2Evu/dC5XtrU8IzePH1VKnq4Fz8fk5K477wocg4SK7vgFuB4nMjQEu9eyDdYNPYcuECqaowhYvm9jpLMT8TiheliN8muHbvIsEoT60gcYedadJjNhObWpZatfJzKG4P8b4/exMDDMKeHY1S9zWj87stqJObWDuX7GxX2Lc9l8c9z9fHOM2yMT9zpMZzPPtAfR54QLFm+mJOBDvttQrcXq88ru3b2ZsevnXWD2xl+yEHtZ59lGuCxOM7UstRp34ln8/wytxVvzxpW7ayO5wlwvUkEo/rFK5SmVLZHc60JOLmfM+XbZrS8N6h7K7diVdbVvS75rK+lvN0u2ywcyxMBmd2bWTdslWsXbaKtX9tZP9pn5Mnogw1mnRlwPyF/Lb6C1rUOM6cV57jvzWa8u6nf3PM9zM8yD60tX9COV653PawXacR1alVJz+7Jn7O+Bmr2R4Ty7aVMRzKIgbM7n1VP7yCkY2a0nd2cV6a9h2vB2x7CDKfMK9P2Ni5vnL7mWvj/LF/XYRhfUKS9XuLh5FmtqUVLpRpwOTwxwBC5J2Aze9WLG8m8Xvfv5y+NwNmJrz3uzjvi3SU381A5iWcJn7HUbQ2L9C62TFWnipGObbx85zd3gYO4xy7t+xDdW1C9MtHWXq8KOUc25n1y07PNKpCTeo9mMiZ/OWp07ojLW5JYHqj+SQaeL7WtjONs24TOnRUrNuTRvmGHWlzRxILW8zP+CFrR0QtWnzdh+bXw+OFYmn6dmh1No3Dcxk/ujnDXhvBF8XGMWPBTk6k56dU1Ws5PW8qK/b5rJCdfZgH6wyR1O7em7rJK1i3+QCn0yIpc3cNoiJS2H88QKmLlP383i2aVH0sAyZ8wamGHZm43qdImo3jHvR4aTamCWFZwegJc5k+vx39+nzGm67RLElwUrbe89waAYdC2YXGSdbMXU/a0Ha81esk05YdRS9RkzIa4Slj5LsoO+dY6nqmDPmTh0f2YcS0G5g6ZTXxx1JxFClDOWL4efZuXIfmMXF8Kz5/61P6pI5iQaxGlRc707rGfn5xX1/h2j+elQ92vDTKtuxN27pnWdrtL9KrVKMKADrnD8Zz6KTL1rYbh+cxcdzLDOvxJUO0UcxafpDUIjWJ0gjxWrYxn/Q9xMak83CTaBpvmcbmg+dRRW/mmsjM78qu+Fj2nCnJgz26sMGxkhOOKCrnj2XGrDhcIcwnuOyv5bCdP3a2y85xt3Me2t0Nrv2smL+Ljl3+R72SS1gUKMM7f0kqXF+KfM6KFI9UOEtW4PpbTpNy4gD7D53H0EpzT5fGlDu4jYSj51FFylGreXsaljvIr9M3Zc7eR1H44f9Sr0gsU3/PYVmo3H7u2NmHl+v5HHTb7X822ToPs5PduWFrnW3MJ30H88Zv4MUh3Xj79UTGLjxFhaZv8VzlvczsskpuOkRA/pk87m66Smnef5t/ZWz49xmZS+Gtw+9+ve9vwzDw/Bcge84Vv4NdZ0rS4M1XWO9YQZIziuvz7+CnmbGhxTrGWXZtTkDr1oyOrY6y+HhRKji28X8/x+GK/5Vp89rzft8veds1ikXxTsrf+wI1I+Cg9XLdxjTG4dmM+bolo14fzchiY/hpQSxJaQUoXa0sp+ZOZvm+EN+tI26n1dfv0bIKPFloB416r7skpR3tbFe4tz23x/1SrE/qqsn8tL4p0SN7obS/GDz/RKbzOeKepnTtpFizO43yz3ahw52J/NZ8Lkf1MK5z6jomDfqDR79+jzH/V5UfJq9k79FUHEWjKM9WZvy6C9eh2Ywf14bhbw2jf+pw5u3QqNqsG9E19jGj4VyOhxIHZcc4wao560j9uD19ep9gytIjuErW4poMMXJ+7ujeh3rnl7Nm8wFOp+Yjqm5NovKlsC/R774w2LWcl9tlh51jYWc++W7h2V7/pdjCcfR8ZRYrdp4JEPtlvw8NO/sHO8crTNsernM+fTc7tqbxyIsdeXHLFDYeOI9W9JYsYkCb76sp+/ita2vS9AkMmTSCk0+3ZZxv20Ow+VyE9clftxujfmxLmeWD6PTyDP4J6S3M/vWV689cO9d7CNdF2GIAW+se5L3FM81p9m4/gqNNU6KbHWP56WKUJ4YZs8N4PguRx+xm7rs5lQJzEF3MKN/67d+Yn312TzoxXw7ih1vf5tlhX9HowmF2fDeQBXN3+4xq7iJu+CDG1exHk4+H8VSKOc1vv+7krHGefSvXEP9CQ/pNb0k+1xkObVjCN42/YOpfVvVZO9O41ze1MLd27kvjivlJjl/PvM5vM3JuDgaqS9/H+oV7ePoFxeplOakxn8zmAe14ZX9X2rVrzVutSlNAP8uxuDVM/nua/8Js7MM8WGdVEEe+YtRp+y5NritGJCmc3h/Huk968tW0LOqnu46w5PXufH39D3Sd0IudDwxghSc1Jshxt6awc7zsHdPslxWUfpQFXTpRcEgvWvT7lKcjz3Fwo3l7aOih7EmdQ+P70CeqD13a9OeTXpEY509xLHYti3Ylh7k7m51zTOfw5J50ONaSNq8+w8tfNqdkQcWFY/vZPuUjFs7ZzWnjHOvfjeatk73o1G0QQ0sbJMX8xfdNP2bCMmvvhW3/uAU7XiW4+5m7KOzMx+NfT+Vxz2tSWdP9UbqPO45ha9vPsaFfND2Ovk50m54MfrMIjpTTHI9dy4JdodRmtzEfVwLTo9+gyOBONBnxNd2K5yM9+QynD8WwYq9fFe2zixn9yveUGNCYt6e2Qzt7kG3jBzLv5zjOhjKfYGxdy+E6f2xsl63PAhvnoW068ZO+Z2W3/kS/eQcr31mbqReI4+aWDF3UgevdvVUrf8DEZjrHx3bguddWkKYKUqRiTf7XoQWVKxTDeSGJA5tWMqH5V/ywJMCxKHALzd5+DMdv/ZizK4fBYq4/d+zsw8v0fA627aF8Ntk6D4PL9tyws8625qOzf/Qb9IzsRZf2HzG6TwRnd69iZuuejFkjzfvCn3UCK/eJ7Gmm9/y4G/nNCpZ+J7xSPvNQ2XbkVcHG3zq7iBHdJlBy4Iv0+6kD6uwBYsa9x5xZsZwJKdBxseOr/nxTcyDNPxnBMymH2f5dP+b+EscZIbkKdgAAIABJREFU/SjzOren4Afv0Oq9YTwbeY4DGw4AYLhLCNiZhmQ29n+ZDvu70ym6HX1al6aAfoajcauZuHxKKCtrSo9n7cLdNGyiWLksZ3Wgw8POdoV524Md97Ctc5jWx3MrksDMT+fy0rRGMKEvSwOk7xuphanRuT9NKuXnfPw6fu3Yky/nnPTESuFZZ51Dk1+n1bFWtH+tEW2/bEmpQorzx/axbfIQFszexSnjHGv7tqbHyXfo9sqHfFHaIDFmKeObfMi4kOOg7Nfn4LhevBXVj1fbDmJY70j05FMci13D7+77FVUAR2Qx7mo3gOYVzc/eU/tiWfPx63w+1b8mfpBrOU+3y962Z38sbMzm3FIG37kkeFkzW/vQzv6xcbzCtu1hOudd8UyNfo2ig7vSfORYXiueD1fyaU4d2sLyTDFgCO+rrsMseq0rw6+fRveJ7xBbvx/L3dd1sPmEfX00St99P7eWKULEk/+lTrGZ/BO0e5CfUK6vXH/m2jl/QrguwhYD2BHsvcU9TTpbhg1gYo2+PPfVKJ6/cJjt4/sxf84uzoTrfBbiMhKoTKe6vcNPPn10zex9Q9fN+uZW9r5h6GA9pqx/xy/8hFrJuSl4cZFoZWkydx5dj/XmsZbzJfPtcmfneF3iY6pVfIkR618lqf1D9JkpQx36k/0jLm8OKnb4mjEfVmZVx9YM+OnAxWuI0Upz7+ff8UHDA3z+UGdm7ZVsECFE+GwumErlBq+hNA2lOQGFoRRKaeaPpqGUA6U5PEk7hqFbf1g9dK3BuLBq8esuF7or3Yr7XWbdcUPH0NMxdBd6epr525XGgRXfcdOFSx/7axVfZszGHiRG38dbMwLHHXamEf8uWrVoxv/VkFWPN2LkRp88XK0czeYtpPuxN/nPS3Pl3lEIERJV5BZaTpnAK9f9H23v/IgteVxuSghxZXrr24EBHx8a3c/zd2z+NMrVa4VyOFCaE83hNO8BlMO6H3CAcqBpDtA0nIY12qG7+26wTH1lI9NHiCtbJDc1aUrVCzv550gyWokq3NOlHTVOLqbfUv/c338j2T/iSuNi35je9L/xWwaPHEtfvQ3vT89h6ZxgtGt44IvR9G+Sxs8t3+FnadwXQlwEns62hpGhFr9S3k68hmHY6tKbsXa/+ZPVbYDv/PNWJDc3acGNKXHst+KOe7t2pNbJRfRekhzCNOLfSBWpyE03FkIVrUmjwZ0pPaMnkzfJaIpCiPCIuOFBmnVpTZM7TvBr9Di2SuO+ECKcVMZMfTNPx0DTvPG/b5F+p9m6b02coXuvty1fubOArAUE74MmxBVMK0GF+5+g9TOvcE3xfOhnjpGwagEfPf8VixPlvJf9I65IRiIr3mrHG/+0ocrOpPA37gPopzi67S++bTSWH1dkru0rhBDhYljZ91k8i91sHHeN/UCPW3/4zfcS0EpSsf6TRDd8jWuL58N15ijxq+YxqNEwFrnjDjvTiKvKhnM7bU8bfyaNcvphtk4fTPdeizgpp4QQIkz0IhWpUmAjo558jXkbclAOWgghshNCho26rcOPmUr0+HbfdZfqwSrNY+guDN1F/O+fXZ4leoQQQgghhLjKbC6YSqUGr1nZOmZ3XKWZXXRx193HzOTRlGaV6PEJ6zGsewRvOU6z/KbhKdHjjvPdJXoMV7r1dxoH/p5A9cugRI8QG87tpHahamGbTgghhBAiL9kt0VP+3lZmWR7NLNOjNAeaI8JTosddthNNwxlwjllQKshAW0IIIYQQQoiLJrskHnf2vWENtpsp0z9AL1ylsi7NE9LChRBCCCGEEGHjLpKZsVSPETAs15RP5K+s/9wv8NwkWH8bnjQgIYQQQgghRF7z1NzEbMh3x+e+sTv419j3F+y5rJcnhBBCCCGEyBuBymkGjMsNAw18gnZrjK1ANwj+j4nLWQGqNn6G24rn8c2Y43oeeqcXLRqUkCSvy40qTr33RjLi/XuRzvXk7FxVhbi5RXdei64ZWtcnIf4VLtHnjhDhpApzS6sevNHhtsvyfV6RuaHdHZ/ruo6u634xuxFwWrP2foCbgwAJPd57BLm2bVPFua//GMYMup98l3pdhBBCCCHEFcuwymya4+uamfuZQ3jzec0cdFdlujlwZ+tkyBLKYQO/KtOYL47HsOKM+bNk0hNE5moTRVAFqvFA13cY8m0TKublnYWzGo+83oz7qxe8vBv4C5ajxuMPcFPp8K2ldmM0444v490nCoZtnrmRaX1UAa6rdy81KhdFC/7Sy0ZO3zdsHYucnKuqKDVbtqHRf8rjsPuaMMpyuy7C+ZwbBR94k4n7ljG6xy152kB2peyfvJSnxyJcnzv/4uMVNnm5D/P0eGmUeqgTgxb/xrzD6/lz/yImL/iIZ28N8R052DqrItRo9jLP1C97Sd7nc0IpZQX6meN2UBkSdIJ9OeC+MfBM5z+trl+ycXYBKFSemk88yM1XwnuDKkjFevdRs3LRXMXDqkwTRiTtZMM582fl909mioPsTCOEEEIIIa5Ayluax91Obzb0eyfRdd3zt4ahyPSDQqEBmvU70DTuBRbjweGzmXNwPctPb2X58ZX8svIbenWqTQmrJdFIWsCH9z9Li3vaMn5t+sXdAQLOb2Z8oy7MKNKJvl1vuGJuUvOK4+amvPtDLxpUCldTt0blho9T9eRi/liaHKZ55sbltj45k7P3jatj2zPLervCfz7nhqLAdddTvnhxKt5YJg97i1wp+ycv5fGxCNPnzr/3eIVPXu7DvFyWKvk4PSZ0oeaxmXzatC2vNuvL6PGL2XVEz/7FPq74cyxQI7tfIz+4G/MNv5/sS/L4NetbA/Fe+h68jptb8P7kd3isctbHrUD1//H6jDksPBrDir1z+fL9Ryl/BafQG0m/Mejep3jh7pcZsyZwHGRnmsuVKtGQzw8tp2+DSHBUo/3fW5jc84YrJhFFCCGEEOKiC1iNJ3Bs7vRm9/gW7/cLraxG/8w/5iyKVyhPkY2j6Nx7KRciinHdQ83o/P43VCvYgo6fxeFynebwjtOgRZF47tLfJPwbGCfXM67R80w3TuC61CtztXNU5cFnq3Fq/jDWXw5typfb+uRUTt43rpZt93fFbJdB4uRetNxWAdeOHZzPq8VeMfsnL+X9sZDPHXExaZWrU6XgIf745FsWrrqyGjLDxbD+Uz6Rvrdsj/lo5tI7nrx872t8BtX1ZuubP4ZS1ksyfzkQqAbo5UKr8DQDZw+m6vLP6P/Eco4UrMmLn3zI566jvNR/E6mXegVzwnWKQztOgXYNdZKz2Pd2prlM5a93H7fpaxiyOgXt2ru5s9ox1v6VQGhf2QkhhBBC/Lv4l9TXNDOe1/xr6yul0DR36r3VbdcK6D2Pm09mXMCpA+zcvIO4dav445O+jJrnonrjBlQOJY1PK0HNjv0Z9vdCFhxdx29bvqdf19r4lvRVZR6j999/8NuRTSxPWsucdWPp+VJ1CvhOU/gmnv58LJN3rWbpiY0s2r+Ynxb15J4ioS3LDlX8Np79YChfLpvLz/GrWXpiE4sPLOKLztebX5M4bqTt8o38+kU9bwZl5GMMPraRUV3Km9Oo4tR9dwTfrFnIvIPrWZa4ml+Wf0XH/5bLVVkFIzmJk+cDDMiQ3f6xs84ABarw2Iff8OPedSw9+hdTf2nHzf4r7LyGum9+zNiYlSw5tpIZi4bS6uFrcpDdGUHUgy/Te+ZMZv2znmWJ61iwYxYfd73JM69sz42Iu+ixbTN/LW5HxcjKvLR4s1X+ZQvzht+X4wxXx62P8fBNJ/hr5hou+Dye3X5WJf7HR4c2MeW9W332RyT3jlrGsjWvUt1pbz521ycjReF7uvHNPyv55p3bKezeR3auwezOebvnc5iuQVvbbudctbk+jtqt+HTNMv5MXMe8dWN4vWlV8nuetHntOKO4+42hjNmygiVJm1i8fxFT/hhB+wbFA3bnD7hdNs/nbI8X9t5Xs7sGPSWVTq9i+tLpTPsmQEklu+fGVbh/gPCc86o4dd8bzfhNS1l4fDPLjv7FtPmDaV6/tM/62jwW2cwnJ+uc1edOtuy+P4fpMyVscUK43sey2y477y129qGd4x6uZYVr293LWtKeypEVaLZwk7WsjXzz6nX2s31DWGdn/deZtHsNS4+v5tcVX9Hh8WsznmMX4fMrJzI05FsN9b5lNQNl93gy/K0vBhRm3O87r6yygjJ8sVD8dhp/+BlfL/+d+fs2surUdlYeWsaILtf7fNZdS72enzNp+3pWJq5jzp+f0e5hv32Z3TQRd/PWjh2sXdKeSpHX03rJDqscTSyLRtS3jlt+7ujxBvUTx/FOx+/4a/1Odv41g88/WUG5lo25w3oDVIVv5tkvJjB9z0ZWn9rG3wf+5pc/e3OvJy57hs8Ob2dG/xo+65if+qNXsWbd61bc4ODmfnNZe85bFmfDuZ1sOLOa9x7N6sxXFKnXnQkH1zGhTx1PzKXKPMG7K5ey+Nh21p3czMINE3in5U0UvBjnkVaC2zq9z6iVS1h6fAuLt/7I+93u8IvvbBxTAFWSBz6fzeIDc+nzVKkQyxA5uHXgb6w9t5O/f2pEieJP8fHhnayL68/dBa+j5fy5dL9T+h4LIYQQQuAdFsvqqYun166b799mm0qQrre+A21leCyoNFIv6KA50GxHffm59Z1vGBadypyBA/l201lK3N+SV/qP4N0zz9Nz4iF0wDi5g98/HsBv/yRyXhXnxubd6f7lZ5yPe5bhq9MAJzXe+YK3nt7HxF7dWL7nHFrRKK6rnMb+5NCWZYeKuotnOjyMMXEow95PIOmMC2fRUqg9B+xnoKgCVLrvPm4+N4UBrZdwkjLc1v412oz/gJP3tmHqnnDmstjZP3bWuQQPfPYN7z6dxJz3e/H53giu+09jXq7rO1Fh6rw/hqFtXCwc2JfROzRuaNaF9tO+pUSjZnyx7KzNhWmUbjSI0WMfwbVoMj/0+JKEIxeIiKpIob3e/ZztuZG2mfFPNWRW7dZ8MqYea9p3ZfJWMwvQdeowOcsHdFD12ceoeOxPhi1P8Xk8+/1snFzBX3+n0/PBeyg/KIZ9LsBZndr3FOXEktXsSbc3H3vrk3F/lnioO0MnPE/6iK70+nAjZw2we11ke87bOp/Ddw1mu+22zlX766Mikon9cjA/7E6n/LMd6DhqNIVOP8/guSdt5jYW4vYBY/g4WrFkyAC+XZ8IZR6mw7fNqFO9EOoP//lksV02z2c771HZv69mfw0aSfMZcs86CjhK8diob3kp0KbbOjeuzv0TtnNeFaBSvbrckDiJd7sv5Uy+stRu24WO08dQ8tkWDP872f6xyGY+F+c6zYKt4xWuz5RwxQnh2j9h2i47+9DWcQ/TssK17UGWdeFoCOdgCOusH1zBpMELOJhSnFodetD2u8Ek1m3P9H0X6/MrZ8xanIGfU+47gAAD7WbNW94nu1BfRdXl2Y6PYEwYwqcDEzh+Jp2IoqVRu93veYW5c9B4Pm+TzoKBvRmxXaNai1fo/H/fUaJhYz5ZdtbeNGmb+fbJ/zKjdjTDvr2XVdEdmbglHTC8xy3yDh5rWIYdw2YQm1qUGh3e5vUuD1KtfDEKONZyXSmNFQc1avUZTp9n9jHurU4s221e9xWvT2OfJy77m6Ur0rj/wXpUcGwlwYrL6tQtStKSVexOB3Cxe0QHGv9o1f4pVIu2kz7gseSZzA1YIkej5EM9+HxSE9KHd6THB+utmAuMk9v5bWg/5v5znGRVgpua9+CNr74kOe4pvliVFvwAhKQANfuMZ2T7VH4Z8B5fbzxDyfqteX3A17x/piHdJxy04rvsjqnFWZk7H6lKseJQr35lHHMSQ7jmXcR+3IInvynLMxOm8PyOHrQbEkPVnpMYWmcWHVpMZs9h6QMmhBBCCJGJOZJusAZ+q2tumOpravlLUvmRNrR8qiAHxi0j3mbEp6L+S5uu5Vn12v/4bGqSeTuyLo6IOxbyXtOHKPP9ZI7oQNo+1s3c53ndji35qdP4U2rVvRZt9X50HJSIKg4nlrJxyVq2HdeBGLYuycGybLvA7rkzWfR77oJxff8mli1YSQqwPqYQtTf1ot5/SjBtT2IYO0Vnv3/s0Cr8lyaNS7K1f2uGjv4HHVi1xEXtDndQ0ppGlX2Cl9tUZNfQ5xgycg8uYPXS3URUm07r159g0l//R6KdDct3Oy8N/C+Flgyi1YvTOOSJ+1dknC7bcyOFE3v3crrkKdKMNE4n7CEhLpc3ERE383DDiiTNGcymDCnjNvazcYIVv64j/ZMHqVdhPPsSdLSKd3B7xXNsXLSFNLvzsbU+FhVJ5eYfMPDj29n1blsGjYvzlO4I7brI/pwPdj4T9msw6223da7aWR9r2vTVP/HNN/NJAfgzjoibfqZj5yf4Zv6PHLWxmuqax2nZrhLxnzdh4LA4q3GiBM+4mnnWx852EdL5nM3xyu7asXMNus5ydNdZ0M6RlE0bYdBz4yrdP+H+3DEOxLBy8RpzHy6OhUVTadHjCSavmEFSCMci2HxOlLkI12mWsj9eYftMCVOccLR0ePaPre0K0z50C3r+hHlZwdg7puH67LY/H333ShbM+ZsUYMOO4ty56U3u+09xZkxKujifXzapgLnSOY8QzYZ830z/UOd1gV1zpvN7gPdOVfYp2rStxM6PnmbAiN24gJVLdxFR7Rei33iS7/6aRuK12U9z3LhA0p69nLKO26mE3cT7HTetUg1uLnGczesPU6zRR3zxwc0se6ULH+dry9eflSYiH4CTEtcUhxOLWb94DVuPm/PYnCEuS2L5L2tJ//Rh7r9uLAnxOlqlu6hT6SzrF3nL/KQm/kN8IqBKUv+rbjxR5G8+bvQxa0767T+VnyotPuaDT2qzs29L+o2NzVguLS2B1TMSPP/cviU/d74wjNvvLou2al/YvihSUU/Svmt5VnR/nKEZztklvN+0AVGTJnHYJ77L6ph613sjEzoN5MLDipWjN4ScIJN+5jhHU24kqpLO7glrOXRQ586KpTm7eT3b9x8nnF9tCCGEEEJcsdyVNM0/zVKcuJvwjUzZ/JkqwLiDfPfovJqm4TJ0DN09yFbg4D/iqQ9YePIDlKZhnD/Klsn9eHvIJttBmrPGbdxUsAjFR/7BkhG+T0SgxZeltAZHdNDK3MEL/Trx1IPVubaEIvlYMpEFFEfyu0fRSmHFRx/w+5S+fLHlP2yaPY/fp/3Mgj/2ck4PbVmXkn7sHw6eVVQtWQxFOBv4s98/djiqV+cGx2HmrMo6U815S02q5TvEvGX7vPWY0xNYv+wg7ZveSpWI/yPRRlFUrXwtbinnYuvQ3wmW1JP9uRF+ztsf58HKx1g6c4NffVc7+1kncfZs1g7pz0P/K8dPIw5Q/P66VE1ZzU/LkkOYj531sZ5/sBdf/c9BbO8m9BuXkKFO9sW8LvzPZ8dFWFZW227rXM3p+ugH2LzyII5m1anshKM22pyct9aier4jLPhzj62b4uyOaThkd+3YvQZzItO5cZXun4v6uZO6m1WLD9H6xRpUiZhBUk53hN98Nl1mn5Xh+kwJV5yQFKb9Y2u7LmZCq//5k4fJs+E7phePfvQfDp7VuCGqGIqki/L5FQr/QXLNcvkGCgP8s3msf/rm8PjG8oZh1vRHNwLW13ffC7jnEUoNfuctName7yBzlvnEGunxrFl2gM5Na3JDxDRO2ZjmuI3j7yhbjiiOc+xIQep1a0DhZe/z1ZQNnHnoJOmUtqa6wN8fDGb+1PcYufUhNsyZw/wfZzDPLy47/uuvrB7yPg3+V54pw/+hxP33cOOF1fy41P/bUgflmg/ivRaK2c168n87M39iRTz0NqOfdrK9VyN6j43PNDaJVuZOmr7XjYYPVefaEhrJR5PJX0BxqEB441Znjdu5pVBRin+9jJWjvI8rZwTa3rKU0fBp4LdDJ3H5ZEYuD/CUFsUDg4fRp+2tRB7ZyrLJk5k2+S8OVW5Nv1dPMbzpeOLSQSt7IzcUP8zm7acwnHW46WbF3t92yfgtQgghhBBuVkEdDZXpHgC8jfzuyjtO/666niczPGbOSLdeHEj6kmF06rWYc+fPkHjgKGdDvSFTCuU6wK/tuvHjtozhnZF6iiPpgFaBRuNG0rXyKsb2e4OVcafQSt1H9PfdKeUzfdrOnxlYbxlTHn2cR59/ilbftyF6/Tf0bTGSDUmGvWWFjY6ugzMi1HqSOroLc7CEMMt2/9hZZwN0FCqb9cv62RC+sjB0DEDXg9x92Dw3wiuCWxo9StmDC1m0OvMJn/1+BiPxT+bO68nAF57gutE/UvWR29GXf5ghC8zOfOysD4Br+wJ+SX2IF98ZTLuYboxZ5lPu5KJeF37nc9iXFWTb7Zyrtt5/Ar7QfH803M0eNq4dhwMHaaSn27kGsj+muWbn2rFzDXqmDTUH1O/cuFr3z0W9vgwMQzcH1sn4cIjHwm8+efpZaU9YPlMIU5wQxv2T/XblNJaww//8uZjLyixcx/TiSceV7jMO1eV0XWRXYtP8C9+cH98a/d7fhucGwSvQQL2hsXNs7R//rL9eUAULkJ9UUtKLUbK0g7M7DnEmwMSpO2fwbt3FTHrsSZ5o/D/aTY6m07pR9Gr+Fes8cdkf/Dq/N0OaPEnFrydz4yO1cS0fzCq/7HxHteb0G1qfxOGt+XR+UsB1c22bz8zUBjTv8yEdt3ZilG/MpVWg8XdjeK3yCka/252/Y0+hStWn8+Qe4Y9blQLXP8xq24nvY/ya0NNOcSiM56yzdgu6PrqTgbU6kVD9SV56pxdj+n5OPtcxVvRuQ3y6g5v7zWLs69WIjFDU+m0zzdFw5nPAR3+w4v14Jv33GYavk6Z+IYQQQgg3wzDcDfaexBtv+70ZUWvmNwI+YanftwKebwky1fjxyyA6e5i923aTsDdI476RTmqqgSpUyG9wQkiP2UJc6rXUqBXJ4bi9JPj87ItPMsthRFSjRp387Jn0JZNmriE2Jo7tK7dx+EKAsDotiZ1zpzCy3Us0uf9T9tRuT+eW5mBstpYVLnoSScd1ClWpREnbI8HlgSD7x846m/uwLHc2uCHLwfTSt5nT1K5f0TtYmbMSdeqXI23LNvbY7N6hH9zGjkMOaj7bgKis2htCOTdSLpCiClG4WC4PSL5aPPz0tRz9dQExWZ3zwfYzgHGGv7+dzZEaz/L0A/dzf31YO2Mp/r28s52PzfUxDq9kzHMvMXBOMZpOHUO3h0t6ruS8vC5CWlaQ9w2PINtu61zN6bZHVObOB8qRtjnGPJ9tXDuuXbvZb5Sjxl3XZj84pJ1zLLfns41rx9Y16HGBC+cNVLGi3sGbQ3C17p+Len1p5bmtXjlc22P9yuKFeCz85pOnn5VuQY5XuD5TPHIZJ4Rr/9jarlBiiVDPef/z52Iuy0/Yj6kduV3nkI67Rsl7X6R936bcHpX7INC/idsgcE39TFn+1o1ApvkFHWPL9+/Q38zTt21hR2o56tSv5HNsK3NX/fKkbdnK7jR703hcuECqKkzhopn3o3EhhRQKUDD/WU6d1ClQrEjWAz2nJRE353u+bNOUhvcOZXftTrzasqJPXHaaZWN+5kiN53j2gfo88IBizfTFnMiQT3EDzYf3oNbur3lv8DrOZbEo/fAKRjZqSt/ZxXlp2ne87hNzEVGdWnXys2vi54yfsZrtMbFsWxnDoUBxq5FmxkGFC2U9AG+QadJjNhObWpZatfJzKG4P8b4/exNz8F6uUeq+ZnR+twV1/M7r9HWf06xuf5YfOcU/S6fw4RMP0uDGR2lYrQHdRsWSiovdI1/h7XEJpG0dR/d7n6bFG39w5vzffPHQ07x4X0d+8P8SQgghhBDiXyzTPYB/Ur4yk3ichjtrRyk0pZkvVAoMMxNRN3R8p1GGCqmLbsa1OE38jqNobV6gdbNjrDxVjHJs4+c5u3Ednsv40c0Z9toIvig2jhkLdnIiPT+lql7L6XlTWbFPh/Q9xMak83CTaBpvmcbmg+dRRW/mmkjfSDaS2t17Uzd5Bes2H+B0WiRl7q5BVEQK+4+fM2+G7CwrXIyTrJm7nrSh7Xir10mmLTuKXqImZTQuUTfU7PePnXU2Ds9j4riXGdbjS4Zoo5i1/CCpRWoSpeEpq2EcmsfE8a34/K1P6ZM6igWxGlVe7EzrGvv5pdF8m7WSgdT1TBnyJw+P7MOIaTcwdcpq4o+l4ihShnLE8PPs3bhsnRsmV3wse86U5MEeXdjgWMkJRxSV88cyY1ZcSMckou4T/KfcQf6YtSVAKSob+9m9eat/ZMaGJrQZ/iZofzN0/gmf5+3PJ/j6+EjZz+/doknVxzJgwhecatiRievP5+l1EdKygr1v2Nh2W+dqCOujKtSk3oOJnMlfnjqtO9LilgSme87n7K8dPWEu0+e3o1+fz3jTNZolCU7K1nueWyPgkN+62zmmuT6f7Vw7dq5Bzw4/x+4t+1BdmxD98lGWHi9KOcd2Zv2y09b6XLX7J8zXl7NuEzp0VKzbk0b5hh1pc0cSC1vM55jvbGwci2DzydPPSkvQ4xWuz5QwxQnh2j/2PivtxxJ2zvng5094l5X7bQ+vXK9zKMc9ohYtvu5D8+vh8UKxNH079HrlmZZvxeOZH7N63Fp19d0BgmHoePviWhn8fr17vIk7Cl03/OZrzlPTVBZjAGSxnodmM35cG4a/NYz+qcOZt0OjarNuRNfYx4yGczluAHamsbjid7DrTEkavPkK6x0rSHJGcX3+Hfw0MxbXvgQO8gQVK59n7u8boM9zPFVtET9n2E/5uaN7H+qdX86azQc4nZqPqLo1icqXwr5Ev7hs1WR+Wt+U6JG9UNpfDM4Ql2mUe7kvHe45w59dl5Je5UaqAqCTfHAvB0/6nUUp+/ita2vS9AkMmTSCk0+3Zdz685C+mx1b03jkxY68uGUKGw+cRyt6S8C4FeM0e7cfwdGmKdGOR5n2AAAgAElEQVTNjrH8dDHKE8OM2T4lbYJNc3g2Y75uyajXRzOy2Bh+WhBLUloBSlcry6m5k1ke6nt5xO20+vo9WlaBJwvtoFHvdRkHqXb5zs/FuYPxGb4EST1+jMhroji/aRVrd8QT9VgU+fcuZ/WWPbbHbhNCCCGEuOr51OC3xtcFzMoBDqfTc0/gjuWdYN4UoAwMrMZ8d6Vqn28FlFJW+YHc3G2lE/PlIH649W2eHfYVjS4cZsd3A1kwdzdnjWQ2D2jHK/u70q5da95qVZoC+lmOxa1h8t/TzJe7Epge/QZFBneiyYiv6VY8H+nJZzh9KIYVe63QURXEka8Yddq+S5PrihFJCqf3x7Huk558Nc1dy97GssJG59D4PvSJ6kOXNv35pFckxvlTHItdy6JdyXnfAd3W/rGzzufY0C+aHkdfJ7pNTwa/WQRHymmOx65lwa5znmnWvxvNWyd70anbIIaWNkiK+Yvvm37MhGVnQ1hpncOTe9LhWEvavPoML3/ZnJIFFReO7Wf7lI9YOGc3p+2cG25nFzP6le8pMaAxb09th3b2INvGD2Tez3GcDaGB6LbnHqZUwhwWbQhwN2JrP1tc+/j103k0m9oQJk5nuW+amO35ZLM+/lxHWPJ6d76+/ge6TujFzgcGsOJEXl4XoSwr2PuGnW23c67aWB/jPPtWriH+hYb0m96SfK4zHNqwhG8af8HUv9znmI1rRz/Kgi6dKDikFy36fcrTkec4uPGguQjdt2HA5jHN7fls69qxcQ16luUibvggxtXsR5OPh/FUinm8fvt1J7au+qt2/4T3+jJSC3Nr5740rpif5Pj1zOv8NiPnnvT7TMn+WASfT16+J1iCHq8wfaaELU4I1/6xs10hxBLB9qE1SfDjHqZl2fo8DVecEAIb+ye4EI57+j7WL9zD0y8oVi9LCHtiR8ag3sruMcCwGuRRoNBwl933xPfKqrmvMmbsm6WaDG8XYKWB0jGsWvyhxaznWNu3NT1OvkO3Vz7ki9IGiTFLGd/kQ8Z5jq2daSxnFzGi2wRKDnyRfj91QJ09QMy495gzK5Yz+1azfl8PHnukJonvDGDoPSPpuXYjPdFQpxaZPYtVARyRxbir3QCaVzSv+1P7Ylnz8et8PvW4X1yWwMxP5/LStEYwoS9LM8RlJbmn4d0UdubjydEzeNLzRCqrXn2QzmOPZd5PrsMseq0rw6+fRveJ7xBbvx/LT8QzNfo1ig7uSvORY3mteD5cyac5dWgLy/3jVtLZMmwAE2v05bmvRvH8hcNsH9+P+XN2+ZQiCjZNMhv7v0yH/d3pFN2OPq1LU0A/w9G41UxcPiWko2ouKp61C3fTsIli5bLMYwtky1mF6rc42TN2J+nk44bbrid127fsk8Z9IYQQQggvK85zp+IYVj5+wHr8GKha7X80zEZ+K6PH0NF13aorbU2m6xi6C113oTAH3E344zNqJWcao1eIf4cC99Jr40hun9KCl/rH5PqmXavalq//epo1T7zAmI05uMMJ8/pcUa6CbdcqvsSI9a+S1P4h+sy0buyvgu0KF9k/PrSyNJk7j67HevNYy/k5L5MTrvmIK4sc9yva5oKpVG7wGkrTUJoTUKBpKGX+WBk7GJrZK9cce8Yws/J1M43H81WArpsN+tYAvbruAt2FrqebtT31dHPwXT3dvAdwpXFg+XhuupBl8ZtLyMH1r//I5DfP8On97fm/vTr5SkRRMv8FThw9RUoOPiC0atGM/6shqx5vxMicxGXiotpwbie1C1UL23RCCCGEEHnprW8HBnx8aHQ/z9878qdR4d5WKM2J0hzg/q0caA4HSnOYzykNNI3MLfTK2303uMtl8DMh8l7++5/g/tL7mD1rR44bFlWR66h+YyFU0Ro8834HSs/ozU+bcnYTGY71uVJdedseyU1NmlL1wk7+OZKMVqIK93RpR42Ti+m3NNkz1ZW3XeEi+0cIIbITqFSPcmfaG1aGvm54yudnKsnj/jLAMLKsxe8u0Rmozv/lxcXe0QMZ+78J9Pi/D9Fe/YLZKw9zUitJfie2G/hVkYrcdGMhVNGaNBrcmdIzejI5h3GZEEIIIYQQuWVYifcKb/a+0jSf5w1PGR+/Bn6rYd9w3zAYKMybBWW74V+Iq10B6jz3IMV2/sSirTlvWnTe1pT+P7WgnOsIMTM+5M1eizMPrpuH63NlugK3XStBhfufoPUzr3BN8XzoZ46RsGoBHz3/FYs9BaevwO0Kl3/r/nHeSueVU3i5elajGLvY91lzmg9IzNPVEkJcXgy8Q96atfbdxXPcf/tUynf35fWpxqOU9bfhnR8+Nfu983Y/7n19gN7Al4/kLYx9rhWnPx5Ip9l/0ttpgHGQyU88yid/22ukd97WnCH/9zLl9MNsnT6Y7r0W5TAuE0IIIYQQIm8YhvUFwG3tpxoGutl4r1uZP1atfU83XpfLKt3jAsNllej5lFrJl2M3XSGEEOJKE0mpGytTMn9WLWgGqUfjSTgsRVWE+LfaXDCVSg1eQ9M0UA78S/SY2TzKGoRLs1rrDZ8a/N7sH3eJHrM0jzXGluGyyvGYv80fs0QPuosDK8ZT/fzlH/trhUpx7TUFcZ04ytETKZKbdBXacG6n7WmlRI8QQgghLjd2S/SUq9cKzeFA05xozgirRI/TrL5jlevxlugxy3NaWUDeBH0zW9+b7qNwZ/CryzyFRwghhLjSpJAYF4vk5wsh7HKX5Allek/yTpDSO95Be69M+rlEDu6Rd9OrmTTaCyGEEOJq5x5c1y5nxpI8Vmu/D88NgPVbmvaFEEIIIYTIe8r6v6d0pvL5O6vXeBrs3Y36Vo1+H5lifOV+nVWrP6xbIYQQQgghhAiF4Smr6R2Ly/eeQPN+JxC86f7yH2BLCCGEEEKIq5ey0aAPOYvbs32N3AoIIYQQQgiRZ5TKMMJW0HhdA9A0LcMNg/9NgzvLxzB8M35ykMtfsBw1Hn+Am0rnQT+AcC0rL9fZhoIPvMnEfcsY3eMW/xGShRBCCCGEADLfAPjG94qs4/4s5xfWtRNCCCGEEELYYeCtou8b4/v+rWVXT993Yrs3AFlx3NyUd3/oRYNKWq7mk5fLyst1zp6iwHXXU754cSreWIbLf5gzIYQQQggRHgrDUFiVM7Otoe/PP6b3lO6xke3vrd8vhBBCCCGEyCv+pTUzJeVbJfWditC78Uq5nkvFIHFyL1puq4Brxw7OX+rVEUIIIYQQec4wzNqb7pr6/m36ZuAfPF43G+1DqK8vLfxCCCGEEELkGcPwKayvCNr71ul9kVms3yDjIFvmzUPmv32pwjfxv/d70uzpmlQolY/0sydJ3DmHTxt+zMozQMRd9Ng0lheucwDw0uLNvASAzskJnXim23LSAFXmMXr93IuHbihN4Yg0Tu7dxOLPhzL8h1jOu9eh+G007NWCh++vQaXrSlOiWCR6ciIbB7Wjx6i96DaXlS2765zd+tjcLogg6sFmtO3eiHvuqkSpAgbnj+1n01e96T1iB3qZxny+fQB1I82pU2e9wWMt55OS4UAUp27fwbR7pjrXlS9J4ch0TuxYxZxBHzB23kHSPUc9iru7v0n71vW5sXxBjHOJHIrbzqIhffj2j5PSBVsIIYQQ4grjGRRXKbNt36+RP9NAuj6P+/5t/viW5jQkuUcIIYQQQohLwF1aU1OaJ9THZ3Bd92+ngW426msKZSgMFIaue2dkzcRQBrqum8X9M3xb4KTGO1/w1tP7mNirG8v3nEMrGsV1ldPYn2xNkraZ8U81ZFbt1nwyph5r2ndl8lazudl16rCn4dk4uYPfPx7Ab/8kcl4V58bm3en+5Wecj3uW4avNZnkVdRfPdHgYY+JQhr2fQNIZF86ipVB7DqCHsKxs2ZxPtutja7s0SjcaxOixj+BaNJkfenxJwpELRERVpNBecz5G0nyG3LOOAo5SPDbqW+vLBv+jXoBK993HzeemMKD1Ek5Shtvav0ab8R9w8t42TN2jA4W4fcAYPo5WLBkygG/XJ0KZh+nwbTPqVC+EkgZ+IYQQQojLkn/GjvIJ6t3Mhnxvdr/5oPc5M6PH8DTga5qGYeiZknjcXxgY2K/TL4QQQgghhMg9w6+Xrjsh3zDcob93PC0DK4NfYXi76RreAXX9M/mtP8hYhdNBiajicGIpG5esZdtxHYhh6xLf1UrhxN69nC55ijQjjdMJe0iIc2Ve+7R9rJu5z/PPHVvyU6fxp9Sqey3a6v14v3a4wO65M1n0e6BcfJvLylYo8wm2Pja2K9/tvDTwvxRaMohWL07jkGcxK7zzcJ3l6K6zoJ0jKZmg9P2bWLZgJSnA+phC1N7Ui3r/KcG0PYlwzeO0bFeJ+M+bMHBYnPlFRWQJnnE1o6St/SKEEEIIIa5khtXIDxkz/7NK8pAMfiGEEEIIIS4tMyR3t9dnjM+dZtaPZgb3hv8LfbrleofrzZgRRAorPvqA36f05Yst/2HT7Hn8Pu1nFvyxl3M6IdHK3MEL/Trx1IPVubaEIvlYMpEFFEfy5wtxky8v2W2XVr4Wt5RzsXXo7xzOyXcRQejH/uHgWUXVksVQJOK4tRbV8x1hwZ977PdmEEIIIYQQVxRv1n2A7HtDmQ9bGUBmmO/NAPJM5v7PKuUphBBCCCGEyFvednm/dnp3uz2g+U5slusxfzLMxGIG/e4Gfu/NQtrOnxlY73Fat/uOrdqdtPp+FtPmdKV2yRC682oVaDRuJF0fPM8f/d7glcfb8Xb3H9l27gq/m7CzXYaOAei6jW9EQr6/0tFdoGnWsXA4cJBGevoVvl+FEEIIIf5lvHG58vsJy9w9g/cqJGtfCCGEEEKIy0aA0Nzw6ZGrZX7C+vG7V1BKeRuJA0lLYufcKYxs9xJN7v+UPbXb07nldRkXkHKBFFWIwsW0zK+PqEaNOvnZM+lLJs1cQ2xMHNtXbuPwhRzeXARbVl7Ox8Z26Qe3seOQg5rPNiDKkd0ML3DhvIEqVpTCObifc+3azX6jHDXuupZc7hkhhBBCCHHJZG7gD7VR3p24Yxg+A+lKw74QQgghhBCXnGe8Lbzt+1mNjeXUdR1NU97g3qrHj4FZi9NwzwCssXvJmL8fSe3uvambvIJ1mw9wOi2SMnfXICoihf3Hz2X4gsEVH8ueMyV5sEcXNjhWcsIRReX8scyYFYcrfQ+xMek83CSaxlumsfngeVTRm7kmMmdZSUGXlZfzsbNdqeuZMuRPHh7ZhxHTbmDqlNXEH0vFUaQM5Yjh59m7vcsyzrF7yz5U1yZEv3yUpceLUs6xnVm/7LS1PnrCXKbPb0e/Pp/xpms0SxKclK33PLdGwKEQ9osQQgghhLh0vONlGT49PJVfI793kF33wFz+dF3P8Bp3uo+nNr9Vnz9sHQWEEEIIIYQQOeJu9DdL7itPzO7UNA3PLYH1LYD7ZsHAAGV4Sshg/VtpeIN8VRBHvmLUafsuTa4rRiQpnN4fx7pPevLVtMSMPQjOLmb0K99TYkBj3p7aDu3sQbaNH8i8n+M460pgevQbFBnciSYjvqZb8XykJ5/h9KEYVuw9F/oWB1tWKIlJuZ2Pre3SOTy5Jx2OtaTNq8/w8pfNKVlQceHYfrZP+YiFc3Zz2rMsF3HDBzGuZj+afDyMp1IOs+O7gfz2607O2tke/SgLunSi4JBetOj3KU9HnuPgxoMAGHqYBwAQQgghhBAXmX+5nqwDVLMET/ZzQ0kivxBCCCGEEJeK8suuMdvzlee3e/ws8zmFur3jNMNboN83u8d8THelg2FYefvmvw3dRcLCz6h5LiKPN09cDFrFlxix/lWS2j9En5k5+DJFCCGEEEJcVJsLplG5wesoTQPlABTK4UApDaU0d3dbK5Z3Z9xb/W6tGB+rgd/QdXNKQ8dwuTAMHQyXmexhGBh6OoauY1hxv6Gnc+Dv8VS/ILG/EEIIIYQQufHWtwMDPj40up/n79j8aZS/txVKc6I0B8rhRGlONIf5b5TDfFxpKM2B01t336TwZvK7B9qy/nGxtkvkqUhuatKUqhd28s+RZLQSVbinSztqnFxMv6XJl3rlhBBCCCGEDVnV3zQHyfUtqeM/nZFpet9SPBnL9RieOv1CCCGEEEKIvGOG4N6SmxiG+ZhhoJTh6Z1rGAZOpczam+4a+4ZnDt6yPYGCesOAFWdibK9UvSK35mabRLhoJahw/xO0fuYVrimeD/3MMRJWLeCj579icaLcvAkhhBBC/Ju4x+HyVN9UwYr8CCGEEEIIIfKSmYxvlu0xK/B4Y3fDMMvpO91ddb3ZO2SZre+eiS87DfehfBEgLjL9MAtfbcbCVy/1igghhBBCiEspQ7a+z99KKau4j/e3EEIIIYQQIm+5K+2Yg+p6H/cfW0szfCb0vABvY77h9yOEEEIIIYTIe1mV5ckN3xjfPSaX77I85X6kjV8IIYQQQoi8odwD65pjbSkUgW4F3DG70x2t67p3kF1NKZTS0HUdQzcyZe67R+0VQgghhBBC5AVzUFylNEDP+IwBgVvhvTU73YPsuivru2N7ZcX9GIanBn/AxB7J8xFCCCGEECJP+CbgKF3HUDoYGkrLmKRvWDG8Zk5MhqA9aKa+tOwLIYQQQghxCfgF7ZkeDxzD+/bSBTMrP3NE733EzO2RFn0hhBBCCCEuFcPwpOZkmWvjk8HvecQb6vtk7Zg1fsyMIAn0hRBCCCGEyHtmt1wzJvcv1eMbr3tieuV9JYbVyK9pgIGh6xhWM79PFX7z/37xvjIXcJG2SgghhBBCCBGIgYFyV9A0cGfhZErUUfg08CufBn7/QbZQyuraK4QQQgghhLiUPLG61Q3X3f7uG7e7p8v4ZYAiu4jeM4CXNS/DPT9p4xdCCCGEECLPuBN83KG5P8NdkkcpnJ4BtHxuBjLOTXl/Swu/EEIIIYQQl1DWZXhsv9bw+x1oflkuSQghhBBCCHGxmfk23nr7njb6ADG8lu3cpCyPEEIIIYQQl5RBgIFv8Wbt+9fZz/R6I2MxHsMw63lm+RopyyOEEEIIIcQl4SnP6duwjxm7u2N5X053Or9hGAG73/qX67GR8COEEEIIIYQIs4w1+FWWjfDuMjtKaWQYPFfXcefle+ZhBfUGoGOYDyn3FwC+/wkhhBBCCCHyimEYoOuYgb1mFtfxK8HpjumdnheAtx+uYUjSjhBCCCGEEFcCwye7P6ua+Tayc6QsjxBCCCGEEFcOw2rDd7pvBgzDQKGs35lT/cHbDUAIIYQQQghx+cgUuxsZE/x9n/Vk/RjWQLqG1bivVMAvAgLdFwghhBBCCCEuDnf/WXOAXeXJ3fGMpes3rdP9D03TvONu6bp5Q2Cl/ft+CZAhQ0gIIYQQQgiRJ8wMHSNT11z/kpqZHvdv+7dKdAKgWaV6dIUylHW3YD7mfpnvTYUQQgghhBAij3jG29K8FTr96vIDOD0t/9bvjBn9GUnDvhBCCCGEEJcXZTXGZxow1xO7Z3zcwLCeM7zTSJwvhBBCCCHE5cOw2uetsbGsXPyAZfU13wZ+90/AeUrmvhBCCCGEEJecJ253N9wrn+66vhn8BK+p7+76aw6o62749z4nsb8QQgghhBB5z53A447JzZ+sp3d6JzI8Nwnusjzu7rtmaR5viR4hhBBCCCFE3jLALJfpLqepgUIjQzO+X0xv3h5kTODRlIaBjmEoDEPP8Jzue29g1ecXQgghhBBC5C2lrEjeJyHf3Tav3INoWY85FRkHzlWeOj4qwxwNhTdTKED5HiGEEEIIIcTF4x5ky/235zG8Tfz+9fndj/mW5QmWme95rcpYg18IIYQQQgiRN8zMfSvOdzfqu2v0YMb+vhG6E+vbAPAJ/rGy+PHeMHi/LbB+JM4XQgghhBAiT7izd8x/qEw/7jjdneUfsDinD894W4Gy9H2/MRBCCCGEEEJcEu7a+2A19KuMST9umu+guoHq7Pv+W2W4gRBCCCGEEELkFbs18Q0b03ried1AZTNbd41+IYQQQgghRN5zh/a+5Xp8x9N1etP0zdR/bwa/ewaGN8MH93TeEH/FmZg82RAhhBBCCCH+rXyb2N3jZAVLuTEDf/vN8sGmdo/HJYQQQgghhMg7/mNpZTWN053qnyHTJ8BrA2UB1Stya+7WUgghhBBCCBFWYe1tK6PsCiGEEEIIkeeyDOkN/38aOLPL7vEddNdd1N+wsv2FEEIIIYQQeUsphaZp4K7Ln2GsrFzM1+wYkOHHcD8uhBBCCCGEyHOeMbbc7fKYJTbdvXpRyt3Ab1EZu/+aj3mfz1iP/6KuuxBCCCGEECKArDL0DcNAaRoKlTmm95nGwPBk5mdXyEdhfYGQy3UWQgghhBBChE6BJ6HHfR/gjefN31qGF/hO6BP0CyGEEEIIIS5f/uU0A8XwAQfelawdIYQQQgghLkt2S286A73AE/y7M3zwDrYrtXmEEEIIIYS4dLzdcc3YXFldc73PIVk6QgghhBBCXOXc5To1702ACvytQBYleoQQQgghhBB5Q5FFrB7KPNxde8nca9f9t3usLcMn0UcIIYQQQgiRd9wFMs2YPDMz38fwxPKa59GsGu/dpXqy+gJACCGEEEIIcWVQPj9krL8feJheg+BV+oUQQgghhBAXQ7CEG/czhmGYJXp0w/AG8+6MHUN3f1cAmA38DocDHQNDd12s9RZCCCGEEEL4MTAzdDJk3rtL9WQR+Pvm5nimNwx0wwBDB0M3bxqUWe1HaRpgoAzMB3Bn8UsDvxBCCCGEEHnJMMN08x7A85j5t1IZe+I6M71auevxK7Omp1I+3XW9jf1CCCGEEEKIS8Ndb9PTy9aK332b4r3jannjdwOry6/SMHRQ6J7p3OV5hBBCCCGEEJeOgbdR34z3rd+a5onrzeQck9M7ocqQnONtxA8c5UvwL4QQQgghxOXBk6CD2YCfVXdeM8RXnn/4fAcghBBCCCGEuFwoaxwu34c8YbzCt7uuRgjcXXtlsF0hhBBCCCEuE77BvZXVo/lk90DGbH6J5YUQQgghhLhyuMN33/je9+/MJXrw78JrVfa0GvalOI8QQgghhBCXEcPM1/f0ysXq1utbrz/TS3ySdqxa/kYWiTxSnlMIIYQQQoi8o7JogTcMw5PcY8bt5t8hZfCbS1AS5AshhBBCCHEZyraBPkAY7/8KyfAXQgghhBDiEvKJ2d2RuXu8LP+xcsEng98sv5OxiH+G+boH8fJfihBCCCGEEOKSMwwDQ9etQXTB2x8Xnzjep8HfqsFvjsWVdXwvDf5CCCGEEELkIU91TbNcvjtS13Udh8NhPmcYnkqd2Wbw+wf0WXXdFUIIIYQQQlwCNnvYGoaB4VOKx7wpCFzH08r9saYny0F7hRBCCCGEEOHljr0VAeJ8lbmAT+gleqSBXwghhBBCiMuOvUb+PFgRIYQQQgghRNh4O+CqjA9g9tcNOMhu1jNT6IaBruvhWj8hhBBCCCFEHjKsQXXdA+v6UkqZpXsuyZoJIYQQQgghfHP0fctsBup9awBO8wVZd7r1dN/1mUAG2RVCCCGEEOLS8DTQ/z9799IcSZak6flTNUNEVk73/+CCW/7q2ZDLWZAyFFIoQhEuyBGKcMvNcMPFULqrKzMAN1UuzsWOXRxARAbMkVXvU42Aw9zcAERWVqup6/lO/Wy51vK7cM1D3W4abgbSlBml1t99j/VlVv+P+h8AAAC4xK70zmx1fPs6Zb6e5Jtn94aJHnI3AQAAgMc6i8r8nj2y2lmtYb++jlofAAAA+BR2pflxGGd7xM+euHeT0I6VJQF/8AcFAAAA8G5vteDPNs0dP+pJfbPdds7+GuVj3WS3nPiTfgkAAAAArzoM2q+l/Hqo1fnaZfAfCnyV6Z48PYcqHwAAAHiElpXfm/dmkqzG7YzT+Vn/73yAx93LjcKSkuV6LVvfUOiR/QAAAAAuUUr3WoRnPVA/TOoxm2m2TvADAAAA+Ps1vilwfLKdU7+moQ8AAAD8KcxtsmdcujtO99yP6qHqBwAAAB7FdGzWl2W6drrYti3hjTrpLw3RnPUj63QQlT4AAADweG373Fb3b+r/2s+fz19anWXx95uBn/mjAgAAAPhZ1sGd185KZYQyY2jwnzf3afkDAAAAj3W6Eld1k92zJ88m9+uVft5PBQAAAOCH3MvVv1f4nzbvh8x9AAAAAH8+c7kBqBtqvTGYY2bM7gAAAACfTGv03xvcSZVNuPqU/uZ8k9KGZv/Y8Kf+BwAAAK6WStX/O2yyq8zNDH6P6CnZm9tJoLtT/AAAAAAuVfI3SwO+5+ar7qflrntj+L3p/521fRvuKf1+RvwBAACAq5T9ttYM/r0cmvy+b+KfNfdp+AMAAAB/Du+p2fvk/hvXoa0PAAAAPN69GE6pTvD3m4D26eSmoC3lpcgHAAAAPo/7+2mlzHx37KjU+Gt0z2bQp12fmwAAAADgoca6f3w8v3UyuZsAAADAn8O2iV+b/EN3vsVxlqQfK8+5S0uU6J9+nfbqVMb5Zr4AAAAArlPqeOuPS95+bhv8++kfCnkAAADgc0itg/QmSWavLtXdvFC7Jn2b1O9Z/vW6xnAPAAAA8KnkNnN/r0f0uLuU2r0LsG3yt6xONtkCAAAArtcLe7N1012tNbu5l1p9KNdTuWnaWzkoZSqWUJnyH56vTf7NfQD1PwAAAHC5VpH3QZ825DN8nsdGvsnWSZ7hRRo24WpPvWdYCAAAAMDP1Zr8ZTB/Lc5bHX9vqr8fz/YGgMnclRl90Cd352dubgUAAAAAXOSsBM9MWebmSbc7S3v38TzH+J6f8WMCAAAA+B5vNfDPonfecdWf8JMBAAAA+BmsDuSc2Vf5/p5Svt0s7JcAAwAAALjGGMnzlrrl1tvXPBn2Oa31Kf8BAACAy51V//tjc1nfW5fy3inc2xRQZigjaPADAAAAn8QYqfneKr3U/lbq+yxvB2RuN+Jdozy1S/EHAAAA8P/Hh5gAACAASURBVFHaEM6auz8c67X/apPBr1a8jw38VujvCn4AAAAA11kz9+tH23B38N64/Mw81v2n5/3QjwoAAADgR2Xt1dv7anvfT+qcXA8AAADAJ3J3AKdN9JxM9pxe543n35kIBAAAAOBB5vGLkt2/zdkfl/yauVIpS4p9AAAA4Epn5Xcb1nlvNv+b38PWmB8zU9a639iEFwAAALjEPh6zRPPc78fPm5sBM713Zp/lugAAAMA1rP5HtQHfavif1djffK+xya+2GuCnfxsAAAAAd9SEnvo4e0rnWfnvx5uDdyzlpbsPAAAAXKuW6b1uH6r7n1Gf798soKcPAAAAPM5+kv+e+Xgo+1LfjFBmlLcM2oZeETT4AQAAgAultlE845R9P+dQo+f66R3d+v3rqfgBAACA643xmNn+aP35oU/f5nP6JrtnTXszk7v3G4nM7EuCyeAHAAAArnevdpfOI3v2x3IY6Ck5+3n4IJUHAAAAeDzv+ftrdV5689bvCeZ33xyYKSJVt9v9qJ8ZAAAAwI/K7bj+vmpvtf/3rMjtmZ8AAAAALtP2w9o390eZWTbZbR/KO8W+lU293F2KVGawyS4AAADwAL12b3V8XXGbKUWm3PZLerPkdw4F/Di5f2bdxyup+wEAAIALvTd7v90TlAz+Gr2TkX3JrrTm+WTN9slMZvcBAACAz6LV6dKhEd+a/ntlEqg8yuHcuvaXYX0AAADgs9jvkzX25+uwvtfHx+W6w9evTfcAAAAA+FhnQzbZG/uvZPIfvl436e3Hdst8z3L8AQAAAHwOvY9fR3Pm9kQr5N1cGSGZS5kyc0XN8qTHDwAAAFyvrq/tK2ylLBP3O2f7aO232G0j+i3T8+zNgfUy7LYLAAAAXKlV8K2Bn5m9Pt9vsGuZa4N/cxFrF9ExqzOY5gcAAAA+gzGPf4zckdbJnmOLP2uf/35Nb8T1AAAAAI9hm0+9V79ZhVsOSGYlome0ieQhmgcAAAD4lGwd43k1VuesnieCEwAAAPi8bPhzc7wO9oyrefsEf2b2TXb70t9dsx8AAADAY5iGzXBH2Wbx35+lMw7znA327N8AeG3aHwAAAMBP1FM111r9tW2yZmmc/jk7ZV3yW68PAAAA4MFyzONvDpvnbvM7x+dS1od41jcO1jOzfpV5jPkBAAAAcK02hGPWPtc9dccnmzHLc1zuO74QAAAAwOPZGxE90i6G8+T1ksnM69cf8VMCAAAAeC+zt4dsWm0/l0I/ygtlhyn+/bLdvjQYAAAAwGVS6lGa7r4O4wwN/hgGcnozP9dInjbt35r6rd0/Znn2Cf7MNaWT8h8AAAC4hq1DPK/14dvzc3ngtXlvdRnuNoN/Xd5r6w0CAAAAgMu8lsEfmSpT+Ocbcbl5b/BnhMZGfxv4yViUkYqosTxm/RYAAAAAwEXGAZ06cC9pM8jTyv7MlLcn9lE8e4dJIAAAAAAPt4/aPPOeFbhnET59WTC3AAAAAMAl2j5YWffHyv7H2cnZInpynd5Rexx1h17TeI7M7l4PAAAAwMdpK23Hfr0NsTr3X7O+NoeVutq/OdA/6mvbNejwAwAAAJdrkfktrrOt6i3rdyWZaZbGTXXLC234U2JgBwAAAPhMcliqKw0Z+ifMTFH33HrNJpKnDfbo/rAQAAAAgI/RN9k1q6X5mMJTevnurjQrET37Jbvj1289DwAAAOB674nOfC2yh5oeAAAA+POb24Nxgr993aJ5tst6AQAAAHwGLXZnZG/simsqU0DKFr+51vrrXl7rPUCfHgIAAABwiVKKt2jNdqDF6JfPESGZrw3+bWG/3iiMTf39UmAAAAAA12k5+f3z8FzfM2t3jLxNAAAA4M/Jhogec1/30TL1Zv8sDU389inrxl1myuCOAAAAAPiUdtGa34ONcwEAAIDPy2TyOtxjJrmbWqu+78HVNtmV2nS+9V15bViu217UQ/yZ4wcAAAA+Baub4bbHZTOu/mw/7yxus6/eHeJ42ia7tP8BAACA67VIzTa1X772WuuvffrM8ti3O/BKKgf7Bd3YgAsAAAD4jMbInnsb59rJ839kg14AAAAAH6iW4ZmpjFAqlRmbiP2IqBH9KR+zOtdBn36VvvHWGuOT77ohAAAAAPDnsDb+z48DAAAAuFbWTXWzbrQb0VbdtkH98sml44Zc+3iedk69Mg1+AAAA4EL3IjLPavbx4+yczXVPpv5zV++XVQI/+pMDAAAA+BGmEpvZ7gXWHv6ayGNmmjcFv5UE/raxbnmuPHb3shTATZ5+3W8CAAAA/IPLtiVuq88zyhNuUoTMS32eETIrj8dYnrah7r7Vf6/5P+b6l4z+n/rrAAAAALgntU3cKamcQ0mem5W3Pk739KW5ys3EvrTdgIsJfgAAAOBxNs330UkWf5/ob4/19oT/diWA+hsEAAAAAD7epkbPtaHfanQbHs/b4n97Yp8QGi9Mgx8AAAB4qFc309UxUufQ0N/V9ftoH8p9AAAA4DGyT+iXRn6kZJlyN2WE5C7zErFvrcG/NuzHSf7t1A8AAACAx+uxOyeT+tvHWeJ6dqW8m0tWbhrK5E9IcpnX6X5Z+UirKwLu7wEAAAAA4BolpqfW52blTQAzEaYPAAAA/EmcTe7vnU3ot9f2LM9XrtM22U1W7gIAAAAP89aQTd9kd//Ea0W8WU30Z4IHAAAAuNR7KvC+Ia6tr8k2qt+uY6Y6+6PYreRdIzvLkbY8mAx+AAAA4DptHqf048eJ/fGc8sW8zeIcJn5eubolDX4AAADgcnWTXCll7ocNdfvjXeGf+321lIemPdP6AAAAwOONk/uRKdfas2/1fkbIphLOs4no2Rf1d5fu0t8HAAAALveeFvxpw39/lcxXngcAAADw2Wz23BqObxr8Y3m/vzHYTwcBAAAAuE7WPw6T9ic1+r5u32zGq/WGYK3x9ysByr2BiU12AQAAgEcyvb6X1lzye2qJb2PpfpwPKst7Wb4LAAAAPIS9PaF/r1Zvdb/JarZ+KiOUGVJGfZyKCGXUGE8y+AEAAICH8TZ5I8l9ndUf7wN8/6JRZvaP9rWGrwEAAABc4+4M/VirazetPzzXHw/Nehs+NsfahNBP+LkBAAAAfL/DCtth492exZ8p3zTr9818jU+dHwcAAABwrbGgHz+fLt19rX5vdwpjHOemuW9nCUAAAAAAPlrmUJvvIzXXun8u59YdeGtET0bUF0rmXpfrShEhiQl+AAAA4GqpdaK+rawttXnI3LeTPMqerS+V+4L+JoDaMt9a++d6TesN/zWwk9IfAAAAuFaJyVz3xUqlYgnJTG4uZcrdZealwX+XmY5Z/LbJ+wEAAADw8Vpx36ftT6b1c7wTGGyiepT96ai5+/suvtXvlmr9fsb4AQAAgM9iXNH7eoP/lRcDAAAAuNiQu5ka8jeHAv9eM/4sgrNn82d77fB92oa+w8ZeAAAAAD6e2bEP3xN4xgEf1Qa/7Z7oQZvDTcB6jkmZZHECAAAAFzpE9LxRkI8RPWf7aa1vDAzZ+7tNeTNTEXlc1AsAAADgQ+RQfGeEwkKWvmn6l1o9JHcdsnb6FM/d79CK/Z//wwMAAAC476xOf7N+H7y2Gnf/XE34r48p/gEAAICrvJWiM9b/fu+Jw00CHX0AAADg03lrYe17m//HF7bNvbgPAAAAAB4lc63pzxr/83pi9k23xmNSHhr/P3yTAAAAAOC7mUxuJplvojOtHnNbN8V9T61+VtOPsTxZ84DK/YOxyS4AAADwQOUe4HhMZttNdu+O/vdszl1OJwAAAIDLlQz+MmJvWvP413q+NOptPG52aOpbfVPgzjf5mB8eAAAAwLtttsvd7Y1bBoH0dqYPAAAAgM/hdEJ/f2yo721zeHfc7o/u5MllAQAAAHy896fopGYN4/37LJ8sB/vpZqY0EzGcAAAAwHWyT+TXTW8z2whP+bBjiM4a5VOu0Kf5ZSWWs74mrUbw2Pix3hOEkhx+AAAA4AGy/ZF5qPfLPUHdZHf/jkD/esjhXF9EcQ8AAAA80mYSvzby7SSCZ2/cc2ubub+9H7Da/Dcr2f9k8AMAAADXGGvvUpMfE3h6/a8sGfy9cX9yP2BqTw3P0+MHAAAAHqZk8FvP1j+L3Mw64W91w9x3RftsXgsAAADgcq9sk2t1f9yx/p8zQhmhzJSby92U0aZ62jsGKUVd/pt5uiQAAAAAwMdom+H2wJ2xHs91Q12rcZrrRH7eXYBrZjJ3WZRBntT6uoi3Xw8AAADg47SVt9sp/uMk/zx+IR2ndfZLdWntAwAAANfKXRW+rd1btGYoMjX5VJv9XmdzSj3v5YUymSJDyhiuob4aYFwZUBcKAAAAALhKbce3oMyx9m97cmk4Po9ftD26zpRztpvwAgAAALieuyuGr/vEfttId6zXTX1T3bbZrtXm/X64pw0FrS830jkBAACAC2VdRTuu2O2fdk3+lOT9HYH2ToCOE/wt2J8sTgAAAOBxxmn7cVPdzRT+7mt37+e2D3eXub+/vme+BwAAALhU69PXvv6mnl8jOaVZ62B+eaJO9dQDm3xPGvwAAADA44yT+SaT+bjBVmnmj7X9eH7P1FfW5b62WckbWYL4S/5+W9xbM/i5DQAAAAAu1er1fZrOeCwzSxTn/aswqgMAAAB8JjbE8Nx73Oyne8bjGgd7dpP/6+s+8jcBAAAA8EedNvjP3hmQhk28AAAAAFyqhu5sonmafWTPONETEX2a391lKufFbsIfAAAAwOdwr0w/q9/nzTLfXWO/fz3eKOSQ6QMAAADgEj1iJ3sGz5qtHyEzl1qTv0dvusytZOifDOuMbxSY1d112z2AWd2gFwAAAMBVTLuYzcxDw3+M1fdxx6zS3D9m+oyP7033AwAAAPh4PT5Hu/idseE/nN822W2DO+Oz+/ieoccPAAAA4JMYozT7sfrZTfscz+2LafADAAAAj7evwVtzfszRH6N5xuda4z+Ghv5xA972uF5ObWOvD/qFAAAAABzZfiPd7dObIR0zzeMT4w1BX/7bpnxOlgIAAAAAuMZYik/TpFSN06kT+qrZ+mPjPiKkVK/nJa2T/H3iv5ybmVKsm+vWO4LjNwcAAADwcVKb6MzW398M3w+fvSdxWing2+O7198t4wUAAADwsUwlaqcV6m/V45tp/1fO3V8n1ye2z1H+AwAAANdpg/eblba7/bMqL0ckma1LdjeTQNpcJDMUEdT4AAAAwGXsMJmf763Ih0mfzYrdQ/7+ENnTPtfB/3d/LwAAAAB/jKnGa2578Gvtvq3rXfvNudaX3P8OAAAAAC4VEedP5Hk9/9r+WW/tqbW+9od/XAAAAAA/0b09tLyfoKF133N72nPbGwM22QUAAACuk21/LP3EuEzqewAAAOBP47Ait5pNJpMUmfVRMqMPAAAAfEIlTvPO8fJgDNJfP90p8Htj/+Q9A2t/mup9AgAAAIArZWZN1z+urm1R+32Cv2zaNZ7w9uZdAAAAAK6zj9052zPrTN6J8bn/ff7YzwkAAADgo+R5RM/mlNxl9AxYvgsAAAB8DgzkAAAAAH/fXhvUMTPNmSmzYapHWcb36+ftsfWFtPkBAACAz6XU6TZE8pzl+dTn895IDwAAAIDPprTss6+2bYP4c3nypLQf3hmw8gpJUsS22Q8AAADgcVr25ulxqTby13222vDOWUXfbhKCch8AAAB4iNwP2p/U+uMx379g+GL4+vxCAAAAAK5x2nO/V8ufnvrODP56HXr8AAAAwOPUtbkye73Wd+n1dwWsXGHzIrI+AQAAgMfKOoV/b6rnrde+Z1Xu+Zw/AAAAgI/W6vzycf+8wya7pzcHLYt/2HyXUh8AAAC4zr5K7439+tnd5e53l/CO+2i1171ncIfZHgAAAOBB2h5bh8N11W2m5v20/n5KJ4cNd6nuAQAAgAfqAze5PTY267P/MWTqx0mcT2vyh2wY6Nk3/UnqBAAAAK7TGvqZKUUoLGTp0rivVmYf4ukT/K8t6z25jQAAAABwodQrdXlmncnJu9E9Y/PedpNAuTuHSE4AAADgQWqZnkpFZp27PxvKL+b3XbPl8BtD/AAAAMADlCLeJOVhqr6FaGbuJn6UazPfxuPn+fp9/y1b6/7y3gE3AQAAAMBVxhW37etxeMd9Td4/ZPC/4/Kb/E4AAAAADzRM3Z/W6LmN6ymH7jfsqfMBAACAB6ql+tiDL5E853X8mw3+7W69lPsAAADAZ7BO4g9ONuFqcT0aPt+L4Vk37W3n1OO0/QEAAIDLvDaQ0+8Dakznd0/w0+gHAAAArmWSvDbe703i9zp9d85bxkY+AAAAgMdq8Zhtb621oa++OjfXSZxjBn/p/O9C++tWXu0/bLcLAAAAXKel78vs1Uq8xPTUaX0d3wgYn5dev9YG8z0AAADAJWz4kNaoHsuUTVNdtduO27bBf7rMd/h6/EyLHwAAALiQ7Rr3WYZv9lP96/nbLzfLfK1dskz9lxmfbYZ/Ww1A3Q8AAABcyTaPfKj3bYjk9FrL94ie/fJeAAAAAJ9Hy9hMnefn93Pecdx2Wf133yToF/j+nxcAAADAD3hH5OZY3x8y+NPKR63yy2MAAAAAjzdM3utkb6x7m+f2l7/jRqFl8o9nJh1+AAAA4KHGWr49zszS4D+N5hmDfgAAAAB8CmdN+n1j/6zJv9+c9z1Ne+OGAAAAALhWvr4yd7sJb8rXKZ3zF7VcTmJ7AAAAgMfYN9q/t0a/N+l//x6A2E4AAADgMbJO4rdGfjlqvp3gb7W8ZzlSonm0y+GvJ0aEImLzbaj3AQAAgGvsp+3HBv3Y6N9svrWb2B+9HdUjxTun/AEAAAD8PDl8tK8jUxG5ed7cJZnm/arbzHxzIW65IaDDDwAAAHwWZlYK/ZNp/Xt+9DkAAAAAHyd3n8fHpjqYX/vzczthHOsfj62bd1m/UDmPgh8AAAD4rNpmua+eUwI+T3M+y/1BjethuAcAAAC4xDhbn5Lc2grd7ea6UkjmZZPd9cXWG/2vZXKWi3zQbwAAAADgoA3avDVZ/z2T92Pj/hDbk2vmJ1E9AAAAwFVKlW5Dtb7fIyt7rZ7bBv8oM+908ZneAQAAAD6bsbF/1uR/rfF/Fslf3lCguQ8AAABcK9/Y/3Zt7pvZ2uAfx/vHdwAONwL09wEAAICH26++3bt3LLU9f78xL+U+AAAA8DilVLfdxP5xoKfU7qZ5PLEdLG8R5HqRGvzTLkLZDwAAAFzLtN0jq+2LdYjW2WlNfdselOpxZXmux3RqWAJs7TsDAAAAuMIb5X2XtY73e+e3m4fzJ3/kRwMAAADwkd49hf+Ou4ae+8kmuwAAAMCFyvD9ZtXtnTNTqblN9EhSRh4yNs2M1E0AAADgk1ub+3VQJ0OZQwRPOzGt1Pz9XLUYzz7kE1Ez+LkTAAAAAB4mtS6qPVu5m5maJQ1LfHXYWPeQx38n4xMAAADAx7Eam/n9r6n2ufsti6cckcZ7Am1fRqMfAAAAuE6mJMt1A91suftSy+dvg/m+v0lopfs2xH8b4E+DHwAAAHiM1zL3e47+fkjn/EJ3p4AOpxLRAwAAAFxqrMH3FXpfvWttk916bgnmtz7IUyb71+e2F/jAnx4AAADAu7VG/bY5n6r78JZzxmf2q3N3bwxsr63vXTgAAAAA4IedD+hkrmX52uB3+aGQt2HyJ6I/17M769JdhvgBAACAa7TpnczQsizlmJncXT5N9bnzqM29MW5nP8F/t49P7Q8AAABcInvwft0X66QWz0xFhCJD3nbkPbshOL0p6Et5qfIBAACAR3hPZOa4bHdz/JVx/HtXJYMfAAAAuNAb5fe4n+682TSrPa6B/bZm9Uiy3bsFrNMFAAAArpKZfdhmE68T0Sd7ekPftnGb0lC998wdW1fs5sn3AgAAAPBwmxZ9rePHvv08uSvXEH5FppTRZ/9NUkaN64mQKWRJex8AAAC4UkryMoWzadzvG/+pXN8E0JrNnzWQP2utn5mvbtgLAAAA4Hpmbf4mT3rwraZfa/lZqmV/faW9sgC33RTUNP6f/KMDAAAAOHOWm9+q8bG4f0/Dvk3/76/H0D4AAADw5zNHhKSUu2+W4rYlvT2qp2V4ll14RQY/AAAA8BitPm+PrcXumMnNxzye+qdtX6tjDE+/Zl8N8NG/BQAAAICj13bNqmcMgz1zexARPYN/LPbP8jfL0l8AAAAAV2kxOxmhaZpLtOYQx2NDTE99xeZTY3XNbhneAQAAAPC5lHx82zX6s8bmjwM+qaHBf36t7A1/NtoCAAAAHmdcYduUxv76WJsNc2s2Z0pp5wGb94Z5AAAAAHwOZa7nLI+/mE9zOs3Uo/wzFbuNuGx4HgAAAMDHs/6H+vR968W3pnxG9DmfzCgvqD3/8fXtNduJoNdX8QIAAAD4eD0dv222Wwd52hB+m+JvJftczlknfdpy3X6x+gJzL/vwxlILfhb0AgAAAFdqOflZR/m3m+vW/PyynldmrnZXYPXdgHKaycwVsd1sV7o30f/hvxYAAACA6mweXxqGejIVEbXel1xq0zzjxrntcSizfdSQHyb3AQAAgEvt0/JbcX+6GldjLucO3XoAAADgT6Nn7tevM8cefjGbmdJMirqEtzb318b+si4B6M8zvw8AAAA8yj5eZ3PcrO/A1av7ls+vPNwU9Ou01QG7a96bIAIAAADwcdYNdbWt03Oo6c0098l9lxR1U92IMtHvkvtUvq4b7iqktGSOHwAAALjIWfVdVthmWZprLYrH5GYyt/VVvblfbxKkGvOjHvWTMlluh3gioi/s3a8gAAAAAPAxcqzLxz1x6+c20OP1pBLRYy3Ps76uvr7dAKzPlZuINNr7AAAAwMNl/2PTgrfdx/h8a/qPE0Dj+wftpsHd5SZa+wAAAMDVxvb7ulFuP9RqdpPJyzT/tvwfev2bJb3WbwSo9AEAAIDPYGzYW63b95vlbvP4s07n53B8u+Guecvwp+4HAAAAHmWs4+3O8VnpKgW9ZBl1UL+m7afWiZ5QPcfWPXgBAAAAXCI1TOMPGZxWn1gzOstZmbnZU7ffBGTN2r+34e667dbuuwMAAAD4aGPSzvb4kLxT7wdMkrcevqSWwCNLOyzr3S/xBQAAAPA426n8o97ArwM7482Au5ebgpbN3zM9+4vXjbvo7QMAAACfQ63fW+JOKjX3zXOlYWMtq7E9qXERgJlpybIBFwAAAIDH2jf5+/R+/bo18FNZani3TX1fX9Q36G0rddsGvOW9AYp/AAAA4FJDXb/ZS2tYrVsfDA3+YfS/NPBNSi+PU1KGIk0uV1oyyQ8AAABcxCS5zlfTtuW5LVXTrQzqZDte8/m9nj9m9ucuqqddI4bHAAAAAC5Up/PlVj6bKU3KSPm07plrXip8N7Wx/XJbMP5ZHq2PG5r7AAAAwLXeU4Nni9axIXLTTKY1dz8zFXXIZ1wB0Cb2y2tqlI8Nm+0CAAAAuID1SX0Ntfhmgr+faprLhlzZEnlUpn3Gpv6+wZ9KZnkAAACAhzLZ6zn81sM3NzE7/U0A6dDgby9wc4W7lLHeXAAAAAD4eG+W39bvBVLSnG1EJ4dGfg3Z703/pVw4FFKG0kjiBAAAAK7UonVMKW8DPfV4m7Ifa3Tb53P266wb6L6nps9hzy4AAAAA1xg30m0rcxvz9bG3zJ4Wx1MK/javX5cAmCnd2lrdS38RAAAAAEf38vjNXp/sH28OIqJP9G+m+ZXKCEWGkt4+AAAAcKlxyKZFabbHe3N5ByCVWWJ3xu1zTZLMFaa+EZeliQEeAAAA4HHagM69Nn4f4MmzmwDrC3jPbhDa8ZreyfQ+AAAAcLG2N9ZoncdZG/8y02w1Tz/dpBiW9db1vmXCf1GElEvKtdSMnw//PQAAAABIKjmbrTZfm/vjNH7bdKs17csAT/36pHY3s935uWn4u6SoG+0CAAAAuEjWIJ1axJcVuqXp7+6STBGhyWdJptnKLrty1emclCzXaSDP0uCf8qaMFykXWd5kwUa7AAAAwDXWxnuL4Fkb8m1z3PNGfNl8a9hkVzXLs8fyrLGcpeG//Y5E9AAAAAAXujNfM5b7ZVinPJ4lr9txZdlbNxd5pixTypDFIltuyuUmuz2XJn+8yOIm6esH/zYAAAAAmn2+fp/m/6NT9ne6+MTzAAAAAI+VOW6yW3fOHer/OW2W4iZXyJRypaZcZPEs3Z6Vz99kt2/S8lya/PFNiltt8AMAAAC4QmqM5BmiNWv25t46nT+ct79mpiKiRHNGbIaF2mZekazcBQAAAB6hx3EOm+ya5fBYmqfb77LlWZ6LPBZZvsiWF9nyTfnyTXb7Xb68yPMm16JJi9xDk1HoAwAAAFdr0Tp9amc30W93t96tp6st510zPdt1TNneRehZn27+5jUBAAAA/CQni2j38zztniCVmp++/Yts+SaPmzxuUr7IlxdZPkvxLMtnuZWG/uxLmfD31OTX/D4AAAAAijal05iZsmbn/xCzww2E1Ux+M1vfDKC/DwAAAFxiv3/WWuqnzHxzpiTNX//6/2pWmdhX3OS2aLLQNKemJ8mn0GQpN8lNut0WaVgKAAAAAODjtcTNnrsvrRvjSsOmuUUOu+W2jXU3mZ1ZY35ym97TbiiS3XUBAACAx7Hs+ftSjexswzeWMnfJpPlX+zd98dDT0yI3aZqmuip3USok3eRebgJ8ck2TKePHh4QAAAAAfC+rS3B3Df7vvYqNtwc1Z1890FORqd71V2n2D+8LAAAAALhAK8nNtotpra3ebZGdZpr/6cuLnmbpaUpNbprcJLna7E5meSfA3OQmmU1lAy46/AAAAMClSpN/ndr/oxX5mOWfZn2Ufz+9n3T4AQAAgAsdcjTvmv/5n03mtZCPm8Iks9TTNGnySeZfJKUiQhGh2VQm+J0GPwAAAHCNtcC3IZYnMmW9/b6tz81sE71TGvm5yfF3r4M9kTIv0/wZ6lNBbq70xVd/6QAAIABJREFUYJNdAAAA4EImqyV5rcPrNP9Yy7eVvfM8L3J3mU8ym1T69ikfLmKWinBlhuanJ2W2mwEAAAAAV8jMzVLccabHehjn1mbV7Umm/jipn1nieMpHbj4AAAAAXMO05vKYabtyN1MZUTbLVW3wf/0y1UB+l1uL6FHfhMtkykz5XI/VmwQiegAAAIDr9DZ7C8U320zw1OSeUvRLMq21+5qrP0bwnDf8e6P/7HsDAAAAuMZJ/z3HvbgylZaaf/31LzKZbrebJMmnSfPkittSGvtuikiZpcwmLcuiiIVFugAAAMBFUlJIsrYpbkapx837hL3JZJMplqjT/nWwR22z3Nxk7GdmuV57vbnMooz4mCuyXLXszwUAAADgEpZ9ZD+1rcbNXHLvK3hNpnmycsrXL1/6iZmpaZrq8l9Jt0WZUS9S3gRggB8AAAC4jqltsrvm8NsQ2dMyOZV5SOvpDf12rRbpU4/Vtn+L3i+RnO3NAyOBHwAAALiOne6BVcr8td5vCTvzPM8ylUl9s0mRqeX2LPepFPU1j3+JRaXon9SiewAAAABcy4bITNvEZ76/Pt9swFuDPTdZ+y36pzb7Kf0BAACAa9l7Bm3MNH/98lWpkFlq8lmZ0rOlpnrDkJnKyTSH67bcSvGv41QQAAAAgGts9sPqj7M2461P4r9lzeJvkT3leGTIMkquJ5vsAgAAABca9st6R1E/f/nypIibIkM+lTGdr/6lXicVUaJ50tbCPiKY4AcAAAA+g7qpblmne36K9Y5/y+JXb96P9wzlcB6/pscPAAAAXGI/X2PjAM9QvLdhnXmeJ0WkIkw+eWncT16b+6mIRRFRAv19rlE9928eAAAAAHwiVjM8eyxPaey3+4aWzW9mfbjHhnPXPwEAAAB8tHWB7nkVbrup/nlyl9skm6ftSWaKZVGE6eXlRVE33o2Xpb5jQIcfAAAAuNqavW/vq8kzhwn+bbO+RXK2x+vxcePdZLYHAAAAuMywv9ZJk3+/Cnd+epqUud4ctAJ/iZCZaZomZY3qcXf5zSX/6F8CAAAAwKjtddtz8y3X5r3qPlkpuXndHDckpay9EWB2dwrovvban/u7AAAAAHjNEJvZIzYlG/fPqvcB8zxPyvR+MGsWZ2SJ5TE3lRif8tw8T7ot1PgAAADA1fbTOv14vwGwk/PHDXnrJzvG7rCZLgAAAPAZ3KnLM5Unq2vnaZpKxv5Q/EeEbFmn+n1yyVLLEpqeJpnrXTv4AgAAAPi52gR/r8btvLm/OX9zj5BlS620TQ7/9jU/7ccFAAAA8B2yLNQ9VPfZnizLent7fpZJ7iVzZ5pKDv+yLD2a53a7aYlbj+tZlpC5098HAAAAHqQN4pQofivFf+3jr5E61hv1We8Szqb0W55/RF3Rq23D//gGAQAAAIAP1Wr3odHfYjdLqV/30rIsm+xmlhNaoz8iZN4yOidpif7OgCRZSEZIDwAAAHCZsfrOTFkN5ik9/tKYb/X8mWNzP4ePdcPdvolvi/qkuQ8AAABcpg3xnK3QHXvy7R5gLpP6peB397Xwr+8A+GSaNMlsneqJCCJ6AAAAgIuMG+WWlnzUo2v3vQ3sZGTfV8vMS6O+T+9n34w322OVNwv65L9J7qaIdt0x4x8AAADARzMztf+USnyM6Bya/DLN5im3SUrrUztPT0/KDKWi5/OXG4SU2VSWAtDfBwAAAC6RGuJ1TDJzuXmP6mnPvWej3PJmgUr9767MkNI05vBkblv6rN4FAAAALlSX6kamrMfu52lPfp6mqUz2yHquz+yTIqXMdXmuySRPLbFIy/kSAQAAAAAfo+Trrx+n57S8fFu/vtect77s12p/v80Gra3+HB4BAAAAuEhbgWt1x90xi3+o9yVp/jI/lQW+ZlqWRREpd5OFl3cIzOSSImqe53MqFLT3AQAAgAsNe+dKas37+pxaXv6xoV+m8bNP+7fVuGfT/tnb+2ubPwnoAQAAAC5nNVrT+odpHdGxXrHPv3z9oluE3F3L4lqWKAV/uCJCt+WmMJNZKiI0zUT0AAAAAFezobGfGbLJ1mW6NaOz7JXlfaPce4k9LYIzI8q1hjcBykoBo6kPAAAAPMR2I13bNOLXvbnaDcJskiYzTbNrMtPioVDKZYol5JIWC8USWnSr23lpd2EAAAAAHymHpbhl063986ndat2+x9bp9YZc/33ePk1+AAAA4IHGpbsae/Gp8RmTac4IuZvcTJrKjcItFs3uSjMpF01pWtzknlqWUKTT4AcAAAAuFBkyeR3WMdluk92xjz9uwGXr6P/m+de0yJ++OoDSHwAAALjQOrm/r8VbVGfL4p+VKYUUt5syUreXF317edbsk8xdS4TcTJOZNM8yLZK73P3yXwsAAAD4R+Vao3c2wzaZ93fdPTE2991dmaEa79nz+uPwBgAdfgAAAOAa635YY92fWTbcbftptefm3/72N02za36a5OZyk+bJNLtLcslLPE9E2Vw3buVxRpTnAQAAAHy8Ok2vYWpfQ2HfF+3WY2PRr+G59XJtTv/cdsqfsB4AAADgMjnU+/vjWo+lpPm//H//RV++zPry5Ulfnp7kPtW7g5QpZEoty4uW26KUFMuiiHhzWS8AAACAa2zy8tvNQJ38aWn9m+b+K9n8AAAAAD6De/W6bRbxzv/5//nPmibX0zzpaZ41TZOm+Ulfv3zV09OT5qdZuYTkri9fvsgn13FLLwAAAAAfqU3wtGW5PaqnZ3OOefytuV823j0r39ecfVOaybJdq+zPlW6K5ZrfDQAAAECzK97Hen9X+0vS/O3bN7lLL9NUbxZc8kmzuyaf5HOJ7pmmST5NcjOZu27LIunpqt8KAAAAQNUn9LM08UsQZ03xUWnYK6MO5pgiyyR/9tefXvVwZLMyAAAAAMD1Mjc9/8zUElH6+FNqTklLpFJR43dSS6QUWRf1puZplpspTJqtNPpfXl4k/fKg3woAAAD4x1Hi922Tsy/bbbIlSWlyc8n6tlxDM7+l7lvdT2vI88zcbLK7+d4s3gUAAACuk9uPsb+/DuyUQR9LaW6HSzFfxvzdU1FfnZG63W6KlDJDv0UqM2qDHwAAAMDHs95ob9n5VpvxESFzV4vW6a8w6zcDVt4FOL3yWRZ/afa3uJ+7LwUAAADwwaz+YV4jeszK9H5t+8/lZsGG4j2HIt/k7ooIRYZiCaVK059NuQAAAICrlOmctDK4vxb2tsnfPFToPWKH2h0AAAD4c7GWwXk8rjWTf7a6kdbY2O9TQea9+d9eRGMfAAAAeIBahpdNcUvgzn6jXSp1AAAA4O9AG9ZvX0hDVs+26ndz2zTuU7lp6Lu7rG64O7krsywDBgAAAPBYZiZzr/n8PxaWb3dC9sneBwAAAB7ExtH9lFKKyLqX1tbcNtNqYT4mk3m7UL1EpiJL9n5v+lPxAwAAAA9hfXetfYb+99To1jfolVmJABquUpKATC0RCAAAAMDHy2Fn3dS2wk9Jyuz1uck09xdZy+4pT7TqPmp0T2T0zbWsJfsDAAAAuF7WJv+wA24OG/H+GCb5AQAAgE/jpA43rStw2+c5M4dp/Ow5nuu9QvbGfo/nqccBAAAAXGMzp7/vurcJ/E1tX6fz92M/wxX7PlyZZejn5HsN7yEAAAAAuEKt7d1tGMw3yV3SELlvWSb4+wmteM+2KHe9SXBzyVNms+p80PW/GAAAAPAPqMVqtmGcdWNdk9LkZso+pDPk95zU7Gulr7XBv3tcvq7HPvD3AgAAAHBiX8bfacVnpubW8ZfWDJ/1VaXINzdZtpsJSeYk9AAAAAAP0rLx63SOTGWS532rbNcVu2eScX0AAADgYdbB+qEB32Z3+l66Ky+TOnWCv2bru7vcSzN/zPTZTvd88G8CAAAAQNJxtqZN27d4nYj4gcb86xM7mxQghnsAAACAa5Sg/bUe36+4zW3tP7dqPZaSrV8a+6ZlWcr1zJSRmzzPrJNCAAAAAD5eapu73yJ6zFypoUbfbbhVInxS0YP0h6x9a9NB1r5B/xhz9+sZAAAAAC6QmaUfb3WvrJSspez0qE7VaX6Tm7mUUsR5w77cHGwb/CKLEwAAALhMb9ePTX4NefzSYSfcvvr2B7/ndtUuLX4AAADgKqGsH3U/rrOT6n3AbO5ShKT1JmBc4ts+u7uk1O22KCIY4AcAAAA+qXXD3LVoX1fjHs8dX3PcbJfVuwAAAMDVShmeWpN6cjN206b55xK7X3L3xwZ/mwaKiD6wY5J8klK+zeQEAAAA8OHKqtrhs8ZNcU1eD2amrG/AW2N7+lmm19bj2hDV0/I/AQAAAFzDWl1f98cdq/G2B5epfjaTq26wu1ne2y62OZb9oj75Zb8QAAAAgNUavZOHcXwbP8y2X5+ct7e/HwAAAABwsT5sX5v7dqzTczh1Lvn6u2sMDX9375E8mSlzl0dS/AMAAACfTKvRzUyZobaBrpWx//FEKe/X8+1Gok/xk8EPAAAAXOOVgfwzc+Sap9+mgawX8nV33ijLeFtkT7DJLgAAAHCpFq15tup2OGNzPMc6P+uK3PGklMpOW9uU/Rr3OWy0S/UPAAAAXCGVa/2+y91v1tW6Vib4zydyShN/bfbXo7tNtwAAAAB8PDP74232zQ3CurD33nW3TX4AAAAAV8jhz33nfj/wU/L6fftEm/bZN/JbcU+DHwAAAHicNnRzVq+/+VrlduVudcj1rJv0UvsDAAAA12nz9j2Dvx/fruat1brmyV2ZZWrHvbw6I2XZlubG+qI68eO73XsBAAAAfKzMlMxKTT4W9nm+P1ZpzK+Z/Oux9nz7o6dzbj7asXsb8gIAAAD4CL3DrxzCdfJOZI+ntSmeWHfkHar4dg/Qbxr2AZ0AAAAALvEj0/RvTemPETz9NqBlformPgAAAPAIOXze3weMQzhzRChDigj55H3wf5zycTOFteQflukCAAAA1zpps7cluifT++spVqbwxya/rO62NcT81A/22wIAAAA+iRxX3ZbJ/V7X1/uAssmuTzKXtJT1t2GhJZda5Jsyoxf9btISddqfuh8AAAC4SCpU6vi0NT+nPF6jeGRtGr8cT5X4HutDOqGxkC83CNZuF9Y3DMY3D8wv/U0BAACAf2xZh3TKV2YmN691fT3W9suylD8viyJT7iWHPyK1RNQX1wsqN8t0y1E6/AAAAMAV2gZaPS1zSM9Ufy4P5w2v0Laxf4zredX3nAsAAADgp+hRPLY9NvLffv+ml9uLbJoklQZ/2cBrLfzbewMR2Wt7lu4CAAAAj7fdOPdYo5/F7rQaf9/kX6f2NxfYDPoAAAAA+EC5luNWV9a+Nm8z//Vf/6r4y9eate9yc83zk5SpJVPZl+pKkYskk7l/38QPAAAAgD+kL8kd6vDMPGyiaxob9FYSfGpETx/gsZPEzbGJn+v1WbkLAAAAfF7zv/zrX7UsN92WRb98/UVfv3zVNE2KZakT+9aXAZu7MkIZFPkAAADAI9VRnLdPNA0b7W7r+P1gfjKtDwAAADzcsMvWm+Z/+de/6rbc9Pz8rPyn1GST3J9qVI/kboosmfzTPGl5KUU/ET0AAADAY7RavGXst7gdOx3Nf/21r+nDPgAAAACuk3Vvrcxto7/35dco/flv//Y33V5e9PKXr4pFut1Cv/zlq+Zp1jzNmtzrxH6J5pm/uKZ5lrtf/4sBAAAA/4BMKlE7JqmtpnXJVAr+Uty3GwAbiv7j3E8qlXXfrdbsN5PSrKzW7cetfm+iOQEAAIDL9Mz9UoeXVbabpM5NnT///vuzbrebllh0ewk9P9/067df9Osvf9Evv3yV+ZdykyBTLItMqcldPtHgBwAAAH6Gr3/5RU9PT8pMLctNv//t98M5ppKe02r5zDWXv7XiU/UGoNX7+T2Le3ffr75zkOy9BQAAAHwObdXuYL7dFi3LomUJvXxb9Pz7i15envXyfNPttigy9fXLFylTLy8vimXR1y9fZEaDHwAAAPijvv7lFz19eZJUGvazP+nrX6Rvvx2b/KNe2Ncifx+ls9+At79O9q6Nc0nkBAAAAB5gKMTP6vl2vNwDmOY64a9vz89altSypMKkl5dFLy8v+vbyrH/366+ap0m327N++9u/SZn69u2bpH++5pcCAAAA/k7N83w49vT0dNrgb0t1zaw39lvR35r8bTNda//JY9K+mfUVAD2WJ2L7vNh0FwAAAHiEtg63xfPolbp8brmbS6TcUrdl0e+/f1PcFt1ebnp+ftFyW/TL169yN5lNui0vWpblsl8IAAAA+HtlfjKVc3IolVKazLaxO+ukfg55+dbz+ds5qrn82XP7bY3gGe4V2FgXAAAA+Bx65d+a+/Vz7/Vblgn+ctSluiHXS23qv7zc9PzyolhCt19v+vXXv2h++iJjg10AAADgc0lJbn0zXhs35eqfh411ZduduqS+zPdk5P9jf3YAAAAAq1QfzOl7bGWuDf8y1i/JNK/Le8vS3FikVGiJUCyLUqHffjdFhl5uz/r69at++fr1dCkxAAAAgI9h4ya6+yn81rSP3J1X5C7Hs9wfxBrL06J+2qT/0OBPL6sDAAAAAFwjh9W4ZiZ3l7lv4jnLY9Pc2v5eT8hIRUR5K8BNui1SPuu2hG63m5ZbKJZ6DgAAAICHa5n6eSeXs0T311uELA+J1gcAAAA+rza4bzYc2K3OlaXm9mSJ3SnTOevUf+p2WxS30HK7lY8l9HK76XYjgx8AAAC4mp1srts+3+3Zm23z+LWuCGivz6Hr3/7crwQAAAAAcAU7pGT2pP3W3Fdp+M9SKqMs0Z3qFL+7l7ieCLWNuJY0vcRNt+Wm28sTE/wAAADAg9lJhv5+w9wuh7Z9tvb9USoVGeXzkNkPAAAA4OOVIRzJzYfhHsncerRmOyZT2WQ363h/qET1uLsiok/9txuDWEI3hZQ3LQsT/AAAAMAj9Tz+oZFfJvnvNO+HJb1ls65jVk+L4G9H928iAAAAAPg448pbG2v1HJ4cuOpNwVjstw27xv/UxJ8S27PcmOAHAAAAHmi/iW5mvtqMP5vE35/d43us3QHQ3AcAAACuVffXGiIz2xCO8rjCdpZSLsknlyRlhMIkWZvkr4tz0+RWvo4MRQvqBwAAAPAQfYJfpeCPiJqtv+ZytiZ9b/6ntV13675b/WLls9VnzCUL9bW/AAAAAD6e6ZC/f3wuZVb21J2352Z9F0AyLzcEETFcMBWKeiNBkQ8AAABc6X6hb5tp+3unZdY5oGH1bvmsfqy9WbB75Q/+xAAAAAB+xFm+Tn9uuDGY24PMcbMtU0bZWGtc6htRNtqitQ8AAAA8xmsxPC1mc5OfX7/YL+Vt0ZxtP64+yP/Tf2IAAAAAP8R2Hydmq2k+ESnLugPvVDfZjRLk38b9l1gkk+Ik6wcAAADAx8ld3M6mGm/7Z9WG/v5NgL6pbhvgef0b9fOzP/7JvwwAAACAc33B7VrDl8ehqW6p21N3XJojU26SuyvrvrkZ5ebBXYoYbwjqc2avTg4BAAAA+Pkyz2N6rD+furcx7lq/97cJhtx9W980cJOWn/lTAwAAAPgeVvfFMltrfasB/GZa+/NmpeVf9ssd0vtz18TPKMfUVgPQ4AcAAAAe4Wwl7Xgsd6ttW/jOesSG56R+12BWmvsntT6lPwAAAHCtUoP30ZyT58sq3tnMlZG6Rci8vAPQi/zMzQa77bloywMo9AEAAIBLlIGcGs9zMsqf45COSW1Jb6YUtbYvu2yV4R215b51V90cBvrHxn9p9lP4AwAAAJewVE3ML4+lWrbXvbN2twKzyWRejtQ0H2VEvTkYbiDUsn3aRl0EcQIAAABXydaFV/YJ+7Ys96wJX2p4Gx7v1GW/PYqznpfU+QAAAMDDtFmcsbovc/fbiB7VY/N2+W0t57OV9cPy3WGjrfauAQAAAIDH+J7IzG3FDwAAAOBTq734XsfX/bL2dwCZqTkzywa7mX2Fbkva35/cdu9lhS4AAADw52CSXOuK3baCNyO0T+bPNi7UP9qzvC0AAAAAXKW14Tclue0GdzIlS81Sid7pzEpxX8+OWvi3yJ6I7OcBAAAAuIaV1M0uW4b+ENmzfe7kGnUjrnabMG7IO76mLf/VkMsPAAAA4OO9p+3e9t/KTHk7UF48ZHnmNpanHW83BbT3AQAAgGu9Weyn+srcV6/z6veg0gcAAAAe7V5Znv1zeTSPzf2xsd+W5VoN92mbblHwAwAAANerpXqvx9sEfy/P+zpe1fo91+O9hB821FWuE/zDPQET+wAAAMBjrYP422NZY3rSTZ5lhe/cGvsthz+ViojtVL+VG4iI3OzSCwAAAOAaebar1ole+Jv6C/Ktkf79NeoffTqIpj8AAABwkbXoX+vwOoy/7fiXvn55fJ7Z2af66zWo7AEAAIDPYVOr758bPvbP2O75zbm5HfYvx7gHAAAAAD6r2d0labM8d5PFX54sx7V+TZkPAAAAPN79Jr/1P2Ps2rf9tdY9evuHqfbzW7pPlvNYvwsAAABcZei8v1KIR83inJdl6Tvuljge0zxPveG/LEu/2jSZomV7AgAAALhMKqU0SSl370tyx+ftHa341DZzXzKl1r24MofhHwAAAAAPYWayNrZTa39Tz+LsvBXvPZZHdrrcd83ez+/O8AQAAADwcY7N+LHx/9p5568BAAAA8FhntXuZvd8O48xtg11JfZJ/3GR3miZJZYPdZVkUqm8SMNEDAAAAPERm9nb8ZlDH21TP8fx9/W6yw9jOOvyzOREAAADARdqK2pKuud1YN3PN1WwD+fM4vT92/iNif+l68SgrgwEAAABcppfgNVazJPZYHdKRzHwo/vercYevc3gDwF2KZHYHAAAA+CTulPT1OTuc6GbD1M8+x3M/5TNm/QAAAAD4FMpeWuvX4965Jye/55C2dxTU/wAAAMA1xgj9k9p99/VsblKuL2oxPdK+wW+appSFseEWAAAA8GBWJ/lb4W/a1ulpw+Me0ZObeB8zK6sAssb1tDcKytZbWr8AAAAAcJlW4/cm/3Zy38z7l+71i4joH2Ozv030p9bNeCP38T0AAAAAPtK9IZtes39HH75danPNYYy/vXlQv/rOnxQAAADAH1Fq/O2xUrsfa3N398PmumNkT39x5hrwDwAAAOChDnGa43Pv6Mlvpv37Rr2q00C2NvlNuhP2AwAAAOBD1Kn9Wo/31bYn3N3kXqb4W5P/7PzW+KfBDwAAAFyrVeD7mnzzWKWxf6+53yb9fVyl219v7aR+7vqWgd29mQAAAADwk/VBm7oXbg7DPNb/6GafyskR02GCf72eSeZSZH8zgI12AQAAgGuUyfqh0Ldt0z0ze9P+nqwZ/Nq9QdDj9vt32uX709wHAAAArjUM8ax1/hipuZ7qkuRWpvjHTXZbs1/1IiYbmv2X/BoAAADA37+zBbKni2bttIk/Tve//a3KZrrtY13u266vzfdocT3cAAAAAAB/3N/+9d8Ox/7tX/56PLHX4e3rlsm/7c1nprxN7NvQ5B833N3fJ/Q8fnI4AQAAgD/s5eXlcOz5+flwrPXdD03+OzGaY5zPuko3e4xPmpTuSjNln9QvHz3j00zmNPcBAACAn+H//F/+98Ox/+N//N92R8aJ/f2H6j6566DPXDL3TWbe43e20/uqU/3SsmwX8AIAAAD4Y7799rskaZ5nmZleXl70/Pu3w3klKd9KQ9/KZxvGbta6fV2Fe3aNXs+byVKSu7SUgZ+oTf0MDaP9TkoPAAAA8BP8T//tfy9J+q/+m/9aT1+e9H/9r/9J//N/9z8czjPzQ0znfqK/fZ57zqbXwP4sk/ztxiCi1PxSy/Z0SfFBvyIAAADwj+fbb7/r2NIfjbE5Qz5+fW7cNPfNq9Q3B1pOT9ZduzLWs8ysPrffcBcAAADAj1pebvqP//4/6D/++/9w95zW2DdbI/XXOM2yArcekSR5f+Dr1I97m+ZvcT2pzDLF72590h8AAADARepeWGYur5mcreC3GrW5bfAPbwpo3SzXsq0EkDJCiiwfmxz+Gt0zvA4AAADANdymUudn/ZDkcrmZJpWVuFaH9efMUEq63W4y+eYmwTVssmvS0zwrFGXSn0IfAAAAuEyb0ylRPUXmtv++3SC3LdvVIWXTJEWt+VMphZQZZSVvSHLJ0mWWiqDuBwAAAK5m5n1Frck3e2aNNwGz6kh/RPQ4H3dTpqnV8mVTrvZYPenzPy3/d/8mfVpovOMY9CzQ8tO951fYX2H73HvvM0xyW6ebJK1vYth642NtAspNXqej2lRT9E2ITZNPmqaprGKwdfOy9heU67ftX9vww7a/u82xO0upT3NTh3PH5zfH69/P/rrrKm7rP+9rbPPozvm2fdD++Z794ynfcrsJXPmri+0GcLvXbP4uh+XndeV4fcNpeI3GpSztv/jrP6dsb1D1Xyvrzzym2I4/w/1/tpu/ndyfca5teN3+Pl47//4/quGXfiVn9zjJ97r207z2ksPPNPzr+D3fr53l9TVts+/2sd0LZPvfxv633v67Nvy7LTO5uXxyzfOTvn75Ivepr0yapvrv8DTtfpLt38H43fY/eftZpeHfM3v77248b/P3ML5od4H1f1vzcO1sG57nep3Nvz8aX1PPO0x25tm3rT+nHX++/c+l8vceGf2vMjVs5pj1fwVbGkT79+nOX9T+aI67xuxet/md2/9YDP8/yt315csX/dO/+ydNk+u2LPrtb7/p9nLTbVnqf8dCcfKjrP9+rr/++L8R4/Nnf0Wb33X3vx4lEcP6Z8n+f/berUmSHFkP+xyIyKxLd1f37O5czh4eUpLxnTSS//9XUA+izLR7bjs9t56ZvlRlRgCuB3cHHAhEVvbsHsokE8amqyoCATgcfgfgQGaqv1t7LiVGT5d+pnuZBP+mfMSjCpfLBdF/8bPPlDvXtgk8n3rk/+k2/9qyp9c/5/t/i/FcC9c1/f81MPbfXoJb8XXsAAAgAElEQVTr0vw+Z19dC8tv+e5z2ve6xvi56mmRILDLb/0lu1TbuNADAG2fApCz5PT3negdXUxZL9kl/B93SbuzcXMjAFt8bCQ6gEsw/VuU62yz39Zur833+uAGp88//5x+L/Rnxcty+/2z+rR+fYMjWLhD9zO+3F9FD5cG2Ne7Al+75do5fq79C7Sx6edSvf9Z5bm588/3rJC/hueuGe817V/C76iPv6Wc+BwZcW17GLTZP9vre1Tvt/T5b1X+Wvq5RKOj9p4b2/9sfdU7EmgDHL+5TRejGff0/6HyP5Ne/9bl/82w///lquJjd01si/Rv41fS12qTEwGw4L6l3dHv9H1pgwD6z//5vzAzI6WEECIIkn8/pRp0lTQ9WR2FGpwJoYYYLLZjiwFUAJO/5TJfNAE8K9xInDpgNoHUBRTF/7A26nFk1j4QAApU/qZAmOcZU4wIEZimiGmaMU8TYiRECpp6iDDFiHmecJhnxDghECGlFU+PT1jOZ8QY8fDwgNdvXuP1w2sQAefljMdPn9wQGEFhTzmDmXThJNQgpk0CM7IGuA0vKeWymGDtKSZbQnClb6MGTFu8BV3EQAnAWXuQS9YGMmUzXzVBK+bDJISm7USF22gqMxfiYzByyoWeGMDpfML5dMbpfCow2+JJZiDlBKIIMJDWjDjFJkVUSgk5ZcQpYIoBNAWcz2fMMeLm7g63xxs8nR7x4cN7oXEKiGGqpqiSmwR8A5Z1EbwFQowRaU1YcwIhlkBqoOCcaC5BP6NxmZ0gf5d67QJTmbeUhu+M34gIOaVy7F7oQIKSfaAjBDmu3+/iSwpX6IyEPjDSLOJpcJJzLvxoeO/5kSH0ShAeEviFrvv+mkUUDcQGCsicsS4rDocDpnnCFCPO5zPAcnLIeGdZFgcvN2OY5xlMwJqy8BBFTPOM4/GIu7sXePniJV49vMI3X3+DL7/6Gm++eIM4RcQoCwLz8YAYhdbs8nFZBFDhCSDnVBZCASCljJQXxBBljgCsaRU6i7HwpdfZBCqBEoCRM6PeZMilNyK98Dwl5MxY1wWcqhwV2ZywLCvWVXhNI93I2kZKjHVNyk8ZaV2Rc1K6D4WWMwvOODOyLhpM04wpzmUM7GjIaMNoPgQJnideZe5TQl5XLOuKnDKgPLYuCUm/S2sq9EQQfrcFCVuYy2CkVWCLFJFSKjTJmZFyQmKVJwzEiCp7svDWF2/e4D/+x/+I3//+9yAK+On7H/H2u+/w7qef8eHjR7z/8AHLukqbNklMurircPnFFc4F1yavcza9FURupaR6T2h2ZZlZmbek6puQQcgIYJpw5oglByw84bQSFkRwnJEpInFALoo7gALpPMm4A7kAW1YKYjMCjPaExnRJyFEayk8iaNqO1vTnRklfLrbIxk7n13auC7SO6trJwrpQ2y6y+cXAvk/yTNvLDhVojf5x/T93WnEDp7V5Rf09OEnx9zmL/+5lEeIbV3n0nda7akOBE/5+oa7BuVcQO79TCNVe6xWKa3P499AgdGNxfYyeb8azU+eqU6rd99eW4bx282C5NlXyig7UYDtCgOThdLt33M+gMmLozqucdQINrBt8ckpi33FWO08EYM6ryL2UwDlBt/nXulnr6nesC6dQXUI2PnYbM34D3vZkiXeJR3WeDYmRWKn9/HsZMJIH/TwWt8zLJZimh+A5hCp1iVSXcDfvtT+xoZ1taAYajTfS9PA0TmQ3HkvJWm3X68Jd/fvGpmVu55SotRscTIYXAho4Li0A+ne+BuH5eR7NS/GXdsa7matBHz1sz+FwY3sP6vfyxy+m7ckmb3MX7JL38/bT6wqfNhAUOEZ8NMKlr9PX28JarK1ni7Q/mqHLX/v52KOJ6st1/tEVcF2jI0Zyytq/JKsuwbEZj+Pxvn4/T0DdVDUqz9kBe3y69/vfolxrIwJbGUBm1zNLrGmj862ee1dsm9qWbRS1fp+zD6u/DmTTt84HFjt7xxboBiQ+krXn5EVHPz42YjAy1Ka3NpoAQdeVp1XDwVjQFfhHmxyumfvdDapOD3o8j74DWjlCJD5jP6cl7mB80umn5j1Q7S5fX/VY9nZrbvsewdnwhOt6HM+rcTlPjwQgoOOpHf1fZEHf12hOurHLHatVR5PC5mWTaJWxrOxZ4ZJ87HkoYzsnrna1G3bqjDR4v2nX6tPAv9iDceRPjsp+HaUDM88dD7LCRJoS336CgjynoLG/CFCo8SgK8neYAEupb/4ALJ0mQP/pP/0nlkARF4dB7HJ7Znn4kwRZojkNZqhrkIdDeW7f+SA7QGXyRwqPIWM2AZWZy67KPQQTEQJNhf8sbAEAIZoSkr8lMCwByHmeJeAfJLAfY5TgfyBEDfLHSZ7N04RpmjRYtuL0dMK6LohxwsPDA9588QYv7u/BnHE6nXFezmLEl2AOw/OWCeEQQ2FkL42IANZgkZyk2NaxIKoE2VqCd0gSqb4hQqO39uQBEWEKsam7UWBFyVTlHjQ4GvTbIo5MubAEvlOusOacsaYVp/MZp9MJ67pWB94Ek1CWBO/jQYJhKTd3Qxi9CX4kiBhiQAyE29sb3Nze4Hw+Y1nOWJcFyYKjIL1EzujhgPP5hMenT1jWBTc3N7i5OYJCQE4ZKSdk25zMkgNLMQiiKiiK4GfazMuugaLBSgvoNL+7efABfjPayxzZPCmj90JN+BGIITQC3xssOVezISXGZkvzQHlVAyaVZ5IPWI0QrjD6scUQNwtSVi+oYs05I4aIKQbEEJHSKsMOAdM0gZmxphUEQkoJKaWySGO3gsuCJWE5J5FtMWCKE+7v7/HixQvc3d/j5Yt7vPniDb76+kt89fU3ePnyZeE/lMUSv6CUi5zy9B1i8JsoHcocDztUeuOPswRK2Bw3DYyQyQPOyGlFXlcAQDzM4POClFYde8a6Cg6sf2aAAiGtjLSuAAl9Jg2+2AKb1LVFBlY5Ks8En1OZP6NDP8iUsnMMhWdTTshrFvjW1Mx1WuvC8bKubZBPESJ3vqisgBpwmZGTAqf0va5r6d/MD8GXLHycz2eEQDgej3h4eMDd3R1ubm5xczhiXVe8//UDfvjxR/z6/gNO5zNsoSNnlsvlNXjGkMvmy0I3qiww/ImBZLvwBcZ1zch5xbLqQgFIx7aCkYX/1HRDiFg4yP8p4JQCVp6QwgErIhICEiIyETgQmKguiKizUOiLZcHVYCzGVzCL3GCm1sB3+jbYjBrt0oXAwMDg6R28kRPgg0x77+y5yQnPd30QuCyoUt1E4Ov0bY7g6p2ka8qeU+v77ce3Fyzs5eEebi/B8LlwX9P+taXHsc1X/87Po+/P7M0RrKN53KOT0TifcxhHc3fNeHs4+n7HxTlx9ZHawYVjJUhvxrEa/MWIIxfsL8d0gXIBVxfgLxszNk6fBZAlwJ9dgJ7YBfFZF1e5BvwtiN/+LnKUOBe53AhM1CExO4DqqFtnrVWoA1RubZXnHD/TdaXZ6pw0bXCR5u3vo7b3ToCWiWZZPA9m527GJ8616P5Q/RrODXxDdHgecoGgDShqC5bGu3E27Zd/tn2M+xq45LwNVnicSPAgt79bXxsGqX16eBvYRsjpja8RDH0ApEVuDb9wHrwfwDbi/Wvpd69+qcfdfPsq/RiEv1WJ19omK9BzH9rnjDEur+GxTZv7fD3inW37e33Q7ryT+SOeh7q+zVejsDM/vgzGX2VcC8MG/gtyiqgGKkf1fgtc/efMdZ4kwD+A7QJd+/ZqUJWK/V/k1QVaGMrIjmatLf/K8ztdskU7eVyf27+tzXuNLSBtYQNXI4MG8te5NAWqxsbYq990zcrurZ24t99mV/azjmFgb2LQr/+eu9YKvMCG1i6VYaC1wafUuiZou2m3keUGs9GljJE1xlFiFEbDwWIuttm2XcyxugVX7L4ttg1wiU8Lf1hMLzu7Vzr0A2pgk+9hYbdt2yNVRxjTSCHZMY8We1Pr2Bxv7Rw0k9d31dtK1aTd2jH2ODu4PF16uFtgUepyJaCNTzH6JuyIoJEOauylrn5Td9BlUbs2BKMr1vlhVJue7H5b2aEfXMCedANpCBG2yYdCBEg2PMvvXr+LDzAZIDWYXI0tCyRLp6y7imVHoCA1l0CptC2jCWQ7VKiZBBmwTWAn7MjqaJ9uMsgjRtvgQlS1PVe7neTi2EmgJqUk74IEBBmC8DgFEE1IGZB/CGAJmk3ThHk+IIQJp9MJy7rg1/fvkXLG09MTXtzfYz5MmA8TlvOiO025GdOWIJRVdHLLGByzkyliRltHx9oYJd07YGeVirhWN8KiNjgrc9AbCsausRA9Edrgc7EVqNhdZZZJdzynFcuSZNdxcrsU/RyrMg4atCUEBduCtwHiaDI4ZVCQALbMUwQFwvl8xrouAAjTfADFFZwyckZJtQQCzuczfnz3Iz68f4+b2yOOR0npklmDuUTSrSkRE/I2B0azhd6gx9zRzf9WKrAT4JISS1uNgjzWefAbcev8ohB+UWY2pY4PYtgGx8xoqAGKKnFIlUMfeNnSgvXt6znFQDXIlgtqRK7kVA3N0p4t7qnBHaMINGnHyx2BcZ4mB4uewphi3ZUOUaRBFxrzknBaVqS04NPH9yAKuLk54sXLe7x9+wa//5d/xquHB9wcj7i/f4mXDw948+YLEaBKyyHUe0qyrfpMhh9V3NHjQ1dUB84j2WyzmSM69wygBPzFiOA4IU8JIMY0RaQYMC1RTwixnDRRWmcNUBMR8sTIq+zCzywBfpPl2fiH/f8AZ3+CRPibA6nSqY4BQIghl5V3Gw+DkeeMvEoanJRWWVDIjKi2eWZGjEFPirXKMWUuwdpCWywnI5SCZFGFCCkkXV6yInjLKcDLv/cfPuB0OuEwf8RhlpMazIwX9/dYdWFkSSsCh3KxfAwToPOcgwb5E1QvSrA+ucUIMBBKmh3Bx7pGhDkgsZzmyoHAPMFMUE8JRIzICRMzZmKsDCwAVkxYELGCsVBEItnNL3aCymwy7iIAIhvJeRZ1IZKVj/LGmLE2AjRgCF9/X4YR9gzGaqw1xizQ/G2yxBYFyfOHMx6bdvTEgpdLwQxP1I0CfZ06jN6xq2Pp9WBTv7fiuMUPcf2qlZHtaboeDybTOiA33e0arj1eC2w79f2Yrmn/ilIcLztN4myE2n6tV21G9y00+N8b2m4sBGq/Iy748zgHWrwXJwttkH9EmybnnqOBPvDRwExjB9Xa2qB6qHPN9tAGdWdPMebL31rfxk/7Tty2qO5Sm8YcOJPn5SeFYgcFTHKaTSwXHWyA7eYn/bvuBzODyek4ncbNXKs+vx5+tLTc2F778skHa5tAIIxWqOWrEb94unwObmYEL/M93ZmtlHPhG5i97U5RMmexy6/gU/J4MRiDf4byrtSlQg0NbWNDl35YrYNf8ACUkx1UOh/BGdvfB/A19XfmYlhMDrUNbGFw8upS8bAO33sauCZQO4Lv0jfmDHp17OVGs7HIk5jZ9/WdwburB5zf2fa/hY1QYbjEt6OhPsen9btRhEvlYC+bmUW4hNjwUA0GqX9PBFB2MvWZMtQB2M5jT7P+2/57Zzugrzdo6xq4PE736hm+r9X4ra1V58rP/WacAxuE/LseSG/jAUMYvXzZwLgHfAdHDUCO2hiHran7fcPnOzKy/8737YPlLbjbOgK3Pbu8pDYwLaQljzjDCdU6vt86lh1cDx5etB83NncnP2B28I682Wvf6eiid+w5WesAovkMpoc6/4QYpBu4QqerqPtjQ+fPFOvD5p+LGjGjy8nAOiVNv3xZ9Wz7HALvHl1iIB7AUHw10ejcvK+NDWVKL4+2qqiYucOyR1ZFj/mP+5Nog888iaEdY1uPGpjbMT9ftnzUyzend4hUX1kcrwb4bXe+P8EL0vgv1UXWXtZOFILu0uEyPonnq4PDEiAjisX4lTQvwLo6R8nBGMsRd4DZ0nq0QS52QobJViv8rFM9RkFAOQ8EN5kMSJIDJR53tN5SmJjTA1Sdvq6SPgGRETFJ4D8wZgBEjEA2tgxEyE5yZhzmA443R0zzhPP5jMfHR/zyy8/49Okjljdv8Lsv3uDu7hZTlPd5TcPURLKjPTV480dYqfudYTiqz9mEtaO+wpCKoAYH5TtBXHGP9X2gUI7tUTEiW2Lsx+F3r1mtemZC5tiCiFZSTljWFYsG94VIo95zUKPYJiJCcEQbSAlH4OWU5aR4TohxwjzNOBwPCERY04plOZdUOxQiAiIyEwID0zQjhohlWfDTu3d4+/Z7PD59wtdffSn4CIRc6JtkzcWN14LkrOduyL0HLNhUlSWj3XlVAz8Ot9l4xOZdvrUAsxVLlxE6eJpV1p15MzoYCn0TQPZHO6RWMDXvu8aKweDohOuz8huh0Ldv03Ll18A6l4AsmEvKoqg59GXxcsbk0jflnJHXDGTGYZ4hu7pN5zPScsbTcsanj8DPP3+Pb//yL7i5ucH9i3u8fPUKv/vi9/jm6z+C/8OK+XiDeZ4QKOBwvEGYD4ixLn8FFbYSNM8FLuHfWPG+RXlTSoATItdkFyTE8JgAzisARogaVgkBgUX+ccpYF5VlGTJ27ZRn1hQ+SYPxuijAWU5rWHCHZZd80lMrrDzpU4XZgiOz0F9W3eGlii0k5SlhWRakHJHWFcuyNulP1hAQU0K/qzZk20lvp3ScLFDaT5kQIyGliDVzaZNZ2gtECPEoz3PGuiwAy67/j+8/IsSA4/EG9/d3uDnfyILsSeQqK16E5qT7wIRMkhs/RF1Fl1w8NVBksDIhaxJ9mjS9WM5YSY/q0qSpf2zHq9BrpIxIwATZ6ZkALJmxIGPBhDMyAiTovxDARCpnAuQEnS6Cqc1ovxf7wdEZEBCQAcqwI/xi9ImuB2mbnEHgktbN8zo7oi6ioQmcOuIuBl7raNUFbuu7Vi8+mXfOyAZoYUiontIRFpvBFEmGncTZ+NcjA73ReX6XycA5d4E5N6DqqJsM17G1zrVDXOGrdlOC7A4y/FxvsHrYxi8N1K1juteut9f6+tu+qeLB6Ql25FN9S2qe177ahYFmqgyf7veGrhqY27kx+DZ0hUqLhZbKojf28TmAsX3dImdUZ1SajQFqWwhdm+NJhS4I9bnXtfuNY1OH+5dEEJcroywism7wAYPJ2Wu2FUlPhSE42mVbYGc0K47W1zXO4A6ftgNwC+TOUShypGsrOz5tbCNb2NZ2PC8T112BFW/c9AfUdhuny40hm13e2IjirDEN+gh+gTSUk2X9+CtE4+JhsT7M5gj+aD4qvvaD/K5btyjS4AEAlfH4VrsGdmDqF+v8t/QcTYzoAWhhcfMymkff1l4fezB4GiivNmO5HKTb+6bwJ9uJEDcecil6nEzwJ4J7ePdwaXZECYgpTvdOixl9kda9VDxvNKSwM29S3BgahbI9XdPSNYBYF0abPigU+01Sze7A3RsQbhzldxcAw4bmnhH4eF4nXKrMnIc81lTj1jYRu+NyNw1ee7vHy0MvG66i/UHbO7gnasfbyPQdhdqwqT+1ZOqR280k8kjhsVS0FdAhTM/S646dQP5nB76Nq+I2lLAHY7fJtgxstAakwkbbgZXPPF6o9tUsPOwqmp2++/kd1OufNN/sESvXBbqyURkAMjcpmSwNIYWWz23Dlth/7J5p8w4E8y1FDHt70XThYEL17ybzhrOnmVrd40fZsMXO8Hsef7ZOnc3mO6EvKs+5oqPpOuhmv2ZqdFyimi7I/oFNJmZsxY1B9pxu7MfmcXppoYnceBrbEFt668XS54joYcewsTo8mM0Q2pSb9p8F9RnkbD/TndaWLgQwA+5EAP2X//pfxD1i1hQmekyASfM+16CM5FRPAASBNQVOBbgef1FmcLuGLa8/eUZkDV7rzlhLM9Hs1oMa5BBJU1SoGYBZGboQiewqjUHzF4Uguc5RkRmipOKZ9LJNu3xzjhFRL+Sc54h5kpz8gMSXb26O5ZLdEAM+ffiIx0+PyDnh5cuX+OKL1/jyyy8l//aa8OnTxzJuoI5TAo7bS0Rzzk2Q0h9xL7gE9M6DqqRsgaQupEiaCguUCl5MGbW5fYkIUfO3l1yqXSCmCdyEajhOUyxGuewGrnNfUoHotyknucvAUmuooMssdCZ0EUCRJJUIjH5kvFQECJUjVLIjP+H27haHeQYFwuPpUWhTZZV8JriKccIcDwg04fHTR/z400/4v/70Jzw9PeLu7gb/6//2v+DVq5c4HGeBTdO/1IC2MKHtSJb7FSzA3zqM/Rz3NFB5COW91ff3NdT5Q8M3PY9IcJjKqQ5rrwbLW5hGxo38URf3rE1QHVe7WGfGU6UlH7D19e2n3PfRwgOgBMYt1U5OEgANROWdtWnpUnKWHe3zNG/6LjihuhvT70zPWWQZswRgTZQRCLe3t7i/f4kXr17h1cuXePXqAQ8Pb/DN3/0dfveHL/Hw5kHxVFPXmBylkgppu0B2jdISfGQ9yp811/wiol7nIa0LGBkRQVOhSSoeTiy/p0L44AxJh8MMBNlhubLcLSEKTiYwp4R1zcKf66qLKFMJ8Bs+mfULIk2llnUeRW5YnvScJWdzzgnn5Yzz6dwYOTkL71tefc8nfsE55brL3+hS6EDw/PR0ljqwvNHQUwyWWk5OEhwPBxwOBxziAU9PT2BmzIcZIML5tOD9x486pnqCIWfWtEziCArN1LQ9shiQdMe/5MezU2JmNHFmOcmQs4QXQgCzLEIyVE6aflKDgykgc0DKpMH9iAUTTjzhBEnnkyhipYDEERbglwUKFNktNBScnpR0G+LrZFjQjcEAG71GABHMLhVK2De5+l13vYxoFpid3DE+3sqU/eLbqvcCYdif1fPtj3fytjCN8piWeqi49TBdA/teYKRpfzCe0Tf+ux6Wa9/3z3o91Y+11zkbuJ1zMqKJkW3Tj7tvs39ube3hZqx7gBrEuc5E38OJfzfq13B2qR9mfrZO077ys9gFKot98E5+qzqo4dO+Dy4/Sj21F0sQXo04n0OfcyrPCO5d+SmKxvSh4IKLE1ztx8syZMRfvs6181dGv8Obfr3Nd2nPvBN4CYY9nt3YaIYHdPcr5XYTzqg/45W+nVHdvec9zVq/rHNt9wIwrueRPZx4WPbkluevke/zW+Z61H8Pw8gu/Zz2Rm2NbPG/plyW+6aHZbYu2fFtKhN7PqTqYb+7NmxP23/DMtIbtVzYwT9ox/yoS/1c4rvnxvacfv4cOC61cQ1MQ9vkgqz4a8oez47qWflbyJTfUnq7UOS+xil0caL4FS5Qb11filVeWwrHOh9ZXvBVDiFp1eeii58jz65tE0B78MfbJFf21bT1DN/9ljKyu4psLv/Xua6+ABSW9pm4TKHYNfUeSWknaoaSXgb6WM6eD+L9kGvnqpTQ2b0G/Agfao/7OXquP/+N4WLE2WZzelvJ9b5t89q+PZx0mTV62+1zad9iNc/W3Wl3z955rmMm25DjdayKaosLatYKuNgM1LYn23SoQX2KFn+VlNRCD1Q2nU4eTKKqLOsKd60R9GK0nLML0tWd91Y1p/q9AaNhaRgNmeHAdjtvMSQqIxTkAboaJ0EIprpSHiggU1JDtQxE0KI59kkRyw7InIElS+qIKTPiNJlfgynI35T0ciiSXN8hEM7nFdNMmCbp7nA4IsSIdZFc7z+9e4c1Jbx8+QJ3N7e4e/EC67JgOS9Y1kUJV1dnA5pFC2EoKhwTYnXivIFOUKGbuaaCcZt6jChD1MCupYFhVW66MmTUVYUPQNGOx9eTEeaQVjoBSC9901wu2qI4eEXQBULQizHPpzOezicN+AFAkMs+lUZClNQqIsT0uI5tIWEgEukc1Uufb44HxOko9yaECcwZa15lYccYWOfd0qpHmgAmvP/0ET989x2+ffst3r17h/v7W7x69RK3tzeyczebESupYnplQESyU419QIgL4xK1CzTeYAku3UxvgIQgF86C6qmWGuy/rBi9EhEiahcP/M/+dwNfFlUiiHWnmRPfBE+HJW+ABv8qDD1MHjY/TiIqC4hBg8kprS0vFwGnEj/LbmK7awCcCtxVmfgUHVkXDaX/aYplYXKep7JIQGr42USfnh6xnBe8//Ae7w5H3Nze4Pb2Ht9++y1ev3mDlw+vcHd3jxcvX+Lh4RVevXrAYZ6x2WHpZNJz1pTxAmlKNNm5kcCUdTc6qyTVHdWsMhUEBNlRyUHSpk2TBmwk7iILJrpjO+cssm0lDVjrCQSjyUDgKYL0UhcJKtniXesolvsDmN1ltBp8jVF5ye4o8MaNgC8nHoJe7theVA3o/REaHI+2cKC8JAF1XRheNdBuASbKSEHGxlnoyuANB8LhOCt9A/Msd6yc14OeOJKL0a2+pLiSoHzKurjHKHDXRViZ+5hZ3+llvFFwGlT2sk50SQuRA7KmHfJ6VwxNICAjApgYCDkjcsRCExIxFkQsQi2w2xAyGWcGd2mP6mBG2fkv8koDn2y7uajKfdIdMC44MDJjxjKp5XdH4Z1MwKbedYFtk7t0oa7Pd111XCMDUXf5VYO5b5NL7ZFR3dbZFutvk3u7fG9GOaPF22XDcYSbFr5LwZL2meknM65da03d1jbj5qfXD6O+g9uJ7H/3dQ2G/b62+N46WVu7pl71MaanPb3a2LbeCBjUMyt3S/d9Xa8W2jqNA+zaKfMD1b1qB5bGnB2xN38bOJrFAALIdlBDVa6e2s0ZCBGcE0gPUpPVZ7HjSoo/O/UjRrsJIhuc/bIFZuO4hm3di0GfEQ+6uRv1WZrirq48U250NtD2tEE9paJBIdb2VMH1Np4MrdJ2cAs1fSn2p91v1dfhjt6wIy8aO99si7B9twOHwbJXqgwXBLDaJTJWL6OrTe1htu/8Ke7LlHup2Pc6B72sbniYmvketVOeD538Oke1Tf/+2lH4tqmZx3Ebnlc6Ofvst75m116vdzu/vNRlO2WKzZiHgeYrS4PLBn5jrLGdMXpuWQmos+FukIsAACAASURBVBGMBsPOnPVwXOKHts54nqjUHdVRXF3QK12nuzBtWnZ6vK3v5rrB7zWFKsxaKs9u5W8Z22+ghd/O/9tWCnhkMGFDw5VvnC3zWYDs82mlXtpWG64gjOlZ7PX9Ods3Q8eyu5W0rV+3baGl0bavfd0w7rP/a0/2PldauVV1LWC7yA1MOw3RmBUdP1EXvykukouDkLYj36lMMj4LPslMHYNNWeNF0MguuTQXXGMgXbsjtAj81nFduNjT42XMpQnV0ztwed7YA2Mkdq4phnuBd6eOxbPs7w43F9uHkwOllX1arPPkaH/QZgtrq6+IUA8du4X3akPogEsgt24CNmRYAL/IEouBERW7vfhg+t3kV5KsMQm0oLkIojKPpCnwu0pGjnVPo4GCBAzYnFh9HgipCNbqBDbOvsGHanbLpZQBtgORfPCAyFwQrbs1AywHtcQSLfClf0dhppCAhRiJ5XJOIpKdsCAwR4BW3ByOuL85IqUbPD1+wunxCd9+fIvHx0e8efMGv/viC8zTLEHMM5WAolzMWfEKvZzRgmwbAnLPzLjg0GbJb34vhrwtUrA6udVh0ccNvqlwruvPOcwWJAqBZKeuu3yzEKO1iaA7dDOezmc8nc5KC7rTtQIrUEXNV44swlgFjB1hKkFbAhISpsOMm+MR8xSxrAvWRS/lDREBrIFdyVcVIc5NzoxPj2f88P0P+Ne/fIvvvn+LdTnjzRev8erVA+bDsThkmZNeIByQsl6cDEefBMgRurobvdA/dnY7OsoEWsFEpLscud4zUBwxz0esS0Sd9CPFY90F5XIZk86j0Rdvhb3NrcEUOHR1qHzfGqy5iDMvL/xYPQ3ZwpMZVCFGTHHSy3NtN3guODYn1p4bXnLIIE3un1MuR+eqU86FHgHZRTPFiASVX5pTWHYyVyc6kKRuyilhPWd8eDrhw6/vgfAD3r59i/nmBsfjEW8eXuOrr77CN3/8I77+6ivc3b/AdJhxmGbMhyPm46HaIDCe3DdeiqjTbdwE41k7hWPB9AzN2VOUN5gRAoNDDSywBqKRGDEFZE5KNwlxJayBIPf2qtwPpPdYGDzbxdYyLyy77zkwAAu8Q/PS5+aUD3NCTNK2XahtiwWWiicnC5zX4L/1B8hiqNE+aXA86kUzU5ywprUE+ZOmzcnZTh4wMk96ka7swj8eD6X9w+GAECOWJGmEUqKSVowJ5d4ARkBgLncdUAhILhd4uUg8iIJOIclJClJlrLpPTv/o/R4gcAASsuzytxMIyhuRWNP2aIAfGREZBzASMc7MWBhYM+llvADZPQAmjtUoYFuQZS45/Mtxyo2xXnUqN296TdrTsDNW7JlaahIvcO9ab943Un/FVvcV0+LCZWuyuKm2AFeZZCOoi65tgK0GSR3d27Puna/bW6L2vlkc39HrFhTp+zZav2S3DoPTPdzAto59b+88rM543tgdIWzbd3D79tp+xNgoT4ma330fDb4GY9ng27VFMbZjsXkynTgYUwO3H2sH26VS6MHB37fZtk3Nt+W5G3N9bmMUeiWiErhqAjnK81cF+Ew92hiZ60OqOrPk3S9B/lwcYbAspIbC36p7OOvFlW4TgE3jXqqQkS3T2FQoeu3asuFp3x1VKTZaUCw4VBvbNsf4etzRoNnTRgfk2zSe4hrgtuf9mDwteRpkbi+tNhr1dRo5gmpTAt0Co/epHAy7+PUyuWt/tPCArs2GP/b66XCxwfEQrCtofaeYfTmyhTd1sa2zH5C+/KwtqmOLX1wXmy8tPNq3dTrdnAx0xiXYhNW5meM+wD/0x3s5Ci+6n5+Prf+yha3lxx3ZMdxnikJPzTzrKSXfbnPC/Yo57YP7vv3huAZtPUdve+PZwMQ81DOeXuu7dsNX9eFoF7ZLMhSqe/Zo65oxjurt4fy3FCKqWfbsGXYsWMNXp5+v6WPb1JYGPmdcfd1+d/iQv5z+uYbWrpWZdsea2UomGzwef8v87MJIz2O/odG+zQHuq+1qFsmOnHQw2N/U496iC56/HO79BhUPa8XfdjwjH7uRW/1At39u3o363/um8Y2Amr6w4wS/0WS33w64spFkhOyBzCw2MLX+3l5/XXd7XWxgLKlsL/CLl0+lzk5n5fGAB32FJnZGKBloymZ5EjvAB+vFtpcNe4EZ/i4uIrMJqdA21DeYLM8xEZXjv6umUAGjyyctl55OVAkZkDq2qzqlhBimMriaIoQARJeypCEbpCSB71AclxYrZccXAUySGgJsuy0dcgSDhZGL0Ha7P62OH9uyLCWIRpiwYC1CLIes9wpETVskqS1iJKwlfQvj5YsHvLh7gfcffsWH9x/w6eNH/PLzO3z5hy/x+uEBL1++xKePH/H49ISUVoFZdyOXS0en6LebVYeoMZL1pu8QSiCNdfcqQG7Xvu2Uhi5ieIEk65B+icAuURYhVoPItlu6BC0gq5hyegJNsDlESV2Uc8ZyXnA6nfHp8REpiyMoqXNE0E01koh1XZFTFnyogJeA7IzEa0m1EWJAmAhhOmA+zkBgPJ2ecD6fAZZgsW0cs5MKU5gxxRkMwruff8bb797i7dtv8cv7XwBmzLMsFByOR0wKPySCWYy/UIxIFebBBH1NgeQdBdtl3Qt6uzzUkX7BKwF1l7LuWA7KW6ROfgiC2wJbZ+wVEItQkOetMlJ4ulQ90i+XRR82GvQKqrAPOZpsx0Qq4ZtUF64vWywrigyykzvl1JxaCZoTM3Eu6V+g9CZpUdzRdQLagF/dvTlNFsyUwC0FQqSo3xNonpoxZk6YpwkcNTf6LAtSgMjG8/tf8f5Xxq/v3uHtt3/B//g//wceHl7h4eEBD6/f4JuvvsHf/f0f8dU336i21HnwNOQjDNnGVRHIGsy3C5IJEiiHLnytOQEcMIVQ7vOIRMJDTHWHf2Y9dTUj5VXlzowDZ6R1xbqmctFtzhlrysUNKBfgujRfZuwwA9DTF7a4l9aMRG1aMVlIFVk7TZPk5E91p7rRup0Ms0t/bRG0pspJINId/az3BIAwE3B7ewdmxvm84Ol0Ai0rmGVupT+B83g4gFXWHA4H5Xc5DheXFedlVf1AkBOaXOhwXeW0UaRW6cdDUJizS80ESSlGhBDlXgMmrntfkwTYI+nxOlb9tgAxywXmS1rKomIgC0AKD0wAMq1IIBwycEoZZ2SsmLBSBCMgQfP42zUGIeiF3qEatsbLLG2LxuD6AnVHrwtXFd4alUZWwAzuyo99UN1Yw9+fYwEP6yN07ySwQdtgl+kn5sInIi91gdjp+7JwRLRp3wKwzAaj21Wu/Gnw18BMawja2LydtAkebuplh9dqy4QO160BCvd76yxbQK+fK4Op6HYyM3gLazv+1hGpv+8HKdv6oWnf309UeC0MDGrto+33ktPKDqdAr4taXGxzVsvvlaZG+LvU73NF9JXmgfXOkupqA6AEJFSU1w01bkOBviy6vvaydZpqJ65W3cUv/JRBzHXJ3l1GSYyygAKW4D6yOhiUdV1a7rxg6tJA2i+beeDyfhQ49s8voXbkUHm6bd4rni0Y0Gw+sNOSBq7RRHcyRH5iQKtKMy4VnQxb50MXv71DbbYUp+QY2u4+o+oHqNy2RTYazK8PwJZ3gZqx9fi2k3XtONqyh3vv55U2QqgpNE3W6PMyOsdbDRy5XoaqFXd6xua9x8HIYe9tcWYup2m9jdzjoQ++jHCyJyMqjbXF0wtbyjwiUJgKLM+LEiezG0WwndNWN3byvYO5vrf//fuxjGPOzQLSHh01OHi2RtPDcE5F97YyxfOcwVJ9V7uIyy2wmW2LFgf7oDgd630cVFr3/fqNcHDvsENjfgyNTnd0XWMBVXb33/f49Xhq6aB93tsU1rfnWUuBG8NWp5PD7bavbRFf+jLunyOn3rZqnhPKXWH2rPhUzg+xe/bcdY+7MmHUVw/vpW+9/L/UZrGBG9uk2oa9fCw7r41/zSwYwWqyydHXiH+p09HVpaWmqUtlVx7YGHZtqm1pbNEBDmxMm1SbqIsVQNVTGzuFWnufQnQ6KhR4N7aq0rG34QDU00TdmJr7OUO9F8BibUVuKVwZY53g54Fdnd6uLPJw0IrXUF7qk69vMqXQzQAYjHmd9J9RHKq0a22Xn4zGUXWwjM2Djne2mGjHZHRHLTz+TlrfVzOuSwTv8eSe9fa5tUOBnQ+scszSQGlgqNy3x4Dd61g2W4lxVefe0fRkFwlWp1dK1GBFdbxCJTaFTXZj1rzHAJzDWCdTDAtHsAPB3//foILqzn5mRspcVFK9SBaAE9bVSDThpf84JUXm7OhlHBLgElaadLf3mhgBhGXNACRPPOWsaVQiloVUmBBCWBGJcHd/j8PxiHVZ8OnTI95+9x0+PT7hizdvcDjMuL+7w/FwwLKc9aJFFOYnItlpqSXT1jhHSY9Sv+MYlTBN+EID5SZYAqDpd1gDiiV4VIxdzcUf9IQEozgjFhCxC0nEsLIASi556k2orsuK03nBeVmELijoSnrroIaoaWhixLouyCy5rIlZM0pnzb0v9DkdJhyORxxvbwDOWJYzzucT2FJGBdJ8/UCkiGk6IlDEujJ++fkXvP3uO3z3w/c4nU5IGtC7v7vD3d0dbo4HkF42DKBxxEK0VDuVzhWDyhds7AhGPbrYGpfGfFWg2uWxvTFQLpo1A9Hq6DzB5aS3UlrwBiiNAltKW42RbP2a3NsaJ73TY3zHLnATeliNfhyc1WiRRR5vEDaXTQfBV+QaGA/uIt3G2AiyE1oY2RanBM9yKQxrihqrDwTEqs0YKpgFXwRFRKKS21gWBFhXfglAwvn0iGU94dOHX/HjD9/h9u4W3/3lX/HP//JnfPG73+H29h4vXrzEw5vX+MMfvsR8OLjJcoZA1XCiCOF3Hstzdjsip6D8SAHQy3eFn2WHZQhyCTUFBjTVwpSnslCWUgKDMIeIWXGe1qT3Y2hKnDiLEVxkppNLOWMt8lXkcwxRLpPV+zQAWSTIlrMfVO5W8Cc1crmPQ4LSy7KAiDU1FiPngJxFqckO/YwYGcx6v4pesn08HgAinOmsMMjiXYwRmdcix5blLOnBcsJ0lLz88yxjzmnFwivsLKfk8mfEqe4ABpsylblKKWNducyT8LvweU6MhRNCFtMyBkmpQ7rDnHRHfVA8ljtQKCLqTnwKQRU9gyIhs54C4AUzFsxEWELUdD0TVpqQaEaiGafMWFnSNtFkR/zkonHj0XopkpNDBJjjZ6Ranf5ClE7WtDLikj1vvwjvWh/O4PHsULmktC9gUKkrxrMFH5z9UGwfOxlmTrG8tIAEo8oyMHdpHKyp7bPyZ+/AEm1g9t82dl9Tb7tA2SPOO85Dp6gsNld4Wb+rAQELPFADQ7WjtmVj2Hr9sBM879sy/QdW7glxU5fdHwZ3/Yw3dfri+7jGGPeXqQ3nVn8pgUxm2Mkpo8FamevzZ0of4Nkdi/FVCRiLzWswFSemGYabD2drF70JU3nVFoTRhwUF2E7HBknNoydwoc51BsCZQCTp2wgRjAyiSfFAA+cMJUgA99MHO0ZBySvQWRzrlpZr4KiqV7U9HFzB81HPA2QYDk0fBWbmhod737mSh8IS2g0VtU+qR8W6ZohIc6/WRcxRX6W/LmDB7cshbBsZ1pXng3Q1eN/IYIf7ZtwNL1eAqLNrNzJkQDMbWLbAbxoseHK2J7m6fo59Cb3dvcPvnpZBTQjV/attktqh6huhm8PLxfC7PdFrAcsCE+3ga8B/BvhGlugCjNW3scROBewG9C6M41LxQ2kXsao/aa2UHbcb/cn1RI4bg6fLPXprxtTTYIe/UVwjmx/rRjryq1zHDegett7G6mWFfW8yv8LjcNzYbS2NjEu7wB/spJx9YzD5xUuDb2BP+dLj9TlZ07/bC8bV4cliaHNhOlEdOUN0G7CRYaNFMeszdIu4m3JhHP2z2sf4fdFjfVvUPi882dfdQyWN+L7tnzodbsUkfuFHz0d+MIPxDAYnbfo414XqsPZZN5xSpWNCXYza4BUtPxsdbEqH06aObjY03bWJWXZzuLdYS6iLYQ2+QzcXQOWznTKa/76NS2WPvvxil2+kh4cc7r2c2INjn3/1O6p2qucjbzNJnLe2HZ7rE7VNy6405NEdnrB6I1o229lk9ea90WivX4CyGdugqzaA4VW/MxuLSFOzU9n4C7bU345aiTDFEJBZgvVy+aq8s8C/XXpbkVAVql1SaRcPNkE/rjvSZGJagmgEZ9gibItUF2AtzAvtw1Y+XCC1xzGhUI0/CmGpGAyROTNWJFFUepfAhAiw7DCPkwRdM3OJszNLAIiZMWmg6XA4Iq0LPnz4gA8fPuLp6YTT+Yzfv3mD+/s7HI9HEAWs66LBNrea5wh1kwaJICkYuO7C84H18gzqvNrvVBcJEtcLhy1A3y7kGMJE4MYQcc7nBr4afKxBR8NfzhlPT2cs6yLpl8jS7VSDsc697FKP0CB5SoiBoAm9kdOqY5Bg8OFwwM3tEcebIx4fP9WLKylIPyxH8igERA6Yw4TzkvHh1w94++1bfP/9D/j1/a+IM0m+bgC3Nze4ubmRVB3BmFCd50LzQj+yiKLzQZbrv/CT8qJ8Z7uDCk0qPrMdMWjw2e6Q8AGAnjvaHactn/R0QVQD/HISYLSYQOV30jlk195G6Je/jUYi3IDqCRSr6+izKGVtd9J7FUYGj+VaJ6XRghMKoImKImdA0pAwyukD2wmusk/zk3NJ8wLURZviDzDpIpdeMKqLA2UtlUjSwih92T0FKa94Wk94fPqAX34l/PTDj/inf/4zbm9v8erVA7743e/x9TffYDmfcP/iBaZpxmGWhap5PlQD2WS8mSFes5pMgOgkf/GtpUgQ9GYQyW6UDHa7+S3FTwTOKDxjMiaEIIH1KerO/hWBosqoFYCc8DIZYqcnGtkRJ0yKc6sXQgJzKHMeQeCoF+uynsSgKrstdRq53Q2c62mLNSWk1e7xkDmXYH4Q+TCTpocQ/RNCkKWdrI5WlguMmbPK3hmHwz2OxyOYGcv5JHIHtT6vqeBbjFmjd50gllNezFVXCeMDiXRRjUgdYQIQkYjAlixfuBPggEwMzsBhnpHBWJM1RSU1EXPWeisyJFXPiogzR5x5xRkzUgAWMxRywMJQLqipz4wzBM9qhGYXPHJy3gyUjWHWsK0zUneMrU15xvnxwUAzbkaOMVsdap9L2QagR0FpL4ufg9OPrw8GNd8PYO374N44Qhtgqvo8NN+PMOsDHf0zgiYucjqm2GG0nbvRePr294IU/TdNUNfruEF9OJz69r3NaHpkVJ4bT1MX2NCVh2fkaGfrH8Ym3jnYXtI8Kr0d5L93H8vPbt5t0RXMItab7v2inMODH493mGCndNjpZhQ7hv2+MTa6DKKhqH5DBMkvae1kQg0o6XPT5zZu7uwEq2n2AFGzS32Im774cVqbAxxvghaOn4YBmVh32Hnn/yIsTZcDW87hutDfhXbLzv0+gNnxTmM3Ug1glAUctJ97mih/u7Z7+2wk2zcnZHrc++8BkC5496/7tjd47sa2GUzfoPJJD7u9K/PidlCWd10fni6bvnYKAeV+J+mnm6ceJgKgG0suB8RGY+Whbb+FvQWjARbQjLdsoQYJKpjcYZUW1OK//J7zRR7ajKHB33N2gvuV4RbWBr5SJaYtD13gs5EOG9H9hjZ8HeaWx9XuKyefRv2N5I2rh+73Z3Hr64W6MOnzvbep3zs+6nBmciMU+mn1SmOneHtgT0cPbCmjr4bHL/Gas1/KDukRvQNlZ3XPG149eR3BYNG5ptsGMmWoX3pYe3lRgdvQX29DjGTscNb9tx0d+vY2/ff1/fPmXZEE+tjjIIzxvye/Ol5qxmY4oe1cjUrBj89w4eIiBV6DrSxAb+UBdIR8QT57bJgtU0HuaJ26nka4YM020c2djr6Ov8iKnXasi446iMb+wV5pYk8FU8aT276pIRVPRwavpoceyF+vhHpb3WpzN9QCF43nT/q2eXCnCfv3Zs3aVI2QYXwvANZn7r2nl2YMRgf2zNvaht9C+7KRum6i9vIzoNxrRSZ73QYdZzdKVyZnOnr6b//tv7IFZS2xvwxcdvBbgN8Ay3kFSBYAUlpczmNxbCztij2PcS5BtZpj2RvhLcv5oFFBDNec3HIZZ9TnshuzXvZb03UwUQkiAdBvgvofSsDUGpJEVOYmRsnXPcWI+TDJzxgRY9Dd+gFxCpjjhGmKCIEwT5MGSxmHacI8zZgPEx4fH/Hp0yd8/PgJd3dHvHktu3nv7+4AAKfTGScNLBXisvQ73AZsrVhKC8NZrxQIsquiBDOdoeZ32wdlRL+zO4S6s5+IdK4FlxIklQuJM3PzPTPj9PSEx8dHCRbqGM7nsy6ktAsRRIQ4xSKYJSVHAqcsu6o0XzYCYToccHN3i9v7O6Sc8eHTR8iCSsQ8zVjPZ+Q1AYkREBHDhEgTTucVP/7wE95++x2+//4nnM4nJF5xTk94Wp5AgfH1l1/ij//uj/jyD7+TCzcLXfiUUc4AsAC/EBqK8e4NKGqD7X4BxfPC0JmkbZBgL+Dgi7TbLqw1gaiB0uzrAPWOhP6bvSAOBW7GO2yzm/fRmDyvM3Ozu1+CzCgypgSDHQ/EGBAwAVlSs8RICFPAmrLs2A+1LdbLXaEOQtC0PX4BoIybAVO6thBnx/NY34FIlxBQc99DFleONze4vb3D/f09Xr/5Ar/7/e/xzVdf4u//4T/gy6+/arUZBbm4FnDqSOlGA9opJ71pHeokC0yx7EIR2hVFl0q+d3mkslXHaPjLuvPedAGzpCJb14ScZAcnhfb0RNY0SXWOdYe4o3kAcpfBumJdl7rIqDIo6btpmpBSxrIsYEDrr5Um2E4JCZ2si+1OAp5OZ1iqLNFRcipAdNAKRi4yzBalVzupkBL+/u//Hvf3L7CuCd999x1++fU9TueljNWnjbZLxO2n9Zd0l7y3y5hlsWFdtQGG3jcjC8TrUhfPAWBdFrkEWOW5BPht0QOq6M14Z+Q16ZgYOUxYmHBKwDlHnHjCghnrdIMVM84c8bgCWRgBMUw6Rxrgx9awZjvF4vi54oGbn8JH7THiZ4P7rvT1Nzyo/Y8uLa/17X9072jTTumPt4bwtQ6073sUHP6stnbgMDm3dzKycag7mEYwbO2dz3EDPq9canuDF94ulPT1Ru2NcNAuFqAY4iSVtt8Pnlt7va66tHDR61z/vIc9uGPf15TNPNPWLqgbb/IG3i2OvFCzH9zlyFfnDmZ/ozjv5rwR1VNH2XBZG6z2eHHE23F5FDh/qEyHsPXAyepxt8Nnvs1iX3dwbPiuxYAsrqlDN+p2bwwNnHtyYG8cl8bXd/jc872+fN1L3z5Hp5dknBv/cE5dGxvc7bV1Tb/YR2XTXuGL54f5m0oz/3s55K30suO6Luo483Aeh3L+GRoSuSW2QkP73XwOaf0aYPvCIkP6RZRLerUGwaiZx71hjmixPPay4Zqy09amzQrwmMZ2aPozTZCGzDjvjTOP8bmDvz3ZO5LTz30zwkX584JsHX1u79og27i++UhAK+ddKGzbfrF5nxnPMzLrM0y/i9/2+Lkk8j9Xhl2jZ4v53Dy3HdM9XOa1miXAGxhHZQj3BZ70c1Nsr0C7+AjqTznwYdAO4fF9PVcBn8+vfekD9L03YJ7NbjfPKrtB3aaDdu6rXYetgVTq9e0IlPJmzJvPjdO3ZD+bL0ZETu1G1N1FMfetf75Z3LmiPEffQ5lGbjwO1hA0O0FOiiux5S1HSMngIR0W/Ui6Y184rhsViUc/tQ6ANzB0T3unEAxAMwBCYFhgsdTRNoPlEeL2nQVELY+5R645C0SWd4xQLtKlmo826673ssO9jEsHr62q2VAEOhs8KvnrRdg1wEEseZMTixPDyGC9ADRmWWCIkeXyVyIgAYHtvgHCNAUsq/YYgPlwwIsYMR8OWNcV7z98wvn8L3j98Br3L17geDji/m5CSgnLKpd7Cv7cPiOFpUxeCHovgGMFN5c+SN8HXQ1nllvfntkcCR1EANnRRSzYNEFu8pwzI+WE9bzg8ekRj09PZa4CW2BbKodQ0/2YEKmBJmHAnOWSzADZQX17d4v5eARNEx4fn7CkFWlNCCFKCoy8AGsGEoOT3GPAOePx6SN+/PFn/PDDj/jpp3eSyodlhzOIESNhPsy4e3GH25ujpvPwTnulqRq8UiXCJpzYuK4KR7SlD6oMAxGOfveCHM8FOyqe64Wxe0GcPmg0WgiwAHavD7bBhlEu5bpo08PuYRu938OBb7fHZZ0jOcEhkVD5O6jyJ0I9FWB5zCiCwXKXhi4cUnRWIQHI9RSMza7oCq44CvVdIpQTBMwJ56dHLOcTPn74FT+/+wlvv/1X/OWfX+NPf/oT3nzxBne393jx8gUeXr/G3/3dHxGnQxHQVXKRLqbZ4gKJ3CIC6+78QNzSJPRHgMoPSUtkd38AKkd1HCFO5fecM8KyIIQVKSk9oc5ZTc3Gwk+NHK+71mShRhZA/Z0ncUraZyyLwiFkDW5D7gxYNW2O9remtczzpAcYTF7JAiTqXMPmX072zPOMZTljXSXPv8AivPzp0yNCiOUEzzRJSiAo2kSPkqFQ8W+BZr03hC0XP4oozpmRwHKPguJuZrlUPnGGrgUj5YxlWREmnRtNxRRYLk5OejGxYLbiduUoO7Q0JZnBN0Vg5oRTzliRsNKMmWQhesUk1/QykJiQlI6YNA2QM+aLFi06cit3Gr6tVCc/r7R6N0H3/neDx8nY0of1WJyL+q6VISar6k8f5O8A2sD3WcHqC2350thezoapc42i60G0GVMr+zr5TWNcUI+/Dr5rFyf2dFjz9+D73TaJyq7MDYw77ZVxUju3zXxRsVSGcO/C49omdQz6hRz/vPTv4OGujRY3IxRc0O+0hbnq6vFCfg9rr89rMA1iwoDKhdgm70BcZJfgUk5Eld1SBLnfOHbXfgAAIABJREFUw07YqV+gDVY5Ekgv6O13MfXypMcFO73i6nU7xtuAX0v/Zbxw8+RPDe/wf71orkzAkJ39MxkbGvq7WGiH5/ae+3F0z5/ra8+JLYswvWyXl8N3m++xU2cgg4m2Y6jy6VJfl09ZDI1V1DRcI57aBbXr53MXQgu/tckph3C3/NreA/Jc3+T+3fyq9moVSc62b/DvPiSTCwovahDBeLHVJa282YN0LGed348Ka4GGWhvfNoX4vu3bPR/Jd1sWejt9af7bRT3egN3pneH4qtxi5pJDfVNtwOfPwTH2/fwfnp72T2Abr3meatMEtvPtvzWc9Xc9VJ+o35W+gRjb1/u2Zf/OBuCl4rC+6iB51Lfh40ZbmV3oGx6fFeBCQ2RtMywA18/jZfkx1j8StyLdiAo0p8525OVYLLY8mxVOm9sSIhx9WxDUNKjjL4myG5gaGIc6fttRPw6znS7hUcVbsVe8PPL4sV98tMykwZ4+2UC4g/+/dSlw+64HduOuT/IZYDVjGNjeCFQOafaFsZX1zJJEmJQ3CFsZfC24he42tlyV2z385V0XU9rQD7f1K512sA10f2PrF/gH9G2ylx2N9eNVW9EyfQSy+LoF7wFAU5srjKx8Z/a36UkPgqWUZmZMzQtqnd5+zD44bxNXA8O51Cm7amMoHW+djhr0MKEI6OWRxtilbZRVDmsraR8xTpsJsX9FqWZk74w0cr86zfZtUFzZ35KioTrcKWRMzBIkcQqcSEyzGCMk57Wk71hzws3NEfPhgPlwwNPTE54eH/Hzr++xLAmn84I3r1/j9vYG8ywnAJZlkTYNb15hUoUdZQwStMo6B7KwEhtiKsRFKBdgFd1nc4QayPRGnxlB1BBShWs5n3E6nXA+n3E6n+VC3RAAt8Ma1peKVdaLU+ucGg3LhZuc5ULd480Rt7c3CNOMc0o4PT1hSZIyg0iYeVkTApOkWJHoIJ4+PeHndz/j27c/4NdffsXT4xM4MyjUIOg0BdzcHHB/f4/jzVHvA+gZWn76i3SBmt5Hkx4Uii5VuNJGnQFfHOILfsbirjcAn9v9f6n473cdyIbxNShgwT5XvxpAVSb0fXmjz7e/15//3V/Y1BhNzONLk8h2e0Pzlst9HWbEsMFohqwJYpZd2ok0eOpkOHUPjC0c9PrcHrrL8dyYclqR1jMeHz/il1/e4acfvsc//vlPON7c4NXLl3jzxRf4+ptvsJ5PuLl7gWk+4DAfcby5xeFwUDnHctlzCCWNUr3YjNHvEOMiY/WiZujiXqgBfmjgghkIsV7wJie3BE8xZ9kVVIx3qOy3HRNK986YMlZncEntE0Iu/JUSIaWMKQquFrurw3IwxgjMM5aySz0hRNv1Sojad+aMY5iwLks55QGWcUcKAEROTFMEc4TfuSpwRTw9nQAA9/d3sJMd86R3Y2SGndjJYGSuZiIzkPOKoHjJJHXNpl2RkJkQgtzjEigiECFxRmIgZUjbCVhXyAJTkPsfWNNpBWQEjroQmpEsZzZIjhELEQCr1J90MWICY8oZ53XFijMOYcYxHrEw48yMNQMLRxAH6FIq7Aigd4pMooVOVvWl0LvOz7WWZqPHuN3tvDW6zRmxrgwmb+C777mOQ5V6+Z46+BqnwL3r4euArzp6b3wDeMtYd2DZtDEwVDfvvK7mQd3Bs5EcbmAZtTMYl2sAl+b9WadIZftz+Ohh7X9uxvEc3NvGRacVsb+l0Qqyndzanlwbza993zsP1wV1yP0vhn6VRc/zZ7XjQnMqydcJLMF4FLhcSi+GLhZT5ScC5IIPlduByjy6hkUmh1jH7nyJ5+C+xk7y9YYBGQB1QlFlnSqzfh4Eyy21PGefjQNh+6XS08BhBcrzbXvXBxq8/bXLy+X5vpPb28XjcXTyxeah0Ov+GEbvNmMXYbs/D4Ng5rVj2Cv9t9fwq8cnl1CIUtTwu+ojjC6MvXaOZRPWCPYKDxE3NDcaS31nMLuLp91cVZ5zdji2OL48ZqvTnmjyfRTffDfPfwvT/hxtx9DDf03Zo7O2Dc/XjP25h6t3XXB/ZIs0ehy2kNrSj78H0euDZv66AL+3rTyMPqOC+PgWM+DNdwb3Hrxtf/V9++3Wf2x07YDWXW+wEFBDY1srcADffoBSfEP1LDVOQw72Hr5LdOnbrNfX+KCr0lCtWH4fybUedw0/gcuiBJHdSdFBZLBCM+81jUP15jadWEub5GAf4G7zrLXpC7xN+xjKCQd5821fz55k18clmMo7MDA4CfxvUS7aLU2dz9Nll/oqm6A7PVytzfZddl23dN3ypn3y+Xq3wtCe2q6LShtYS7+X5kn5ASM91sOw1f1bOYPtt8rDRe7oY13i3e8HNS4jd5bqx2SbbQBoSp+gAq3qaZ0Dt2kbRJhMUHjESDCovWTXigWU/M5byddfA4c5Z93lHiU9AfeTvk3jQDoYu3TV4LD3fYoZe+Yv5fCTYP9LHmloexKw6QVwGbODr8lpnzJWlgsTQyDwASLckBEQQHqr6zxNAALWNcuOJbW3np5OmKaEeZYc8sfDAQzg/S+/4MeffsSnjx/x5s1rvHp4wMsX97Lb9LzivJ4lsAO51KamJqqLKKwTSSEgmhLWXbDs3tv/BJLjBvqun4cQQ5l7EWtuwYYE35lzyXO/nM/48OED3r9/j2maMM0zpnnGsixl/pqdu7E6eSklEOTizZqaCQgzwIlxPBzw+s1rgIHzuuL0dMIUJ925n2XnKiRnOjJJup4Q8enjJ7z78Sf861/+gl9/eS/5xEMN0smCSEKcA47HA25vj5KaR/3lzX0G5AWh/EPC9c403xbjjb7UNsNmPhsBwmNndc9w2hpvrfD1RloPp9E8M0pq3L6PkZCWMdTFGn8qAKgB2+Zy35xL+p1Kf1WoeyOyBHSVRuz7/t6IGKPSkLQT9PJVQGjOFnV8Oq86F4TD4ah0L6lPjCanaQLbPRAB9aQS1EAMFgARYycjlwW0EEKTDivnLHdGaLD26ekRj4+f8OsvP+O7797iz//4Z/z3//6/4+XLV3j9+g1+97s/4N/9w7/H119/g5cvX4F1STHQ1Dg7pArAZD2pU5bU6ZNrJewy7/7Ek3wTiyLOhQ+niSu/p3oZbnORMiqfSPBZ7lVImtrH0wBzwjTNUEBgefPnecbHjx8LPQi/yq77aWZN4yPyZE1r0U85MwJHhHlCmiYs64rlfC44l/9ltnKWS7gPhwPsUnBm4HCIOJ1OeHp6wrouOJ/PINTLry0nPoCym8Gzj0//Yml85RmBdFGF9B6HAAbnLKmj1CHKEDl6Gw9IWQynEOQkkqBJL9UlQs5ycqPsKVLlT2y6TnapgDIiAXMAJiSsnJEJoGnCUwaeUsJCjHPOWHhCApCIkHQ85dSbyRF2To7j0ZGM+OxidKc04dusOG4Dd72w3ejzDSjU9tO1C9qOp4fvEuy7r/ecgJHD5GEajO85GDxuettmNE7/7GLp3lugh3feX4J3b173YPL6wf5uHci2zbKA273z7e/RkAOqSd1Y2rJ7ajCGyQcxRzq5aY/KP0Nd/Fwg1evw3lbZjHcQEKo2st23pOP1vnUZl40BKAvdrBshyvFXbYdzE4BoHf325B2Xtp6XG3u2lS+sBoT9rMNwdhMcf1mOWLXjXMNVwPOezbNhimF/zw+sBkT3vho+3w0UjfuoxsG4sK+7026xd5sAGbY4905w933Dz74PqhutRvOIbg73BzKGo1PYjY/4rN7q6cf5XXv4b2RjVgNrBMsAJnQBfipVBjJP/YPi4+3A5OdXAlXctD0qQpfyG+v89GPw/qXNl8mM/WCmH09uAu6jsTZji3URoJEtO3fTbGRr80cRfJU3dvRT/cR909Nz1+7msvtB8fRX5KwGnlJOw2+4+1na8g5BRpFj5GlP4ePuZ0Ph/aXKxlN9vWBtUFl58fRg43Ff7NIED/DfLDQQt3h0MHl5QTYmhx8i6tr1NuBYjvdwj2C1uWID2+jAwQaNn4z0UlMc75J9Y+M2KBQH0kw3pwM4HTdt9JvYb6x5711AsB3p1h6Dwe/g6ui70ID11evXbszlO8NrcIuJqHPR4KWbg7Ydl6assQ0vz+uzxW/FxmAOu/avatKPyRUG2nF1qZ97KOykx7adHTsSLV60Ydj+cdfZZu5dI/J9r8vNptrUf97OG8JK9g9LG/7UiNf1Pu7kh9DHKkhxWBi31THDQZbXvJFVxk2+cMMhUi/onY0K8FAWWjyQennKRusA672IG/hMB8LZNQRMgHcGLbCbHY90zqIKDB88sTfeobKgXp1rRoikOyKzygY1bGBM3SpNH8j3bVqg2Ocpz7kRLbUQNYg1tJQLXbjuBt4GSEWAZ9YAEWe5C1HHk1IAz4zMEURuESMzODJYU6XIHo4VmSWwGWNEDAG3d/dIy4LEGT+9+xmPT0/49Okl7u7ucDgccH+8x3JesKQFOdWczxLMcU5dEYikqUgslREPWHl/Vd0IxGA20WFzCkggMaWMdVmxLJIqB0w4Hm/AWVIbwdLtWBuOoH0g21Jz1MAzMIWIGGcc5ntMU0RKGZ8en5ByxjTPAAgpaZA+JUljQXIXQl4TPrz/gJ/fvcO7H3/Epw+/Iq+LDizIPCvbMEt7t3c3uL09ImrOj4xKh0UV6pBYaagJ8tqcC1EVOtvln2ccipFDPgoCVJxtnffeCC6LN45f/EKL/44qwzb9jRYGattbWK290YXAlW69wVT7YZNqpU35abRj90EQUVnkKzDaKQ7jCSfsiEJdxNDmQ6gXEH/8+BGnpyesacXtzRHHmwMOhxkE1js5JtlFDgit6852JtbAqvwj5CDpgXI2+1cGEYOszDanV8BIacXH9+/x6eNH/PLuHb7/7i3+6fhn/NM//glvfvd7PLx6jZevHvD6zRf48g9f4ebuFrPygwyzyjaGGDoBdrGurnwXmvaKwZ9sAGQnN2B3+BIlBA5I0Dz8ZiCzKrLMSGuSOzesTQA3xwPsIluTBdNUT2FN04Tz+ayLKBF3d3dYFgmwV7oGpihjyFngmmiS+7dzdniVNqYpAjnp7n7h03U5yymOQCW1EZE7xQJZPGUN+suYgwbrdccbCT6Zxa+x/NnlTgBNz8QZeoeBzGoIhDiJAR30nG12ckIWU+UkROSIZdU7Apj1UjZdMYhCxxmWpkmWegIDyKKfhJahY5O+AgGHEBByRuIVWB9xg4iAiIUTJp5w5oiFZ6yYsFJEYjnhkZ3sFp4dGMXOeKeOx/echkZFN7ZRLxer6VRt6+rgBNB2F471v+OwN5CMdN+ufBs/25p2zxdy/Xj5vLvA0AcQdkpvMF7S8Ze+b2DdccJMD25gpfGsX+rDno903B4cn9v+ZxWlaW+H9heI9kGdkR41J7V3LNuuaEMDHhf9eNjRN3ff77U/asvsSNO1Bh6D5Vi23pdUnLgyBttAYrZlE0aA7CB28Phc0Ob0qCNZA/6D8WFLz6Ox+bp7Nsr2exmwnT5jttMX5t76xRob2WUevYo8bc7cB7Wdz6Xb6+r/Fh66VJfM0UY/jtaO22vDvi/0NnRyx6dkrivb3bYenmIHi7E5pA1vt/d9FzvqOZi4nl0w0bE3HvN7zN/sd/D34/Dfl4Bi93zf37ju1EyFi1D9xT1/pLXf++eb+k52FVt5xKMN7OR0Czd1DGctL12WHe278Q7tRqboAMvPhsbH/s+It8fw+LGSIRLl1MRA1hjNjMdTU1LJ8yqTzdfZhxWwfaY1HrLTB9VNe40/sSN/93i6Pu9o0vc78Efbvox3ug+tjv0PNHFG6n6y2ZfaJOvL0Rjqzwp5QE8bAvue79yXEtuBJvby/Vn/iu7wXBynClkdmTaiO/YDLD63I2+cdduMyc13c0K26XsHlp2/FVD3jof1W2uj/tbQFULT/0UZYG1coV58qpo+rvLX6Fmb14v1DNIBLVocZajPPtMeJmzbIGAYmxfYByeJgIosrjCMPINL9NtTpdFFsdF6nDvcWDo0/6zMtU22k5FNOL6gWtos9oDWbNZ5irzp4DedUapI0L6EB32s2uOgpHk2eeXaaTKIGFzcfO/HbWVqDRaZFNIgjznTha+hBsWGjrYBTQuA9DuYmSS4WgUIa1/VefSBfE8E/tnoeR2HYz7XN7n38ncNkA8d+QKP/JVKm7KjN0YlOpZgTgh2CaQqi4IfhZMzMjOmzOBJcj7zNGFdFzw9PeHX9+/xdDrh4eEBr169wosX95gPM8JKWEkunTREB+2h3+FdcEN1FGakyPjla3AVbI2Joh4fuXETZJc8s+yuXZcVp9MZ59MiO1qIME9yv0Bi2elbYQnN3HijTS45RaGVKUqg7ng84nCYkTnj8fERT6cTKATMh4MEz3SVVlJYABEMpAVPunP/3U8/4cP790jLGeX4OAROLjTMmOcJd3c3ON4cJTjoAp0+EGq48M47Ci5dnWKs9cLfeOh5gftbHDGCpgxysMmcm5DaKsy+H7/wYsHp5+CtfbWnDzwcfud+TwcWWL7G0fK471P3yHtnsJFOO7Xjt537/dzkzDifF3z8+AmfPn1CZgm0prTifJbLe6dpwpymkm7GBGR2QYIQqOz0ZADItQ/O1QiVBYk2R4LsTs/I5xXL6YwP79+DmfH999/h9u4ed3f3eHj9Bl9+9RX+4e//AS8fHnB7d4/D4YjD8YCbmxvc3t0qHnRNXwV3Q9Nq4HnFRMx6skklQSBNgUUImWBBriJ7UeeOE2MlO32zggiIgXA4ziACzmeg3gQfOtqQ/ohQAvw2L54eQ5BTPsSEOE0ACOuyFEWfkiz4TjEgr4eGTk5gYF01wC+4TnpxLUiW8+I06eXeetqDO34PGrRX5zRGSXnE4HLBtNBRBiUNFjEhRkuJRKAsij2wLChnMCYil2oqgIiRVj1BoosXOUHSFVFA0JB2BstJAK5zJmsBtrjraU3ogVIC54RAcvl45IzAK0KOiJyxUELkCQsmJI7IsCB/oRJsSrEt3VFBbo8/NtW5M4a4+9aVxrGxn9zq8PZfr/erYiv8t4V+UIoFXwynq+r3T/fGJC8rzF4f7jhLzvi6EoZ+k0Jfd1t/bwzPl8t1xjDU0uoDQI58+80Bo2/6fgfzvoFvPB/Xw03NFLQw1Hc9zswZ2YO5L6MgSO9MdkDstmPfF9yiXbQwKMy+9aDb8X1zGETOhWIrN2MgQtmJyyZ36kIAW+PkA3RUcNMUaxJkIY4LfGitSfu8x7PDAITZON6XUdnV2UYNLdgYPsNGs8LuZ22fmh9/8/Ib4Lz6O2d79jsF92QHd23TYN76vy8HaAY7ILtohIlV9nPt2/R070XEqFtn71/CUSM5hgG0DgewxUD6PL2zEXfbHa3747imqBzuYdqD8YrnPHzs3w/42Wx893ujY8np92ZuLw30ed4zGArPbtoj7b6VEfbOxlIF7Eg+uf78LwMfrQ6r2wDW9Ovft7va90urmwrcBZ7tjlTvw40C4CUAad90Q/HPrdbejuMNiD0c1qLHgbysY2KT+6O2vY3Vw7I3Bhung83przrOClfVgHvjHNmqrS1nO5CH+tOVSh4Obk/Dzt7s57aH28PiYWPftMPZpp12NGOAvSzYoxV08qFrt4e5p9Vhd66PS4UIHlGDl1tY90qPp+fs5K6z2k6Rf/LcaPyvK60cITaIx76Eh73GHS0Q/5zNPR6//K3+P0o0Q1rUzeG97ifNa1X1qf6tP8vUUdUjheOboVEjM0sfxUex52ifN01Q1yjV+JQDxPtpdpdJjd+6DW5l7BqPQGejehx3v04S8KrINIUlA7WqoiyYq7NdVlScw4Dy3BDnHThu/vcBOiINOLPk1rf3lsYDkIsICTUtj6Xp8Oki+t282xQ/8q6kt+FmqhqYmG2vN1DykBK0Xca6JNkpqRid50lTzsjuVLlwcUVKCfM0A5jAHJCzPEt5As8HHKcZN8cb3Nzc4OnpCY+Pj/j222/x/v17vHnzBq9fvcLhMGOaJpxOJ929bClRBGa/w6zits6cL97W8ALGvrULLUOINcgWSdMtrTidTjidTshJ+knMJRUHkaXLyVjWFTEIbOu6Frxa2pKcE4imMl85ZyBKqpWCi6dHfHp6wvF4RIySSkNi+wzkjOP8f5d2tT2S3ET4Kbt7Zm+zIeGQiIgECPL//wwSIBQJRYJEgVxyL7ns7XTbLj6Uyy673T2zR0t7u9dtl8vlenPZLk+YnQMlxs9v3uKnVz/i1Q8/4PHxESHITt4QGSkFMDvQNAOcEFMEOeB8d8L9/T3O5xO8HxzlqYyxUdpFVkq6o7EcyDtJKXJNRuwiTb9g1ZdvlUFWeHn8bABcF2ZG7VlY9bSMzwHCGuBUHMqF1o08Zzn0EvS2F2EBNcCv465/W11g4VocR+kHbHn7ncCy7TzT23kCg/LpG02/lRCY4f1U6sYQcbkseHx8lPQsRDifziAQLpcLHj8sTXog72ecTmecz3Ips1xUnfP55wA/6QW7SJjnuaSEkVMTUnTOaaxCCJgmwedEDjwJDTV9VVgX/Px2xdvXr/Htt//G11//A3+5f8AnDw/41Wef4+XL3+C3X3yB3//xD/jTV1+VBbeiEzJv5OQ+DR+qBhDHKJnLorIse19Wuu3CSkox/9S2pmlCjJLcxXtfLrttTxkAYNHdIQR47/KO94R5ltM80zQBREiZBjL2lRf8NDWr4YJb1lPO4e7urkkVByL4sOaJCLLezPyVZIEmhCC7+ny9WFfxsvxbDC4RnCdM5KA7AtoAYg3qqdPFOXWTcw5riCBmkHdADIiBwSnry8kh5SQ5iSNAcocB8qU7CVQmXAzkzRIMooQYEjhF4deMbUqMiaSMXOxLYHIghHzaZYJHgseMQAkejICEQBOS80jIV6vn/lhHY/SMJnu3Ptec3D74ll8C2MdHylT9uKlvJq8jnTvS6SOd3L8b9v1gwr73rtfBe/V6J3k0Rkc0OsJ/z7+79tTFCzNdHtSvC4coju+z27gCX2wENmMg76vfO7LHo3b6tm6doPU27ta66iP1drL1b+V9o7OKfGxhMkwgJvvCBbYGRBn57iIqddwg2K96WucOKpcjOjYBc6sv7OQSblPX0qosInRyPaJvCyPjlPOpEayMteVtoGzUlw09D+VkzKdEWZ8/g79ukY+mDynhNu6Up0972tPPtqH49+9HeNs6dRx7vFH0xU39RD+2dWo+wseCrLiP+9bXhbHxQ9wGeNNo++MIbp5v8M520qH+Lx5JLdPTXuWjfkfh+aNHSGP7WvkBJrCzZxP3hq4d3x2lhDH9+/Yqj/aLctvyWzwyHKChT613m8zVOfQWtso1I9+Lt8Mzw/o3tH3kg4kN4KznzGZJo2/GNN7OdXVTnE0pW4mcF0tJSlaYx/0pNAdVPtixDZZOFt9qA7ZjZcc0GZnd242MsqvW2GWt0+i5Fgelj/ovDpaW3PCz2sayJDGIP6GUMDJbc38e9mPvKYsTlqbM5VRxE/3Mj2s2whn8zLiBU9nF33zrxrfBZc//s3p1YHusvVecqt2uu5vHsbBez7e4XLOOSu/CZwXWWB/t9XPTV3sy9Jo+BuRuJFu+0HjbJy3zHF+64ocypk2/bbnMy/0YqfvHzDlLykGfDuRb9z9qrFfLupx+zPooBW/FOaHBCc2YCY6Nme3bHviQG3006EdDC7S0BNAsdzjtj41x5XsVsztQx8Do3JIVh81JBcDcqVhxYtYUPd390sVJL53MjkF5rwJYJxJ2ElEvXsFmUmIJ0rxXpBMB5PJu2Jq/O8WUA/h5QSDjkFhTztHu4NS2q2BaG0WQdAbe1XJJJ6WlrjFcnL/LfcCFNiU3OOSYXLnMluTyRz956AGpGBKWtCCFgNVP8N7hNJ8wTTMulyeEEPDq1St8eHzEpw8PeHh4MPmjA+K6grnbycx5pS2nk7BB50bZNaxm6Vb7z1YgWAJZISQslxXrEsCdMtVdpVpLV6QkoKbjRiWtxTR5OAfEGEDMeHF3wv2Le8zzJKcD1ojEDvPpTugVRQAcUV448HCcsHx4wtPjI96+fo3H9++AtIJSBKcgl63mC4eEFhExySkKP3mczjNOd6d8pFGC1UVIuwmrrqLVyZ78lwhlN28x9CQ8yprKh1Fzzu48VpAt7fMIFKWpY9kotIFs9Y8G8beT/7Z97x2IPHTBbeREquOik/pqYbaGeSiH5RYhce7aTZvyjbVcB69eCpRzB2Y4qgzVMdLc8UgSaJcc+XkF2AsuIQQ8PV3ywlnC6XSWPhAQwwpOsaS8ijFiWRYAC6Y54MWaMM+hpCvwzsFPHvPk4Z0vu/kTi45iSGor1RcyKXHwfq5OEGXFrwqeJf0KZ6XuAMT1gjevL3j37g1++vEVfvjv9/j2u3/hm2/+ib//7a94cf9JzuH/Ob783Ze4/+Q+01kWIdisXJWJjBBWB6kMUeULuWekskvVv44caCbMpwnzaZL7V5zHNGsKKMMzAFJMiCkghBXeO3gvPB/CihhjTldDIPiyOOi84o6ykMRzKgsAmi8fzJhmj5RkgYABnGZJn7YsF9EHZBaOQwRHSZuWot6xIovNyaEsSKkclCkAy+5WN7ULyUSSOi2R6D2X72xgrgGymCLc5IyzmFnfnJCYTifEGIDEmuoUzgGOJeVTiEXbgB3BO4fJExYkLEsAw4Hzhb4EgneSFk7vHWAknCfAe8acAlZmrAhYscJruh6eEKJHgEOER6Kp5OK9xdHRPRxVb+4/6oxUP5z7AhsIVScc7vvKjlGbo7fBP8O+NUCrcBr4z3ysHj8qsw2a7NN9T+ceBfmH9Dho56Ofbvyu0e8aTT+G5orHEB7aQFgtPnD0zTc7qdvDaS/wUNveL9+XHS2wj3xp/Z5irPq8w8M5ZwWu2PI+gC7/Me+LzYXoZKD8bJ/qY1Y69e9h3ve81+oOnYvotxE9q5+u/nBGzk74Nnhseb7xjXJf+zJ9YLAALvrsQI4yTj0eR/gHg0XZAAAGP0lEQVQ8j+/tvGUfj4ZOXd1Cb0O/vo0e/73xqH618soBbQb6voe/7+cC4p+PU09sy+61dMy7Q34lktOQDTXH8teSqef5PVwHWJLr8GvhtjJj6x3z056cVLj1fT8H2eI+sudcxqqH3ePQ6il9v68nRvD2dLj+Vv1n9etz7eCovJ1vWxSaANSVZ3+YjsaV0I8Tq69p4ido+GBMxzZm0I91q49HOrLnlf47UOcJLdyWF7jjgRFvbuHD6K5WT9HgfdNfzqdRUTf3WPw2dphkU5lRcru0Ahq2BpDjWKDiOwMQeMXAjvtxqEs7nGt7dty6UlYutCS138Vn7u145bOxPbfy28Jr4k2d/B3PN2r/t3qh4jFq19LCnAPZ2DqVG+3jNfyOZLrvq8Bvx3BP9/Q2Y0/fjGzknu8yenTmJv3e9pFINvZqQLp+z1Q0+kerjdur/be6t+0fNanFStYRVj0GbPVXq6csfUVOW1nudYvF7yYbUPynrc6qRZQRK96tH9BqGGaWjXhZr2g7Lse9NLZsffP2EdpPABWcdqYoLdKCWYO0Bt5V2UnAtAbn7cTEBv/7SRJQV7pVuZT3JSDZTWZRmdDiZJm8b0MDW5UBKStzeSRtgmZjd4bAkPzEnHOAcw0CAcgpZzwYcuGrd5LLOYSYdT7nvPOS0z9RREwOIUac5hmnacZpngEAy3LBuq54//4XxBARQpCUPfMswe0TwDEhZlx6t7kP7tvfZghhBUnp1U/0NFgdQ0SMKe/UrbRkoOyU1jqywianAXQMimJ0JKfxwXAkAboXd3eY5wmJGZeL5M0G7OW7nFeLuVxYuTw94cP7n/H+7Rt8+OU9wnKRNBacTznoZEsXbJLsPmZinM8z7l7c4Xw+lSBtS5f6qEGTMcx9UatbDAgbmylugQb193TEnjJWeIU3aVt+O55117ZNi9PDLIHWfNGthVPGKbdpHZi9NvNfm299HxuZTVJHnU17GqcY0FTvAWmMszps+Xc1Cp3W1rJ68R/pOEoAN8aEZVlxWRYsawCYyoW5Kcnu8ul0wvlO5HVdF3BasYaEGFYsF4d1XQqCznvM84T5NGOeprzrnzBN6vzVU0qS1kf66x1yAL/Kh+x+l6A1xwhQXnwkKrvfL+sFy/KEy+UJb9+9wX++/w7T1yd8+uln+Czv7H/35zf49cuXON/d4XQ+51Q/D7sMSdlBLf4tTECXq0Fx5UQTyWkIkhzy0+SbO1KKcVIDqPYiifyrbiGicjLJez3RYy5mJlks4bx6X/Uo8qJABs0oufajsoSXFDkxxSZgTyR3AiBPkCMV90R4JanNMbv5WcPq0i17uVvJ6Z+7TJRz9jvO+rIueMqlx3Ws4WqAWxe3xbgksKu63SHfP5Igl+5myRNcCGkiSBfzTkaqJ0/AnGUtghNjmoCJGYEZEzMmTvCIcCkipBzgZ481p+0JBCTnweTqJKb8OwrIZL3RXOK11Q9b72KgQ/o6Rc9w1rVb3VP8B+YN1I+ZvF97ngtz18HmOr1jU+54knMM3zq6Izxvwf1aoHrveX5gclvftj8c5963kw/PwqfSIO/w+Qicr42VxcFU2oXTwxudaDtqz+pcOyltJlKbSQj1r1uaabVBUIRpzFsKkIuS04kWbfpf7E339+Y5eE+2LdP+qB2L0y582uq3pl5X9iqO6Po5wmFQd8S7u/ys34B6+/sAXmnLfj/ApeWFHc29g7vF65Zn6O/eCuf/1e+jsa0fK049HmKMDvE4xv12vId6rpfnHrc9ud4A7/jf6I9h2WfTmwBs5ynX5F37zPYddR1D7fsuT9J4s4K++xi7ZUsfBddsOw2+5t1H281NfzpZzWPVtN0C6MDR4G2d94MIvGNPruFX+HM7fEOeagJxBjeFs2sHKfeg17elPNX2FY4EQYQXSm7syq/N7mvo3FHhF6gtHqYfGxwVT+Vlq2MtH5d3yO7vdf+vqWO/D+xaKVt6hm2O+p5uz9TDe/qvl5lb/FLry0hsqfWR1M84hGP8nj38RvK5h8+1p8RE6ostSiNYh2S+Xe5ueRr/oTFnVPgmWZAqT9TS8lk4mbEi866JQxk9s7W9tP3RsoYXRujt6ZZbno1sGpjAjiwavEZ1AZSYo/xN5WXjv3e4Qxdm8uf/AWq+VPE+igOAAAAAAElFTkSuQmCC;" vertex="1" parent="1">
          <mxGeometry x="-830" y="190" width="1528" height="523" as="geometry" />
        </mxCell>
        <mxCell id="W9NqB_1yz0REtI6bM0Fb-3" value="" style="rounded=0;whiteSpace=wrap;html=1;fillColor=none;strokeColor=#FFFF00;strokeWidth=5;" vertex="1" parent="1">
          <mxGeometry x="-670" y="320" width="230" height="50" as="geometry" />
        </mxCell>
        <mxCell id="W9NqB_1yz0REtI6bM0Fb-4" value="" style="rounded=0;whiteSpace=wrap;html=1;fillColor=none;strokeColor=#FFFF00;strokeWidth=5;" vertex="1" parent="1">
          <mxGeometry x="110" y="320" width="230" height="50" as="geometry" />
        </mxCell>
      </root>
    </mxGraphModel>
  </diagram>
</mxfile>
